%TF.GenerationSoftware,KiCad,Pcbnew,8.0.4*%
%TF.CreationDate,2024-11-03T15:16:32+00:00*%
%TF.ProjectId,MKRZero_V5.0,4d4b525a-6572-46f5-9f56-352e302e6b69,rev?*%
%TF.SameCoordinates,Original*%
%TF.FileFunction,Copper,L4,Bot*%
%TF.FilePolarity,Positive*%
%FSLAX46Y46*%
G04 Gerber Fmt 4.6, Leading zero omitted, Abs format (unit mm)*
G04 Created by KiCad (PCBNEW 8.0.4) date 2024-11-03 15:16:32*
%MOMM*%
%LPD*%
G01*
G04 APERTURE LIST*
%TA.AperFunction,ComponentPad*%
%ADD10C,1.600000*%
%TD*%
%TA.AperFunction,ComponentPad*%
%ADD11O,1.800000X1.800000*%
%TD*%
%TA.AperFunction,ComponentPad*%
%ADD12C,1.800000*%
%TD*%
%TA.AperFunction,ComponentPad*%
%ADD13C,2.500000*%
%TD*%
%TA.AperFunction,ComponentPad*%
%ADD14C,1.879600*%
%TD*%
%TA.AperFunction,ComponentPad*%
%ADD15R,2.000000X2.000000*%
%TD*%
%TA.AperFunction,ComponentPad*%
%ADD16C,2.000000*%
%TD*%
%TA.AperFunction,ComponentPad*%
%ADD17R,3.200000X2.000000*%
%TD*%
%TA.AperFunction,ViaPad*%
%ADD18C,0.400000*%
%TD*%
G04 APERTURE END LIST*
D10*
%TO.P,J8,1,Sleeve*%
%TO.N,GND*%
X68677000Y-31836000D03*
%TO.P,J8,2,Tip*%
%TO.N,/PA05_AIN5*%
X69677000Y-36236000D03*
%TO.P,J8,3,Ring1*%
%TO.N,/PA06_AIN6*%
X73677000Y-36236000D03*
%TO.P,J8,4,Ring2*%
%TO.N,unconnected-(J8-Ring2-Pad4)*%
X76677000Y-36236000D03*
%TD*%
D11*
%TO.P,J7,1,Pin_1*%
%TO.N,+5V*%
X74549000Y-42418000D03*
%TO.P,J7,2,Pin_2*%
%TO.N,/PA22_TC4-W0*%
X74549000Y-44958000D03*
D12*
%TO.P,J7,3,Pin_3*%
%TO.N,GND*%
X74549000Y-47498000D03*
%TD*%
D13*
%TO.P,JMIDIOUT1,1*%
%TO.N,unconnected-(JMIDIOUT1-Pad1)*%
X67520000Y-11500000D03*
%TO.P,JMIDIOUT1,2*%
%TO.N,GND*%
X67520000Y-19000000D03*
%TO.P,JMIDIOUT1,3*%
%TO.N,unconnected-(JMIDIOUT1-Pad3)*%
X67520000Y-26500000D03*
%TO.P,JMIDIOUT1,4*%
%TO.N,Net-(JMIDIOUT1-Pad4)*%
X65020000Y-14000000D03*
%TO.P,JMIDIOUT1,5*%
%TO.N,Net-(JMIDIOUT1-Pad5)*%
X65020000Y-24000000D03*
%TO.P,JMIDIOUT1,NC1*%
%TO.N,N/C*%
X77420000Y-14000000D03*
X77420000Y-16500000D03*
%TO.P,JMIDIOUT1,NC2*%
X77420000Y-21500000D03*
X77420000Y-24000000D03*
%TD*%
%TO.P,JMIDIIN1,1*%
%TO.N,unconnected-(JMIDIIN1-Pad1)*%
X12400000Y-26500000D03*
%TO.P,JMIDIIN1,2*%
%TO.N,unconnected-(JMIDIIN1-Pad2)*%
X12400000Y-19000000D03*
%TO.P,JMIDIIN1,3*%
%TO.N,unconnected-(JMIDIIN1-Pad3)*%
X12400000Y-11500000D03*
%TO.P,JMIDIIN1,4*%
%TO.N,Net-(JMIDIIN1-Pad4)*%
X14900000Y-24000000D03*
%TO.P,JMIDIIN1,5*%
%TO.N,Net-(D4-A)*%
X14900000Y-14000000D03*
%TO.P,JMIDIIN1,NC1*%
%TO.N,N/C*%
X2500000Y-24000000D03*
X2500000Y-21500000D03*
%TO.P,JMIDIIN1,NC2*%
X2500000Y-16500000D03*
X2500000Y-14000000D03*
%TD*%
D14*
%TO.P,J6,1,Pin_1*%
%TO.N,GND*%
X58460000Y-27740000D03*
%TO.P,J6,2,Pin_2*%
%TO.N,+5V*%
X58460000Y-25200000D03*
%TO.P,J6,3,Pin_3*%
%TO.N,/PA17_S1_SCK*%
X58460000Y-22660000D03*
%TO.P,J6,4,Pin_4*%
%TO.N,/PA16_S1_MOSI*%
X58460000Y-20120000D03*
%TO.P,J6,5,Pin_5*%
%TO.N,/PA23_TC4-W1*%
X58460000Y-17580000D03*
%TO.P,J6,6,Pin_6*%
%TO.N,/PA10_TCC0-W2*%
X58460000Y-15040000D03*
%TO.P,J6,7,Pin_7*%
%TO.N,/PA20_TCC0-W6*%
X58460000Y-12500000D03*
%TO.P,J6,8,Pin_8*%
%TO.N,+5V*%
X58460000Y-9960000D03*
%TD*%
D15*
%TO.P,SW1,A,A*%
%TO.N,/PA21_TCC0-W7*%
X29500000Y-42400000D03*
D16*
%TO.P,SW1,B,B*%
%TO.N,/PA04_AIN4*%
X29500000Y-47400000D03*
%TO.P,SW1,C,C*%
%TO.N,GND*%
X29500000Y-44900000D03*
D17*
%TO.P,SW1,MP,MP*%
X22000000Y-50500000D03*
X22000000Y-39300000D03*
D16*
%TO.P,SW1,S1,S1*%
%TO.N,/PA11_TCC0-W3*%
X15000000Y-47400000D03*
%TO.P,SW1,S2,S2*%
%TO.N,GND*%
X15000000Y-42400000D03*
%TD*%
D15*
%TO.P,SW2,A,A*%
%TO.N,/PB10_TCC0-W4*%
X66000000Y-42500000D03*
D16*
%TO.P,SW2,B,B*%
%TO.N,/PA02_AIN0*%
X66000000Y-47500000D03*
%TO.P,SW2,C,C*%
%TO.N,GND*%
X66000000Y-45000000D03*
D17*
%TO.P,SW2,MP,MP*%
X58500000Y-50600000D03*
X58500000Y-39400000D03*
D16*
%TO.P,SW2,S1,S1*%
%TO.N,/PB02_AIN10*%
X51500000Y-47500000D03*
%TO.P,SW2,S2,S2*%
%TO.N,GND*%
X51500000Y-42500000D03*
%TD*%
D18*
%TO.N,GND*%
X24257000Y-13081000D03*
X41021000Y-6985000D03*
X21031200Y-20980400D03*
X38862000Y-8890000D03*
X50241200Y-31242000D03*
X48717200Y-27482800D03*
X43434000Y-1905000D03*
X27051000Y-9271000D03*
X25654000Y-3175000D03*
X27025600Y-23317200D03*
X45720000Y-9144000D03*
X19304000Y-48768000D03*
X79121000Y-36195000D03*
X50927000Y-22352000D03*
X15748000Y-15875000D03*
X54457600Y-30276800D03*
X52578000Y-27889200D03*
X52324000Y-14986000D03*
X34036000Y-9144000D03*
X36322000Y-43180000D03*
X18923000Y-9271000D03*
X50546000Y-25908000D03*
X59055000Y-29845000D03*
X8763000Y-57912000D03*
X13081000Y-38100000D03*
X32461200Y-22860000D03*
X41503600Y-18135600D03*
X30988000Y-6604000D03*
X42926000Y-14351000D03*
X24841200Y-20675600D03*
X50800000Y-52070000D03*
X31292800Y-31445200D03*
X24384000Y-31623000D03*
X79629000Y-53721000D03*
X48387000Y-9144000D03*
X78613000Y-8001000D03*
X51181000Y-20193000D03*
X33147000Y-6477000D03*
X35306000Y-38989000D03*
X34036000Y-28956000D03*
X53213000Y-12573000D03*
X45085000Y-33655000D03*
X48514000Y-14732000D03*
X46126400Y-23876000D03*
X52705000Y-9144000D03*
X14859000Y-45339000D03*
X56642000Y-11049000D03*
X22656800Y-22199600D03*
X31496000Y-4445000D03*
X60960000Y-11049000D03*
X1270000Y-50419000D03*
X11303000Y-33782000D03*
X15798800Y-27330400D03*
X37719000Y-38100000D03*
X38481000Y-33401000D03*
X22047200Y-21234400D03*
X34544000Y-50292000D03*
X51562000Y-45466000D03*
X22250400Y-23418800D03*
X47117000Y-18034000D03*
X49276000Y-46863000D03*
X67183000Y-43942000D03*
X35179000Y-7112000D03*
X56388000Y-59055000D03*
X38989000Y-40005000D03*
X30353000Y-11430000D03*
X51054000Y-29616400D03*
X49911000Y-3556000D03*
X37973000Y-889000D03*
X40894000Y-8890000D03*
X43180000Y-32131000D03*
X79375000Y-38989000D03*
X30607000Y-13843000D03*
X13208000Y-33782000D03*
X39116000Y-22225000D03*
X34417000Y-31623000D03*
X46685200Y-28244800D03*
X31191200Y-25603200D03*
X61849000Y-37211000D03*
X53086000Y-6477000D03*
X24638000Y-27686000D03*
X10541000Y-3556000D03*
X55753000Y-26035000D03*
X27940000Y-6477000D03*
X47625000Y-12827000D03*
X13843000Y-41021000D03*
X78867000Y-27432000D03*
X29514800Y-22098000D03*
X32816800Y-25552400D03*
X56769000Y-19812000D03*
X26416000Y-44577000D03*
X49657000Y-17907000D03*
X8001000Y-51435000D03*
X63500000Y-49657000D03*
X18237200Y-31953200D03*
X72898000Y-40005000D03*
X40767000Y-5080000D03*
X75692000Y-46355000D03*
X26924000Y-14986000D03*
X36322000Y-6477000D03*
X45085000Y-14732000D03*
X47625000Y-54356000D03*
X25273000Y-25273000D03*
X34290000Y-13970000D03*
X52476400Y-31699200D03*
X56388000Y-15113000D03*
X37211000Y-50292000D03*
X42722800Y-22199600D03*
X34290000Y-15621000D03*
X32258000Y-15494000D03*
X53086000Y-10668000D03*
X41148000Y-19812000D03*
X21844000Y-15367000D03*
X33782000Y-25501600D03*
X42164000Y-18923000D03*
X52705000Y-43942000D03*
X47625000Y-50038000D03*
X39751000Y-19812000D03*
X56134000Y-9017000D03*
X38227000Y-3302000D03*
X68580000Y-38735000D03*
X24257000Y-11303000D03*
X36576000Y-25450800D03*
X1397000Y-40894000D03*
X46228000Y-26212800D03*
X16383000Y-28702000D03*
X41275000Y-40386000D03*
X32258000Y-13843000D03*
X53213000Y-24384000D03*
X22047200Y-30276800D03*
X26568400Y-21844000D03*
X50038000Y-41275000D03*
X49911000Y-37973000D03*
X45974000Y-40132000D03*
X22301200Y-24790400D03*
X29006800Y-33375600D03*
X47091600Y-24790400D03*
X38862000Y-4953000D03*
X17653000Y-6096000D03*
X19405600Y-19202400D03*
X60960000Y-16383000D03*
X53340000Y-20193000D03*
X27051000Y-11303000D03*
X54864000Y-35306000D03*
X71882000Y-46863000D03*
X30353000Y-4826000D03*
X48361600Y-31750000D03*
X17780000Y-27305000D03*
X46609000Y-10668000D03*
X21844000Y-12827000D03*
X35052000Y-16637000D03*
X22225000Y-58928000D03*
X72136000Y-42672000D03*
X43688000Y-38227000D03*
X41275000Y-59055000D03*
X53467000Y-13970000D03*
X30607000Y-15494000D03*
X29972000Y-2667000D03*
X55753000Y-18161000D03*
X24257000Y-9271000D03*
X24638000Y-4826000D03*
X1143000Y-52197000D03*
X49276000Y-16002000D03*
X36449000Y-33401000D03*
X42037000Y-12827000D03*
X46482000Y-14732000D03*
X17018000Y-9271000D03*
X8001000Y-53721000D03*
X39116000Y-6604000D03*
X9144000Y-33782000D03*
X47371000Y-6350000D03*
X6985000Y-43561000D03*
X17780000Y-3175000D03*
X33782000Y-3556000D03*
X43561000Y-13843000D03*
X64897000Y-46101000D03*
X78613000Y-18669000D03*
X49403000Y-24638000D03*
X47498000Y-3048000D03*
X45212000Y-12446000D03*
X47294800Y-22606000D03*
X35052000Y-25450800D03*
X27432000Y-1778000D03*
X43561000Y-36068000D03*
X60960000Y-25146000D03*
X5715000Y-45466000D03*
X37896800Y-18186400D03*
X21082000Y-19507200D03*
X50927000Y-14859000D03*
X61087000Y-20066000D03*
X3048000Y-39624000D03*
X34671000Y-1651000D03*
X56515000Y-32893000D03*
X44831000Y-52070000D03*
X36322000Y-3556000D03*
X40005000Y-13589000D03*
X56515000Y-5842000D03*
X70485000Y-58801000D03*
X40640000Y-13589000D03*
X16891000Y-14859000D03*
X33782000Y-6096000D03*
X42291000Y-33401000D03*
X6604000Y-52578000D03*
X36449000Y-28956000D03*
X18796000Y-43180000D03*
X43942000Y-43307000D03*
X32385000Y-36322000D03*
X43383200Y-23063200D03*
X17018000Y-43307000D03*
X26797000Y-31496000D03*
X45847000Y-1778000D03*
X25146000Y-42926000D03*
X56515000Y-23876000D03*
X38201600Y-21488400D03*
X41300400Y-22250400D03*
X57531000Y-45720000D03*
X16814800Y-26365200D03*
X16510000Y-33782000D03*
X52578000Y-17907000D03*
X34671000Y-3429000D03*
X39751000Y-28829000D03*
X69723000Y-45212000D03*
X43992800Y-28143200D03*
X68580000Y-2032000D03*
X29464000Y-9271000D03*
X23571200Y-19456400D03*
X65913000Y-33401000D03*
X34036000Y-7493000D03*
X36449000Y-31750000D03*
X61468000Y-31877000D03*
X38481000Y-18669000D03*
X59309000Y-8382000D03*
X48412400Y-23571200D03*
X41148000Y-43180000D03*
X22148800Y-28295600D03*
X73406000Y-48641000D03*
X16383000Y-4699000D03*
X36703000Y-12700000D03*
X36677600Y-16103600D03*
X27178000Y-30124400D03*
X59563000Y-44196000D03*
X27178000Y-25095200D03*
X27736800Y-22504400D03*
X37719000Y-6350000D03*
X70358000Y-51816000D03*
X53467000Y-37846000D03*
X40640000Y-18923000D03*
X41910000Y-30226000D03*
X34417000Y-33401000D03*
X20929600Y-22352000D03*
X45059600Y-28448000D03*
X20320000Y-33629600D03*
%TO.N,+5V*%
X30320400Y-24908900D03*
%TO.N,+3V3*%
X42069000Y-2811000D03*
X33263700Y-37174300D03*
X33331500Y-14826900D03*
X18218100Y-44377100D03*
%TO.N,/USB_P*%
X38400000Y-13640300D03*
X34881000Y-9267000D03*
%TO.N,/USB_N*%
X39263200Y-14876400D03*
X37610700Y-10513600D03*
%TO.N,/PA18_USB_ID*%
X33247000Y-10497000D03*
X42298800Y-14947800D03*
%TO.N,/PA31_SWDIO*%
X29132500Y-18893800D03*
X32896800Y-21900000D03*
%TO.N,/PA13_S2_SCK*%
X819200Y-45255900D03*
X43877900Y-18474700D03*
%TO.N,/PA12_S2_MOSI*%
X43877600Y-19048700D03*
X826600Y-47364800D03*
%TO.N,/PA14_S2_NSS*%
X45961500Y-18308700D03*
X818200Y-48499500D03*
X71527700Y-44073800D03*
%TO.N,/PA27_CD*%
X11367700Y-51418100D03*
X35553000Y-18400000D03*
%TO.N,/PA15_S2_MISO*%
X835500Y-43150000D03*
X43658900Y-17452800D03*
%TO.N,/PA09_S0_I2C_SCL*%
X44028000Y-23646600D03*
X40489100Y-35199900D03*
%TO.N,/PA17_S1_SCK*%
X51986900Y-12074000D03*
%TO.N,/PA08_S0_I2C_SDA*%
X44461700Y-23355800D03*
X41369800Y-32317600D03*
%TO.N,/PA16_S1_MOSI*%
X52063100Y-12981600D03*
%TO.N,/PA22_TC4-W0*%
X40645800Y-17032400D03*
%TO.N,/RESETN*%
X31648000Y-18900000D03*
X31497400Y-8573000D03*
%TO.N,/PB23_S5_RX*%
X30698600Y-23543600D03*
X34290000Y-18034000D03*
%TO.N,/PB10_TCC0-W4*%
X45961600Y-20278200D03*
%TO.N,/PA10_TCC0-W2*%
X45961600Y-21778200D03*
%TO.N,/PA06_AIN6*%
X57922300Y-33851700D03*
%TO.N,/PA05_AIN5*%
X42811900Y-25376800D03*
%TO.N,/PA23_TC4-W1*%
X40005000Y-17028200D03*
%TO.N,/PA04_AIN4*%
X41625800Y-25357700D03*
%TO.N,/PA02_AIN0*%
X39516100Y-26032400D03*
%TO.N,/PA11_TCC0-W3*%
X43871400Y-21690700D03*
%TO.N,/PA07_AIN7*%
X43966600Y-24774100D03*
X41013900Y-35945100D03*
%TO.N,/PB02_AIN10*%
X37634100Y-22811700D03*
%TO.N,/PA21_TCC0-W7*%
X41151600Y-17183600D03*
%TO.N,/PB03_AIN11*%
X42535700Y-9576200D03*
X35938200Y-23362000D03*
%TO.N,/PA19_S1_MISO*%
X41673800Y-13970000D03*
X42779600Y-10921900D03*
%TD*%
%TA.AperFunction,Conductor*%
%TO.N,GND*%
G36*
X79002720Y-50738D02*
G01*
X79159437Y-64448D01*
X79170157Y-66339D01*
X79319465Y-106346D01*
X79329702Y-110072D01*
X79469792Y-175397D01*
X79479226Y-180844D01*
X79605849Y-269506D01*
X79614195Y-276509D01*
X79723490Y-385804D01*
X79730493Y-394150D01*
X79819155Y-520773D01*
X79824602Y-530207D01*
X79889927Y-670297D01*
X79893653Y-680535D01*
X79933659Y-829838D01*
X79935551Y-840567D01*
X79949262Y-997279D01*
X79949500Y-1002726D01*
X79949500Y-58997273D01*
X79949262Y-59002720D01*
X79935551Y-59159432D01*
X79933659Y-59170161D01*
X79893653Y-59319464D01*
X79889927Y-59329702D01*
X79824602Y-59469792D01*
X79819155Y-59479226D01*
X79730493Y-59605849D01*
X79723490Y-59614195D01*
X79614195Y-59723490D01*
X79605849Y-59730493D01*
X79479226Y-59819155D01*
X79469792Y-59824602D01*
X79329702Y-59889927D01*
X79319464Y-59893653D01*
X79170161Y-59933659D01*
X79159432Y-59935551D01*
X79002720Y-59949262D01*
X78997273Y-59949500D01*
X1002727Y-59949500D01*
X997280Y-59949262D01*
X840567Y-59935551D01*
X829838Y-59933659D01*
X680535Y-59893653D01*
X670297Y-59889927D01*
X530207Y-59824602D01*
X520773Y-59819155D01*
X394150Y-59730493D01*
X385804Y-59723490D01*
X276509Y-59614195D01*
X269506Y-59605849D01*
X180844Y-59479226D01*
X175397Y-59469792D01*
X110072Y-59329702D01*
X106346Y-59319464D01*
X66340Y-59170161D01*
X64448Y-59159432D01*
X50738Y-59002720D01*
X50500Y-58997273D01*
X50500Y-56381984D01*
X1699500Y-56381984D01*
X1699500Y-56618015D01*
X1730307Y-56852017D01*
X1730307Y-56852018D01*
X1791388Y-57079976D01*
X1791392Y-57079987D01*
X1791394Y-57079993D01*
X1839470Y-57196059D01*
X1881713Y-57298043D01*
X1881716Y-57298049D01*
X1999727Y-57502450D01*
X2143408Y-57689699D01*
X2310301Y-57856592D01*
X2497550Y-58000273D01*
X2701951Y-58118284D01*
X2920007Y-58208606D01*
X2920017Y-58208608D01*
X2920023Y-58208611D01*
X3147982Y-58269692D01*
X3147986Y-58269693D01*
X3381989Y-58300500D01*
X3381995Y-58300500D01*
X3618005Y-58300500D01*
X3618011Y-58300500D01*
X3852014Y-58269693D01*
X3852018Y-58269692D01*
X4079976Y-58208611D01*
X4079979Y-58208609D01*
X4079993Y-58208606D01*
X4298049Y-58118284D01*
X4502450Y-58000273D01*
X4689699Y-57856592D01*
X4856592Y-57689699D01*
X5000273Y-57502450D01*
X5118284Y-57298049D01*
X5208606Y-57079993D01*
X5269693Y-56852014D01*
X5300500Y-56618011D01*
X5300500Y-56381989D01*
X5300499Y-56381984D01*
X74699500Y-56381984D01*
X74699500Y-56618015D01*
X74730307Y-56852017D01*
X74730307Y-56852018D01*
X74791388Y-57079976D01*
X74791392Y-57079987D01*
X74791394Y-57079993D01*
X74839470Y-57196059D01*
X74881713Y-57298043D01*
X74881716Y-57298049D01*
X74999727Y-57502450D01*
X75143408Y-57689699D01*
X75310301Y-57856592D01*
X75497550Y-58000273D01*
X75701951Y-58118284D01*
X75920007Y-58208606D01*
X75920017Y-58208608D01*
X75920023Y-58208611D01*
X76147982Y-58269692D01*
X76147986Y-58269693D01*
X76381989Y-58300500D01*
X76381995Y-58300500D01*
X76618005Y-58300500D01*
X76618011Y-58300500D01*
X76852014Y-58269693D01*
X76852018Y-58269692D01*
X77079976Y-58208611D01*
X77079979Y-58208609D01*
X77079993Y-58208606D01*
X77298049Y-58118284D01*
X77502450Y-58000273D01*
X77689699Y-57856592D01*
X77856592Y-57689699D01*
X78000273Y-57502450D01*
X78118284Y-57298049D01*
X78208606Y-57079993D01*
X78269693Y-56852014D01*
X78300500Y-56618011D01*
X78300500Y-56381989D01*
X78269693Y-56147986D01*
X78269692Y-56147981D01*
X78208611Y-55920023D01*
X78208608Y-55920017D01*
X78208606Y-55920007D01*
X78118284Y-55701951D01*
X78000273Y-55497550D01*
X77856592Y-55310301D01*
X77689699Y-55143408D01*
X77689695Y-55143405D01*
X77689693Y-55143403D01*
X77502447Y-54999725D01*
X77298055Y-54881719D01*
X77298043Y-54881713D01*
X77196059Y-54839470D01*
X77079993Y-54791394D01*
X77079987Y-54791392D01*
X77079976Y-54791388D01*
X76852017Y-54730307D01*
X76618015Y-54699500D01*
X76618011Y-54699500D01*
X76381989Y-54699500D01*
X76381984Y-54699500D01*
X76147982Y-54730307D01*
X76147981Y-54730307D01*
X75920023Y-54791388D01*
X75920008Y-54791393D01*
X75920007Y-54791394D01*
X75920005Y-54791395D01*
X75701956Y-54881713D01*
X75701944Y-54881719D01*
X75497552Y-54999725D01*
X75310306Y-55143403D01*
X75310296Y-55143412D01*
X75143412Y-55310296D01*
X75143403Y-55310306D01*
X74999725Y-55497552D01*
X74881719Y-55701944D01*
X74881713Y-55701956D01*
X74791395Y-55920005D01*
X74791388Y-55920023D01*
X74730307Y-56147981D01*
X74730307Y-56147982D01*
X74699500Y-56381984D01*
X5300499Y-56381984D01*
X5269693Y-56147986D01*
X5269692Y-56147981D01*
X5208611Y-55920023D01*
X5208608Y-55920017D01*
X5208606Y-55920007D01*
X5118284Y-55701951D01*
X5000273Y-55497550D01*
X4856592Y-55310301D01*
X4689699Y-55143408D01*
X4689695Y-55143405D01*
X4689693Y-55143403D01*
X4502447Y-54999725D01*
X4298055Y-54881719D01*
X4298043Y-54881713D01*
X4196059Y-54839470D01*
X4079993Y-54791394D01*
X4079987Y-54791392D01*
X4079976Y-54791388D01*
X3852017Y-54730307D01*
X3618015Y-54699500D01*
X3618011Y-54699500D01*
X3381989Y-54699500D01*
X3381984Y-54699500D01*
X3147982Y-54730307D01*
X3147981Y-54730307D01*
X2920023Y-54791388D01*
X2920008Y-54791393D01*
X2920007Y-54791394D01*
X2920005Y-54791395D01*
X2701956Y-54881713D01*
X2701944Y-54881719D01*
X2497552Y-54999725D01*
X2310306Y-55143403D01*
X2310296Y-55143412D01*
X2143412Y-55310296D01*
X2143403Y-55310306D01*
X1999725Y-55497552D01*
X1881719Y-55701944D01*
X1881713Y-55701956D01*
X1791395Y-55920005D01*
X1791388Y-55920023D01*
X1730307Y-56147981D01*
X1730307Y-56147982D01*
X1699500Y-56381984D01*
X50500Y-56381984D01*
X50500Y-53410193D01*
X50498Y-53410185D01*
X21095Y-53300450D01*
X21094Y-53300447D01*
X-35715Y-53202051D01*
X-35718Y-53202047D01*
X-116047Y-53121718D01*
X-116051Y-53121715D01*
X-214447Y-53064905D01*
X-214450Y-53064904D01*
X-324185Y-53035501D01*
X-324191Y-53035500D01*
X-324192Y-53035500D01*
X-324193Y-53035500D01*
X-1011907Y-53035500D01*
X-1020062Y-53034965D01*
X-1093382Y-53025312D01*
X-1109142Y-53021090D01*
X-1173645Y-52994372D01*
X-1187775Y-52986215D01*
X-1243171Y-52943708D01*
X-1254708Y-52932171D01*
X-1297215Y-52876775D01*
X-1305372Y-52862645D01*
X-1332090Y-52798142D01*
X-1336313Y-52782381D01*
X-1345965Y-52709063D01*
X-1346500Y-52700906D01*
X-1346500Y-51991157D01*
X34923500Y-51991157D01*
X34923500Y-52148842D01*
X34954262Y-52303495D01*
X35014606Y-52449180D01*
X35102210Y-52580288D01*
X35213711Y-52691789D01*
X35344819Y-52779393D01*
X35344820Y-52779393D01*
X35344821Y-52779394D01*
X35490503Y-52839737D01*
X35645158Y-52870500D01*
X35802842Y-52870500D01*
X35957497Y-52839737D01*
X36103179Y-52779394D01*
X36234289Y-52691789D01*
X36345789Y-52580289D01*
X36433394Y-52449179D01*
X36493737Y-52303497D01*
X36524500Y-52148842D01*
X36524500Y-51991158D01*
X36524500Y-51991157D01*
X42423500Y-51991157D01*
X42423500Y-52148842D01*
X42454262Y-52303495D01*
X42514606Y-52449180D01*
X42602210Y-52580288D01*
X42713711Y-52691789D01*
X42844819Y-52779393D01*
X42844820Y-52779393D01*
X42844821Y-52779394D01*
X42990503Y-52839737D01*
X43145158Y-52870500D01*
X43302842Y-52870500D01*
X43457497Y-52839737D01*
X43603179Y-52779394D01*
X43734289Y-52691789D01*
X43845789Y-52580289D01*
X43933394Y-52449179D01*
X43993737Y-52303497D01*
X44024500Y-52148842D01*
X44024500Y-51991158D01*
X43993737Y-51836503D01*
X43933394Y-51690821D01*
X43927737Y-51682355D01*
X43845789Y-51559711D01*
X43734288Y-51448210D01*
X43603180Y-51360606D01*
X43457495Y-51300262D01*
X43302842Y-51269500D01*
X43145158Y-51269500D01*
X42990504Y-51300262D01*
X42844819Y-51360606D01*
X42713711Y-51448210D01*
X42602210Y-51559711D01*
X42514606Y-51690819D01*
X42454262Y-51836504D01*
X42423500Y-51991157D01*
X36524500Y-51991157D01*
X36493737Y-51836503D01*
X36433394Y-51690821D01*
X36427737Y-51682355D01*
X36345789Y-51559711D01*
X36234288Y-51448210D01*
X36103180Y-51360606D01*
X35957495Y-51300262D01*
X35802842Y-51269500D01*
X35645158Y-51269500D01*
X35490504Y-51300262D01*
X35344819Y-51360606D01*
X35213711Y-51448210D01*
X35102210Y-51559711D01*
X35014606Y-51690819D01*
X34954262Y-51836504D01*
X34923500Y-51991157D01*
X-1346500Y-51991157D01*
X-1346500Y-51418097D01*
X11062564Y-51418097D01*
X11062564Y-51418100D01*
X11080966Y-51522463D01*
X11108878Y-51570808D01*
X11133952Y-51614238D01*
X11215130Y-51682355D01*
X11215131Y-51682355D01*
X11215132Y-51682356D01*
X11314714Y-51718600D01*
X11314717Y-51718600D01*
X11420683Y-51718600D01*
X11420686Y-51718600D01*
X11520268Y-51682356D01*
X11601448Y-51614238D01*
X11654434Y-51522463D01*
X11672836Y-51418100D01*
X11672836Y-51418097D01*
X11654434Y-51313739D01*
X11654434Y-51313737D01*
X11601448Y-51221962D01*
X11600514Y-51221178D01*
X11520269Y-51153844D01*
X11520266Y-51153843D01*
X11420688Y-51117600D01*
X11420686Y-51117600D01*
X11314714Y-51117600D01*
X11314711Y-51117600D01*
X11215133Y-51153843D01*
X11215130Y-51153844D01*
X11133952Y-51221961D01*
X11080965Y-51313739D01*
X11062564Y-51418097D01*
X-1346500Y-51418097D01*
X-1346500Y-49454611D01*
X20096000Y-49454611D01*
X20096000Y-50348000D01*
X20615541Y-50348000D01*
X20600000Y-50426131D01*
X20600000Y-50573869D01*
X20615541Y-50652000D01*
X20096001Y-50652000D01*
X20096001Y-51545388D01*
X20098949Y-51570807D01*
X20098949Y-51570808D01*
X20144857Y-51674778D01*
X20225221Y-51755142D01*
X20329194Y-51801051D01*
X20354611Y-51803999D01*
X21848000Y-51803999D01*
X21848000Y-51250000D01*
X22152000Y-51250000D01*
X22152000Y-51803999D01*
X23645388Y-51803999D01*
X23670807Y-51801050D01*
X23670808Y-51801050D01*
X23774778Y-51755142D01*
X23855142Y-51674778D01*
X23901051Y-51570805D01*
X23904000Y-51545388D01*
X23904000Y-50652000D01*
X23384459Y-50652000D01*
X23400000Y-50573869D01*
X23400000Y-50426131D01*
X23384459Y-50348000D01*
X23903999Y-50348000D01*
X23903999Y-49554611D01*
X56596000Y-49554611D01*
X56596000Y-50448000D01*
X57115541Y-50448000D01*
X57100000Y-50526131D01*
X57100000Y-50673869D01*
X57115541Y-50752000D01*
X56596001Y-50752000D01*
X56596001Y-51645388D01*
X56598949Y-51670807D01*
X56598949Y-51670808D01*
X56644857Y-51774778D01*
X56725221Y-51855142D01*
X56829194Y-51901051D01*
X56854611Y-51903999D01*
X58348000Y-51903999D01*
X58348000Y-51350000D01*
X58652000Y-51350000D01*
X58652000Y-51903999D01*
X60145388Y-51903999D01*
X60170807Y-51901050D01*
X60170808Y-51901050D01*
X60274778Y-51855142D01*
X60355142Y-51774778D01*
X60401051Y-51670805D01*
X60404000Y-51645388D01*
X60404000Y-50752000D01*
X59884459Y-50752000D01*
X59900000Y-50673869D01*
X59900000Y-50526131D01*
X59884459Y-50448000D01*
X60403999Y-50448000D01*
X60403999Y-49554611D01*
X60401050Y-49529192D01*
X60401050Y-49529191D01*
X60355142Y-49425221D01*
X60274778Y-49344857D01*
X60170805Y-49298948D01*
X60145389Y-49296000D01*
X58652000Y-49296000D01*
X58652000Y-49850000D01*
X58348000Y-49850000D01*
X58348000Y-49296000D01*
X56854611Y-49296000D01*
X56829192Y-49298949D01*
X56829191Y-49298949D01*
X56725221Y-49344857D01*
X56644857Y-49425221D01*
X56598948Y-49529194D01*
X56596000Y-49554611D01*
X23903999Y-49554611D01*
X23903999Y-49454611D01*
X23901050Y-49429192D01*
X23901050Y-49429191D01*
X23855142Y-49325221D01*
X23774778Y-49244857D01*
X23670805Y-49198948D01*
X23645389Y-49196000D01*
X22152000Y-49196000D01*
X22152000Y-49750000D01*
X21848000Y-49750000D01*
X21848000Y-49196000D01*
X20354611Y-49196000D01*
X20329192Y-49198949D01*
X20329191Y-49198949D01*
X20225221Y-49244857D01*
X20144857Y-49325221D01*
X20098948Y-49429194D01*
X20096000Y-49454611D01*
X-1346500Y-49454611D01*
X-1346500Y-48499497D01*
X513064Y-48499497D01*
X513064Y-48499502D01*
X530872Y-48600499D01*
X531466Y-48603863D01*
X584452Y-48695638D01*
X665630Y-48763755D01*
X665631Y-48763755D01*
X665632Y-48763756D01*
X765214Y-48800000D01*
X765217Y-48800000D01*
X871183Y-48800000D01*
X871186Y-48800000D01*
X970768Y-48763756D01*
X1051948Y-48695638D01*
X1104934Y-48603863D01*
X1123336Y-48499500D01*
X1123336Y-48499497D01*
X1104934Y-48395139D01*
X1104934Y-48395137D01*
X1051948Y-48303362D01*
X1051947Y-48303361D01*
X970769Y-48235244D01*
X970766Y-48235243D01*
X871188Y-48199000D01*
X871186Y-48199000D01*
X765214Y-48199000D01*
X765211Y-48199000D01*
X665633Y-48235243D01*
X665630Y-48235244D01*
X584452Y-48303361D01*
X531465Y-48395139D01*
X513064Y-48499497D01*
X-1346500Y-48499497D01*
X-1346500Y-47364797D01*
X521464Y-47364797D01*
X521464Y-47364802D01*
X527670Y-47400000D01*
X539866Y-47469163D01*
X586919Y-47550661D01*
X592852Y-47560938D01*
X674030Y-47629055D01*
X674031Y-47629055D01*
X674032Y-47629056D01*
X773614Y-47665300D01*
X773617Y-47665300D01*
X879583Y-47665300D01*
X879586Y-47665300D01*
X979168Y-47629056D01*
X1060348Y-47560938D01*
X1113334Y-47469163D01*
X1125530Y-47399996D01*
X13894785Y-47399996D01*
X13894785Y-47400003D01*
X13913601Y-47603075D01*
X13913603Y-47603086D01*
X13969418Y-47799250D01*
X14060327Y-47981821D01*
X14060328Y-47981822D01*
X14060330Y-47981826D01*
X14183227Y-48144569D01*
X14183232Y-48144574D01*
X14183236Y-48144579D01*
X14282561Y-48235126D01*
X14333954Y-48281977D01*
X14333955Y-48281978D01*
X14333959Y-48281981D01*
X14507363Y-48389348D01*
X14697544Y-48463024D01*
X14898024Y-48500500D01*
X14898027Y-48500500D01*
X15101973Y-48500500D01*
X15101976Y-48500500D01*
X15302456Y-48463024D01*
X15492637Y-48389348D01*
X15666041Y-48281981D01*
X15816764Y-48144579D01*
X15864158Y-48081820D01*
X15939669Y-47981826D01*
X15939668Y-47981826D01*
X15939673Y-47981821D01*
X16030582Y-47799250D01*
X16086397Y-47603083D01*
X16096134Y-47498000D01*
X16105215Y-47400003D01*
X16105215Y-47399996D01*
X16086398Y-47196924D01*
X16086396Y-47196913D01*
X16059035Y-47100750D01*
X16030582Y-47000750D01*
X15939673Y-46818179D01*
X15939670Y-46818175D01*
X15939669Y-46818173D01*
X15816772Y-46655430D01*
X15816767Y-46655425D01*
X15816764Y-46655421D01*
X15693689Y-46543223D01*
X15666045Y-46518022D01*
X15666042Y-46518020D01*
X15666041Y-46518019D01*
X15492637Y-46410652D01*
X15492635Y-46410651D01*
X15437356Y-46389236D01*
X15302456Y-46336976D01*
X15302453Y-46336975D01*
X15302452Y-46336975D01*
X15101980Y-46299500D01*
X15101976Y-46299500D01*
X14898024Y-46299500D01*
X14898019Y-46299500D01*
X14697547Y-46336975D01*
X14507364Y-46410651D01*
X14333954Y-46518022D01*
X14183234Y-46655423D01*
X14183227Y-46655430D01*
X14060330Y-46818173D01*
X14060327Y-46818179D01*
X13969418Y-47000749D01*
X13913603Y-47196913D01*
X13913601Y-47196924D01*
X13894785Y-47399996D01*
X1125530Y-47399996D01*
X1131736Y-47364800D01*
X1131736Y-47364797D01*
X1119766Y-47296913D01*
X1113334Y-47260437D01*
X1060348Y-47168662D01*
X1060347Y-47168661D01*
X979169Y-47100544D01*
X979166Y-47100543D01*
X879588Y-47064300D01*
X879586Y-47064300D01*
X773614Y-47064300D01*
X773611Y-47064300D01*
X674033Y-47100543D01*
X674030Y-47100544D01*
X592852Y-47168661D01*
X539865Y-47260439D01*
X521464Y-47364797D01*
X-1346500Y-47364797D01*
X-1346500Y-45255897D01*
X514064Y-45255897D01*
X514064Y-45255902D01*
X530248Y-45347687D01*
X532466Y-45360263D01*
X582940Y-45447687D01*
X585452Y-45452038D01*
X666630Y-45520155D01*
X666631Y-45520155D01*
X666632Y-45520156D01*
X766214Y-45556400D01*
X766217Y-45556400D01*
X872183Y-45556400D01*
X872186Y-45556400D01*
X971768Y-45520156D01*
X1052948Y-45452038D01*
X1105934Y-45360263D01*
X1124336Y-45255900D01*
X1124336Y-45255897D01*
X1113244Y-45192993D01*
X1105934Y-45151537D01*
X1052948Y-45059762D01*
X1052947Y-45059761D01*
X971769Y-44991644D01*
X971766Y-44991643D01*
X872188Y-44955400D01*
X872186Y-44955400D01*
X766214Y-44955400D01*
X766211Y-44955400D01*
X666633Y-44991643D01*
X666630Y-44991644D01*
X585452Y-45059761D01*
X532465Y-45151539D01*
X514064Y-45255897D01*
X-1346500Y-45255897D01*
X-1346500Y-44899997D01*
X28191019Y-44899997D01*
X28191019Y-44900002D01*
X28210904Y-45127298D01*
X28210907Y-45127314D01*
X28269956Y-45347687D01*
X28269962Y-45347703D01*
X28366386Y-45554487D01*
X28366388Y-45554489D01*
X28475178Y-45709859D01*
X28475178Y-45709860D01*
X29055293Y-45129744D01*
X29099901Y-45207007D01*
X29192993Y-45300099D01*
X29270253Y-45344705D01*
X28690138Y-45924820D01*
X28845510Y-46033611D01*
X28845512Y-46033613D01*
X29052296Y-46130037D01*
X29052312Y-46130043D01*
X29272685Y-46189092D01*
X29272701Y-46189095D01*
X29305515Y-46191966D01*
X29347946Y-46214054D01*
X29362330Y-46259675D01*
X29340242Y-46302106D01*
X29311552Y-46315664D01*
X29197547Y-46336975D01*
X29007364Y-46410651D01*
X28833954Y-46518022D01*
X28683234Y-46655423D01*
X28683227Y-46655430D01*
X28560330Y-46818173D01*
X28560327Y-46818179D01*
X28469418Y-47000749D01*
X28413603Y-47196913D01*
X28413601Y-47196924D01*
X28394785Y-47399996D01*
X28394785Y-47400003D01*
X28413601Y-47603075D01*
X28413603Y-47603086D01*
X28469418Y-47799250D01*
X28560327Y-47981821D01*
X28560328Y-47981822D01*
X28560330Y-47981826D01*
X28683227Y-48144569D01*
X28683232Y-48144574D01*
X28683236Y-48144579D01*
X28782561Y-48235126D01*
X28833954Y-48281977D01*
X28833955Y-48281978D01*
X28833959Y-48281981D01*
X29007363Y-48389348D01*
X29197544Y-48463024D01*
X29398024Y-48500500D01*
X29398027Y-48500500D01*
X29601973Y-48500500D01*
X29601976Y-48500500D01*
X29802456Y-48463024D01*
X29992637Y-48389348D01*
X30166041Y-48281981D01*
X30316764Y-48144579D01*
X30364158Y-48081820D01*
X30439669Y-47981826D01*
X30439668Y-47981826D01*
X30439673Y-47981821D01*
X30530582Y-47799250D01*
X30586397Y-47603083D01*
X30595949Y-47499996D01*
X50394785Y-47499996D01*
X50394785Y-47500003D01*
X50413601Y-47703075D01*
X50413603Y-47703086D01*
X50440965Y-47799250D01*
X50469418Y-47899250D01*
X50560327Y-48081821D01*
X50560328Y-48081822D01*
X50560330Y-48081826D01*
X50683227Y-48244569D01*
X50683232Y-48244574D01*
X50683236Y-48244579D01*
X50747717Y-48303361D01*
X50833954Y-48381977D01*
X50833955Y-48381978D01*
X50833959Y-48381981D01*
X51007363Y-48489348D01*
X51197544Y-48563024D01*
X51398024Y-48600500D01*
X51398027Y-48600500D01*
X51601973Y-48600500D01*
X51601976Y-48600500D01*
X51802456Y-48563024D01*
X51992637Y-48489348D01*
X52166041Y-48381981D01*
X52316764Y-48244579D01*
X52323814Y-48235244D01*
X52439669Y-48081826D01*
X52439668Y-48081826D01*
X52439673Y-48081821D01*
X52530582Y-47899250D01*
X52586397Y-47703083D01*
X52591094Y-47652394D01*
X52605215Y-47500003D01*
X52605215Y-47499996D01*
X52586398Y-47296924D01*
X52586396Y-47296913D01*
X52552539Y-47177920D01*
X52530582Y-47100750D01*
X52439673Y-46918179D01*
X52439670Y-46918175D01*
X52439669Y-46918173D01*
X52316772Y-46755430D01*
X52316767Y-46755425D01*
X52316764Y-46755421D01*
X52207069Y-46655421D01*
X52166045Y-46618022D01*
X52166042Y-46618020D01*
X52166041Y-46618019D01*
X51992637Y-46510652D01*
X51992635Y-46510651D01*
X51937356Y-46489236D01*
X51802456Y-46436976D01*
X51802453Y-46436975D01*
X51802452Y-46436975D01*
X51601980Y-46399500D01*
X51601976Y-46399500D01*
X51398024Y-46399500D01*
X51398019Y-46399500D01*
X51197547Y-46436975D01*
X51007364Y-46510651D01*
X50833954Y-46618022D01*
X50683234Y-46755423D01*
X50683227Y-46755430D01*
X50560330Y-46918173D01*
X50560327Y-46918179D01*
X50469418Y-47100749D01*
X50413603Y-47296913D01*
X50413601Y-47296924D01*
X50394785Y-47499996D01*
X30595949Y-47499996D01*
X30596134Y-47498000D01*
X30605215Y-47400003D01*
X30605215Y-47399996D01*
X30586398Y-47196924D01*
X30586396Y-47196913D01*
X30559035Y-47100750D01*
X30530582Y-47000750D01*
X30439673Y-46818179D01*
X30439670Y-46818175D01*
X30439669Y-46818173D01*
X30316772Y-46655430D01*
X30316767Y-46655425D01*
X30316764Y-46655421D01*
X30193689Y-46543223D01*
X30166045Y-46518022D01*
X30166042Y-46518020D01*
X30166041Y-46518019D01*
X29992637Y-46410652D01*
X29992635Y-46410651D01*
X29937356Y-46389236D01*
X29802456Y-46336976D01*
X29802453Y-46336975D01*
X29802452Y-46336975D01*
X29688447Y-46315664D01*
X29648369Y-46289549D01*
X29638495Y-46242744D01*
X29664610Y-46202666D01*
X29694484Y-46191966D01*
X29727298Y-46189095D01*
X29727314Y-46189092D01*
X29947687Y-46130043D01*
X29947703Y-46130037D01*
X30154485Y-46033614D01*
X30309859Y-45924819D01*
X29729745Y-45344705D01*
X29807007Y-45300099D01*
X29900099Y-45207007D01*
X29944705Y-45129745D01*
X30524819Y-45709859D01*
X30633614Y-45554485D01*
X30730037Y-45347703D01*
X30730043Y-45347687D01*
X30789092Y-45127314D01*
X30789095Y-45127298D01*
X30800232Y-44999997D01*
X64691019Y-44999997D01*
X64691019Y-45000002D01*
X64710904Y-45227298D01*
X64710907Y-45227314D01*
X64769956Y-45447687D01*
X64769962Y-45447703D01*
X64866386Y-45654487D01*
X64866388Y-45654489D01*
X64975178Y-45809859D01*
X64975178Y-45809860D01*
X65555293Y-45229744D01*
X65599901Y-45307007D01*
X65692993Y-45400099D01*
X65770253Y-45444705D01*
X65190138Y-46024820D01*
X65345510Y-46133611D01*
X65345512Y-46133613D01*
X65552296Y-46230037D01*
X65552312Y-46230043D01*
X65772685Y-46289092D01*
X65772701Y-46289095D01*
X65805515Y-46291966D01*
X65847946Y-46314054D01*
X65862330Y-46359675D01*
X65840242Y-46402106D01*
X65811552Y-46415664D01*
X65697547Y-46436975D01*
X65507364Y-46510651D01*
X65333954Y-46618022D01*
X65183234Y-46755423D01*
X65183227Y-46755430D01*
X65060330Y-46918173D01*
X65060327Y-46918179D01*
X64969418Y-47100749D01*
X64913603Y-47296913D01*
X64913601Y-47296924D01*
X64894785Y-47499996D01*
X64894785Y-47500003D01*
X64913601Y-47703075D01*
X64913603Y-47703086D01*
X64940965Y-47799250D01*
X64969418Y-47899250D01*
X65060327Y-48081821D01*
X65060328Y-48081822D01*
X65060330Y-48081826D01*
X65183227Y-48244569D01*
X65183232Y-48244574D01*
X65183236Y-48244579D01*
X65247717Y-48303361D01*
X65333954Y-48381977D01*
X65333955Y-48381978D01*
X65333959Y-48381981D01*
X65507363Y-48489348D01*
X65697544Y-48563024D01*
X65898024Y-48600500D01*
X65898027Y-48600500D01*
X66101973Y-48600500D01*
X66101976Y-48600500D01*
X66302456Y-48563024D01*
X66492637Y-48489348D01*
X66666041Y-48381981D01*
X66816764Y-48244579D01*
X66823814Y-48235244D01*
X66939669Y-48081826D01*
X66939668Y-48081826D01*
X66939673Y-48081821D01*
X67030582Y-47899250D01*
X67086397Y-47703083D01*
X67091094Y-47652394D01*
X67105215Y-47500003D01*
X67105215Y-47499996D01*
X67105030Y-47497995D01*
X73339842Y-47497995D01*
X73339842Y-47498004D01*
X73360428Y-47720174D01*
X73360430Y-47720185D01*
X73421494Y-47934798D01*
X73520955Y-48134543D01*
X73596912Y-48235126D01*
X74177497Y-47654540D01*
X74228920Y-47743606D01*
X74303394Y-47818080D01*
X74392458Y-47869501D01*
X73809182Y-48452775D01*
X73820320Y-48462929D01*
X73820324Y-48462931D01*
X74010028Y-48580392D01*
X74010030Y-48580393D01*
X74218101Y-48660999D01*
X74437428Y-48701999D01*
X74437436Y-48702000D01*
X74660564Y-48702000D01*
X74660571Y-48701999D01*
X74879898Y-48660999D01*
X75087966Y-48580394D01*
X75277679Y-48462929D01*
X75277683Y-48462925D01*
X75288816Y-48452776D01*
X74705541Y-47869501D01*
X74794606Y-47818080D01*
X74869080Y-47743606D01*
X74920501Y-47654541D01*
X75501086Y-48235126D01*
X75577046Y-48134539D01*
X75676505Y-47934798D01*
X75737569Y-47720185D01*
X75737571Y-47720174D01*
X75758158Y-47498004D01*
X75758158Y-47497995D01*
X75737571Y-47275825D01*
X75737569Y-47275814D01*
X75676505Y-47061201D01*
X75577044Y-46861456D01*
X75501086Y-46760872D01*
X74920500Y-47341457D01*
X74869080Y-47252394D01*
X74794606Y-47177920D01*
X74705541Y-47126498D01*
X75288816Y-46543223D01*
X75277679Y-46533070D01*
X75277675Y-46533068D01*
X75087971Y-46415607D01*
X75087969Y-46415606D01*
X74879898Y-46335000D01*
X74660571Y-46294000D01*
X74437428Y-46294000D01*
X74218101Y-46335000D01*
X74010033Y-46415605D01*
X73820319Y-46533071D01*
X73809183Y-46543223D01*
X74392458Y-47126498D01*
X74303394Y-47177920D01*
X74228920Y-47252394D01*
X74177498Y-47341458D01*
X73596912Y-46760872D01*
X73596911Y-46760872D01*
X73520957Y-46861453D01*
X73520953Y-46861459D01*
X73421494Y-47061201D01*
X73360430Y-47275814D01*
X73360428Y-47275825D01*
X73339842Y-47497995D01*
X67105030Y-47497995D01*
X67086398Y-47296924D01*
X67086396Y-47296913D01*
X67052539Y-47177920D01*
X67030582Y-47100750D01*
X66939673Y-46918179D01*
X66939670Y-46918175D01*
X66939669Y-46918173D01*
X66816772Y-46755430D01*
X66816767Y-46755425D01*
X66816764Y-46755421D01*
X66707069Y-46655421D01*
X66666045Y-46618022D01*
X66666042Y-46618020D01*
X66666041Y-46618019D01*
X66492637Y-46510652D01*
X66492635Y-46510651D01*
X66437356Y-46489236D01*
X66302456Y-46436976D01*
X66302453Y-46436975D01*
X66302452Y-46436975D01*
X66188447Y-46415664D01*
X66148369Y-46389549D01*
X66138495Y-46342744D01*
X66164610Y-46302666D01*
X66194484Y-46291966D01*
X66227298Y-46289095D01*
X66227314Y-46289092D01*
X66447687Y-46230043D01*
X66447703Y-46230037D01*
X66654485Y-46133614D01*
X66809859Y-46024819D01*
X66229745Y-45444705D01*
X66307007Y-45400099D01*
X66400099Y-45307007D01*
X66444705Y-45229745D01*
X67024819Y-45809859D01*
X67133614Y-45654485D01*
X67230037Y-45447703D01*
X67230043Y-45447687D01*
X67289092Y-45227314D01*
X67289095Y-45227298D01*
X67308981Y-45000002D01*
X67308981Y-44999997D01*
X67305307Y-44957999D01*
X73543659Y-44957999D01*
X73543659Y-44958000D01*
X73562975Y-45154130D01*
X73581428Y-45214960D01*
X73620186Y-45342727D01*
X73632586Y-45365925D01*
X73713086Y-45516532D01*
X73713090Y-45516538D01*
X73838117Y-45668883D01*
X73990462Y-45793910D01*
X73990464Y-45793911D01*
X73990467Y-45793913D01*
X74020300Y-45809859D01*
X74164273Y-45886814D01*
X74352868Y-45944024D01*
X74549000Y-45963341D01*
X74745132Y-45944024D01*
X74933727Y-45886814D01*
X75107538Y-45793910D01*
X75259883Y-45668883D01*
X75384910Y-45516538D01*
X75477814Y-45342727D01*
X75535024Y-45154132D01*
X75554341Y-44958000D01*
X75548628Y-44899999D01*
X75535024Y-44761869D01*
X75535024Y-44761868D01*
X75477814Y-44573273D01*
X75384910Y-44399462D01*
X75259883Y-44247117D01*
X75107538Y-44122090D01*
X75107532Y-44122086D01*
X74998018Y-44063550D01*
X74933727Y-44029186D01*
X74813184Y-43992619D01*
X74745130Y-43971975D01*
X74549000Y-43952659D01*
X74352869Y-43971975D01*
X74232325Y-44008542D01*
X74164273Y-44029186D01*
X74164271Y-44029186D01*
X74164271Y-44029187D01*
X73990467Y-44122086D01*
X73990461Y-44122090D01*
X73838117Y-44247117D01*
X73713090Y-44399461D01*
X73713086Y-44399467D01*
X73620205Y-44573238D01*
X73620186Y-44573273D01*
X73599542Y-44641325D01*
X73562975Y-44761869D01*
X73543659Y-44957999D01*
X67305307Y-44957999D01*
X67289095Y-44772701D01*
X67289092Y-44772685D01*
X67230041Y-44552305D01*
X67230040Y-44552303D01*
X67133611Y-44345510D01*
X67024820Y-44190139D01*
X67024820Y-44190138D01*
X66444705Y-44770253D01*
X66400099Y-44692993D01*
X66307007Y-44599901D01*
X66229744Y-44555293D01*
X66711241Y-44073797D01*
X71222564Y-44073797D01*
X71222564Y-44073802D01*
X71231078Y-44122090D01*
X71240966Y-44178163D01*
X71293952Y-44269938D01*
X71375130Y-44338055D01*
X71375131Y-44338055D01*
X71375132Y-44338056D01*
X71474714Y-44374300D01*
X71474717Y-44374300D01*
X71580683Y-44374300D01*
X71580686Y-44374300D01*
X71680268Y-44338056D01*
X71761448Y-44269938D01*
X71814434Y-44178163D01*
X71825475Y-44115545D01*
X71832836Y-44073802D01*
X71832836Y-44073797D01*
X71815446Y-43975178D01*
X71814434Y-43969437D01*
X71761448Y-43877662D01*
X71748010Y-43866386D01*
X71680269Y-43809544D01*
X71680266Y-43809543D01*
X71580688Y-43773300D01*
X71580686Y-43773300D01*
X71474714Y-43773300D01*
X71474711Y-43773300D01*
X71375133Y-43809543D01*
X71375130Y-43809544D01*
X71293952Y-43877661D01*
X71240965Y-43969439D01*
X71222564Y-44073797D01*
X66711241Y-44073797D01*
X66809860Y-43975178D01*
X66654489Y-43866388D01*
X66654487Y-43866386D01*
X66447703Y-43769962D01*
X66447687Y-43769956D01*
X66273821Y-43723369D01*
X66235870Y-43694249D01*
X66229627Y-43646823D01*
X66258747Y-43608872D01*
X66289995Y-43600499D01*
X67009898Y-43600499D01*
X67039213Y-43594669D01*
X67072457Y-43572457D01*
X67094669Y-43539213D01*
X67100500Y-43509899D01*
X67100499Y-42417999D01*
X73543659Y-42417999D01*
X73543659Y-42418000D01*
X73562975Y-42614130D01*
X73583619Y-42682184D01*
X73620186Y-42802727D01*
X73620187Y-42802728D01*
X73713086Y-42976532D01*
X73713090Y-42976538D01*
X73838117Y-43128883D01*
X73990462Y-43253910D01*
X73990464Y-43253911D01*
X73990467Y-43253913D01*
X74035690Y-43278085D01*
X74164273Y-43346814D01*
X74352868Y-43404024D01*
X74549000Y-43423341D01*
X74745132Y-43404024D01*
X74933727Y-43346814D01*
X75107538Y-43253910D01*
X75259883Y-43128883D01*
X75384910Y-42976538D01*
X75477814Y-42802727D01*
X75535024Y-42614132D01*
X75554341Y-42418000D01*
X75535024Y-42221868D01*
X75477814Y-42033273D01*
X75384910Y-41859462D01*
X75259883Y-41707117D01*
X75107538Y-41582090D01*
X75107532Y-41582086D01*
X74998018Y-41523550D01*
X74933727Y-41489186D01*
X74813184Y-41452619D01*
X74745130Y-41431975D01*
X74549000Y-41412659D01*
X74352869Y-41431975D01*
X74257898Y-41460785D01*
X74164273Y-41489186D01*
X74164271Y-41489186D01*
X74164271Y-41489187D01*
X73990467Y-41582086D01*
X73990461Y-41582090D01*
X73838117Y-41707117D01*
X73713090Y-41859461D01*
X73713086Y-41859467D01*
X73620187Y-42033271D01*
X73620186Y-42033273D01*
X73599542Y-42101325D01*
X73562975Y-42221869D01*
X73543659Y-42417999D01*
X67100499Y-42417999D01*
X67100499Y-41490102D01*
X67094669Y-41460787D01*
X67094666Y-41460783D01*
X67072456Y-41427542D01*
X67039216Y-41405332D01*
X67039213Y-41405331D01*
X67009899Y-41399500D01*
X67009898Y-41399500D01*
X64990105Y-41399500D01*
X64990104Y-41399500D01*
X64990102Y-41399501D01*
X64975444Y-41402416D01*
X64960785Y-41405331D01*
X64927542Y-41427543D01*
X64905332Y-41460783D01*
X64905331Y-41460787D01*
X64899500Y-41490101D01*
X64899500Y-43509894D01*
X64899501Y-43509898D01*
X64902469Y-43524820D01*
X64905331Y-43539214D01*
X64927543Y-43572457D01*
X64960783Y-43594667D01*
X64960784Y-43594667D01*
X64960787Y-43594669D01*
X64990101Y-43600500D01*
X65710002Y-43600499D01*
X65754195Y-43618805D01*
X65772501Y-43662999D01*
X65754195Y-43707193D01*
X65726178Y-43723369D01*
X65552303Y-43769959D01*
X65345510Y-43866388D01*
X65190138Y-43975178D01*
X65770254Y-44555294D01*
X65692993Y-44599901D01*
X65599901Y-44692993D01*
X65555294Y-44770254D01*
X64975178Y-44190138D01*
X64866388Y-44345510D01*
X64769959Y-44552303D01*
X64769958Y-44552305D01*
X64710907Y-44772685D01*
X64710904Y-44772701D01*
X64691019Y-44999997D01*
X30800232Y-44999997D01*
X30808981Y-44900002D01*
X30808981Y-44899997D01*
X30789095Y-44672701D01*
X30789092Y-44672685D01*
X30730041Y-44452305D01*
X30730040Y-44452303D01*
X30633611Y-44245510D01*
X30524820Y-44090139D01*
X30524820Y-44090138D01*
X29944705Y-44670253D01*
X29900099Y-44592993D01*
X29807007Y-44499901D01*
X29729744Y-44455293D01*
X30309860Y-43875178D01*
X30154489Y-43766388D01*
X30154487Y-43766386D01*
X29947703Y-43669962D01*
X29947687Y-43669956D01*
X29773821Y-43623369D01*
X29735870Y-43594249D01*
X29729627Y-43546823D01*
X29758747Y-43508872D01*
X29789995Y-43500499D01*
X30509898Y-43500499D01*
X30539213Y-43494669D01*
X30572457Y-43472457D01*
X30594669Y-43439213D01*
X30600500Y-43409899D01*
X30600500Y-42499997D01*
X50191019Y-42499997D01*
X50191019Y-42500002D01*
X50210904Y-42727298D01*
X50210907Y-42727314D01*
X50269956Y-42947687D01*
X50269962Y-42947703D01*
X50366386Y-43154487D01*
X50366388Y-43154489D01*
X50475178Y-43309859D01*
X50475178Y-43309860D01*
X51055293Y-42729744D01*
X51099901Y-42807007D01*
X51192993Y-42900099D01*
X51270253Y-42944705D01*
X50690138Y-43524820D01*
X50845510Y-43633611D01*
X50845512Y-43633613D01*
X51052296Y-43730037D01*
X51052312Y-43730043D01*
X51272685Y-43789092D01*
X51272701Y-43789095D01*
X51499998Y-43808981D01*
X51500002Y-43808981D01*
X51727298Y-43789095D01*
X51727314Y-43789092D01*
X51947687Y-43730043D01*
X51947703Y-43730037D01*
X52154485Y-43633614D01*
X52309859Y-43524819D01*
X51729745Y-42944705D01*
X51807007Y-42900099D01*
X51900099Y-42807007D01*
X51944705Y-42729745D01*
X52524819Y-43309859D01*
X52633614Y-43154485D01*
X52730037Y-42947703D01*
X52730043Y-42947687D01*
X52789092Y-42727314D01*
X52789095Y-42727298D01*
X52808981Y-42500002D01*
X52808981Y-42499997D01*
X52789095Y-42272701D01*
X52789092Y-42272685D01*
X52730041Y-42052305D01*
X52730040Y-42052303D01*
X52633611Y-41845510D01*
X52524820Y-41690139D01*
X52524820Y-41690138D01*
X51944705Y-42270253D01*
X51900099Y-42192993D01*
X51807007Y-42099901D01*
X51729744Y-42055293D01*
X52309860Y-41475178D01*
X52154489Y-41366388D01*
X52154487Y-41366386D01*
X51947703Y-41269962D01*
X51947687Y-41269956D01*
X51727314Y-41210907D01*
X51727298Y-41210904D01*
X51500002Y-41191019D01*
X51499998Y-41191019D01*
X51272701Y-41210904D01*
X51272685Y-41210907D01*
X51052305Y-41269958D01*
X51052303Y-41269959D01*
X50845510Y-41366388D01*
X50690138Y-41475178D01*
X51270254Y-42055294D01*
X51192993Y-42099901D01*
X51099901Y-42192993D01*
X51055294Y-42270254D01*
X50475178Y-41690138D01*
X50366388Y-41845510D01*
X50269959Y-42052303D01*
X50269958Y-42052305D01*
X50210907Y-42272685D01*
X50210904Y-42272701D01*
X50191019Y-42499997D01*
X30600500Y-42499997D01*
X30600499Y-41390102D01*
X30594669Y-41360787D01*
X30594666Y-41360783D01*
X30572456Y-41327542D01*
X30539216Y-41305332D01*
X30539213Y-41305331D01*
X30509899Y-41299500D01*
X30509898Y-41299500D01*
X28490105Y-41299500D01*
X28490104Y-41299500D01*
X28490102Y-41299501D01*
X28475444Y-41302416D01*
X28460785Y-41305331D01*
X28427542Y-41327543D01*
X28405332Y-41360783D01*
X28405331Y-41360787D01*
X28399500Y-41390101D01*
X28399500Y-43409894D01*
X28399501Y-43409898D01*
X28402469Y-43424820D01*
X28405331Y-43439214D01*
X28427543Y-43472457D01*
X28460783Y-43494667D01*
X28460784Y-43494667D01*
X28460787Y-43494669D01*
X28490101Y-43500500D01*
X29210002Y-43500499D01*
X29254195Y-43518805D01*
X29272501Y-43562999D01*
X29254195Y-43607193D01*
X29226178Y-43623369D01*
X29052303Y-43669959D01*
X28845510Y-43766388D01*
X28690138Y-43875178D01*
X29270254Y-44455294D01*
X29192993Y-44499901D01*
X29099901Y-44592993D01*
X29055294Y-44670254D01*
X28475178Y-44090138D01*
X28366388Y-44245510D01*
X28269959Y-44452303D01*
X28269958Y-44452305D01*
X28210907Y-44672685D01*
X28210904Y-44672701D01*
X28191019Y-44899997D01*
X-1346500Y-44899997D01*
X-1346500Y-44377097D01*
X17912964Y-44377097D01*
X17912964Y-44377102D01*
X17926224Y-44452305D01*
X17931366Y-44481463D01*
X17984352Y-44573238D01*
X18065530Y-44641355D01*
X18065531Y-44641355D01*
X18065532Y-44641356D01*
X18165114Y-44677600D01*
X18165117Y-44677600D01*
X18271083Y-44677600D01*
X18271086Y-44677600D01*
X18370668Y-44641356D01*
X18451848Y-44573238D01*
X18504834Y-44481463D01*
X18523236Y-44377100D01*
X18523236Y-44377097D01*
X18504834Y-44272739D01*
X18504834Y-44272737D01*
X18451848Y-44180962D01*
X18451847Y-44180961D01*
X18370669Y-44112844D01*
X18370666Y-44112843D01*
X18271088Y-44076600D01*
X18271086Y-44076600D01*
X18165114Y-44076600D01*
X18165111Y-44076600D01*
X18065533Y-44112843D01*
X18065530Y-44112844D01*
X17984352Y-44180961D01*
X17931365Y-44272739D01*
X17912964Y-44377097D01*
X-1346500Y-44377097D01*
X-1346500Y-43149997D01*
X530364Y-43149997D01*
X530364Y-43150002D01*
X548686Y-43253913D01*
X548766Y-43254363D01*
X580807Y-43309860D01*
X601752Y-43346138D01*
X682930Y-43414255D01*
X682931Y-43414255D01*
X682932Y-43414256D01*
X782514Y-43450500D01*
X782517Y-43450500D01*
X888483Y-43450500D01*
X888486Y-43450500D01*
X988068Y-43414256D01*
X1069248Y-43346138D01*
X1122234Y-43254363D01*
X1133275Y-43191745D01*
X1140636Y-43150002D01*
X1140636Y-43149997D01*
X1122234Y-43045639D01*
X1122234Y-43045637D01*
X1069248Y-42953862D01*
X1005058Y-42900000D01*
X988069Y-42885744D01*
X988066Y-42885743D01*
X888488Y-42849500D01*
X888486Y-42849500D01*
X782514Y-42849500D01*
X782511Y-42849500D01*
X682933Y-42885743D01*
X682930Y-42885744D01*
X601752Y-42953861D01*
X548765Y-43045639D01*
X530364Y-43149997D01*
X-1346500Y-43149997D01*
X-1346500Y-42399997D01*
X13691019Y-42399997D01*
X13691019Y-42400002D01*
X13710904Y-42627298D01*
X13710907Y-42627314D01*
X13769956Y-42847687D01*
X13769962Y-42847703D01*
X13866386Y-43054487D01*
X13866388Y-43054489D01*
X13975178Y-43209859D01*
X13975178Y-43209860D01*
X14555293Y-42629744D01*
X14599901Y-42707007D01*
X14692993Y-42800099D01*
X14770253Y-42844705D01*
X14190138Y-43424820D01*
X14345510Y-43533611D01*
X14345512Y-43533613D01*
X14552296Y-43630037D01*
X14552312Y-43630043D01*
X14772685Y-43689092D01*
X14772701Y-43689095D01*
X14999998Y-43708981D01*
X15000002Y-43708981D01*
X15227298Y-43689095D01*
X15227314Y-43689092D01*
X15447687Y-43630043D01*
X15447703Y-43630037D01*
X15654485Y-43533614D01*
X15809859Y-43424819D01*
X15229745Y-42844705D01*
X15307007Y-42800099D01*
X15400099Y-42707007D01*
X15444705Y-42629745D01*
X16024819Y-43209859D01*
X16133614Y-43054485D01*
X16230037Y-42847703D01*
X16230043Y-42847687D01*
X16289092Y-42627314D01*
X16289095Y-42627298D01*
X16308981Y-42400002D01*
X16308981Y-42399997D01*
X16289095Y-42172701D01*
X16289092Y-42172685D01*
X16230041Y-41952305D01*
X16230040Y-41952303D01*
X16133611Y-41745510D01*
X16024820Y-41590139D01*
X16024820Y-41590138D01*
X15444705Y-42170253D01*
X15400099Y-42092993D01*
X15307007Y-41999901D01*
X15229744Y-41955293D01*
X15809860Y-41375178D01*
X15654489Y-41266388D01*
X15654487Y-41266386D01*
X15447703Y-41169962D01*
X15447687Y-41169956D01*
X15227314Y-41110907D01*
X15227298Y-41110904D01*
X15000002Y-41091019D01*
X14999998Y-41091019D01*
X14772701Y-41110904D01*
X14772685Y-41110907D01*
X14552305Y-41169958D01*
X14552303Y-41169959D01*
X14345510Y-41266388D01*
X14190138Y-41375178D01*
X14770254Y-41955294D01*
X14692993Y-41999901D01*
X14599901Y-42092993D01*
X14555294Y-42170254D01*
X13975178Y-41590138D01*
X13866388Y-41745510D01*
X13769959Y-41952303D01*
X13769958Y-41952305D01*
X13710907Y-42172685D01*
X13710904Y-42172701D01*
X13691019Y-42399997D01*
X-1346500Y-42399997D01*
X-1346500Y-40263921D01*
X-1345730Y-40254143D01*
X-1338087Y-40205891D01*
X-1332045Y-40187295D01*
X-1312128Y-40148205D01*
X-1300634Y-40132385D01*
X-1269614Y-40101365D01*
X-1253794Y-40089871D01*
X-1214704Y-40069954D01*
X-1196108Y-40063911D01*
X-1147855Y-40056269D01*
X-1138078Y-40055500D01*
X-324193Y-40055500D01*
X-324192Y-40055500D01*
X-281607Y-40044089D01*
X-214450Y-40026095D01*
X-214447Y-40026094D01*
X-205932Y-40021178D01*
X-116053Y-39969286D01*
X-116051Y-39969284D01*
X-116047Y-39969281D01*
X-35718Y-39888952D01*
X-35715Y-39888948D01*
X-35714Y-39888947D01*
X21094Y-39790553D01*
X50500Y-39680808D01*
X50500Y-39624000D01*
X50500Y-39607591D01*
X50500Y-38254611D01*
X20096000Y-38254611D01*
X20096000Y-39148000D01*
X20615541Y-39148000D01*
X20600000Y-39226131D01*
X20600000Y-39373869D01*
X20615541Y-39452000D01*
X20096001Y-39452000D01*
X20096001Y-40345388D01*
X20098949Y-40370807D01*
X20098949Y-40370808D01*
X20144857Y-40474778D01*
X20225221Y-40555142D01*
X20329194Y-40601051D01*
X20354611Y-40603999D01*
X21848000Y-40603999D01*
X21848000Y-40050000D01*
X22152000Y-40050000D01*
X22152000Y-40603999D01*
X23645388Y-40603999D01*
X23670807Y-40601050D01*
X23670808Y-40601050D01*
X23774778Y-40555142D01*
X23855142Y-40474778D01*
X23901051Y-40370805D01*
X23904000Y-40345388D01*
X23904000Y-39452000D01*
X23384459Y-39452000D01*
X23400000Y-39373869D01*
X23400000Y-39226131D01*
X23384459Y-39148000D01*
X23903999Y-39148000D01*
X23903999Y-38354611D01*
X56596000Y-38354611D01*
X56596000Y-39248000D01*
X57115541Y-39248000D01*
X57100000Y-39326131D01*
X57100000Y-39473869D01*
X57115541Y-39552000D01*
X56596001Y-39552000D01*
X56596001Y-40445388D01*
X56598949Y-40470807D01*
X56598949Y-40470808D01*
X56644857Y-40574778D01*
X56725221Y-40655142D01*
X56829194Y-40701051D01*
X56854611Y-40703999D01*
X58348000Y-40703999D01*
X58348000Y-40150000D01*
X58652000Y-40150000D01*
X58652000Y-40703999D01*
X60145388Y-40703999D01*
X60170807Y-40701050D01*
X60170808Y-40701050D01*
X60274778Y-40655142D01*
X60355142Y-40574778D01*
X60401051Y-40470805D01*
X60404000Y-40445388D01*
X60404000Y-39552000D01*
X59884459Y-39552000D01*
X59900000Y-39473869D01*
X59900000Y-39326131D01*
X59884459Y-39248000D01*
X60403999Y-39248000D01*
X60403999Y-38354611D01*
X60401050Y-38329192D01*
X60401050Y-38329191D01*
X60355142Y-38225221D01*
X60274778Y-38144857D01*
X60170805Y-38098948D01*
X60145389Y-38096000D01*
X58652000Y-38096000D01*
X58652000Y-38650000D01*
X58348000Y-38650000D01*
X58348000Y-38096000D01*
X56854611Y-38096000D01*
X56829192Y-38098949D01*
X56829191Y-38098949D01*
X56725221Y-38144857D01*
X56644857Y-38225221D01*
X56598948Y-38329194D01*
X56596000Y-38354611D01*
X23903999Y-38354611D01*
X23903999Y-38254611D01*
X23901050Y-38229192D01*
X23901050Y-38229191D01*
X23855142Y-38125221D01*
X23774778Y-38044857D01*
X23670805Y-37998948D01*
X23645389Y-37996000D01*
X22152000Y-37996000D01*
X22152000Y-38550000D01*
X21848000Y-38550000D01*
X21848000Y-37996000D01*
X20354611Y-37996000D01*
X20329192Y-37998949D01*
X20329191Y-37998949D01*
X20225221Y-38044857D01*
X20144857Y-38125221D01*
X20098948Y-38229194D01*
X20096000Y-38254611D01*
X50500Y-38254611D01*
X50500Y-37174297D01*
X32958564Y-37174297D01*
X32958564Y-37174300D01*
X32976966Y-37278663D01*
X33029952Y-37370438D01*
X33111130Y-37438555D01*
X33111131Y-37438555D01*
X33111132Y-37438556D01*
X33210714Y-37474800D01*
X33210717Y-37474800D01*
X33316683Y-37474800D01*
X33316686Y-37474800D01*
X33416268Y-37438556D01*
X33497448Y-37370438D01*
X33550434Y-37278663D01*
X33568836Y-37174300D01*
X33568836Y-37174297D01*
X33557794Y-37111682D01*
X33550434Y-37069937D01*
X33497448Y-36978162D01*
X33497447Y-36978161D01*
X33416269Y-36910044D01*
X33416266Y-36910043D01*
X33316688Y-36873800D01*
X33316686Y-36873800D01*
X33210714Y-36873800D01*
X33210711Y-36873800D01*
X33111133Y-36910043D01*
X33111130Y-36910044D01*
X33029952Y-36978161D01*
X32976965Y-37069939D01*
X32958564Y-37174297D01*
X50500Y-37174297D01*
X50500Y-35945097D01*
X40708764Y-35945097D01*
X40708764Y-35945102D01*
X40722590Y-36023515D01*
X40727166Y-36049463D01*
X40780152Y-36141238D01*
X40861330Y-36209355D01*
X40861331Y-36209355D01*
X40861332Y-36209356D01*
X40960914Y-36245600D01*
X40960917Y-36245600D01*
X41066883Y-36245600D01*
X41066886Y-36245600D01*
X41166468Y-36209356D01*
X41221093Y-36163520D01*
X68726500Y-36163520D01*
X68726500Y-36308479D01*
X68764015Y-36448482D01*
X68764015Y-36448484D01*
X68764016Y-36448485D01*
X68836491Y-36574015D01*
X68836492Y-36574016D01*
X68838540Y-36577563D01*
X68838285Y-36577709D01*
X68845871Y-36592128D01*
X68845872Y-36592132D01*
X68849821Y-36604284D01*
X68944467Y-36768216D01*
X69039536Y-36873800D01*
X69071128Y-36908887D01*
X69071129Y-36908888D01*
X69224265Y-37020148D01*
X69224274Y-37020153D01*
X69397185Y-37097139D01*
X69397188Y-37097140D01*
X69397197Y-37097144D01*
X69582354Y-37136500D01*
X69771646Y-37136500D01*
X69956803Y-37097144D01*
X70129730Y-37020151D01*
X70282871Y-36908888D01*
X70409533Y-36768216D01*
X70504179Y-36604284D01*
X70508128Y-36592127D01*
X70515715Y-36577711D01*
X70515460Y-36577564D01*
X70518236Y-36572754D01*
X70589984Y-36448485D01*
X70627500Y-36308475D01*
X70627500Y-36163525D01*
X70627499Y-36163520D01*
X72726500Y-36163520D01*
X72726500Y-36308479D01*
X72764015Y-36448482D01*
X72764015Y-36448484D01*
X72764016Y-36448485D01*
X72836491Y-36574015D01*
X72836492Y-36574016D01*
X72838540Y-36577563D01*
X72838285Y-36577709D01*
X72845871Y-36592128D01*
X72845872Y-36592132D01*
X72849821Y-36604284D01*
X72944467Y-36768216D01*
X73039536Y-36873800D01*
X73071128Y-36908887D01*
X73071129Y-36908888D01*
X73224265Y-37020148D01*
X73224274Y-37020153D01*
X73397185Y-37097139D01*
X73397188Y-37097140D01*
X73397197Y-37097144D01*
X73582354Y-37136500D01*
X73771646Y-37136500D01*
X73956803Y-37097144D01*
X74129730Y-37020151D01*
X74282871Y-36908888D01*
X74409533Y-36768216D01*
X74504179Y-36604284D01*
X74508128Y-36592127D01*
X74515715Y-36577711D01*
X74515460Y-36577564D01*
X74518236Y-36572754D01*
X74589984Y-36448485D01*
X74627500Y-36308475D01*
X74627500Y-36163525D01*
X74627499Y-36163520D01*
X75726500Y-36163520D01*
X75726500Y-36308479D01*
X75764015Y-36448482D01*
X75764015Y-36448484D01*
X75764016Y-36448485D01*
X75836491Y-36574015D01*
X75836492Y-36574016D01*
X75838540Y-36577563D01*
X75838285Y-36577709D01*
X75845871Y-36592128D01*
X75845872Y-36592132D01*
X75849821Y-36604284D01*
X75944467Y-36768216D01*
X76039536Y-36873800D01*
X76071128Y-36908887D01*
X76071129Y-36908888D01*
X76224265Y-37020148D01*
X76224274Y-37020153D01*
X76397185Y-37097139D01*
X76397188Y-37097140D01*
X76397197Y-37097144D01*
X76582354Y-37136500D01*
X76771646Y-37136500D01*
X76956803Y-37097144D01*
X77129730Y-37020151D01*
X77282871Y-36908888D01*
X77409533Y-36768216D01*
X77504179Y-36604284D01*
X77508128Y-36592127D01*
X77515715Y-36577711D01*
X77515460Y-36577564D01*
X77518236Y-36572754D01*
X77589984Y-36448485D01*
X77627500Y-36308475D01*
X77627500Y-36163525D01*
X77589984Y-36023515D01*
X77517509Y-35897985D01*
X77517507Y-35897983D01*
X77515460Y-35894437D01*
X77515713Y-35894290D01*
X77508128Y-35879871D01*
X77504179Y-35867716D01*
X77409533Y-35703784D01*
X77282871Y-35563112D01*
X77282870Y-35563111D01*
X77129734Y-35451851D01*
X77129725Y-35451846D01*
X76956814Y-35374860D01*
X76956797Y-35374854D01*
X76771646Y-35335500D01*
X76582354Y-35335500D01*
X76397202Y-35374854D01*
X76397185Y-35374860D01*
X76224274Y-35451846D01*
X76224265Y-35451851D01*
X76071129Y-35563111D01*
X76071128Y-35563112D01*
X75944466Y-35703785D01*
X75849820Y-35867717D01*
X75849818Y-35867722D01*
X75845869Y-35879875D01*
X75838285Y-35894293D01*
X75838538Y-35894439D01*
X75764018Y-36023509D01*
X75764015Y-36023517D01*
X75726500Y-36163520D01*
X74627499Y-36163520D01*
X74589984Y-36023515D01*
X74517509Y-35897985D01*
X74517507Y-35897983D01*
X74515460Y-35894437D01*
X74515713Y-35894290D01*
X74508128Y-35879871D01*
X74504179Y-35867716D01*
X74409533Y-35703784D01*
X74282871Y-35563112D01*
X74282870Y-35563111D01*
X74129734Y-35451851D01*
X74129725Y-35451846D01*
X73956814Y-35374860D01*
X73956797Y-35374854D01*
X73771646Y-35335500D01*
X73582354Y-35335500D01*
X73397202Y-35374854D01*
X73397185Y-35374860D01*
X73224274Y-35451846D01*
X73224265Y-35451851D01*
X73071129Y-35563111D01*
X73071128Y-35563112D01*
X72944466Y-35703785D01*
X72849820Y-35867717D01*
X72849818Y-35867722D01*
X72845869Y-35879875D01*
X72838285Y-35894293D01*
X72838538Y-35894439D01*
X72764018Y-36023509D01*
X72764015Y-36023517D01*
X72726500Y-36163520D01*
X70627499Y-36163520D01*
X70589984Y-36023515D01*
X70517509Y-35897985D01*
X70517507Y-35897983D01*
X70515460Y-35894437D01*
X70515713Y-35894290D01*
X70508128Y-35879871D01*
X70504179Y-35867716D01*
X70409533Y-35703784D01*
X70282871Y-35563112D01*
X70282870Y-35563111D01*
X70129734Y-35451851D01*
X70129725Y-35451846D01*
X69956814Y-35374860D01*
X69956797Y-35374854D01*
X69771646Y-35335500D01*
X69582354Y-35335500D01*
X69397202Y-35374854D01*
X69397185Y-35374860D01*
X69224274Y-35451846D01*
X69224265Y-35451851D01*
X69071129Y-35563111D01*
X69071128Y-35563112D01*
X68944466Y-35703785D01*
X68849820Y-35867717D01*
X68849818Y-35867722D01*
X68845869Y-35879875D01*
X68838285Y-35894293D01*
X68838538Y-35894439D01*
X68764018Y-36023509D01*
X68764015Y-36023517D01*
X68726500Y-36163520D01*
X41221093Y-36163520D01*
X41247648Y-36141238D01*
X41300634Y-36049463D01*
X41319036Y-35945100D01*
X41319036Y-35945097D01*
X41305391Y-35867716D01*
X41300634Y-35840737D01*
X41247648Y-35748962D01*
X41247647Y-35748961D01*
X41166469Y-35680844D01*
X41166466Y-35680843D01*
X41066888Y-35644600D01*
X41066886Y-35644600D01*
X40960914Y-35644600D01*
X40960911Y-35644600D01*
X40861333Y-35680843D01*
X40861330Y-35680844D01*
X40780152Y-35748961D01*
X40727165Y-35840739D01*
X40708764Y-35945097D01*
X50500Y-35945097D01*
X50500Y-35199897D01*
X40183964Y-35199897D01*
X40183964Y-35199900D01*
X40202366Y-35304263D01*
X40243123Y-35374856D01*
X40255352Y-35396038D01*
X40336530Y-35464155D01*
X40336531Y-35464155D01*
X40336532Y-35464156D01*
X40436114Y-35500400D01*
X40436117Y-35500400D01*
X40542083Y-35500400D01*
X40542086Y-35500400D01*
X40641668Y-35464156D01*
X40722848Y-35396038D01*
X40775834Y-35304263D01*
X40794236Y-35199900D01*
X40794236Y-35199897D01*
X40775834Y-35095539D01*
X40775834Y-35095537D01*
X40722848Y-35003762D01*
X40658745Y-34949973D01*
X40641669Y-34935644D01*
X40641666Y-34935643D01*
X40542088Y-34899400D01*
X40542086Y-34899400D01*
X40436114Y-34899400D01*
X40436111Y-34899400D01*
X40336533Y-34935643D01*
X40336530Y-34935644D01*
X40255352Y-35003761D01*
X40202365Y-35095539D01*
X40183964Y-35199897D01*
X50500Y-35199897D01*
X50500Y-33851697D01*
X57617164Y-33851697D01*
X57617164Y-33851702D01*
X57633153Y-33942383D01*
X57635566Y-33956063D01*
X57688552Y-34047838D01*
X57769730Y-34115955D01*
X57769731Y-34115955D01*
X57769732Y-34115956D01*
X57869314Y-34152200D01*
X57869317Y-34152200D01*
X57975283Y-34152200D01*
X57975286Y-34152200D01*
X58074868Y-34115956D01*
X58156048Y-34047838D01*
X58209034Y-33956063D01*
X58211446Y-33942383D01*
X70176500Y-33942383D01*
X70176500Y-34129616D01*
X70213026Y-34313249D01*
X70213027Y-34313251D01*
X70284678Y-34486231D01*
X70388698Y-34641908D01*
X70521092Y-34774302D01*
X70676769Y-34878322D01*
X70849749Y-34949973D01*
X71033384Y-34986500D01*
X71220616Y-34986500D01*
X71404251Y-34949973D01*
X71577231Y-34878322D01*
X71732908Y-34774302D01*
X71865302Y-34641908D01*
X71969322Y-34486231D01*
X72040973Y-34313251D01*
X72077500Y-34129616D01*
X72077500Y-33942384D01*
X72077500Y-33942383D01*
X77176500Y-33942383D01*
X77176500Y-34129616D01*
X77213026Y-34313249D01*
X77213027Y-34313251D01*
X77284678Y-34486231D01*
X77388698Y-34641908D01*
X77521092Y-34774302D01*
X77676769Y-34878322D01*
X77849749Y-34949973D01*
X78033384Y-34986500D01*
X78220616Y-34986500D01*
X78404251Y-34949973D01*
X78577231Y-34878322D01*
X78732908Y-34774302D01*
X78865302Y-34641908D01*
X78969322Y-34486231D01*
X79040973Y-34313251D01*
X79077500Y-34129616D01*
X79077500Y-33942384D01*
X79040973Y-33758749D01*
X78969322Y-33585769D01*
X78865302Y-33430092D01*
X78732908Y-33297698D01*
X78732907Y-33297697D01*
X78577233Y-33193679D01*
X78577231Y-33193678D01*
X78404249Y-33122026D01*
X78220616Y-33085500D01*
X78033384Y-33085500D01*
X77849750Y-33122026D01*
X77676768Y-33193678D01*
X77676766Y-33193679D01*
X77521092Y-33297697D01*
X77388697Y-33430092D01*
X77284679Y-33585766D01*
X77284678Y-33585768D01*
X77213026Y-33758750D01*
X77176500Y-33942383D01*
X72077500Y-33942383D01*
X72040973Y-33758749D01*
X71969322Y-33585769D01*
X71865302Y-33430092D01*
X71732908Y-33297698D01*
X71732907Y-33297697D01*
X71577233Y-33193679D01*
X71577231Y-33193678D01*
X71404249Y-33122026D01*
X71220616Y-33085500D01*
X71033384Y-33085500D01*
X70849750Y-33122026D01*
X70676768Y-33193678D01*
X70676766Y-33193679D01*
X70521092Y-33297697D01*
X70388697Y-33430092D01*
X70284679Y-33585766D01*
X70284678Y-33585768D01*
X70213026Y-33758750D01*
X70176500Y-33942383D01*
X58211446Y-33942383D01*
X58227436Y-33851700D01*
X58227436Y-33851697D01*
X58209034Y-33747339D01*
X58209034Y-33747337D01*
X58156048Y-33655562D01*
X58156047Y-33655561D01*
X58074869Y-33587444D01*
X58074866Y-33587443D01*
X57975288Y-33551200D01*
X57975286Y-33551200D01*
X57869314Y-33551200D01*
X57869311Y-33551200D01*
X57769733Y-33587443D01*
X57769730Y-33587444D01*
X57688552Y-33655561D01*
X57635565Y-33747339D01*
X57617164Y-33851697D01*
X50500Y-33851697D01*
X50500Y-32317597D01*
X41064664Y-32317597D01*
X41064664Y-32317602D01*
X41082661Y-32419670D01*
X41083066Y-32421963D01*
X41129119Y-32501730D01*
X41136052Y-32513738D01*
X41217230Y-32581855D01*
X41217231Y-32581855D01*
X41217232Y-32581856D01*
X41316814Y-32618100D01*
X41316817Y-32618100D01*
X41422783Y-32618100D01*
X41422786Y-32618100D01*
X41522368Y-32581856D01*
X41603548Y-32513738D01*
X41656534Y-32421963D01*
X41674936Y-32317600D01*
X41674936Y-32317597D01*
X41656534Y-32213239D01*
X41656534Y-32213237D01*
X41603548Y-32121462D01*
X41597122Y-32116070D01*
X41522369Y-32053344D01*
X41522366Y-32053343D01*
X41422788Y-32017100D01*
X41422786Y-32017100D01*
X41316814Y-32017100D01*
X41316811Y-32017100D01*
X41217233Y-32053343D01*
X41217230Y-32053344D01*
X41136052Y-32121461D01*
X41083065Y-32213239D01*
X41064664Y-32317597D01*
X50500Y-32317597D01*
X50500Y-31835995D01*
X67568270Y-31835995D01*
X67568270Y-31836004D01*
X67587146Y-32039721D01*
X67587148Y-32039732D01*
X67643140Y-32236519D01*
X67734341Y-32419674D01*
X67796307Y-32501730D01*
X68138090Y-32159946D01*
X68141905Y-32162148D01*
X68230922Y-32186000D01*
X68541960Y-32186000D01*
X68007968Y-32719991D01*
X68008836Y-32720782D01*
X68182796Y-32828493D01*
X68373587Y-32902406D01*
X68574694Y-32939999D01*
X68574702Y-32940000D01*
X68779298Y-32940000D01*
X68779305Y-32939999D01*
X68980412Y-32902406D01*
X69171203Y-32828493D01*
X69345160Y-32720784D01*
X69345161Y-32720783D01*
X69346030Y-32719990D01*
X68812040Y-32186000D01*
X69123078Y-32186000D01*
X69212095Y-32162148D01*
X69215907Y-32159946D01*
X69557691Y-32501730D01*
X69619660Y-32419670D01*
X69710859Y-32236519D01*
X69766851Y-32039732D01*
X69766853Y-32039721D01*
X69785730Y-31836004D01*
X69785730Y-31835995D01*
X69766853Y-31632278D01*
X69766851Y-31632267D01*
X69710859Y-31435480D01*
X69619658Y-31252325D01*
X69557691Y-31170268D01*
X69215906Y-31512052D01*
X69212095Y-31509852D01*
X69123078Y-31486000D01*
X68812037Y-31486000D01*
X69346029Y-30952008D01*
X69345159Y-30951214D01*
X69171203Y-30843506D01*
X68980412Y-30769593D01*
X68779305Y-30732000D01*
X68574694Y-30732000D01*
X68373587Y-30769593D01*
X68182796Y-30843506D01*
X68008840Y-30951215D01*
X68007969Y-30952008D01*
X68541961Y-31486000D01*
X68230922Y-31486000D01*
X68141905Y-31509852D01*
X68138092Y-31512053D01*
X67796306Y-31170267D01*
X67734339Y-31252329D01*
X67643140Y-31435480D01*
X67587148Y-31632267D01*
X67587146Y-31632278D01*
X67568270Y-31835995D01*
X50500Y-31835995D01*
X50500Y-26499997D01*
X11044341Y-26499997D01*
X11044341Y-26500002D01*
X11064936Y-26735404D01*
X11064939Y-26735420D01*
X11126095Y-26963659D01*
X11126096Y-26963661D01*
X11225964Y-27177829D01*
X11361505Y-27371402D01*
X11528597Y-27538494D01*
X11536345Y-27543919D01*
X11722170Y-27674035D01*
X11722169Y-27674035D01*
X11829253Y-27723969D01*
X11936337Y-27773903D01*
X11936339Y-27773903D01*
X11936340Y-27773904D01*
X12164579Y-27835060D01*
X12164585Y-27835061D01*
X12164592Y-27835063D01*
X12305836Y-27847420D01*
X12399998Y-27855659D01*
X12400000Y-27855659D01*
X12400002Y-27855659D01*
X12478469Y-27848793D01*
X12635408Y-27835063D01*
X12635417Y-27835060D01*
X12635420Y-27835060D01*
X12863659Y-27773904D01*
X12863658Y-27773904D01*
X12863663Y-27773903D01*
X12936374Y-27739997D01*
X57211449Y-27739997D01*
X57211449Y-27740002D01*
X57230416Y-27956805D01*
X57230419Y-27956821D01*
X57286742Y-28167019D01*
X57286748Y-28167035D01*
X57378720Y-28364272D01*
X57378722Y-28364274D01*
X57478403Y-28506634D01*
X57478403Y-28506635D01*
X58009436Y-27975601D01*
X58053498Y-28051920D01*
X58148080Y-28146502D01*
X58224396Y-28190562D01*
X57693364Y-28721594D01*
X57835729Y-28821280D01*
X58032964Y-28913251D01*
X58032980Y-28913257D01*
X58243178Y-28969580D01*
X58243194Y-28969583D01*
X58459998Y-28988551D01*
X58460002Y-28988551D01*
X58676805Y-28969583D01*
X58676821Y-28969580D01*
X58887019Y-28913257D01*
X58887035Y-28913251D01*
X59084270Y-28821280D01*
X59226634Y-28721594D01*
X58695603Y-28190563D01*
X58771920Y-28146502D01*
X58866502Y-28051920D01*
X58910563Y-27975603D01*
X59441594Y-28506634D01*
X59541280Y-28364270D01*
X59633251Y-28167035D01*
X59633257Y-28167019D01*
X59689580Y-27956821D01*
X59689583Y-27956805D01*
X59708551Y-27740002D01*
X59708551Y-27739997D01*
X59689583Y-27523194D01*
X59689580Y-27523178D01*
X59633255Y-27312973D01*
X59633254Y-27312971D01*
X59541277Y-27115725D01*
X59441595Y-26973364D01*
X59441595Y-26973363D01*
X58910562Y-27504396D01*
X58866502Y-27428080D01*
X58771920Y-27333498D01*
X58695601Y-27289436D01*
X59226635Y-26758403D01*
X59084274Y-26658722D01*
X59084272Y-26658720D01*
X58887035Y-26566748D01*
X58887019Y-26566742D01*
X58676821Y-26510419D01*
X58676805Y-26510416D01*
X58557710Y-26499997D01*
X66164341Y-26499997D01*
X66164341Y-26500002D01*
X66184936Y-26735404D01*
X66184939Y-26735420D01*
X66246095Y-26963659D01*
X66246096Y-26963661D01*
X66345964Y-27177829D01*
X66481505Y-27371402D01*
X66648597Y-27538494D01*
X66656345Y-27543919D01*
X66842170Y-27674035D01*
X66842169Y-27674035D01*
X66949253Y-27723969D01*
X67056337Y-27773903D01*
X67056339Y-27773903D01*
X67056340Y-27773904D01*
X67284579Y-27835060D01*
X67284585Y-27835061D01*
X67284592Y-27835063D01*
X67425836Y-27847420D01*
X67519998Y-27855659D01*
X67520000Y-27855659D01*
X67520002Y-27855659D01*
X67598469Y-27848793D01*
X67755408Y-27835063D01*
X67755417Y-27835060D01*
X67755420Y-27835060D01*
X67983659Y-27773904D01*
X67983658Y-27773904D01*
X67983663Y-27773903D01*
X68197830Y-27674035D01*
X68391401Y-27538495D01*
X68558495Y-27371401D01*
X68694035Y-27177830D01*
X68793903Y-26963663D01*
X68855063Y-26735408D01*
X68869820Y-26566742D01*
X68875659Y-26500002D01*
X68875659Y-26499997D01*
X68855063Y-26264595D01*
X68855063Y-26264592D01*
X68845402Y-26228538D01*
X68793904Y-26036340D01*
X68793903Y-26036338D01*
X68792065Y-26032397D01*
X68694035Y-25822171D01*
X68579221Y-25658199D01*
X68558494Y-25628597D01*
X68391402Y-25461505D01*
X68210819Y-25335060D01*
X68197830Y-25325965D01*
X68197828Y-25325964D01*
X68197830Y-25325964D01*
X67983661Y-25226096D01*
X67983659Y-25226095D01*
X67755420Y-25164939D01*
X67755404Y-25164936D01*
X67520002Y-25144341D01*
X67519998Y-25144341D01*
X67284595Y-25164936D01*
X67284579Y-25164939D01*
X67056340Y-25226095D01*
X67056338Y-25226096D01*
X66842171Y-25325964D01*
X66648597Y-25461505D01*
X66481505Y-25628597D01*
X66345964Y-25822171D01*
X66246096Y-26036338D01*
X66246095Y-26036340D01*
X66184939Y-26264579D01*
X66184936Y-26264595D01*
X66164341Y-26499997D01*
X58557710Y-26499997D01*
X58460002Y-26491449D01*
X58459998Y-26491449D01*
X58243194Y-26510416D01*
X58243178Y-26510419D01*
X58032973Y-26566744D01*
X58032971Y-26566745D01*
X57835725Y-26658722D01*
X57693363Y-26758403D01*
X58224396Y-27289436D01*
X58148080Y-27333498D01*
X58053498Y-27428080D01*
X58009436Y-27504396D01*
X57478403Y-26973363D01*
X57378722Y-27115725D01*
X57286745Y-27312971D01*
X57286744Y-27312973D01*
X57230419Y-27523178D01*
X57230416Y-27523194D01*
X57211449Y-27739997D01*
X12936374Y-27739997D01*
X13077830Y-27674035D01*
X13271401Y-27538495D01*
X13438495Y-27371401D01*
X13574035Y-27177830D01*
X13673903Y-26963663D01*
X13735063Y-26735408D01*
X13749820Y-26566742D01*
X13755659Y-26500002D01*
X13755659Y-26499997D01*
X13735063Y-26264595D01*
X13735063Y-26264592D01*
X13725402Y-26228538D01*
X13673904Y-26036340D01*
X13673903Y-26036338D01*
X13672065Y-26032397D01*
X39210964Y-26032397D01*
X39210964Y-26032402D01*
X39217446Y-26069166D01*
X39229366Y-26136763D01*
X39280453Y-26225248D01*
X39282352Y-26228538D01*
X39363530Y-26296655D01*
X39363531Y-26296655D01*
X39363532Y-26296656D01*
X39463114Y-26332900D01*
X39463117Y-26332900D01*
X39569083Y-26332900D01*
X39569086Y-26332900D01*
X39668668Y-26296656D01*
X39749848Y-26228538D01*
X39802834Y-26136763D01*
X39814755Y-26069158D01*
X39821236Y-26032402D01*
X39821236Y-26032397D01*
X39802834Y-25928039D01*
X39802834Y-25928037D01*
X39749848Y-25836262D01*
X39733055Y-25822171D01*
X39668669Y-25768144D01*
X39668666Y-25768143D01*
X39569088Y-25731900D01*
X39569086Y-25731900D01*
X39463114Y-25731900D01*
X39463111Y-25731900D01*
X39363533Y-25768143D01*
X39363530Y-25768144D01*
X39282352Y-25836261D01*
X39229365Y-25928039D01*
X39210964Y-26032397D01*
X13672065Y-26032397D01*
X13574035Y-25822171D01*
X13459221Y-25658199D01*
X13438494Y-25628597D01*
X13271402Y-25461505D01*
X13123148Y-25357697D01*
X41320664Y-25357697D01*
X41320664Y-25357702D01*
X41338967Y-25461505D01*
X41339066Y-25462063D01*
X41392052Y-25553838D01*
X41473230Y-25621955D01*
X41473231Y-25621955D01*
X41473232Y-25621956D01*
X41572814Y-25658200D01*
X41572817Y-25658200D01*
X41678783Y-25658200D01*
X41678786Y-25658200D01*
X41778368Y-25621956D01*
X41859548Y-25553838D01*
X41912534Y-25462063D01*
X41927569Y-25376797D01*
X42506764Y-25376797D01*
X42506764Y-25376802D01*
X42521797Y-25462060D01*
X42525166Y-25481163D01*
X42567125Y-25553838D01*
X42578152Y-25572938D01*
X42659330Y-25641055D01*
X42659331Y-25641055D01*
X42659332Y-25641056D01*
X42758914Y-25677300D01*
X42758917Y-25677300D01*
X42864883Y-25677300D01*
X42864886Y-25677300D01*
X42964468Y-25641056D01*
X43045648Y-25572938D01*
X43098634Y-25481163D01*
X43117036Y-25376800D01*
X43117036Y-25376797D01*
X43105994Y-25314182D01*
X43098634Y-25272437D01*
X43056812Y-25199999D01*
X57414666Y-25199999D01*
X57414666Y-25200000D01*
X57434751Y-25403933D01*
X57494238Y-25600035D01*
X57590833Y-25780750D01*
X57590835Y-25780754D01*
X57590837Y-25780756D01*
X57720837Y-25939163D01*
X57879244Y-26069163D01*
X57879247Y-26069164D01*
X57879249Y-26069166D01*
X58005713Y-26136763D01*
X58059968Y-26165763D01*
X58256065Y-26225248D01*
X58460000Y-26245334D01*
X58663935Y-26225248D01*
X58860032Y-26165763D01*
X59040756Y-26069163D01*
X59199163Y-25939163D01*
X59329163Y-25780756D01*
X59425763Y-25600032D01*
X59485248Y-25403935D01*
X59505334Y-25200000D01*
X59501880Y-25164936D01*
X59494839Y-25093443D01*
X59485248Y-24996065D01*
X59425763Y-24799968D01*
X59379150Y-24712762D01*
X59329166Y-24619249D01*
X59329164Y-24619247D01*
X59329163Y-24619244D01*
X59199163Y-24460837D01*
X59040756Y-24330837D01*
X59040754Y-24330835D01*
X59040750Y-24330833D01*
X58860035Y-24234238D01*
X58663933Y-24174751D01*
X58460000Y-24154666D01*
X58256066Y-24174751D01*
X58059964Y-24234238D01*
X57879249Y-24330833D01*
X57879238Y-24330841D01*
X57720838Y-24460835D01*
X57720835Y-24460838D01*
X57590841Y-24619238D01*
X57590833Y-24619249D01*
X57494238Y-24799964D01*
X57434751Y-24996066D01*
X57414666Y-25199999D01*
X43056812Y-25199999D01*
X43045648Y-25180662D01*
X43045647Y-25180661D01*
X42964469Y-25112544D01*
X42964466Y-25112543D01*
X42864888Y-25076300D01*
X42864886Y-25076300D01*
X42758914Y-25076300D01*
X42758911Y-25076300D01*
X42659333Y-25112543D01*
X42659330Y-25112544D01*
X42578152Y-25180661D01*
X42525165Y-25272439D01*
X42506764Y-25376797D01*
X41927569Y-25376797D01*
X41930936Y-25357700D01*
X41930936Y-25357697D01*
X41919894Y-25295082D01*
X41912534Y-25253337D01*
X41859548Y-25161562D01*
X41801131Y-25112544D01*
X41778369Y-25093444D01*
X41778366Y-25093443D01*
X41678788Y-25057200D01*
X41678786Y-25057200D01*
X41572814Y-25057200D01*
X41572811Y-25057200D01*
X41473233Y-25093443D01*
X41473230Y-25093444D01*
X41392052Y-25161561D01*
X41339065Y-25253339D01*
X41320664Y-25357697D01*
X13123148Y-25357697D01*
X13090819Y-25335060D01*
X13077830Y-25325965D01*
X13077828Y-25325964D01*
X13077830Y-25325964D01*
X12863661Y-25226096D01*
X12863659Y-25226095D01*
X12635420Y-25164939D01*
X12635404Y-25164936D01*
X12400002Y-25144341D01*
X12399998Y-25144341D01*
X12164595Y-25164936D01*
X12164579Y-25164939D01*
X11936340Y-25226095D01*
X11936338Y-25226096D01*
X11722171Y-25325964D01*
X11528597Y-25461505D01*
X11361505Y-25628597D01*
X11225964Y-25822171D01*
X11126096Y-26036338D01*
X11126095Y-26036340D01*
X11064939Y-26264579D01*
X11064936Y-26264595D01*
X11044341Y-26499997D01*
X50500Y-26499997D01*
X50500Y-21499997D01*
X1144341Y-21499997D01*
X1144341Y-21500002D01*
X1164936Y-21735404D01*
X1164939Y-21735420D01*
X1226095Y-21963659D01*
X1226096Y-21963661D01*
X1325964Y-22177829D01*
X1461505Y-22371402D01*
X1628597Y-22538494D01*
X1641378Y-22547443D01*
X1822170Y-22674035D01*
X1863603Y-22693356D01*
X1895920Y-22728624D01*
X1893833Y-22776414D01*
X1863603Y-22806644D01*
X1822171Y-22825964D01*
X1628597Y-22961505D01*
X1461505Y-23128597D01*
X1325964Y-23322171D01*
X1226096Y-23536338D01*
X1226095Y-23536340D01*
X1164939Y-23764579D01*
X1164936Y-23764595D01*
X1144341Y-23999997D01*
X1144341Y-24000002D01*
X1164936Y-24235404D01*
X1164938Y-24235413D01*
X1226095Y-24463659D01*
X1226096Y-24463661D01*
X1325964Y-24677829D01*
X1461505Y-24871402D01*
X1628597Y-25038494D01*
X1655312Y-25057200D01*
X1822170Y-25174035D01*
X1822169Y-25174035D01*
X1898008Y-25209399D01*
X2036337Y-25273903D01*
X2036339Y-25273903D01*
X2036340Y-25273904D01*
X2264579Y-25335060D01*
X2264585Y-25335061D01*
X2264592Y-25335063D01*
X2405836Y-25347420D01*
X2499998Y-25355659D01*
X2500000Y-25355659D01*
X2500002Y-25355659D01*
X2578469Y-25348793D01*
X2735408Y-25335063D01*
X2735417Y-25335060D01*
X2735420Y-25335060D01*
X2963659Y-25273904D01*
X2963658Y-25273904D01*
X2963663Y-25273903D01*
X3177830Y-25174035D01*
X3371401Y-25038495D01*
X3538495Y-24871401D01*
X3674035Y-24677830D01*
X3773903Y-24463663D01*
X3835063Y-24235408D01*
X3855659Y-24000000D01*
X3855659Y-23999997D01*
X13544341Y-23999997D01*
X13544341Y-24000002D01*
X13564936Y-24235404D01*
X13564938Y-24235413D01*
X13626095Y-24463659D01*
X13626096Y-24463661D01*
X13725964Y-24677829D01*
X13861505Y-24871402D01*
X14028597Y-25038494D01*
X14055312Y-25057200D01*
X14222170Y-25174035D01*
X14222169Y-25174035D01*
X14298008Y-25209399D01*
X14436337Y-25273903D01*
X14436339Y-25273903D01*
X14436340Y-25273904D01*
X14664579Y-25335060D01*
X14664585Y-25335061D01*
X14664592Y-25335063D01*
X14805836Y-25347420D01*
X14899998Y-25355659D01*
X14900000Y-25355659D01*
X14900002Y-25355659D01*
X14978469Y-25348793D01*
X15135408Y-25335063D01*
X15135417Y-25335060D01*
X15135420Y-25335060D01*
X15363659Y-25273904D01*
X15363658Y-25273904D01*
X15363663Y-25273903D01*
X15577830Y-25174035D01*
X15771401Y-25038495D01*
X15900999Y-24908897D01*
X30015264Y-24908897D01*
X30015264Y-24908902D01*
X30030633Y-24996066D01*
X30033666Y-25013263D01*
X30048234Y-25038495D01*
X30086652Y-25105038D01*
X30167830Y-25173155D01*
X30167831Y-25173155D01*
X30167832Y-25173156D01*
X30267414Y-25209400D01*
X30267417Y-25209400D01*
X30373383Y-25209400D01*
X30373386Y-25209400D01*
X30472968Y-25173156D01*
X30554148Y-25105038D01*
X30607134Y-25013263D01*
X30625536Y-24908900D01*
X30625536Y-24908897D01*
X30607134Y-24804539D01*
X30607134Y-24804537D01*
X30589560Y-24774097D01*
X43661464Y-24774097D01*
X43661464Y-24774102D01*
X43678620Y-24871402D01*
X43679866Y-24878463D01*
X43697437Y-24908897D01*
X43732852Y-24970238D01*
X43814030Y-25038355D01*
X43814031Y-25038355D01*
X43814032Y-25038356D01*
X43913614Y-25074600D01*
X43913617Y-25074600D01*
X44019583Y-25074600D01*
X44019586Y-25074600D01*
X44119168Y-25038356D01*
X44200348Y-24970238D01*
X44253334Y-24878463D01*
X44267175Y-24799968D01*
X44271736Y-24774102D01*
X44271736Y-24774097D01*
X44253334Y-24669739D01*
X44253334Y-24669737D01*
X44200348Y-24577962D01*
X44200347Y-24577961D01*
X44119169Y-24509844D01*
X44119166Y-24509843D01*
X44019588Y-24473600D01*
X44019586Y-24473600D01*
X43913614Y-24473600D01*
X43913611Y-24473600D01*
X43814033Y-24509843D01*
X43814030Y-24509844D01*
X43732852Y-24577961D01*
X43679865Y-24669739D01*
X43661464Y-24774097D01*
X30589560Y-24774097D01*
X30554148Y-24712762D01*
X30512518Y-24677830D01*
X30472969Y-24644644D01*
X30472966Y-24644643D01*
X30373388Y-24608400D01*
X30373386Y-24608400D01*
X30267414Y-24608400D01*
X30267411Y-24608400D01*
X30167833Y-24644643D01*
X30167830Y-24644644D01*
X30086652Y-24712761D01*
X30033665Y-24804539D01*
X30015264Y-24908897D01*
X15900999Y-24908897D01*
X15938495Y-24871401D01*
X16074035Y-24677830D01*
X16173903Y-24463663D01*
X16235063Y-24235408D01*
X16255659Y-24000000D01*
X16255659Y-23999997D01*
X63664341Y-23999997D01*
X63664341Y-24000002D01*
X63684936Y-24235404D01*
X63684938Y-24235413D01*
X63746095Y-24463659D01*
X63746096Y-24463661D01*
X63845964Y-24677829D01*
X63981505Y-24871402D01*
X64148597Y-25038494D01*
X64175312Y-25057200D01*
X64342170Y-25174035D01*
X64342169Y-25174035D01*
X64418008Y-25209399D01*
X64556337Y-25273903D01*
X64556339Y-25273903D01*
X64556340Y-25273904D01*
X64784579Y-25335060D01*
X64784585Y-25335061D01*
X64784592Y-25335063D01*
X64925836Y-25347420D01*
X65019998Y-25355659D01*
X65020000Y-25355659D01*
X65020002Y-25355659D01*
X65098469Y-25348793D01*
X65255408Y-25335063D01*
X65255417Y-25335060D01*
X65255420Y-25335060D01*
X65483659Y-25273904D01*
X65483658Y-25273904D01*
X65483663Y-25273903D01*
X65697830Y-25174035D01*
X65891401Y-25038495D01*
X66058495Y-24871401D01*
X66194035Y-24677830D01*
X66293903Y-24463663D01*
X66355063Y-24235408D01*
X66375659Y-24000000D01*
X66355063Y-23764592D01*
X66351411Y-23750963D01*
X66293904Y-23536340D01*
X66293903Y-23536338D01*
X66290557Y-23529163D01*
X66194035Y-23322171D01*
X66164047Y-23279343D01*
X66058494Y-23128597D01*
X65891402Y-22961505D01*
X65752054Y-22863933D01*
X65697830Y-22825965D01*
X65697828Y-22825964D01*
X65697830Y-22825964D01*
X65483661Y-22726096D01*
X65483659Y-22726095D01*
X65255420Y-22664939D01*
X65255404Y-22664936D01*
X65020002Y-22644341D01*
X65019998Y-22644341D01*
X64784595Y-22664936D01*
X64784579Y-22664939D01*
X64556340Y-22726095D01*
X64556338Y-22726096D01*
X64342171Y-22825964D01*
X64148597Y-22961505D01*
X63981505Y-23128597D01*
X63845964Y-23322171D01*
X63746096Y-23536338D01*
X63746095Y-23536340D01*
X63684939Y-23764579D01*
X63684936Y-23764595D01*
X63664341Y-23999997D01*
X16255659Y-23999997D01*
X16235063Y-23764592D01*
X16231411Y-23750963D01*
X16175848Y-23543597D01*
X30393464Y-23543597D01*
X30393464Y-23543602D01*
X30411625Y-23646600D01*
X30411866Y-23647963D01*
X30444989Y-23705334D01*
X30464852Y-23739738D01*
X30546030Y-23807855D01*
X30546031Y-23807855D01*
X30546032Y-23807856D01*
X30645614Y-23844100D01*
X30645617Y-23844100D01*
X30751583Y-23844100D01*
X30751586Y-23844100D01*
X30851168Y-23807856D01*
X30932348Y-23739738D01*
X30985334Y-23647963D01*
X31003736Y-23543600D01*
X31003736Y-23543597D01*
X30990117Y-23466363D01*
X30985334Y-23439237D01*
X30940740Y-23361997D01*
X35633064Y-23361997D01*
X35633064Y-23362002D01*
X35650372Y-23460163D01*
X35651466Y-23466363D01*
X35687725Y-23529166D01*
X35704452Y-23558138D01*
X35785630Y-23626255D01*
X35785631Y-23626255D01*
X35785632Y-23626256D01*
X35885214Y-23662500D01*
X35885217Y-23662500D01*
X35991183Y-23662500D01*
X35991186Y-23662500D01*
X36034880Y-23646597D01*
X43722864Y-23646597D01*
X43722864Y-23646602D01*
X43739286Y-23739738D01*
X43741266Y-23750963D01*
X43774113Y-23807856D01*
X43794252Y-23842738D01*
X43875430Y-23910855D01*
X43875431Y-23910855D01*
X43875432Y-23910856D01*
X43975014Y-23947100D01*
X43975017Y-23947100D01*
X44080983Y-23947100D01*
X44080986Y-23947100D01*
X44180568Y-23910856D01*
X44261748Y-23842738D01*
X44314734Y-23750963D01*
X44323153Y-23703216D01*
X44348854Y-23662874D01*
X44395556Y-23652520D01*
X44406073Y-23655338D01*
X44408714Y-23656300D01*
X44408717Y-23656300D01*
X44514683Y-23656300D01*
X44514686Y-23656300D01*
X44614268Y-23620056D01*
X44695448Y-23551938D01*
X44748434Y-23460163D01*
X44763481Y-23374828D01*
X44766836Y-23355802D01*
X44766836Y-23355797D01*
X44753355Y-23279344D01*
X44748434Y-23251437D01*
X44695448Y-23159662D01*
X44695447Y-23159661D01*
X44614269Y-23091544D01*
X44614266Y-23091543D01*
X44514688Y-23055300D01*
X44514686Y-23055300D01*
X44408714Y-23055300D01*
X44408711Y-23055300D01*
X44309133Y-23091543D01*
X44309130Y-23091544D01*
X44227952Y-23159661D01*
X44174965Y-23251438D01*
X44166546Y-23299182D01*
X44140844Y-23339526D01*
X44094142Y-23349878D01*
X44083621Y-23347059D01*
X44080986Y-23346100D01*
X43975014Y-23346100D01*
X43975011Y-23346100D01*
X43875433Y-23382343D01*
X43875430Y-23382344D01*
X43794252Y-23450461D01*
X43752462Y-23522844D01*
X43748813Y-23529166D01*
X43741265Y-23542239D01*
X43722864Y-23646597D01*
X36034880Y-23646597D01*
X36090768Y-23626256D01*
X36171948Y-23558138D01*
X36224934Y-23466363D01*
X36243336Y-23362000D01*
X36243336Y-23361997D01*
X36232259Y-23299182D01*
X36224934Y-23257637D01*
X36171948Y-23165862D01*
X36127540Y-23128599D01*
X36090769Y-23097744D01*
X36090766Y-23097743D01*
X35991188Y-23061500D01*
X35991186Y-23061500D01*
X35885214Y-23061500D01*
X35885211Y-23061500D01*
X35785633Y-23097743D01*
X35785630Y-23097744D01*
X35704452Y-23165861D01*
X35662662Y-23238244D01*
X35655045Y-23251439D01*
X35651465Y-23257639D01*
X35633064Y-23361997D01*
X30940740Y-23361997D01*
X30932348Y-23347462D01*
X30930725Y-23346100D01*
X30851169Y-23279344D01*
X30851166Y-23279343D01*
X30751588Y-23243100D01*
X30751586Y-23243100D01*
X30645614Y-23243100D01*
X30645611Y-23243100D01*
X30546033Y-23279343D01*
X30546030Y-23279344D01*
X30464852Y-23347461D01*
X30411865Y-23439239D01*
X30393464Y-23543597D01*
X16175848Y-23543597D01*
X16173904Y-23536340D01*
X16173903Y-23536338D01*
X16170557Y-23529163D01*
X16074035Y-23322171D01*
X16044047Y-23279343D01*
X15938494Y-23128597D01*
X15771402Y-22961505D01*
X15632054Y-22863933D01*
X15577830Y-22825965D01*
X15577828Y-22825964D01*
X15577830Y-22825964D01*
X15547234Y-22811697D01*
X37328964Y-22811697D01*
X37328964Y-22811702D01*
X37331478Y-22825962D01*
X37347366Y-22916063D01*
X37373602Y-22961505D01*
X37400352Y-23007838D01*
X37481530Y-23075955D01*
X37481531Y-23075955D01*
X37481532Y-23075956D01*
X37581114Y-23112200D01*
X37581117Y-23112200D01*
X37687083Y-23112200D01*
X37687086Y-23112200D01*
X37786668Y-23075956D01*
X37867848Y-23007838D01*
X37920834Y-22916063D01*
X37939236Y-22811700D01*
X37939236Y-22811697D01*
X37924142Y-22726096D01*
X37920834Y-22707337D01*
X37893504Y-22659999D01*
X57414666Y-22659999D01*
X57414666Y-22660000D01*
X57434751Y-22863933D01*
X57494238Y-23060035D01*
X57590833Y-23240750D01*
X57590841Y-23240761D01*
X57678406Y-23347461D01*
X57720837Y-23399163D01*
X57879244Y-23529163D01*
X57879247Y-23529164D01*
X57879249Y-23529166D01*
X58049289Y-23620055D01*
X58059968Y-23625763D01*
X58256065Y-23685248D01*
X58460000Y-23705334D01*
X58663935Y-23685248D01*
X58860032Y-23625763D01*
X59040756Y-23529163D01*
X59199163Y-23399163D01*
X59329163Y-23240756D01*
X59425763Y-23060032D01*
X59485248Y-22863935D01*
X59505334Y-22660000D01*
X59485248Y-22456065D01*
X59425763Y-22259968D01*
X59425761Y-22259964D01*
X59329166Y-22079249D01*
X59329164Y-22079247D01*
X59329163Y-22079244D01*
X59234309Y-21963663D01*
X59199164Y-21920838D01*
X59199161Y-21920835D01*
X59040761Y-21790841D01*
X59040759Y-21790840D01*
X59040756Y-21790837D01*
X59040754Y-21790835D01*
X59040750Y-21790833D01*
X58860035Y-21694238D01*
X58848378Y-21690702D01*
X58823529Y-21683164D01*
X58663933Y-21634751D01*
X58460000Y-21614666D01*
X58256066Y-21634751D01*
X58059964Y-21694238D01*
X57879249Y-21790833D01*
X57879238Y-21790841D01*
X57720838Y-21920835D01*
X57720835Y-21920838D01*
X57590841Y-22079238D01*
X57590833Y-22079249D01*
X57494238Y-22259964D01*
X57434751Y-22456066D01*
X57414666Y-22659999D01*
X37893504Y-22659999D01*
X37867848Y-22615562D01*
X37867847Y-22615561D01*
X37786669Y-22547444D01*
X37786666Y-22547443D01*
X37687088Y-22511200D01*
X37687086Y-22511200D01*
X37581114Y-22511200D01*
X37581111Y-22511200D01*
X37481533Y-22547443D01*
X37481530Y-22547444D01*
X37400352Y-22615561D01*
X37347365Y-22707339D01*
X37328964Y-22811697D01*
X15547234Y-22811697D01*
X15363661Y-22726096D01*
X15363659Y-22726095D01*
X15135420Y-22664939D01*
X15135404Y-22664936D01*
X14900002Y-22644341D01*
X14899998Y-22644341D01*
X14664595Y-22664936D01*
X14664579Y-22664939D01*
X14436340Y-22726095D01*
X14436338Y-22726096D01*
X14222171Y-22825964D01*
X14028597Y-22961505D01*
X13861505Y-23128597D01*
X13725964Y-23322171D01*
X13626096Y-23536338D01*
X13626095Y-23536340D01*
X13564939Y-23764579D01*
X13564936Y-23764595D01*
X13544341Y-23999997D01*
X3855659Y-23999997D01*
X3835063Y-23764592D01*
X3831411Y-23750963D01*
X3773904Y-23536340D01*
X3773903Y-23536338D01*
X3770557Y-23529163D01*
X3674035Y-23322171D01*
X3644047Y-23279343D01*
X3538494Y-23128597D01*
X3371402Y-22961505D01*
X3232054Y-22863933D01*
X3177830Y-22825965D01*
X3177828Y-22825964D01*
X3177825Y-22825962D01*
X3136397Y-22806644D01*
X3104079Y-22771376D01*
X3106166Y-22723587D01*
X3136397Y-22693356D01*
X3159531Y-22682567D01*
X3177830Y-22674035D01*
X3371401Y-22538495D01*
X3538495Y-22371401D01*
X3674035Y-22177830D01*
X3773903Y-21963663D01*
X3790962Y-21899997D01*
X32591664Y-21899997D01*
X32591664Y-21900002D01*
X32607744Y-21991199D01*
X32610066Y-22004363D01*
X32632059Y-22042456D01*
X32663052Y-22096138D01*
X32744230Y-22164255D01*
X32744231Y-22164255D01*
X32744232Y-22164256D01*
X32843814Y-22200500D01*
X32843817Y-22200500D01*
X32949783Y-22200500D01*
X32949786Y-22200500D01*
X33049368Y-22164256D01*
X33130548Y-22096138D01*
X33183534Y-22004363D01*
X33201936Y-21900000D01*
X33201936Y-21899997D01*
X33183534Y-21795639D01*
X33183534Y-21795637D01*
X33130548Y-21703862D01*
X33119079Y-21694238D01*
X33114859Y-21690697D01*
X43566264Y-21690697D01*
X43566264Y-21690702D01*
X43583921Y-21790841D01*
X43584666Y-21795063D01*
X43584999Y-21795639D01*
X43637652Y-21886838D01*
X43718830Y-21954955D01*
X43718831Y-21954955D01*
X43718832Y-21954956D01*
X43818414Y-21991200D01*
X43818417Y-21991200D01*
X43924383Y-21991200D01*
X43924386Y-21991200D01*
X44023968Y-21954956D01*
X44105148Y-21886838D01*
X44158134Y-21795063D01*
X44161108Y-21778197D01*
X45656464Y-21778197D01*
X45656464Y-21778202D01*
X45659538Y-21795637D01*
X45674866Y-21882563D01*
X45696964Y-21920838D01*
X45727852Y-21974338D01*
X45809030Y-22042455D01*
X45809031Y-22042455D01*
X45809032Y-22042456D01*
X45908614Y-22078700D01*
X45908617Y-22078700D01*
X46014583Y-22078700D01*
X46014586Y-22078700D01*
X46114168Y-22042456D01*
X46195348Y-21974338D01*
X46248334Y-21882563D01*
X46263661Y-21795639D01*
X46266736Y-21778202D01*
X46266736Y-21778197D01*
X46248334Y-21673839D01*
X46248334Y-21673837D01*
X46195348Y-21582062D01*
X46195347Y-21582061D01*
X46114169Y-21513944D01*
X46114166Y-21513943D01*
X46075849Y-21499997D01*
X76064341Y-21499997D01*
X76064341Y-21500002D01*
X76084936Y-21735404D01*
X76084939Y-21735420D01*
X76146095Y-21963659D01*
X76146096Y-21963661D01*
X76245964Y-22177829D01*
X76381505Y-22371402D01*
X76548597Y-22538494D01*
X76561378Y-22547443D01*
X76742170Y-22674035D01*
X76783603Y-22693356D01*
X76815920Y-22728624D01*
X76813833Y-22776414D01*
X76783603Y-22806644D01*
X76742171Y-22825964D01*
X76548597Y-22961505D01*
X76381505Y-23128597D01*
X76245964Y-23322171D01*
X76146096Y-23536338D01*
X76146095Y-23536340D01*
X76084939Y-23764579D01*
X76084936Y-23764595D01*
X76064341Y-23999997D01*
X76064341Y-24000002D01*
X76084936Y-24235404D01*
X76084938Y-24235413D01*
X76146095Y-24463659D01*
X76146096Y-24463661D01*
X76245964Y-24677829D01*
X76381505Y-24871402D01*
X76548597Y-25038494D01*
X76575312Y-25057200D01*
X76742170Y-25174035D01*
X76742169Y-25174035D01*
X76818008Y-25209399D01*
X76956337Y-25273903D01*
X76956339Y-25273903D01*
X76956340Y-25273904D01*
X77184579Y-25335060D01*
X77184585Y-25335061D01*
X77184592Y-25335063D01*
X77325836Y-25347420D01*
X77419998Y-25355659D01*
X77420000Y-25355659D01*
X77420002Y-25355659D01*
X77498469Y-25348793D01*
X77655408Y-25335063D01*
X77655417Y-25335060D01*
X77655420Y-25335060D01*
X77883659Y-25273904D01*
X77883658Y-25273904D01*
X77883663Y-25273903D01*
X78097830Y-25174035D01*
X78291401Y-25038495D01*
X78458495Y-24871401D01*
X78594035Y-24677830D01*
X78693903Y-24463663D01*
X78755063Y-24235408D01*
X78775659Y-24000000D01*
X78755063Y-23764592D01*
X78751411Y-23750963D01*
X78693904Y-23536340D01*
X78693903Y-23536338D01*
X78690557Y-23529163D01*
X78594035Y-23322171D01*
X78564047Y-23279343D01*
X78458494Y-23128597D01*
X78291402Y-22961505D01*
X78152054Y-22863933D01*
X78097830Y-22825965D01*
X78097828Y-22825964D01*
X78097825Y-22825962D01*
X78056397Y-22806644D01*
X78024079Y-22771376D01*
X78026166Y-22723587D01*
X78056397Y-22693356D01*
X78079531Y-22682567D01*
X78097830Y-22674035D01*
X78291401Y-22538495D01*
X78458495Y-22371401D01*
X78594035Y-22177830D01*
X78693903Y-21963663D01*
X78739079Y-21795063D01*
X78755060Y-21735420D01*
X78755060Y-21735417D01*
X78755063Y-21735408D01*
X78775659Y-21500000D01*
X78769223Y-21426443D01*
X78755063Y-21264595D01*
X78755063Y-21264592D01*
X78728467Y-21165334D01*
X78693904Y-21036340D01*
X78693903Y-21036338D01*
X78671906Y-20989166D01*
X78594035Y-20822171D01*
X78509020Y-20700756D01*
X78458494Y-20628597D01*
X78291402Y-20461505D01*
X78110819Y-20335060D01*
X78097830Y-20325965D01*
X78097828Y-20325964D01*
X78097830Y-20325964D01*
X77883661Y-20226096D01*
X77883659Y-20226095D01*
X77655420Y-20164939D01*
X77655404Y-20164936D01*
X77420002Y-20144341D01*
X77419998Y-20144341D01*
X77184595Y-20164936D01*
X77184579Y-20164939D01*
X76956340Y-20226095D01*
X76956338Y-20226096D01*
X76742171Y-20325964D01*
X76548597Y-20461505D01*
X76381505Y-20628597D01*
X76245964Y-20822171D01*
X76146096Y-21036338D01*
X76146095Y-21036340D01*
X76084939Y-21264579D01*
X76084936Y-21264595D01*
X76064341Y-21499997D01*
X46075849Y-21499997D01*
X46014588Y-21477700D01*
X46014586Y-21477700D01*
X45908614Y-21477700D01*
X45908611Y-21477700D01*
X45809033Y-21513943D01*
X45809030Y-21513944D01*
X45727852Y-21582061D01*
X45674865Y-21673839D01*
X45656464Y-21778197D01*
X44161108Y-21778197D01*
X44174215Y-21703862D01*
X44176536Y-21690702D01*
X44176536Y-21690697D01*
X44158134Y-21586339D01*
X44158134Y-21586337D01*
X44105148Y-21494562D01*
X44085053Y-21477700D01*
X44023969Y-21426444D01*
X44023966Y-21426443D01*
X43924388Y-21390200D01*
X43924386Y-21390200D01*
X43818414Y-21390200D01*
X43818411Y-21390200D01*
X43718833Y-21426443D01*
X43718830Y-21426444D01*
X43637652Y-21494561D01*
X43584665Y-21586339D01*
X43566264Y-21690697D01*
X33114859Y-21690697D01*
X33049369Y-21635744D01*
X33049366Y-21635743D01*
X32949788Y-21599500D01*
X32949786Y-21599500D01*
X32843814Y-21599500D01*
X32843811Y-21599500D01*
X32744233Y-21635743D01*
X32744230Y-21635744D01*
X32663052Y-21703861D01*
X32644841Y-21735404D01*
X32610398Y-21795063D01*
X32610065Y-21795639D01*
X32591664Y-21899997D01*
X3790962Y-21899997D01*
X3819079Y-21795063D01*
X3835060Y-21735420D01*
X3835060Y-21735417D01*
X3835063Y-21735408D01*
X3855659Y-21500000D01*
X3849223Y-21426443D01*
X3835063Y-21264595D01*
X3835063Y-21264592D01*
X3808467Y-21165334D01*
X3773904Y-21036340D01*
X3773903Y-21036338D01*
X3751906Y-20989166D01*
X3674035Y-20822171D01*
X3589020Y-20700756D01*
X3538494Y-20628597D01*
X3371402Y-20461505D01*
X3190819Y-20335060D01*
X3177830Y-20325965D01*
X3177828Y-20325964D01*
X3177830Y-20325964D01*
X2963661Y-20226096D01*
X2963659Y-20226095D01*
X2735420Y-20164939D01*
X2735404Y-20164936D01*
X2500002Y-20144341D01*
X2499998Y-20144341D01*
X2264595Y-20164936D01*
X2264579Y-20164939D01*
X2036340Y-20226095D01*
X2036338Y-20226096D01*
X1822171Y-20325964D01*
X1628597Y-20461505D01*
X1461505Y-20628597D01*
X1325964Y-20822171D01*
X1226096Y-21036338D01*
X1226095Y-21036340D01*
X1164939Y-21264579D01*
X1164936Y-21264595D01*
X1144341Y-21499997D01*
X50500Y-21499997D01*
X50500Y-18999997D01*
X11044341Y-18999997D01*
X11044341Y-19000002D01*
X11064936Y-19235404D01*
X11064939Y-19235420D01*
X11126095Y-19463659D01*
X11126096Y-19463661D01*
X11225964Y-19677829D01*
X11361505Y-19871402D01*
X11528597Y-20038494D01*
X11590818Y-20082061D01*
X11722170Y-20174035D01*
X11722169Y-20174035D01*
X11780558Y-20201262D01*
X11936337Y-20273903D01*
X11936339Y-20273903D01*
X11936340Y-20273904D01*
X12164579Y-20335060D01*
X12164585Y-20335061D01*
X12164592Y-20335063D01*
X12305836Y-20347420D01*
X12399998Y-20355659D01*
X12400000Y-20355659D01*
X12400002Y-20355659D01*
X12478469Y-20348793D01*
X12635408Y-20335063D01*
X12635417Y-20335060D01*
X12635420Y-20335060D01*
X12847637Y-20278197D01*
X45656464Y-20278197D01*
X45656464Y-20278200D01*
X45674866Y-20382563D01*
X45678528Y-20388905D01*
X45727852Y-20474338D01*
X45809030Y-20542455D01*
X45809031Y-20542455D01*
X45809032Y-20542456D01*
X45908614Y-20578700D01*
X45908617Y-20578700D01*
X46014583Y-20578700D01*
X46014586Y-20578700D01*
X46114168Y-20542456D01*
X46195348Y-20474338D01*
X46248334Y-20382563D01*
X46266736Y-20278200D01*
X46266736Y-20278197D01*
X46248334Y-20173839D01*
X46248334Y-20173837D01*
X46217251Y-20119999D01*
X57414666Y-20119999D01*
X57414666Y-20120000D01*
X57434751Y-20323933D01*
X57494238Y-20520035D01*
X57590833Y-20700750D01*
X57590841Y-20700761D01*
X57690478Y-20822171D01*
X57720837Y-20859163D01*
X57879244Y-20989163D01*
X57879247Y-20989164D01*
X57879249Y-20989166D01*
X57967499Y-21036337D01*
X58059968Y-21085763D01*
X58256065Y-21145248D01*
X58460000Y-21165334D01*
X58663935Y-21145248D01*
X58860032Y-21085763D01*
X59040756Y-20989163D01*
X59199163Y-20859163D01*
X59329163Y-20700756D01*
X59425763Y-20520032D01*
X59485248Y-20323935D01*
X59505334Y-20120000D01*
X59485248Y-19916065D01*
X59425763Y-19719968D01*
X59425761Y-19719964D01*
X59329166Y-19539249D01*
X59329164Y-19539247D01*
X59329163Y-19539244D01*
X59199163Y-19380837D01*
X59040756Y-19250837D01*
X59040754Y-19250835D01*
X59040750Y-19250833D01*
X58860035Y-19154238D01*
X58663933Y-19094751D01*
X58460000Y-19074666D01*
X58256066Y-19094751D01*
X58059964Y-19154238D01*
X57879249Y-19250833D01*
X57879238Y-19250841D01*
X57720838Y-19380835D01*
X57720835Y-19380838D01*
X57590841Y-19539238D01*
X57590833Y-19539249D01*
X57494238Y-19719964D01*
X57434751Y-19916066D01*
X57414666Y-20119999D01*
X46217251Y-20119999D01*
X46195348Y-20082062D01*
X46143426Y-20038494D01*
X46114169Y-20013944D01*
X46114166Y-20013943D01*
X46014588Y-19977700D01*
X46014586Y-19977700D01*
X45908614Y-19977700D01*
X45908611Y-19977700D01*
X45809033Y-20013943D01*
X45809030Y-20013944D01*
X45727852Y-20082061D01*
X45674865Y-20173839D01*
X45656464Y-20278197D01*
X12847637Y-20278197D01*
X12863659Y-20273904D01*
X12863658Y-20273904D01*
X12863663Y-20273903D01*
X13077830Y-20174035D01*
X13271401Y-20038495D01*
X13438495Y-19871401D01*
X13574035Y-19677830D01*
X13673903Y-19463663D01*
X13735063Y-19235408D01*
X13751398Y-19048700D01*
X13755659Y-19000002D01*
X13755659Y-18999997D01*
X13746367Y-18893797D01*
X28827364Y-18893797D01*
X28827364Y-18893802D01*
X28833064Y-18926131D01*
X28845766Y-18998163D01*
X28874945Y-19048702D01*
X28898752Y-19089938D01*
X28979930Y-19158055D01*
X28979931Y-19158055D01*
X28979932Y-19158056D01*
X29079514Y-19194300D01*
X29079517Y-19194300D01*
X29185483Y-19194300D01*
X29185486Y-19194300D01*
X29285068Y-19158056D01*
X29366248Y-19089938D01*
X29419234Y-18998163D01*
X29431935Y-18926131D01*
X29436544Y-18899997D01*
X31342864Y-18899997D01*
X31342864Y-18900002D01*
X31360497Y-19000005D01*
X31361266Y-19004363D01*
X31386862Y-19048697D01*
X31414252Y-19096138D01*
X31495430Y-19164255D01*
X31495431Y-19164255D01*
X31495432Y-19164256D01*
X31595014Y-19200500D01*
X31595017Y-19200500D01*
X31700983Y-19200500D01*
X31700986Y-19200500D01*
X31800568Y-19164256D01*
X31881748Y-19096138D01*
X31909138Y-19048697D01*
X43572464Y-19048697D01*
X43572464Y-19048702D01*
X43580828Y-19096138D01*
X43590866Y-19153063D01*
X43614674Y-19194300D01*
X43643852Y-19244838D01*
X43725030Y-19312955D01*
X43725031Y-19312955D01*
X43725032Y-19312956D01*
X43824614Y-19349200D01*
X43824617Y-19349200D01*
X43930583Y-19349200D01*
X43930586Y-19349200D01*
X44030168Y-19312956D01*
X44111348Y-19244838D01*
X44164334Y-19153063D01*
X44175465Y-19089938D01*
X44182736Y-19048702D01*
X44182736Y-19048697D01*
X44174148Y-18999994D01*
X65961195Y-18999994D01*
X65961195Y-19000005D01*
X65980384Y-19243843D01*
X65980385Y-19243848D01*
X66037486Y-19481691D01*
X66037489Y-19481700D01*
X66131092Y-19707677D01*
X66131094Y-19707681D01*
X66258897Y-19916239D01*
X66318735Y-19986302D01*
X66893178Y-19411858D01*
X66937437Y-19478097D01*
X67041903Y-19582563D01*
X67108139Y-19626820D01*
X66533696Y-20201263D01*
X66603760Y-20261102D01*
X66812318Y-20388905D01*
X66812322Y-20388907D01*
X67038299Y-20482510D01*
X67038308Y-20482513D01*
X67276151Y-20539614D01*
X67276156Y-20539615D01*
X67519995Y-20558805D01*
X67520005Y-20558805D01*
X67763843Y-20539615D01*
X67763848Y-20539614D01*
X68001691Y-20482513D01*
X68001700Y-20482510D01*
X68227677Y-20388907D01*
X68227681Y-20388905D01*
X68436240Y-20261101D01*
X68506301Y-20201262D01*
X67931860Y-19626820D01*
X67998097Y-19582563D01*
X68102563Y-19478097D01*
X68146820Y-19411859D01*
X68721262Y-19986301D01*
X68781101Y-19916240D01*
X68908905Y-19707681D01*
X68908907Y-19707677D01*
X69002510Y-19481700D01*
X69002513Y-19481691D01*
X69059614Y-19243848D01*
X69059615Y-19243843D01*
X69078805Y-19000005D01*
X69078805Y-18999994D01*
X69059615Y-18756156D01*
X69059614Y-18756151D01*
X69002513Y-18518308D01*
X69002510Y-18518299D01*
X68908907Y-18292322D01*
X68908905Y-18292318D01*
X68781102Y-18083760D01*
X68721263Y-18013696D01*
X68146820Y-18588138D01*
X68102563Y-18521903D01*
X67998097Y-18417437D01*
X67931858Y-18373178D01*
X68506302Y-17798735D01*
X68436239Y-17738897D01*
X68227681Y-17611094D01*
X68227677Y-17611092D01*
X68001700Y-17517489D01*
X68001691Y-17517486D01*
X67763848Y-17460385D01*
X67763843Y-17460384D01*
X67520005Y-17441195D01*
X67519995Y-17441195D01*
X67276156Y-17460384D01*
X67276151Y-17460385D01*
X67038308Y-17517486D01*
X67038299Y-17517489D01*
X66812322Y-17611092D01*
X66812318Y-17611094D01*
X66603760Y-17738897D01*
X66533697Y-17798736D01*
X67108140Y-18373179D01*
X67041903Y-18417437D01*
X66937437Y-18521903D01*
X66893179Y-18588140D01*
X66318736Y-18013697D01*
X66258897Y-18083760D01*
X66131094Y-18292318D01*
X66131092Y-18292322D01*
X66037489Y-18518299D01*
X66037486Y-18518308D01*
X65980385Y-18756151D01*
X65980384Y-18756156D01*
X65961195Y-18999994D01*
X44174148Y-18999994D01*
X44164334Y-18944339D01*
X44164334Y-18944337D01*
X44111348Y-18852562D01*
X44060271Y-18809703D01*
X44038183Y-18767272D01*
X44052567Y-18721651D01*
X44060262Y-18713955D01*
X44111648Y-18670838D01*
X44164634Y-18579063D01*
X44183036Y-18474700D01*
X44183036Y-18474697D01*
X44164634Y-18370339D01*
X44164634Y-18370337D01*
X44129046Y-18308697D01*
X45656364Y-18308697D01*
X45656364Y-18308702D01*
X45672462Y-18400000D01*
X45674766Y-18413063D01*
X45695610Y-18449166D01*
X45727752Y-18504838D01*
X45808930Y-18572955D01*
X45808931Y-18572955D01*
X45808932Y-18572956D01*
X45908514Y-18609200D01*
X45908517Y-18609200D01*
X46014483Y-18609200D01*
X46014486Y-18609200D01*
X46114068Y-18572956D01*
X46195248Y-18504838D01*
X46248234Y-18413063D01*
X46264791Y-18319163D01*
X46266636Y-18308702D01*
X46266636Y-18308697D01*
X46249311Y-18210444D01*
X46248234Y-18204337D01*
X46195248Y-18112562D01*
X46195247Y-18112561D01*
X46114069Y-18044444D01*
X46114066Y-18044443D01*
X46014488Y-18008200D01*
X46014486Y-18008200D01*
X45908514Y-18008200D01*
X45908511Y-18008200D01*
X45808933Y-18044443D01*
X45808930Y-18044444D01*
X45727752Y-18112561D01*
X45674765Y-18204339D01*
X45656364Y-18308697D01*
X44129046Y-18308697D01*
X44111648Y-18278562D01*
X44111647Y-18278561D01*
X44030469Y-18210444D01*
X44030466Y-18210443D01*
X43930888Y-18174200D01*
X43930886Y-18174200D01*
X43824914Y-18174200D01*
X43824911Y-18174200D01*
X43725333Y-18210443D01*
X43725330Y-18210444D01*
X43644152Y-18278561D01*
X43591165Y-18370339D01*
X43572764Y-18474697D01*
X43572764Y-18474702D01*
X43583632Y-18536340D01*
X43591166Y-18579063D01*
X43620311Y-18629544D01*
X43644152Y-18670838D01*
X43695228Y-18713696D01*
X43717316Y-18756127D01*
X43702932Y-18801748D01*
X43695228Y-18809452D01*
X43643852Y-18852561D01*
X43590865Y-18944339D01*
X43572464Y-19048697D01*
X31909138Y-19048697D01*
X31934734Y-19004363D01*
X31945775Y-18941745D01*
X31953136Y-18900002D01*
X31953136Y-18899997D01*
X31937170Y-18809452D01*
X31934734Y-18795637D01*
X31881748Y-18703862D01*
X31881747Y-18703861D01*
X31800569Y-18635744D01*
X31800566Y-18635743D01*
X31700988Y-18599500D01*
X31700986Y-18599500D01*
X31595014Y-18599500D01*
X31595011Y-18599500D01*
X31495433Y-18635743D01*
X31495430Y-18635744D01*
X31414252Y-18703861D01*
X31384077Y-18756127D01*
X31364845Y-18789439D01*
X31361265Y-18795639D01*
X31342864Y-18899997D01*
X29436544Y-18899997D01*
X29437636Y-18893802D01*
X29437636Y-18893797D01*
X29421405Y-18801748D01*
X29419234Y-18789437D01*
X29366248Y-18697662D01*
X29366247Y-18697661D01*
X29285069Y-18629544D01*
X29285066Y-18629543D01*
X29185488Y-18593300D01*
X29185486Y-18593300D01*
X29079514Y-18593300D01*
X29079511Y-18593300D01*
X28979933Y-18629543D01*
X28979930Y-18629544D01*
X28898752Y-18697661D01*
X28845765Y-18789439D01*
X28827364Y-18893797D01*
X13746367Y-18893797D01*
X13745361Y-18882296D01*
X13735063Y-18764592D01*
X13734273Y-18761645D01*
X13673904Y-18536340D01*
X13673903Y-18536338D01*
X13665495Y-18518308D01*
X13610326Y-18399997D01*
X35247864Y-18399997D01*
X35247864Y-18400002D01*
X35261035Y-18474700D01*
X35266266Y-18504363D01*
X35319252Y-18596138D01*
X35400430Y-18664255D01*
X35400431Y-18664255D01*
X35400432Y-18664256D01*
X35500014Y-18700500D01*
X35500017Y-18700500D01*
X35605983Y-18700500D01*
X35605986Y-18700500D01*
X35705568Y-18664256D01*
X35786748Y-18596138D01*
X35839734Y-18504363D01*
X35850775Y-18441745D01*
X35858136Y-18400002D01*
X35858136Y-18399997D01*
X35843882Y-18319161D01*
X35839734Y-18295637D01*
X35786748Y-18203862D01*
X35786747Y-18203861D01*
X35705569Y-18135744D01*
X35705566Y-18135743D01*
X35605988Y-18099500D01*
X35605986Y-18099500D01*
X35500014Y-18099500D01*
X35500011Y-18099500D01*
X35400433Y-18135743D01*
X35400430Y-18135744D01*
X35319252Y-18203861D01*
X35266265Y-18295639D01*
X35247864Y-18399997D01*
X13610326Y-18399997D01*
X13574035Y-18322171D01*
X13495803Y-18210443D01*
X13438494Y-18128597D01*
X13343894Y-18033997D01*
X33984864Y-18033997D01*
X33984864Y-18034002D01*
X33998716Y-18112562D01*
X34003266Y-18138363D01*
X34041081Y-18203861D01*
X34056252Y-18230138D01*
X34137430Y-18298255D01*
X34137431Y-18298255D01*
X34137432Y-18298256D01*
X34237014Y-18334500D01*
X34237017Y-18334500D01*
X34342983Y-18334500D01*
X34342986Y-18334500D01*
X34442568Y-18298256D01*
X34523748Y-18230138D01*
X34576734Y-18138363D01*
X34587775Y-18075745D01*
X34595136Y-18034002D01*
X34595136Y-18033997D01*
X34576734Y-17929639D01*
X34576734Y-17929637D01*
X34523748Y-17837862D01*
X34523747Y-17837861D01*
X34442569Y-17769744D01*
X34442566Y-17769743D01*
X34342988Y-17733500D01*
X34342986Y-17733500D01*
X34237014Y-17733500D01*
X34237011Y-17733500D01*
X34137433Y-17769743D01*
X34137430Y-17769744D01*
X34056252Y-17837861D01*
X34003265Y-17929639D01*
X33984864Y-18033997D01*
X13343894Y-18033997D01*
X13271402Y-17961505D01*
X13120237Y-17855659D01*
X13077830Y-17825965D01*
X13077828Y-17825964D01*
X13077830Y-17825964D01*
X12863661Y-17726096D01*
X12863659Y-17726095D01*
X12635420Y-17664939D01*
X12635404Y-17664936D01*
X12400002Y-17644341D01*
X12399998Y-17644341D01*
X12164595Y-17664936D01*
X12164579Y-17664939D01*
X11936340Y-17726095D01*
X11936338Y-17726096D01*
X11722171Y-17825964D01*
X11528597Y-17961505D01*
X11361505Y-18128597D01*
X11225964Y-18322171D01*
X11126096Y-18536338D01*
X11126095Y-18536340D01*
X11064939Y-18764579D01*
X11064936Y-18764595D01*
X11044341Y-18999997D01*
X50500Y-18999997D01*
X50500Y-13999997D01*
X1144341Y-13999997D01*
X1144341Y-14000002D01*
X1164936Y-14235404D01*
X1164939Y-14235420D01*
X1226095Y-14463659D01*
X1226096Y-14463661D01*
X1325964Y-14677829D01*
X1461505Y-14871402D01*
X1628597Y-15038494D01*
X1677217Y-15072538D01*
X1822170Y-15174035D01*
X1863603Y-15193356D01*
X1895920Y-15228624D01*
X1893833Y-15276414D01*
X1863603Y-15306644D01*
X1822171Y-15325964D01*
X1628597Y-15461505D01*
X1461505Y-15628597D01*
X1325964Y-15822171D01*
X1226096Y-16036338D01*
X1226095Y-16036340D01*
X1164939Y-16264579D01*
X1164936Y-16264595D01*
X1144341Y-16499997D01*
X1144341Y-16500002D01*
X1164936Y-16735404D01*
X1164939Y-16735420D01*
X1226095Y-16963659D01*
X1226096Y-16963661D01*
X1325964Y-17177829D01*
X1461505Y-17371402D01*
X1628597Y-17538494D01*
X1687873Y-17579999D01*
X1822170Y-17674035D01*
X1822169Y-17674035D01*
X1929253Y-17723969D01*
X2036337Y-17773903D01*
X2036339Y-17773903D01*
X2036340Y-17773904D01*
X2264579Y-17835060D01*
X2264585Y-17835061D01*
X2264592Y-17835063D01*
X2405836Y-17847420D01*
X2499998Y-17855659D01*
X2500000Y-17855659D01*
X2500002Y-17855659D01*
X2578469Y-17848793D01*
X2735408Y-17835063D01*
X2735417Y-17835060D01*
X2735420Y-17835060D01*
X2963659Y-17773904D01*
X2963658Y-17773904D01*
X2963663Y-17773903D01*
X3177830Y-17674035D01*
X3371401Y-17538495D01*
X3538495Y-17371401D01*
X3674035Y-17177830D01*
X3743810Y-17028197D01*
X39699864Y-17028197D01*
X39699864Y-17028202D01*
X39708863Y-17079239D01*
X39718266Y-17132563D01*
X39771251Y-17224337D01*
X39771252Y-17224338D01*
X39852430Y-17292455D01*
X39852431Y-17292455D01*
X39852432Y-17292456D01*
X39952014Y-17328700D01*
X39952017Y-17328700D01*
X40057983Y-17328700D01*
X40057986Y-17328700D01*
X40157568Y-17292456D01*
X40238748Y-17224338D01*
X40270060Y-17170102D01*
X40308010Y-17140982D01*
X40355436Y-17147225D01*
X40378314Y-17170102D01*
X40412052Y-17228538D01*
X40493230Y-17296655D01*
X40493231Y-17296655D01*
X40493232Y-17296656D01*
X40572739Y-17325593D01*
X40581271Y-17328699D01*
X40592814Y-17332900D01*
X40592817Y-17332900D01*
X40698783Y-17332900D01*
X40698786Y-17332900D01*
X40798368Y-17296656D01*
X40798367Y-17296656D01*
X40803506Y-17294786D01*
X40803997Y-17296135D01*
X40845298Y-17290693D01*
X40883251Y-17319810D01*
X40883254Y-17319815D01*
X40917849Y-17379734D01*
X40917851Y-17379737D01*
X40999030Y-17447855D01*
X40999031Y-17447855D01*
X40999032Y-17447856D01*
X41098614Y-17484100D01*
X41098617Y-17484100D01*
X41204583Y-17484100D01*
X41204586Y-17484100D01*
X41290592Y-17452797D01*
X43353764Y-17452797D01*
X43353764Y-17452802D01*
X43365169Y-17517486D01*
X43372166Y-17557163D01*
X43385351Y-17580000D01*
X43425152Y-17648938D01*
X43506330Y-17717055D01*
X43506331Y-17717055D01*
X43506332Y-17717056D01*
X43605914Y-17753300D01*
X43605917Y-17753300D01*
X43711883Y-17753300D01*
X43711886Y-17753300D01*
X43811468Y-17717056D01*
X43892648Y-17648938D01*
X43932450Y-17579999D01*
X57414666Y-17579999D01*
X57414666Y-17580000D01*
X57434751Y-17783933D01*
X57494238Y-17980035D01*
X57590833Y-18160750D01*
X57590841Y-18160761D01*
X57701531Y-18295639D01*
X57720837Y-18319163D01*
X57879244Y-18449163D01*
X57879247Y-18449164D01*
X57879249Y-18449166D01*
X58042333Y-18536337D01*
X58059968Y-18545763D01*
X58256065Y-18605248D01*
X58460000Y-18625334D01*
X58663935Y-18605248D01*
X58860032Y-18545763D01*
X59040756Y-18449163D01*
X59199163Y-18319163D01*
X59329163Y-18160756D01*
X59425763Y-17980032D01*
X59485248Y-17783935D01*
X59505334Y-17580000D01*
X59503084Y-17557160D01*
X59492806Y-17452800D01*
X59485248Y-17376065D01*
X59425763Y-17179968D01*
X59420490Y-17170103D01*
X59329166Y-16999249D01*
X59329164Y-16999247D01*
X59329163Y-16999244D01*
X59290473Y-16952100D01*
X59199164Y-16840838D01*
X59199161Y-16840835D01*
X59040761Y-16710841D01*
X59040759Y-16710840D01*
X59040756Y-16710837D01*
X59040754Y-16710835D01*
X59040750Y-16710833D01*
X58860035Y-16614238D01*
X58663933Y-16554751D01*
X58460000Y-16534666D01*
X58256066Y-16554751D01*
X58059964Y-16614238D01*
X57879249Y-16710833D01*
X57879238Y-16710841D01*
X57720838Y-16840835D01*
X57720835Y-16840838D01*
X57590841Y-16999238D01*
X57590833Y-16999249D01*
X57494238Y-17179964D01*
X57434751Y-17376066D01*
X57414666Y-17579999D01*
X43932450Y-17579999D01*
X43945634Y-17557163D01*
X43964036Y-17452800D01*
X43964036Y-17452797D01*
X43951153Y-17379737D01*
X43945634Y-17348437D01*
X43892648Y-17256662D01*
X43892647Y-17256661D01*
X43811469Y-17188544D01*
X43811466Y-17188543D01*
X43711888Y-17152300D01*
X43711886Y-17152300D01*
X43605914Y-17152300D01*
X43605911Y-17152300D01*
X43506333Y-17188543D01*
X43506330Y-17188544D01*
X43425152Y-17256661D01*
X43372165Y-17348439D01*
X43353764Y-17452797D01*
X41290592Y-17452797D01*
X41304168Y-17447856D01*
X41385348Y-17379738D01*
X41438334Y-17287963D01*
X41449553Y-17224337D01*
X41456736Y-17183602D01*
X41456736Y-17183597D01*
X41438334Y-17079239D01*
X41438334Y-17079237D01*
X41385348Y-16987462D01*
X41385347Y-16987461D01*
X41304169Y-16919344D01*
X41304166Y-16919343D01*
X41204588Y-16883100D01*
X41204586Y-16883100D01*
X41098614Y-16883100D01*
X41098611Y-16883100D01*
X40993894Y-16921214D01*
X40993404Y-16919868D01*
X40952084Y-16925301D01*
X40914145Y-16896184D01*
X40879550Y-16836264D01*
X40879548Y-16836262D01*
X40798369Y-16768144D01*
X40798366Y-16768143D01*
X40698788Y-16731900D01*
X40698786Y-16731900D01*
X40592814Y-16731900D01*
X40592811Y-16731900D01*
X40493233Y-16768143D01*
X40493230Y-16768144D01*
X40412051Y-16836262D01*
X40412049Y-16836265D01*
X40380738Y-16890497D01*
X40342788Y-16919617D01*
X40295362Y-16913373D01*
X40272485Y-16890497D01*
X40238748Y-16832062D01*
X40238747Y-16832061D01*
X40157569Y-16763944D01*
X40157566Y-16763943D01*
X40057988Y-16727700D01*
X40057986Y-16727700D01*
X39952014Y-16727700D01*
X39952011Y-16727700D01*
X39852433Y-16763943D01*
X39852430Y-16763944D01*
X39771252Y-16832061D01*
X39766185Y-16840838D01*
X39719781Y-16921214D01*
X39718265Y-16923839D01*
X39699864Y-17028197D01*
X3743810Y-17028197D01*
X3773903Y-16963663D01*
X3795490Y-16883100D01*
X3835060Y-16735420D01*
X3835060Y-16735417D01*
X3835063Y-16735408D01*
X3855659Y-16500000D01*
X3835063Y-16264592D01*
X3773903Y-16036337D01*
X3674035Y-15822171D01*
X3538495Y-15628599D01*
X3538494Y-15628597D01*
X3371402Y-15461505D01*
X3190819Y-15335060D01*
X3177830Y-15325965D01*
X3177828Y-15325964D01*
X3177825Y-15325962D01*
X3136397Y-15306644D01*
X3104079Y-15271376D01*
X3106166Y-15223587D01*
X3136397Y-15193356D01*
X3171688Y-15176899D01*
X3177830Y-15174035D01*
X3371401Y-15038495D01*
X3538495Y-14871401D01*
X3674035Y-14677830D01*
X3773903Y-14463663D01*
X3835063Y-14235408D01*
X3854368Y-14014752D01*
X3855659Y-14000002D01*
X3855659Y-13999997D01*
X13544341Y-13999997D01*
X13544341Y-14000002D01*
X13564936Y-14235404D01*
X13564939Y-14235420D01*
X13626095Y-14463659D01*
X13626096Y-14463661D01*
X13725964Y-14677829D01*
X13861505Y-14871402D01*
X14028597Y-15038494D01*
X14077217Y-15072538D01*
X14222170Y-15174035D01*
X14222169Y-15174035D01*
X14303704Y-15212055D01*
X14436337Y-15273903D01*
X14436339Y-15273903D01*
X14436340Y-15273904D01*
X14664579Y-15335060D01*
X14664585Y-15335061D01*
X14664592Y-15335063D01*
X14805836Y-15347420D01*
X14899998Y-15355659D01*
X14900000Y-15355659D01*
X14900002Y-15355659D01*
X14978469Y-15348793D01*
X15135408Y-15335063D01*
X15135417Y-15335060D01*
X15135420Y-15335060D01*
X15306599Y-15289193D01*
X15363663Y-15273903D01*
X15577830Y-15174035D01*
X15771401Y-15038495D01*
X15938495Y-14871401D01*
X15969657Y-14826897D01*
X33026364Y-14826897D01*
X33026364Y-14826902D01*
X33035092Y-14876402D01*
X33044766Y-14931263D01*
X33054312Y-14947797D01*
X33097752Y-15023038D01*
X33178930Y-15091155D01*
X33178931Y-15091155D01*
X33178932Y-15091156D01*
X33278514Y-15127400D01*
X33278517Y-15127400D01*
X33384483Y-15127400D01*
X33384486Y-15127400D01*
X33484068Y-15091156D01*
X33565248Y-15023038D01*
X33618234Y-14931263D01*
X33627908Y-14876397D01*
X38958064Y-14876397D01*
X38958064Y-14876402D01*
X38970653Y-14947800D01*
X38976466Y-14980763D01*
X39017687Y-15052160D01*
X39029452Y-15072538D01*
X39110630Y-15140655D01*
X39110631Y-15140655D01*
X39110632Y-15140656D01*
X39210214Y-15176900D01*
X39210217Y-15176900D01*
X39316183Y-15176900D01*
X39316186Y-15176900D01*
X39415768Y-15140656D01*
X39496948Y-15072538D01*
X39549934Y-14980763D01*
X39555747Y-14947797D01*
X41993664Y-14947797D01*
X41993664Y-14947802D01*
X42009655Y-15038494D01*
X42012066Y-15052163D01*
X42055503Y-15127399D01*
X42065052Y-15143938D01*
X42146230Y-15212055D01*
X42146231Y-15212055D01*
X42146232Y-15212056D01*
X42245814Y-15248300D01*
X42245817Y-15248300D01*
X42351783Y-15248300D01*
X42351786Y-15248300D01*
X42451368Y-15212056D01*
X42532548Y-15143938D01*
X42585534Y-15052163D01*
X42587679Y-15039999D01*
X57414666Y-15039999D01*
X57414666Y-15040000D01*
X57434751Y-15243933D01*
X57494238Y-15440035D01*
X57590833Y-15620750D01*
X57590841Y-15620761D01*
X57597273Y-15628599D01*
X57720837Y-15779163D01*
X57879244Y-15909163D01*
X57879247Y-15909164D01*
X57879249Y-15909166D01*
X58059964Y-16005761D01*
X58059968Y-16005763D01*
X58256065Y-16065248D01*
X58460000Y-16085334D01*
X58663935Y-16065248D01*
X58860032Y-16005763D01*
X59040756Y-15909163D01*
X59199163Y-15779163D01*
X59329163Y-15620756D01*
X59425763Y-15440032D01*
X59485248Y-15243935D01*
X59505334Y-15040000D01*
X59485248Y-14836065D01*
X59425763Y-14639968D01*
X59384432Y-14562644D01*
X59329166Y-14459249D01*
X59329164Y-14459247D01*
X59329163Y-14459244D01*
X59199163Y-14300837D01*
X59119451Y-14235420D01*
X59040761Y-14170841D01*
X59040759Y-14170840D01*
X59040756Y-14170837D01*
X59040754Y-14170835D01*
X59040750Y-14170833D01*
X58860035Y-14074238D01*
X58663933Y-14014751D01*
X58514128Y-13999997D01*
X63664341Y-13999997D01*
X63664341Y-14000002D01*
X63684936Y-14235404D01*
X63684939Y-14235420D01*
X63746095Y-14463659D01*
X63746096Y-14463661D01*
X63845964Y-14677829D01*
X63981505Y-14871402D01*
X64148597Y-15038494D01*
X64197217Y-15072538D01*
X64342170Y-15174035D01*
X64342169Y-15174035D01*
X64423704Y-15212055D01*
X64556337Y-15273903D01*
X64556339Y-15273903D01*
X64556340Y-15273904D01*
X64784579Y-15335060D01*
X64784585Y-15335061D01*
X64784592Y-15335063D01*
X64925836Y-15347420D01*
X65019998Y-15355659D01*
X65020000Y-15355659D01*
X65020002Y-15355659D01*
X65098469Y-15348793D01*
X65255408Y-15335063D01*
X65255417Y-15335060D01*
X65255420Y-15335060D01*
X65426599Y-15289193D01*
X65483663Y-15273903D01*
X65697830Y-15174035D01*
X65891401Y-15038495D01*
X66058495Y-14871401D01*
X66194035Y-14677830D01*
X66293903Y-14463663D01*
X66355063Y-14235408D01*
X66374368Y-14014752D01*
X66375659Y-14000002D01*
X66375659Y-13999997D01*
X76064341Y-13999997D01*
X76064341Y-14000002D01*
X76084936Y-14235404D01*
X76084939Y-14235420D01*
X76146095Y-14463659D01*
X76146096Y-14463661D01*
X76245964Y-14677829D01*
X76381505Y-14871402D01*
X76548597Y-15038494D01*
X76597217Y-15072538D01*
X76742170Y-15174035D01*
X76783603Y-15193356D01*
X76815920Y-15228624D01*
X76813833Y-15276414D01*
X76783603Y-15306644D01*
X76742171Y-15325964D01*
X76548597Y-15461505D01*
X76381505Y-15628597D01*
X76245964Y-15822171D01*
X76146096Y-16036338D01*
X76146095Y-16036340D01*
X76084939Y-16264579D01*
X76084936Y-16264595D01*
X76064341Y-16499997D01*
X76064341Y-16500002D01*
X76084936Y-16735404D01*
X76084939Y-16735420D01*
X76146095Y-16963659D01*
X76146096Y-16963661D01*
X76245964Y-17177829D01*
X76381505Y-17371402D01*
X76548597Y-17538494D01*
X76607873Y-17579999D01*
X76742170Y-17674035D01*
X76742169Y-17674035D01*
X76849253Y-17723969D01*
X76956337Y-17773903D01*
X76956339Y-17773903D01*
X76956340Y-17773904D01*
X77184579Y-17835060D01*
X77184585Y-17835061D01*
X77184592Y-17835063D01*
X77325836Y-17847420D01*
X77419998Y-17855659D01*
X77420000Y-17855659D01*
X77420002Y-17855659D01*
X77498469Y-17848793D01*
X77655408Y-17835063D01*
X77655417Y-17835060D01*
X77655420Y-17835060D01*
X77883659Y-17773904D01*
X77883658Y-17773904D01*
X77883663Y-17773903D01*
X78097830Y-17674035D01*
X78291401Y-17538495D01*
X78458495Y-17371401D01*
X78594035Y-17177830D01*
X78693903Y-16963663D01*
X78715490Y-16883100D01*
X78755060Y-16735420D01*
X78755060Y-16735417D01*
X78755063Y-16735408D01*
X78775659Y-16500000D01*
X78755063Y-16264592D01*
X78693903Y-16036337D01*
X78594035Y-15822171D01*
X78458495Y-15628599D01*
X78458494Y-15628597D01*
X78291402Y-15461505D01*
X78110819Y-15335060D01*
X78097830Y-15325965D01*
X78097828Y-15325964D01*
X78097825Y-15325962D01*
X78056397Y-15306644D01*
X78024079Y-15271376D01*
X78026166Y-15223587D01*
X78056397Y-15193356D01*
X78091688Y-15176899D01*
X78097830Y-15174035D01*
X78291401Y-15038495D01*
X78458495Y-14871401D01*
X78594035Y-14677830D01*
X78693903Y-14463663D01*
X78755063Y-14235408D01*
X78774368Y-14014752D01*
X78775659Y-14000002D01*
X78775659Y-13999997D01*
X78755063Y-13764595D01*
X78755063Y-13764592D01*
X78749723Y-13744663D01*
X78693904Y-13536340D01*
X78693903Y-13536338D01*
X78660993Y-13465763D01*
X78594035Y-13322171D01*
X78535913Y-13239164D01*
X78458494Y-13128597D01*
X78291402Y-12961505D01*
X78110819Y-12835060D01*
X78097830Y-12825965D01*
X78097828Y-12825964D01*
X78097830Y-12825964D01*
X77883661Y-12726096D01*
X77883659Y-12726095D01*
X77655420Y-12664939D01*
X77655404Y-12664936D01*
X77420002Y-12644341D01*
X77419998Y-12644341D01*
X77184595Y-12664936D01*
X77184579Y-12664939D01*
X76956340Y-12726095D01*
X76956338Y-12726096D01*
X76742171Y-12825964D01*
X76548597Y-12961505D01*
X76381505Y-13128597D01*
X76245964Y-13322171D01*
X76146096Y-13536338D01*
X76146095Y-13536340D01*
X76084939Y-13764579D01*
X76084936Y-13764595D01*
X76064341Y-13999997D01*
X66375659Y-13999997D01*
X66355063Y-13764595D01*
X66355063Y-13764592D01*
X66349723Y-13744663D01*
X66293904Y-13536340D01*
X66293903Y-13536338D01*
X66260993Y-13465763D01*
X66194035Y-13322171D01*
X66135913Y-13239164D01*
X66058494Y-13128597D01*
X65891402Y-12961505D01*
X65710819Y-12835060D01*
X65697830Y-12825965D01*
X65697828Y-12825964D01*
X65697830Y-12825964D01*
X65483661Y-12726096D01*
X65483659Y-12726095D01*
X65255420Y-12664939D01*
X65255404Y-12664936D01*
X65020002Y-12644341D01*
X65019998Y-12644341D01*
X64784595Y-12664936D01*
X64784579Y-12664939D01*
X64556340Y-12726095D01*
X64556338Y-12726096D01*
X64342171Y-12825964D01*
X64148597Y-12961505D01*
X63981505Y-13128597D01*
X63845964Y-13322171D01*
X63746096Y-13536338D01*
X63746095Y-13536340D01*
X63684939Y-13764579D01*
X63684936Y-13764595D01*
X63664341Y-13999997D01*
X58514128Y-13999997D01*
X58460000Y-13994666D01*
X58256066Y-14014751D01*
X58059964Y-14074238D01*
X57879249Y-14170833D01*
X57879238Y-14170841D01*
X57720838Y-14300835D01*
X57720835Y-14300838D01*
X57590841Y-14459238D01*
X57590833Y-14459249D01*
X57494238Y-14639964D01*
X57434751Y-14836066D01*
X57414666Y-15039999D01*
X42587679Y-15039999D01*
X42603936Y-14947800D01*
X42603936Y-14947797D01*
X42585534Y-14843439D01*
X42585534Y-14843437D01*
X42532548Y-14751662D01*
X42497841Y-14722539D01*
X42451369Y-14683544D01*
X42451366Y-14683543D01*
X42351788Y-14647300D01*
X42351786Y-14647300D01*
X42245814Y-14647300D01*
X42245811Y-14647300D01*
X42146233Y-14683543D01*
X42146230Y-14683544D01*
X42065052Y-14751661D01*
X42012065Y-14843439D01*
X41993664Y-14947797D01*
X39555747Y-14947797D01*
X39568336Y-14876400D01*
X39568336Y-14876397D01*
X39549934Y-14772039D01*
X39549934Y-14772037D01*
X39496948Y-14680262D01*
X39494050Y-14677830D01*
X39415769Y-14612144D01*
X39415766Y-14612143D01*
X39316188Y-14575900D01*
X39316186Y-14575900D01*
X39210214Y-14575900D01*
X39210211Y-14575900D01*
X39110633Y-14612143D01*
X39110630Y-14612144D01*
X39029452Y-14680261D01*
X38976465Y-14772039D01*
X38958064Y-14876397D01*
X33627908Y-14876397D01*
X33636636Y-14826900D01*
X33636636Y-14826897D01*
X33625594Y-14764282D01*
X33618234Y-14722537D01*
X33565248Y-14630762D01*
X33543059Y-14612143D01*
X33484069Y-14562644D01*
X33484066Y-14562643D01*
X33384488Y-14526400D01*
X33384486Y-14526400D01*
X33278514Y-14526400D01*
X33278511Y-14526400D01*
X33178933Y-14562643D01*
X33178930Y-14562644D01*
X33097752Y-14630761D01*
X33044765Y-14722539D01*
X33026364Y-14826897D01*
X15969657Y-14826897D01*
X16074035Y-14677830D01*
X16173903Y-14463663D01*
X16235063Y-14235408D01*
X16254368Y-14014752D01*
X16255659Y-14000002D01*
X16255659Y-13999997D01*
X16253034Y-13969997D01*
X41368664Y-13969997D01*
X41368664Y-13970002D01*
X41387043Y-14074238D01*
X41387066Y-14074363D01*
X41440052Y-14166138D01*
X41521230Y-14234255D01*
X41521231Y-14234255D01*
X41521232Y-14234256D01*
X41620814Y-14270500D01*
X41620817Y-14270500D01*
X41726783Y-14270500D01*
X41726786Y-14270500D01*
X41826368Y-14234256D01*
X41907548Y-14166138D01*
X41960534Y-14074363D01*
X41978936Y-13970000D01*
X41978936Y-13969997D01*
X41960534Y-13865639D01*
X41960534Y-13865637D01*
X41907548Y-13773862D01*
X41896504Y-13764595D01*
X41826369Y-13705744D01*
X41826366Y-13705743D01*
X41726788Y-13669500D01*
X41726786Y-13669500D01*
X41620814Y-13669500D01*
X41620811Y-13669500D01*
X41521233Y-13705743D01*
X41521230Y-13705744D01*
X41440052Y-13773861D01*
X41387065Y-13865639D01*
X41368664Y-13969997D01*
X16253034Y-13969997D01*
X16235063Y-13764595D01*
X16235063Y-13764592D01*
X16229723Y-13744663D01*
X16201759Y-13640297D01*
X38094864Y-13640297D01*
X38094864Y-13640302D01*
X38106403Y-13705744D01*
X38113266Y-13744663D01*
X38130124Y-13773862D01*
X38166252Y-13836438D01*
X38247430Y-13904555D01*
X38247431Y-13904555D01*
X38247432Y-13904556D01*
X38347014Y-13940800D01*
X38347017Y-13940800D01*
X38452983Y-13940800D01*
X38452986Y-13940800D01*
X38552568Y-13904556D01*
X38633748Y-13836438D01*
X38686734Y-13744663D01*
X38705136Y-13640300D01*
X38705136Y-13640297D01*
X38686805Y-13536340D01*
X38686734Y-13535937D01*
X38633748Y-13444162D01*
X38633747Y-13444161D01*
X38552569Y-13376044D01*
X38552566Y-13376043D01*
X38452988Y-13339800D01*
X38452986Y-13339800D01*
X38347014Y-13339800D01*
X38347011Y-13339800D01*
X38247433Y-13376043D01*
X38247430Y-13376044D01*
X38166252Y-13444161D01*
X38113265Y-13535939D01*
X38094864Y-13640297D01*
X16201759Y-13640297D01*
X16173904Y-13536340D01*
X16173903Y-13536338D01*
X16140993Y-13465763D01*
X16074035Y-13322171D01*
X16015913Y-13239164D01*
X15938494Y-13128597D01*
X15791494Y-12981597D01*
X51757964Y-12981597D01*
X51757964Y-12981602D01*
X51775448Y-13080761D01*
X51776366Y-13085963D01*
X51800981Y-13128597D01*
X51829352Y-13177738D01*
X51910530Y-13245855D01*
X51910531Y-13245855D01*
X51910532Y-13245856D01*
X52010114Y-13282100D01*
X52010117Y-13282100D01*
X52116083Y-13282100D01*
X52116086Y-13282100D01*
X52215668Y-13245856D01*
X52296848Y-13177738D01*
X52349834Y-13085963D01*
X52368236Y-12981600D01*
X52368236Y-12981597D01*
X52349834Y-12877239D01*
X52349834Y-12877237D01*
X52296848Y-12785462D01*
X52283074Y-12773904D01*
X52215669Y-12717344D01*
X52215666Y-12717343D01*
X52116088Y-12681100D01*
X52116086Y-12681100D01*
X52010114Y-12681100D01*
X52010111Y-12681100D01*
X51910533Y-12717343D01*
X51910530Y-12717344D01*
X51829352Y-12785461D01*
X51776365Y-12877239D01*
X51757964Y-12981597D01*
X15791494Y-12981597D01*
X15771402Y-12961505D01*
X15590819Y-12835060D01*
X15577830Y-12825965D01*
X15577828Y-12825964D01*
X15577830Y-12825964D01*
X15363661Y-12726096D01*
X15363659Y-12726095D01*
X15135420Y-12664939D01*
X15135404Y-12664936D01*
X14900002Y-12644341D01*
X14899998Y-12644341D01*
X14664595Y-12664936D01*
X14664579Y-12664939D01*
X14436340Y-12726095D01*
X14436338Y-12726096D01*
X14222171Y-12825964D01*
X14028597Y-12961505D01*
X13861505Y-13128597D01*
X13725964Y-13322171D01*
X13626096Y-13536338D01*
X13626095Y-13536340D01*
X13564939Y-13764579D01*
X13564936Y-13764595D01*
X13544341Y-13999997D01*
X3855659Y-13999997D01*
X3835063Y-13764595D01*
X3835063Y-13764592D01*
X3829723Y-13744663D01*
X3773904Y-13536340D01*
X3773903Y-13536338D01*
X3740993Y-13465763D01*
X3674035Y-13322171D01*
X3615913Y-13239164D01*
X3538494Y-13128597D01*
X3371402Y-12961505D01*
X3190819Y-12835060D01*
X3177830Y-12825965D01*
X3177828Y-12825964D01*
X3177830Y-12825964D01*
X2963661Y-12726096D01*
X2963659Y-12726095D01*
X2735420Y-12664939D01*
X2735404Y-12664936D01*
X2500002Y-12644341D01*
X2499998Y-12644341D01*
X2264595Y-12664936D01*
X2264579Y-12664939D01*
X2036340Y-12726095D01*
X2036338Y-12726096D01*
X1822171Y-12825964D01*
X1628597Y-12961505D01*
X1461505Y-13128597D01*
X1325964Y-13322171D01*
X1226096Y-13536338D01*
X1226095Y-13536340D01*
X1164939Y-13764579D01*
X1164936Y-13764595D01*
X1144341Y-13999997D01*
X50500Y-13999997D01*
X50500Y-11499997D01*
X11044341Y-11499997D01*
X11044341Y-11500002D01*
X11064936Y-11735404D01*
X11064939Y-11735420D01*
X11126095Y-11963659D01*
X11126096Y-11963661D01*
X11225964Y-12177829D01*
X11361505Y-12371402D01*
X11528597Y-12538494D01*
X11599020Y-12587804D01*
X11722170Y-12674035D01*
X11722169Y-12674035D01*
X11815044Y-12717343D01*
X11936337Y-12773903D01*
X11936339Y-12773903D01*
X11936340Y-12773904D01*
X12164579Y-12835060D01*
X12164585Y-12835061D01*
X12164592Y-12835063D01*
X12305836Y-12847420D01*
X12399998Y-12855659D01*
X12400000Y-12855659D01*
X12400002Y-12855659D01*
X12478469Y-12848793D01*
X12635408Y-12835063D01*
X12635417Y-12835060D01*
X12635420Y-12835060D01*
X12863659Y-12773904D01*
X12863658Y-12773904D01*
X12863663Y-12773903D01*
X13077830Y-12674035D01*
X13271401Y-12538495D01*
X13309897Y-12499999D01*
X57414666Y-12499999D01*
X57414666Y-12500000D01*
X57434751Y-12703933D01*
X57494238Y-12900035D01*
X57590833Y-13080750D01*
X57590841Y-13080761D01*
X57720835Y-13239161D01*
X57720838Y-13239164D01*
X57773155Y-13282099D01*
X57879244Y-13369163D01*
X57879247Y-13369164D01*
X57879249Y-13369166D01*
X58059964Y-13465761D01*
X58059968Y-13465763D01*
X58256065Y-13525248D01*
X58460000Y-13545334D01*
X58663935Y-13525248D01*
X58860032Y-13465763D01*
X59040756Y-13369163D01*
X59199163Y-13239163D01*
X59329163Y-13080756D01*
X59425763Y-12900032D01*
X59485248Y-12703935D01*
X59505334Y-12500000D01*
X59485248Y-12296065D01*
X59425763Y-12099968D01*
X59329163Y-11919244D01*
X59199163Y-11760837D01*
X59168177Y-11735408D01*
X59040761Y-11630841D01*
X59040759Y-11630840D01*
X59040756Y-11630837D01*
X59040754Y-11630835D01*
X59040750Y-11630833D01*
X58860035Y-11534238D01*
X58747158Y-11499997D01*
X66164341Y-11499997D01*
X66164341Y-11500002D01*
X66184936Y-11735404D01*
X66184939Y-11735420D01*
X66246095Y-11963659D01*
X66246096Y-11963661D01*
X66345964Y-12177829D01*
X66481505Y-12371402D01*
X66648597Y-12538494D01*
X66719020Y-12587804D01*
X66842170Y-12674035D01*
X66842169Y-12674035D01*
X66935044Y-12717343D01*
X67056337Y-12773903D01*
X67056339Y-12773903D01*
X67056340Y-12773904D01*
X67284579Y-12835060D01*
X67284585Y-12835061D01*
X67284592Y-12835063D01*
X67425836Y-12847420D01*
X67519998Y-12855659D01*
X67520000Y-12855659D01*
X67520002Y-12855659D01*
X67598469Y-12848793D01*
X67755408Y-12835063D01*
X67755417Y-12835060D01*
X67755420Y-12835060D01*
X67983659Y-12773904D01*
X67983658Y-12773904D01*
X67983663Y-12773903D01*
X68197830Y-12674035D01*
X68391401Y-12538495D01*
X68558495Y-12371401D01*
X68694035Y-12177830D01*
X68793903Y-11963663D01*
X68835145Y-11809743D01*
X68855060Y-11735420D01*
X68855060Y-11735417D01*
X68855063Y-11735408D01*
X68868793Y-11578469D01*
X68875659Y-11500002D01*
X68875659Y-11499997D01*
X68855063Y-11264595D01*
X68855063Y-11264592D01*
X68834046Y-11186156D01*
X68793904Y-11036340D01*
X68793903Y-11036338D01*
X68770079Y-10985248D01*
X68694035Y-10822171D01*
X68676760Y-10797499D01*
X68558494Y-10628597D01*
X68391402Y-10461505D01*
X68246487Y-10360035D01*
X68197830Y-10325965D01*
X68197828Y-10325964D01*
X68197830Y-10325964D01*
X67983661Y-10226096D01*
X67983659Y-10226095D01*
X67755420Y-10164939D01*
X67755404Y-10164936D01*
X67520002Y-10144341D01*
X67519998Y-10144341D01*
X67284595Y-10164936D01*
X67284579Y-10164939D01*
X67056340Y-10226095D01*
X67056338Y-10226096D01*
X66842171Y-10325964D01*
X66648597Y-10461505D01*
X66481505Y-10628597D01*
X66345964Y-10822171D01*
X66246096Y-11036338D01*
X66246095Y-11036340D01*
X66184939Y-11264579D01*
X66184936Y-11264595D01*
X66164341Y-11499997D01*
X58747158Y-11499997D01*
X58663933Y-11474751D01*
X58460000Y-11454666D01*
X58256066Y-11474751D01*
X58059964Y-11534238D01*
X57879249Y-11630833D01*
X57879238Y-11630841D01*
X57720838Y-11760835D01*
X57720835Y-11760838D01*
X57590841Y-11919238D01*
X57590833Y-11919249D01*
X57494238Y-12099964D01*
X57434751Y-12296066D01*
X57414666Y-12499999D01*
X13309897Y-12499999D01*
X13438495Y-12371401D01*
X13574035Y-12177830D01*
X13622453Y-12073997D01*
X51681764Y-12073997D01*
X51681764Y-12074002D01*
X51700071Y-12177829D01*
X51700166Y-12178363D01*
X51753152Y-12270138D01*
X51834330Y-12338255D01*
X51834331Y-12338255D01*
X51834332Y-12338256D01*
X51933914Y-12374500D01*
X51933917Y-12374500D01*
X52039883Y-12374500D01*
X52039886Y-12374500D01*
X52139468Y-12338256D01*
X52220648Y-12270138D01*
X52273634Y-12178363D01*
X52292036Y-12074000D01*
X52292036Y-12073997D01*
X52273634Y-11969639D01*
X52273634Y-11969637D01*
X52220648Y-11877862D01*
X52220647Y-11877861D01*
X52139469Y-11809744D01*
X52139466Y-11809743D01*
X52039888Y-11773500D01*
X52039886Y-11773500D01*
X51933914Y-11773500D01*
X51933911Y-11773500D01*
X51834333Y-11809743D01*
X51834330Y-11809744D01*
X51753152Y-11877861D01*
X51700165Y-11969639D01*
X51681764Y-12073997D01*
X13622453Y-12073997D01*
X13673903Y-11963663D01*
X13715145Y-11809743D01*
X13735060Y-11735420D01*
X13735060Y-11735417D01*
X13735063Y-11735408D01*
X13748793Y-11578469D01*
X13755659Y-11500002D01*
X13755659Y-11499997D01*
X13735063Y-11264595D01*
X13735063Y-11264592D01*
X13714046Y-11186156D01*
X13673904Y-11036340D01*
X13673903Y-11036338D01*
X13650079Y-10985248D01*
X13620538Y-10921897D01*
X42474464Y-10921897D01*
X42474464Y-10921902D01*
X42489175Y-11005334D01*
X42492866Y-11026263D01*
X42545852Y-11118038D01*
X42627030Y-11186155D01*
X42627031Y-11186155D01*
X42627032Y-11186156D01*
X42726614Y-11222400D01*
X42726617Y-11222400D01*
X42832583Y-11222400D01*
X42832586Y-11222400D01*
X42932168Y-11186156D01*
X43013348Y-11118038D01*
X43066334Y-11026263D01*
X43084055Y-10925763D01*
X43084736Y-10921902D01*
X43084736Y-10921897D01*
X43073694Y-10859282D01*
X43066334Y-10817537D01*
X43013348Y-10725762D01*
X43013347Y-10725761D01*
X42932169Y-10657644D01*
X42932166Y-10657643D01*
X42832588Y-10621400D01*
X42832586Y-10621400D01*
X42726614Y-10621400D01*
X42726611Y-10621400D01*
X42627033Y-10657643D01*
X42627030Y-10657644D01*
X42545852Y-10725761D01*
X42492865Y-10817539D01*
X42474464Y-10921897D01*
X13620538Y-10921897D01*
X13574035Y-10822171D01*
X13556760Y-10797499D01*
X13438494Y-10628597D01*
X13306894Y-10496997D01*
X32941864Y-10496997D01*
X32941864Y-10497000D01*
X32960266Y-10601363D01*
X32975991Y-10628599D01*
X33013252Y-10693138D01*
X33094430Y-10761255D01*
X33094431Y-10761255D01*
X33094432Y-10761256D01*
X33194014Y-10797500D01*
X33194017Y-10797500D01*
X33299983Y-10797500D01*
X33299986Y-10797500D01*
X33399568Y-10761256D01*
X33480748Y-10693138D01*
X33533734Y-10601363D01*
X33549210Y-10513597D01*
X37305564Y-10513597D01*
X37305564Y-10513600D01*
X37323966Y-10617963D01*
X37346876Y-10657644D01*
X37376952Y-10709738D01*
X37458130Y-10777855D01*
X37458131Y-10777855D01*
X37458132Y-10777856D01*
X37557714Y-10814100D01*
X37557717Y-10814100D01*
X37663683Y-10814100D01*
X37663686Y-10814100D01*
X37763268Y-10777856D01*
X37844448Y-10709738D01*
X37897434Y-10617963D01*
X37915836Y-10513600D01*
X37915836Y-10513597D01*
X37897434Y-10409239D01*
X37897434Y-10409237D01*
X37844448Y-10317462D01*
X37824664Y-10300861D01*
X37763269Y-10249344D01*
X37763266Y-10249343D01*
X37663688Y-10213100D01*
X37663686Y-10213100D01*
X37557714Y-10213100D01*
X37557711Y-10213100D01*
X37458133Y-10249343D01*
X37458130Y-10249344D01*
X37376952Y-10317461D01*
X37323965Y-10409239D01*
X37305564Y-10513597D01*
X33549210Y-10513597D01*
X33552136Y-10497000D01*
X33552136Y-10496997D01*
X33533734Y-10392639D01*
X33533734Y-10392637D01*
X33480748Y-10300862D01*
X33480747Y-10300861D01*
X33399569Y-10232744D01*
X33399566Y-10232743D01*
X33299988Y-10196500D01*
X33299986Y-10196500D01*
X33194014Y-10196500D01*
X33194011Y-10196500D01*
X33094433Y-10232743D01*
X33094430Y-10232744D01*
X33013252Y-10300861D01*
X32960265Y-10392639D01*
X32941864Y-10496997D01*
X13306894Y-10496997D01*
X13271402Y-10461505D01*
X13126487Y-10360035D01*
X13077830Y-10325965D01*
X13077828Y-10325964D01*
X13077830Y-10325964D01*
X12863661Y-10226096D01*
X12863659Y-10226095D01*
X12635420Y-10164939D01*
X12635404Y-10164936D01*
X12400002Y-10144341D01*
X12399998Y-10144341D01*
X12164595Y-10164936D01*
X12164579Y-10164939D01*
X11936340Y-10226095D01*
X11936338Y-10226096D01*
X11722171Y-10325964D01*
X11528597Y-10461505D01*
X11361505Y-10628597D01*
X11225964Y-10822171D01*
X11126096Y-11036338D01*
X11126095Y-11036340D01*
X11064939Y-11264579D01*
X11064936Y-11264595D01*
X11044341Y-11499997D01*
X50500Y-11499997D01*
X50500Y-9959999D01*
X57414666Y-9959999D01*
X57414666Y-9960000D01*
X57434751Y-10163933D01*
X57494238Y-10360035D01*
X57590833Y-10540750D01*
X57590841Y-10540761D01*
X57686763Y-10657644D01*
X57720837Y-10699163D01*
X57879244Y-10829163D01*
X57879247Y-10829164D01*
X57879249Y-10829166D01*
X58059964Y-10925761D01*
X58059968Y-10925763D01*
X58256065Y-10985248D01*
X58460000Y-11005334D01*
X58663935Y-10985248D01*
X58860032Y-10925763D01*
X59040756Y-10829163D01*
X59199163Y-10699163D01*
X59329163Y-10540756D01*
X59425763Y-10360032D01*
X59485248Y-10163935D01*
X59505334Y-9960000D01*
X59485248Y-9756065D01*
X59425763Y-9559968D01*
X59410416Y-9531256D01*
X59329166Y-9379249D01*
X59329164Y-9379247D01*
X59329163Y-9379244D01*
X59273931Y-9311943D01*
X59199164Y-9220838D01*
X59199161Y-9220835D01*
X59040761Y-9090841D01*
X59040759Y-9090840D01*
X59040756Y-9090837D01*
X59040754Y-9090835D01*
X59040750Y-9090833D01*
X58860035Y-8994238D01*
X58663933Y-8934751D01*
X58460000Y-8914666D01*
X58256066Y-8934751D01*
X58059964Y-8994238D01*
X57879249Y-9090833D01*
X57879238Y-9090841D01*
X57720838Y-9220835D01*
X57720835Y-9220838D01*
X57590841Y-9379238D01*
X57590833Y-9379249D01*
X57494238Y-9559964D01*
X57434751Y-9756066D01*
X57414666Y-9959999D01*
X50500Y-9959999D01*
X50500Y-9576197D01*
X42230564Y-9576197D01*
X42230564Y-9576200D01*
X42248966Y-9680563D01*
X42301952Y-9772338D01*
X42383130Y-9840455D01*
X42383131Y-9840455D01*
X42383132Y-9840456D01*
X42482714Y-9876700D01*
X42482717Y-9876700D01*
X42588683Y-9876700D01*
X42588686Y-9876700D01*
X42688268Y-9840456D01*
X42769448Y-9772338D01*
X42822434Y-9680563D01*
X42840836Y-9576200D01*
X42840836Y-9576197D01*
X42822434Y-9471839D01*
X42822434Y-9471837D01*
X42769448Y-9380062D01*
X42759081Y-9371363D01*
X42688269Y-9311944D01*
X42688266Y-9311943D01*
X42588688Y-9275700D01*
X42588686Y-9275700D01*
X42482714Y-9275700D01*
X42482711Y-9275700D01*
X42383133Y-9311943D01*
X42383130Y-9311944D01*
X42301952Y-9380061D01*
X42248965Y-9471839D01*
X42230564Y-9576197D01*
X50500Y-9576197D01*
X50500Y-9266997D01*
X34575864Y-9266997D01*
X34575864Y-9267002D01*
X34583788Y-9311944D01*
X34594266Y-9371363D01*
X34647252Y-9463138D01*
X34728430Y-9531255D01*
X34728431Y-9531255D01*
X34728432Y-9531256D01*
X34828014Y-9567500D01*
X34828017Y-9567500D01*
X34933983Y-9567500D01*
X34933986Y-9567500D01*
X35033568Y-9531256D01*
X35114748Y-9463138D01*
X35167734Y-9371363D01*
X35186136Y-9267000D01*
X35186136Y-9266997D01*
X35167734Y-9162639D01*
X35167734Y-9162637D01*
X35114748Y-9070862D01*
X35114747Y-9070861D01*
X35033569Y-9002744D01*
X35033566Y-9002743D01*
X34933988Y-8966500D01*
X34933986Y-8966500D01*
X34828014Y-8966500D01*
X34828011Y-8966500D01*
X34728433Y-9002743D01*
X34728430Y-9002744D01*
X34647252Y-9070861D01*
X34594265Y-9162639D01*
X34575864Y-9266997D01*
X50500Y-9266997D01*
X50500Y-8572997D01*
X31192264Y-8572997D01*
X31192264Y-8573000D01*
X31210666Y-8677363D01*
X31263652Y-8769138D01*
X31344830Y-8837255D01*
X31344831Y-8837255D01*
X31344832Y-8837256D01*
X31444414Y-8873500D01*
X31444417Y-8873500D01*
X31550383Y-8873500D01*
X31550386Y-8873500D01*
X31649968Y-8837256D01*
X31731148Y-8769138D01*
X31784134Y-8677363D01*
X31802536Y-8573000D01*
X31802536Y-8572997D01*
X31784134Y-8468639D01*
X31784134Y-8468637D01*
X31731148Y-8376862D01*
X31731147Y-8376861D01*
X31649969Y-8308744D01*
X31649966Y-8308743D01*
X31550388Y-8272500D01*
X31550386Y-8272500D01*
X31444414Y-8272500D01*
X31444411Y-8272500D01*
X31344833Y-8308743D01*
X31344830Y-8308744D01*
X31263652Y-8376861D01*
X31210665Y-8468639D01*
X31192264Y-8572997D01*
X50500Y-8572997D01*
X50500Y-3381984D01*
X1699500Y-3381984D01*
X1699500Y-3618015D01*
X1730307Y-3852017D01*
X1730307Y-3852018D01*
X1791388Y-4079976D01*
X1791392Y-4079987D01*
X1791394Y-4079993D01*
X1839470Y-4196059D01*
X1881713Y-4298043D01*
X1881716Y-4298049D01*
X1999727Y-4502450D01*
X2143408Y-4689699D01*
X2310301Y-4856592D01*
X2497550Y-5000273D01*
X2701951Y-5118284D01*
X2920007Y-5208606D01*
X2920017Y-5208608D01*
X2920023Y-5208611D01*
X3147982Y-5269692D01*
X3147986Y-5269693D01*
X3381989Y-5300500D01*
X3381995Y-5300500D01*
X3618005Y-5300500D01*
X3618011Y-5300500D01*
X3852014Y-5269693D01*
X3852018Y-5269692D01*
X4079976Y-5208611D01*
X4079979Y-5208609D01*
X4079993Y-5208606D01*
X4298049Y-5118284D01*
X4502450Y-5000273D01*
X4689699Y-4856592D01*
X4856592Y-4689699D01*
X5000273Y-4502450D01*
X5118284Y-4298049D01*
X5208606Y-4079993D01*
X5269693Y-3852014D01*
X5300500Y-3618011D01*
X5300500Y-3381989D01*
X5300499Y-3381984D01*
X74699500Y-3381984D01*
X74699500Y-3618015D01*
X74730307Y-3852017D01*
X74730307Y-3852018D01*
X74791388Y-4079976D01*
X74791392Y-4079987D01*
X74791394Y-4079993D01*
X74839470Y-4196059D01*
X74881713Y-4298043D01*
X74881716Y-4298049D01*
X74999727Y-4502450D01*
X75143408Y-4689699D01*
X75310301Y-4856592D01*
X75497550Y-5000273D01*
X75701951Y-5118284D01*
X75920007Y-5208606D01*
X75920017Y-5208608D01*
X75920023Y-5208611D01*
X76147982Y-5269692D01*
X76147986Y-5269693D01*
X76381989Y-5300500D01*
X76381995Y-5300500D01*
X76618005Y-5300500D01*
X76618011Y-5300500D01*
X76852014Y-5269693D01*
X76852018Y-5269692D01*
X77079976Y-5208611D01*
X77079979Y-5208609D01*
X77079993Y-5208606D01*
X77298049Y-5118284D01*
X77502450Y-5000273D01*
X77689699Y-4856592D01*
X77856592Y-4689699D01*
X78000273Y-4502450D01*
X78118284Y-4298049D01*
X78208606Y-4079993D01*
X78269693Y-3852014D01*
X78300500Y-3618011D01*
X78300500Y-3381989D01*
X78269693Y-3147986D01*
X78259917Y-3111500D01*
X78208611Y-2920023D01*
X78208608Y-2920017D01*
X78208606Y-2920007D01*
X78118284Y-2701951D01*
X78000273Y-2497550D01*
X77856592Y-2310301D01*
X77689699Y-2143408D01*
X77689695Y-2143405D01*
X77689693Y-2143403D01*
X77502447Y-1999725D01*
X77298055Y-1881719D01*
X77298043Y-1881713D01*
X77196059Y-1839470D01*
X77079993Y-1791394D01*
X77079987Y-1791392D01*
X77079976Y-1791388D01*
X76852017Y-1730307D01*
X76618015Y-1699500D01*
X76618011Y-1699500D01*
X76381989Y-1699500D01*
X76381984Y-1699500D01*
X76147982Y-1730307D01*
X76147981Y-1730307D01*
X75920023Y-1791388D01*
X75920008Y-1791393D01*
X75920007Y-1791394D01*
X75920005Y-1791395D01*
X75701956Y-1881713D01*
X75701944Y-1881719D01*
X75497552Y-1999725D01*
X75310306Y-2143403D01*
X75310296Y-2143412D01*
X75143412Y-2310296D01*
X75143403Y-2310306D01*
X74999725Y-2497552D01*
X74881719Y-2701944D01*
X74881713Y-2701956D01*
X74791395Y-2920005D01*
X74791388Y-2920023D01*
X74730307Y-3147981D01*
X74730307Y-3147982D01*
X74699500Y-3381984D01*
X5300499Y-3381984D01*
X5269693Y-3147986D01*
X5259917Y-3111500D01*
X5208611Y-2920023D01*
X5208608Y-2920017D01*
X5208606Y-2920007D01*
X5163452Y-2810997D01*
X41763864Y-2810997D01*
X41763864Y-2811000D01*
X41782266Y-2915363D01*
X41835252Y-3007138D01*
X41916430Y-3075255D01*
X41916431Y-3075255D01*
X41916432Y-3075256D01*
X42016014Y-3111500D01*
X42016017Y-3111500D01*
X42121983Y-3111500D01*
X42121986Y-3111500D01*
X42221568Y-3075256D01*
X42302748Y-3007138D01*
X42355734Y-2915363D01*
X42374136Y-2811000D01*
X42374136Y-2810997D01*
X42355734Y-2706639D01*
X42355734Y-2706637D01*
X42302748Y-2614862D01*
X42302747Y-2614861D01*
X42221569Y-2546744D01*
X42221566Y-2546743D01*
X42121988Y-2510500D01*
X42121986Y-2510500D01*
X42016014Y-2510500D01*
X42016011Y-2510500D01*
X41916433Y-2546743D01*
X41916430Y-2546744D01*
X41835252Y-2614861D01*
X41793462Y-2687244D01*
X41784972Y-2701951D01*
X41782265Y-2706639D01*
X41763864Y-2810997D01*
X5163452Y-2810997D01*
X5118284Y-2701951D01*
X5000273Y-2497550D01*
X4856592Y-2310301D01*
X4689699Y-2143408D01*
X4689695Y-2143405D01*
X4689693Y-2143403D01*
X4502447Y-1999725D01*
X4298055Y-1881719D01*
X4298043Y-1881713D01*
X4196059Y-1839470D01*
X4079993Y-1791394D01*
X4079987Y-1791392D01*
X4079976Y-1791388D01*
X3852017Y-1730307D01*
X3618015Y-1699500D01*
X3618011Y-1699500D01*
X3381989Y-1699500D01*
X3381984Y-1699500D01*
X3147982Y-1730307D01*
X3147981Y-1730307D01*
X2920023Y-1791388D01*
X2920008Y-1791393D01*
X2920007Y-1791394D01*
X2920005Y-1791395D01*
X2701956Y-1881713D01*
X2701944Y-1881719D01*
X2497552Y-1999725D01*
X2310306Y-2143403D01*
X2310296Y-2143412D01*
X2143412Y-2310296D01*
X2143403Y-2310306D01*
X1999725Y-2497552D01*
X1881719Y-2701944D01*
X1881713Y-2701956D01*
X1791395Y-2920005D01*
X1791388Y-2920023D01*
X1730307Y-3147981D01*
X1730307Y-3147982D01*
X1699500Y-3381984D01*
X50500Y-3381984D01*
X50500Y-1002726D01*
X50738Y-997279D01*
X52330Y-979082D01*
X64449Y-840560D01*
X66338Y-829844D01*
X106347Y-680530D01*
X110070Y-670302D01*
X175399Y-530202D01*
X180844Y-520773D01*
X269506Y-394150D01*
X276503Y-385810D01*
X385810Y-276503D01*
X394150Y-269506D01*
X415800Y-254347D01*
X520773Y-180844D01*
X530202Y-175399D01*
X670302Y-110070D01*
X680530Y-106347D01*
X829844Y-66338D01*
X840560Y-64449D01*
X997280Y-50738D01*
X1002727Y-50500D01*
X1016408Y-50500D01*
X78983592Y-50500D01*
X78997273Y-50500D01*
X79002720Y-50738D01*
G37*
%TD.AperFunction*%
%TD*%
M02*
