%TF.GenerationSoftware,KiCad,Pcbnew,8.0.4*%
%TF.CreationDate,2024-08-31T09:47:53+01:00*%
%TF.ProjectId,MKRZero_V5.0,4d4b525a-6572-46f5-9f56-352e302e6b69,rev?*%
%TF.SameCoordinates,Original*%
%TF.FileFunction,Soldermask,Bot*%
%TF.FilePolarity,Negative*%
%FSLAX46Y46*%
G04 Gerber Fmt 4.6, Leading zero omitted, Abs format (unit mm)*
G04 Created by KiCad (PCBNEW 8.0.4) date 2024-08-31 09:47:53*
%MOMM*%
%LPD*%
G01*
G04 APERTURE LIST*
G04 Aperture macros list*
%AMRoundRect*
0 Rectangle with rounded corners*
0 $1 Rounding radius*
0 $2 $3 $4 $5 $6 $7 $8 $9 X,Y pos of 4 corners*
0 Add a 4 corners polygon primitive as box body*
4,1,4,$2,$3,$4,$5,$6,$7,$8,$9,$2,$3,0*
0 Add four circle primitives for the rounded corners*
1,1,$1+$1,$2,$3*
1,1,$1+$1,$4,$5*
1,1,$1+$1,$6,$7*
1,1,$1+$1,$8,$9*
0 Add four rect primitives between the rounded corners*
20,1,$1+$1,$2,$3,$4,$5,0*
20,1,$1+$1,$4,$5,$6,$7,0*
20,1,$1+$1,$6,$7,$8,$9,0*
20,1,$1+$1,$8,$9,$2,$3,0*%
G04 Aperture macros list end*
%ADD10C,3.200000*%
%ADD11C,1.600000*%
%ADD12C,1.200000*%
%ADD13C,2.500000*%
%ADD14C,1.879600*%
%ADD15R,2.000000X2.000000*%
%ADD16C,2.000000*%
%ADD17R,3.200000X2.000000*%
%ADD18RoundRect,0.050800X-0.635000X-1.841500X0.635000X-1.841500X0.635000X1.841500X-0.635000X1.841500X0*%
G04 APERTURE END LIST*
D10*
%TO.C,H2*%
X76500000Y-3500000D03*
%TD*%
%TO.C,H3*%
X76500000Y-56500000D03*
%TD*%
D11*
%TO.C,J8*%
X68677000Y-31836000D03*
X69677000Y-36236000D03*
X73677000Y-36236000D03*
X76677000Y-36236000D03*
%TD*%
D10*
%TO.C,H1*%
X3500000Y-3500000D03*
%TD*%
D12*
%TO.C,IC2*%
X43224000Y-52070000D03*
X35724000Y-52070000D03*
%TD*%
D13*
%TO.C,JMIDIOUT1*%
X67520000Y-26500000D03*
X67520000Y-19000000D03*
X67520000Y-11500000D03*
X65020000Y-24000000D03*
X65020000Y-14000000D03*
X77420000Y-14000000D03*
X77420000Y-16500000D03*
X77420000Y-21500000D03*
X77420000Y-24000000D03*
%TD*%
%TO.C,JMIDIIN1*%
X12400000Y-11500000D03*
X12400000Y-19000000D03*
X12400000Y-26500000D03*
X14900000Y-14000000D03*
X14900000Y-24000000D03*
X2500000Y-24000000D03*
X2500000Y-21500000D03*
X2500000Y-16500000D03*
X2500000Y-14000000D03*
%TD*%
D10*
%TO.C,H4*%
X3500000Y-56500000D03*
%TD*%
D14*
%TO.C,J6*%
X58460000Y-27740000D03*
X58460000Y-25200000D03*
X58460000Y-22660000D03*
X58460000Y-20120000D03*
X58460000Y-17580000D03*
X58460000Y-15040000D03*
X58460000Y-12500000D03*
X58460000Y-9960000D03*
%TD*%
D15*
%TO.C,SW1*%
X29500000Y-42400000D03*
D16*
X29500000Y-47400000D03*
X29500000Y-44900000D03*
D17*
X22000000Y-50500000D03*
X22000000Y-39300000D03*
D16*
X15000000Y-47400000D03*
X15000000Y-42400000D03*
%TD*%
D15*
%TO.C,SW2*%
X66000000Y-42500000D03*
D16*
X66000000Y-47500000D03*
X66000000Y-45000000D03*
D17*
X58500000Y-50600000D03*
X58500000Y-39400000D03*
D16*
X51500000Y-47500000D03*
X51500000Y-42500000D03*
%TD*%
D18*
%TO.C,J2*%
X2605000Y-29677500D03*
X2605000Y-34122500D03*
X5145000Y-29677500D03*
X5145000Y-34122500D03*
X7685000Y-29677500D03*
X7685000Y-34122500D03*
%TD*%
M02*
