%TF.GenerationSoftware,KiCad,Pcbnew,8.0.4*%
%TF.CreationDate,2024-08-31T09:47:53+01:00*%
%TF.ProjectId,MKRZero_V5.0,4d4b525a-6572-46f5-9f56-352e302e6b69,rev?*%
%TF.SameCoordinates,Original*%
%TF.FileFunction,Legend,Top*%
%TF.FilePolarity,Positive*%
%FSLAX46Y46*%
G04 Gerber Fmt 4.6, Leading zero omitted, Abs format (unit mm)*
G04 Created by KiCad (PCBNEW 8.0.4) date 2024-08-31 09:47:53*
%MOMM*%
%LPD*%
G01*
G04 APERTURE LIST*
G04 Aperture macros list*
%AMRoundRect*
0 Rectangle with rounded corners*
0 $1 Rounding radius*
0 $2 $3 $4 $5 $6 $7 $8 $9 X,Y pos of 4 corners*
0 Add a 4 corners polygon primitive as box body*
4,1,4,$2,$3,$4,$5,$6,$7,$8,$9,$2,$3,0*
0 Add four circle primitives for the rounded corners*
1,1,$1+$1,$2,$3*
1,1,$1+$1,$4,$5*
1,1,$1+$1,$6,$7*
1,1,$1+$1,$8,$9*
0 Add four rect primitives between the rounded corners*
20,1,$1+$1,$2,$3,$4,$5,0*
20,1,$1+$1,$4,$5,$6,$7,0*
20,1,$1+$1,$6,$7,$8,$9,0*
20,1,$1+$1,$8,$9,$2,$3,0*%
%AMFreePoly0*
4,1,9,3.862500,-0.866500,0.737500,-0.866500,0.737500,-0.450000,-0.737500,-0.450000,-0.737500,0.450000,0.737500,0.450000,0.737500,0.866500,3.862500,0.866500,3.862500,-0.866500,3.862500,-0.866500,$1*%
G04 Aperture macros list end*
%ADD10C,0.000000*%
%ADD11C,0.300000*%
%ADD12C,0.100000*%
%ADD13C,0.125000*%
%ADD14C,0.150000*%
%ADD15C,0.254000*%
%ADD16C,0.120000*%
%ADD17C,0.127000*%
%ADD18R,1.900000X1.300000*%
%ADD19RoundRect,0.140000X0.140000X0.170000X-0.140000X0.170000X-0.140000X-0.170000X0.140000X-0.170000X0*%
%ADD20C,3.200000*%
%ADD21RoundRect,0.135000X-0.135000X-0.185000X0.135000X-0.185000X0.135000X0.185000X-0.135000X0.185000X0*%
%ADD22RoundRect,0.135000X0.185000X-0.135000X0.185000X0.135000X-0.185000X0.135000X-0.185000X-0.135000X0*%
%ADD23R,0.450000X1.380000*%
%ADD24R,1.650000X1.300000*%
%ADD25R,1.200000X1.550000*%
%ADD26R,1.800000X1.900000*%
%ADD27R,1.000000X1.900000*%
%ADD28RoundRect,0.225000X0.250000X-0.225000X0.250000X0.225000X-0.250000X0.225000X-0.250000X-0.225000X0*%
%ADD29RoundRect,0.135000X0.135000X0.185000X-0.135000X0.185000X-0.135000X-0.185000X0.135000X-0.185000X0*%
%ADD30RoundRect,0.075000X0.075000X-0.662500X0.075000X0.662500X-0.075000X0.662500X-0.075000X-0.662500X0*%
%ADD31RoundRect,0.075000X0.662500X-0.075000X0.662500X0.075000X-0.662500X0.075000X-0.662500X-0.075000X0*%
%ADD32RoundRect,0.140000X-0.140000X-0.170000X0.140000X-0.170000X0.140000X0.170000X-0.140000X0.170000X0*%
%ADD33RoundRect,0.135000X-0.185000X0.135000X-0.185000X-0.135000X0.185000X-0.135000X0.185000X0.135000X0*%
%ADD34RoundRect,0.140000X-0.170000X0.140000X-0.170000X-0.140000X0.170000X-0.140000X0.170000X0.140000X0*%
%ADD35C,1.600000*%
%ADD36RoundRect,0.112500X-0.112500X0.187500X-0.112500X-0.187500X0.112500X-0.187500X0.112500X0.187500X0*%
%ADD37RoundRect,0.225000X-0.225000X0.425000X-0.225000X-0.425000X0.225000X-0.425000X0.225000X0.425000X0*%
%ADD38FreePoly0,270.000000*%
%ADD39RoundRect,0.150000X0.625000X-0.150000X0.625000X0.150000X-0.625000X0.150000X-0.625000X-0.150000X0*%
%ADD40RoundRect,0.250000X0.650000X-0.350000X0.650000X0.350000X-0.650000X0.350000X-0.650000X-0.350000X0*%
%ADD41RoundRect,0.150000X0.675000X0.150000X-0.675000X0.150000X-0.675000X-0.150000X0.675000X-0.150000X0*%
%ADD42C,1.200000*%
%ADD43R,4.000000X2.300000*%
%ADD44R,4.400000X2.300000*%
%ADD45RoundRect,0.112500X0.187500X0.112500X-0.187500X0.112500X-0.187500X-0.112500X0.187500X-0.112500X0*%
%ADD46RoundRect,0.050800X0.875000X-0.350000X0.875000X0.350000X-0.875000X0.350000X-0.875000X-0.350000X0*%
%ADD47RoundRect,0.050800X0.775000X-0.500000X0.775000X0.500000X-0.775000X0.500000X-0.775000X-0.500000X0*%
%ADD48RoundRect,0.050800X0.500000X0.775000X-0.500000X0.775000X-0.500000X-0.775000X0.500000X-0.775000X0*%
%ADD49RoundRect,0.050800X0.750000X-0.650000X0.750000X0.650000X-0.750000X0.650000X-0.750000X-0.650000X0*%
%ADD50RoundRect,0.050800X0.750000X-0.750000X0.750000X0.750000X-0.750000X0.750000X-0.750000X-0.750000X0*%
%ADD51RoundRect,0.050800X0.700000X-0.400000X0.700000X0.400000X-0.700000X0.400000X-0.700000X-0.400000X0*%
%ADD52RoundRect,0.050800X0.750000X-0.400000X0.750000X0.400000X-0.750000X0.400000X-0.750000X-0.400000X0*%
%ADD53RoundRect,0.250000X0.250000X0.475000X-0.250000X0.475000X-0.250000X-0.475000X0.250000X-0.475000X0*%
%ADD54C,2.500000*%
%ADD55RoundRect,0.175000X-0.175000X-0.325000X0.175000X-0.325000X0.175000X0.325000X-0.175000X0.325000X0*%
%ADD56RoundRect,0.175000X-0.175000X-0.225000X0.175000X-0.225000X0.175000X0.225000X-0.175000X0.225000X0*%
%ADD57R,1.800000X1.000000*%
%ADD58RoundRect,0.218750X0.256250X-0.218750X0.256250X0.218750X-0.256250X0.218750X-0.256250X-0.218750X0*%
%ADD59RoundRect,0.225000X0.225000X0.250000X-0.225000X0.250000X-0.225000X-0.250000X0.225000X-0.250000X0*%
%ADD60RoundRect,0.218750X-0.218750X-0.256250X0.218750X-0.256250X0.218750X0.256250X-0.218750X0.256250X0*%
%ADD61RoundRect,0.250000X-0.900000X-0.675000X0.900000X-0.675000X0.900000X0.675000X-0.900000X0.675000X0*%
%ADD62C,1.879600*%
%ADD63R,2.000000X2.000000*%
%ADD64C,2.000000*%
%ADD65R,3.200000X2.000000*%
G04 APERTURE END LIST*
D10*
G36*
X32547719Y-10926299D02*
G01*
X32547719Y-18714971D01*
X25800845Y-22609306D01*
X19053970Y-18714971D01*
X19053970Y-18533070D01*
X19368162Y-18533070D01*
X25800845Y-22245505D01*
X32233526Y-18533070D01*
X32233526Y-11108200D01*
X25800845Y-7395766D01*
X19368162Y-11108200D01*
X19368162Y-18533070D01*
X19053970Y-18533070D01*
X19053970Y-11108200D01*
X19053970Y-10926299D01*
X25800845Y-7031964D01*
X32547719Y-10926299D01*
G37*
G36*
X25883527Y-20707614D02*
G01*
X25718162Y-20988734D01*
X20500910Y-17970830D01*
X20666274Y-17697978D01*
X25883527Y-20707614D01*
G37*
G36*
X25883527Y-8933656D02*
G01*
X20658006Y-11951560D01*
X20500910Y-11670440D01*
X25718162Y-8660805D01*
X25883527Y-8933656D01*
G37*
G36*
X31183461Y-17838538D02*
G01*
X30861000Y-17838538D01*
X30861000Y-11811000D01*
X31183461Y-11811000D01*
X31183461Y-17838538D01*
G37*
D11*
G36*
X49952158Y-1629277D02*
G01*
X50417196Y-3662355D01*
X50903728Y-1713297D01*
X50964436Y-1516405D01*
X51040504Y-1375265D01*
X51214307Y-1285671D01*
X51256415Y-1283429D01*
X51460281Y-1295642D01*
X51630595Y-1314692D01*
X51827584Y-1336064D01*
X52011614Y-1345956D01*
X52225164Y-1335008D01*
X52436963Y-1317929D01*
X52645078Y-1299195D01*
X52677908Y-1296130D01*
X52877806Y-1283739D01*
X52902612Y-1283429D01*
X53096049Y-1320627D01*
X53198634Y-1388942D01*
X53297710Y-1560667D01*
X53310986Y-1677149D01*
X53265562Y-1870495D01*
X53223058Y-1932138D01*
X53052443Y-2030171D01*
X53005193Y-2033743D01*
X52863533Y-2015181D01*
X52733595Y-1996618D01*
X52602620Y-2142019D01*
X52581337Y-2345944D01*
X52581188Y-2368845D01*
X52581188Y-3906598D01*
X52595594Y-4105980D01*
X52694135Y-4278778D01*
X52728711Y-4284685D01*
X52863533Y-4284685D01*
X53000309Y-4284685D01*
X53185013Y-4352406D01*
X53220127Y-4387267D01*
X53305307Y-4568618D01*
X53310986Y-4641280D01*
X53266717Y-4839498D01*
X53197657Y-4929487D01*
X53018219Y-5022532D01*
X52898704Y-5035000D01*
X52694121Y-5018590D01*
X52536247Y-4996898D01*
X52335196Y-4976504D01*
X52197238Y-4972473D01*
X52001447Y-4987250D01*
X51880699Y-5003736D01*
X51677642Y-5029016D01*
X51564161Y-5035000D01*
X51369235Y-4987455D01*
X51289632Y-4924602D01*
X51197448Y-4747287D01*
X51185096Y-4629556D01*
X51214649Y-4433209D01*
X51363149Y-4293105D01*
X51435200Y-4284685D01*
X51489911Y-4284685D01*
X51531921Y-4284685D01*
X51563184Y-4284685D01*
X51678466Y-4162564D01*
X51685305Y-3974009D01*
X51685305Y-1879382D01*
X50892981Y-4615879D01*
X50816598Y-4803927D01*
X50678789Y-4944266D01*
X50557880Y-4972473D01*
X50192493Y-4972473D01*
X50000518Y-4893094D01*
X49897053Y-4711701D01*
X49879862Y-4654958D01*
X49121732Y-1879382D01*
X49121732Y-3982801D01*
X49133968Y-4178735D01*
X49177420Y-4278824D01*
X49245808Y-4295432D01*
X49281956Y-4289570D01*
X49320057Y-4289570D01*
X49374768Y-4284685D01*
X49560148Y-4369438D01*
X49619769Y-4563110D01*
X49621942Y-4623695D01*
X49585777Y-4821211D01*
X49519360Y-4924602D01*
X49346867Y-5024218D01*
X49246785Y-5035000D01*
X49051285Y-5017579D01*
X49043575Y-5016437D01*
X48847868Y-4985559D01*
X48845249Y-4985174D01*
X48647229Y-4973267D01*
X48572674Y-4972473D01*
X48375937Y-4978037D01*
X48250274Y-4990059D01*
X48050033Y-5015645D01*
X47898564Y-5035000D01*
X47703170Y-4991112D01*
X47609381Y-4922648D01*
X47509443Y-4749521D01*
X47496052Y-4638349D01*
X47541475Y-4444323D01*
X47583979Y-4384337D01*
X47757819Y-4288189D01*
X47806729Y-4284685D01*
X47939597Y-4284685D01*
X48073442Y-4284685D01*
X48214126Y-4140094D01*
X48225746Y-3938863D01*
X48225849Y-3906598D01*
X48225849Y-2368845D01*
X48218694Y-2169467D01*
X48214126Y-2141210D01*
X48080382Y-1996760D01*
X48073442Y-1996618D01*
X47940574Y-2015181D01*
X47801844Y-2033743D01*
X47612482Y-1961409D01*
X47583979Y-1932138D01*
X47501547Y-1750239D01*
X47496052Y-1677149D01*
X47536505Y-1469523D01*
X47674448Y-1329953D01*
X47884802Y-1283814D01*
X47910288Y-1283429D01*
X48119321Y-1293321D01*
X48321188Y-1310907D01*
X48359695Y-1314692D01*
X48556714Y-1332492D01*
X48753703Y-1344460D01*
X48829618Y-1345956D01*
X49038756Y-1339828D01*
X49238104Y-1323296D01*
X49357182Y-1308831D01*
X49557461Y-1287001D01*
X49648320Y-1283429D01*
X49837398Y-1342677D01*
X49844691Y-1350840D01*
X49926024Y-1532374D01*
X49952158Y-1629277D01*
G37*
G36*
X54788166Y-2221322D02*
G01*
X54940723Y-2352507D01*
X54948390Y-2436256D01*
X54948390Y-4097107D01*
X54964919Y-4298364D01*
X55023616Y-4377498D01*
X55106659Y-4363820D01*
X55207287Y-4350143D01*
X55395576Y-4433136D01*
X55448363Y-4626119D01*
X55448599Y-4644211D01*
X55416256Y-4850291D01*
X55277504Y-5004088D01*
X55117406Y-5035000D01*
X54919203Y-5013018D01*
X54802821Y-4995921D01*
X54600193Y-4976343D01*
X54443295Y-4972473D01*
X54237948Y-4990059D01*
X54145319Y-5003736D01*
X53947604Y-5029840D01*
X53853205Y-5035000D01*
X53664291Y-4982005D01*
X53606031Y-4932418D01*
X53517861Y-4753774D01*
X53510288Y-4667658D01*
X53549168Y-4474172D01*
X53707120Y-4357894D01*
X53786771Y-4350143D01*
X53936247Y-4377498D01*
X53974349Y-4377498D01*
X54066856Y-4203841D01*
X54073023Y-4068775D01*
X54073023Y-3177777D01*
X54057706Y-2974728D01*
X53980211Y-2864169D01*
X53877629Y-2893478D01*
X53785794Y-2906179D01*
X53597460Y-2846526D01*
X53514592Y-2667569D01*
X53510288Y-2594525D01*
X53551942Y-2403025D01*
X53607008Y-2324881D01*
X53779749Y-2229514D01*
X53864928Y-2221322D01*
X54046645Y-2221322D01*
X54246302Y-2221322D01*
X54366115Y-2221322D01*
X54561635Y-2221322D01*
X54617196Y-2221322D01*
X54788166Y-2221322D01*
G37*
G36*
X54448180Y-1971217D02*
G01*
X54247710Y-1929307D01*
X54096471Y-1822718D01*
X53985096Y-1660540D01*
X53947971Y-1471008D01*
X53984363Y-1277812D01*
X54093540Y-1116367D01*
X54266129Y-1002784D01*
X54448180Y-970799D01*
X54641865Y-1007191D01*
X54802821Y-1116367D01*
X54916404Y-1288956D01*
X54948390Y-1471008D01*
X54911997Y-1664204D01*
X54802821Y-1825648D01*
X54630718Y-1939232D01*
X54448180Y-1971217D01*
G37*
G36*
X58319815Y-1340960D02*
G01*
X58326757Y-1348886D01*
X58379178Y-1538635D01*
X58380490Y-1591175D01*
X58380490Y-4185034D01*
X58401621Y-4383386D01*
X58490888Y-4475195D01*
X58577838Y-4435139D01*
X58671628Y-4409738D01*
X58859939Y-4481789D01*
X58922464Y-4680213D01*
X58922709Y-4697944D01*
X58888744Y-4892194D01*
X58835759Y-4984197D01*
X58663525Y-5089312D01*
X58602263Y-5094595D01*
X58569046Y-5094595D01*
X58370720Y-5050631D01*
X58179234Y-5035000D01*
X57981264Y-5049907D01*
X57936945Y-5059424D01*
X57784538Y-5094595D01*
X57620590Y-4980289D01*
X57609660Y-4891385D01*
X57609660Y-4682313D01*
X57489813Y-4844669D01*
X57323945Y-4991630D01*
X57130028Y-5092870D01*
X56908061Y-5148388D01*
X56732339Y-5160052D01*
X56514927Y-5139950D01*
X56314905Y-5079643D01*
X56132275Y-4979131D01*
X55967035Y-4838415D01*
X55880420Y-4739954D01*
X55766870Y-4574323D01*
X55676813Y-4393236D01*
X55610250Y-4196693D01*
X55567179Y-3984694D01*
X55547601Y-3757239D01*
X55546296Y-3677986D01*
X55547364Y-3651608D01*
X56442179Y-3651608D01*
X56442179Y-3725858D01*
X56454963Y-3929343D01*
X56504056Y-4135239D01*
X56573093Y-4274916D01*
X56717134Y-4418671D01*
X56915734Y-4474999D01*
X56929688Y-4475195D01*
X57128013Y-4433681D01*
X57290434Y-4309140D01*
X57330246Y-4258307D01*
X57424310Y-4074988D01*
X57472397Y-3871945D01*
X57484607Y-3680917D01*
X57469628Y-3475868D01*
X57418550Y-3281609D01*
X57331223Y-3120136D01*
X57189507Y-2983505D01*
X56998661Y-2914262D01*
X56920895Y-2909110D01*
X56729164Y-2959180D01*
X56584465Y-3097067D01*
X56576024Y-3109389D01*
X56489364Y-3295495D01*
X56450544Y-3489492D01*
X56442179Y-3651608D01*
X55547364Y-3651608D01*
X55554286Y-3480736D01*
X55584969Y-3260093D01*
X55638665Y-3056967D01*
X55715372Y-2871358D01*
X55815092Y-2703266D01*
X55873581Y-2625788D01*
X56026633Y-2469330D01*
X56199413Y-2351301D01*
X56391921Y-2271700D01*
X56604158Y-2230527D01*
X56734293Y-2224253D01*
X56942999Y-2244281D01*
X57143156Y-2304364D01*
X57334764Y-2404504D01*
X57495409Y-2524984D01*
X57517824Y-2544699D01*
X57517824Y-2138279D01*
X57445147Y-1951144D01*
X57377140Y-1935069D01*
X57242318Y-1946793D01*
X57095773Y-1968286D01*
X56916010Y-1876451D01*
X56844526Y-1690181D01*
X56842737Y-1648817D01*
X56880041Y-1456132D01*
X57023290Y-1319112D01*
X57224733Y-1283429D01*
X57406450Y-1296130D01*
X57604114Y-1335008D01*
X57710288Y-1345956D01*
X57906922Y-1318478D01*
X57924244Y-1314692D01*
X58119056Y-1283704D01*
X58132339Y-1283429D01*
X58319815Y-1340960D01*
G37*
G36*
X60388166Y-2221322D02*
G01*
X60540723Y-2352507D01*
X60548390Y-2436256D01*
X60548390Y-4097107D01*
X60564919Y-4298364D01*
X60623616Y-4377498D01*
X60706659Y-4363820D01*
X60807287Y-4350143D01*
X60995576Y-4433136D01*
X61048363Y-4626119D01*
X61048599Y-4644211D01*
X61016256Y-4850291D01*
X60877504Y-5004088D01*
X60717406Y-5035000D01*
X60519203Y-5013018D01*
X60402821Y-4995921D01*
X60200193Y-4976343D01*
X60043295Y-4972473D01*
X59837948Y-4990059D01*
X59745319Y-5003736D01*
X59547604Y-5029840D01*
X59453205Y-5035000D01*
X59264291Y-4982005D01*
X59206031Y-4932418D01*
X59117861Y-4753774D01*
X59110288Y-4667658D01*
X59149168Y-4474172D01*
X59307120Y-4357894D01*
X59386771Y-4350143D01*
X59536247Y-4377498D01*
X59574349Y-4377498D01*
X59666856Y-4203841D01*
X59673023Y-4068775D01*
X59673023Y-3177777D01*
X59657706Y-2974728D01*
X59580211Y-2864169D01*
X59477629Y-2893478D01*
X59385794Y-2906179D01*
X59197460Y-2846526D01*
X59114592Y-2667569D01*
X59110288Y-2594525D01*
X59151942Y-2403025D01*
X59207008Y-2324881D01*
X59379749Y-2229514D01*
X59464928Y-2221322D01*
X59646645Y-2221322D01*
X59846302Y-2221322D01*
X59966115Y-2221322D01*
X60161635Y-2221322D01*
X60217196Y-2221322D01*
X60388166Y-2221322D01*
G37*
G36*
X60048180Y-1971217D02*
G01*
X59847710Y-1929307D01*
X59696471Y-1822718D01*
X59585096Y-1660540D01*
X59547971Y-1471008D01*
X59584363Y-1277812D01*
X59693540Y-1116367D01*
X59866129Y-1002784D01*
X60048180Y-970799D01*
X60241865Y-1007191D01*
X60402821Y-1116367D01*
X60516404Y-1288956D01*
X60548390Y-1471008D01*
X60511997Y-1664204D01*
X60402821Y-1825648D01*
X60230718Y-1939232D01*
X60048180Y-1971217D01*
G37*
G36*
X62280560Y-4322787D02*
G01*
X62434204Y-4186164D01*
X62459346Y-3973032D01*
X62459346Y-2348328D01*
X62434921Y-2149461D01*
X62306694Y-1989263D01*
X62209241Y-1971217D01*
X62014091Y-2026363D01*
X61959136Y-2166612D01*
X61959136Y-2343443D01*
X61959136Y-2520275D01*
X61939688Y-2720510D01*
X61857531Y-2905690D01*
X61690836Y-3016096D01*
X61552716Y-3034162D01*
X61356233Y-2989387D01*
X61254740Y-2907156D01*
X61164194Y-2726027D01*
X61146296Y-2567170D01*
X61170159Y-2370062D01*
X61182444Y-2302411D01*
X61206736Y-2103864D01*
X61208822Y-2032766D01*
X61183669Y-1829705D01*
X61170720Y-1756284D01*
X61146892Y-1559477D01*
X61146296Y-1531580D01*
X61208334Y-1345467D01*
X61394447Y-1283429D01*
X61594021Y-1283850D01*
X61721732Y-1284406D01*
X61936881Y-1285168D01*
X62148754Y-1285671D01*
X62344677Y-1285986D01*
X62558204Y-1286206D01*
X62789333Y-1286330D01*
X62986910Y-1286360D01*
X63186090Y-1286330D01*
X63418922Y-1286206D01*
X63633818Y-1285986D01*
X63830777Y-1285671D01*
X64043451Y-1285168D01*
X64258927Y-1284406D01*
X64458550Y-1283616D01*
X64581327Y-1283429D01*
X64771837Y-1345467D01*
X64835340Y-1531580D01*
X64813083Y-1732740D01*
X64804077Y-1782662D01*
X64775287Y-1979014D01*
X64772814Y-2032766D01*
X64788914Y-2228065D01*
X64799192Y-2302411D01*
X64827397Y-2496539D01*
X64835340Y-2573032D01*
X64803907Y-2774231D01*
X64723965Y-2910087D01*
X64556964Y-3016714D01*
X64428920Y-3034162D01*
X64232457Y-2994827D01*
X64089575Y-2858852D01*
X64028850Y-2653433D01*
X64022500Y-2536884D01*
X64022500Y-2353213D01*
X64022500Y-2179312D01*
X63932262Y-2005561D01*
X63766533Y-1971217D01*
X63575952Y-2015127D01*
X63529129Y-2056214D01*
X63465251Y-2241089D01*
X63459764Y-2348328D01*
X63459764Y-3973032D01*
X63482622Y-4172160D01*
X63618635Y-4319713D01*
X63653205Y-4322787D01*
X63836875Y-4304225D01*
X64020546Y-4284685D01*
X64214668Y-4323013D01*
X64345193Y-4482656D01*
X64361509Y-4609040D01*
X64328510Y-4814948D01*
X64198553Y-4975099D01*
X63994858Y-5033336D01*
X63944342Y-5035000D01*
X63744307Y-5028508D01*
X63561369Y-5014483D01*
X63362311Y-4997482D01*
X63164505Y-4986053D01*
X62988864Y-4982243D01*
X62776712Y-4987564D01*
X62575788Y-5000378D01*
X62417336Y-5014483D01*
X62212416Y-5029870D01*
X62033386Y-5035000D01*
X61831728Y-5003856D01*
X61674883Y-4881203D01*
X61617849Y-4688957D01*
X61616219Y-4641280D01*
X61654200Y-4438258D01*
X61812401Y-4301749D01*
X61937643Y-4284685D01*
X62108613Y-4304225D01*
X62280560Y-4322787D01*
G37*
G36*
X66616881Y-2171315D02*
G01*
X66841737Y-2208135D01*
X67046466Y-2272569D01*
X67231068Y-2364618D01*
X67395542Y-2484282D01*
X67470232Y-2554469D01*
X67601379Y-2712052D01*
X67705392Y-2890242D01*
X67782271Y-3089040D01*
X67832017Y-3308447D01*
X67852744Y-3507028D01*
X67856136Y-3633046D01*
X67846976Y-3849787D01*
X67819499Y-4051216D01*
X67762346Y-4272718D01*
X67678815Y-4472169D01*
X67568906Y-4649569D01*
X67480979Y-4755586D01*
X67330288Y-4893041D01*
X67158853Y-5002057D01*
X66966672Y-5082634D01*
X66753745Y-5134773D01*
X66520074Y-5158472D01*
X66437573Y-5160052D01*
X66227338Y-5150463D01*
X66032607Y-5121698D01*
X65819394Y-5061866D01*
X65628507Y-4974420D01*
X65459945Y-4859358D01*
X65359974Y-4767309D01*
X65230819Y-4608433D01*
X65128386Y-4427094D01*
X65052674Y-4223293D01*
X65003684Y-3997028D01*
X64983272Y-3791316D01*
X64979932Y-3660401D01*
X65875815Y-3660401D01*
X65887329Y-3863475D01*
X65927133Y-4057572D01*
X66012427Y-4246662D01*
X66021383Y-4260261D01*
X66159007Y-4399422D01*
X66350493Y-4469947D01*
X66429757Y-4475195D01*
X66636464Y-4436206D01*
X66810533Y-4296163D01*
X66908447Y-4090077D01*
X66947301Y-3895131D01*
X66960253Y-3660401D01*
X66946991Y-3425951D01*
X66907206Y-3231239D01*
X66824454Y-3050038D01*
X66679637Y-2910958D01*
X66482834Y-2849763D01*
X66417057Y-2846584D01*
X66218224Y-2888284D01*
X66059409Y-3013386D01*
X66021383Y-3064448D01*
X65932677Y-3250378D01*
X65887329Y-3460400D01*
X65875815Y-3660401D01*
X64979932Y-3660401D01*
X64989139Y-3446970D01*
X65016759Y-3248756D01*
X65074210Y-3030987D01*
X65158176Y-2835131D01*
X65268657Y-2661188D01*
X65357043Y-2557400D01*
X65509107Y-2422933D01*
X65682466Y-2316287D01*
X65877120Y-2237461D01*
X66093069Y-2186456D01*
X66289293Y-2165204D01*
X66414126Y-2161727D01*
X66616881Y-2171315D01*
G37*
G36*
X69731466Y-2171315D02*
G01*
X69956322Y-2208135D01*
X70161051Y-2272569D01*
X70345652Y-2364618D01*
X70510127Y-2484282D01*
X70584817Y-2554469D01*
X70715964Y-2712052D01*
X70819977Y-2890242D01*
X70896856Y-3089040D01*
X70946601Y-3308447D01*
X70967329Y-3507028D01*
X70970720Y-3633046D01*
X70961561Y-3849787D01*
X70934084Y-4051216D01*
X70876931Y-4272718D01*
X70793400Y-4472169D01*
X70683491Y-4649569D01*
X70595563Y-4755586D01*
X70444873Y-4893041D01*
X70273438Y-5002057D01*
X70081257Y-5082634D01*
X69868330Y-5134773D01*
X69634659Y-5158472D01*
X69552158Y-5160052D01*
X69341923Y-5150463D01*
X69147192Y-5121698D01*
X68933979Y-5061866D01*
X68743092Y-4974420D01*
X68574530Y-4859358D01*
X68474558Y-4767309D01*
X68345404Y-4608433D01*
X68242970Y-4427094D01*
X68167259Y-4223293D01*
X68118269Y-3997028D01*
X68097857Y-3791316D01*
X68094517Y-3660401D01*
X68990399Y-3660401D01*
X69001914Y-3863475D01*
X69041718Y-4057572D01*
X69127012Y-4246662D01*
X69135968Y-4260261D01*
X69273591Y-4399422D01*
X69465078Y-4469947D01*
X69544342Y-4475195D01*
X69751049Y-4436206D01*
X69925118Y-4296163D01*
X70023031Y-4090077D01*
X70061886Y-3895131D01*
X70074838Y-3660401D01*
X70061576Y-3425951D01*
X70021791Y-3231239D01*
X69939039Y-3050038D01*
X69794222Y-2910958D01*
X69597419Y-2849763D01*
X69531642Y-2846584D01*
X69332809Y-2888284D01*
X69173994Y-3013386D01*
X69135968Y-3064448D01*
X69047262Y-3250378D01*
X69001914Y-3460400D01*
X68990399Y-3660401D01*
X68094517Y-3660401D01*
X68103723Y-3446970D01*
X68131344Y-3248756D01*
X68188794Y-3030987D01*
X68272760Y-2835131D01*
X68383242Y-2661188D01*
X68471628Y-2557400D01*
X68623692Y-2422933D01*
X68797051Y-2316287D01*
X68991705Y-2237461D01*
X69207653Y-2186456D01*
X69403878Y-2165204D01*
X69528711Y-2161727D01*
X69731466Y-2171315D01*
G37*
G36*
X72467441Y-1283429D02*
G01*
X72619997Y-1408055D01*
X72627664Y-1487616D01*
X72627664Y-4096130D01*
X72651062Y-4293881D01*
X72734154Y-4371636D01*
X72808404Y-4360889D01*
X72893400Y-4350143D01*
X73076353Y-4433136D01*
X73127644Y-4626119D01*
X73127873Y-4644211D01*
X73096675Y-4850291D01*
X72962835Y-5004088D01*
X72808404Y-5035000D01*
X72603125Y-5013296D01*
X72404687Y-4991907D01*
X72378536Y-4989082D01*
X72182667Y-4973787D01*
X72101076Y-4972473D01*
X71905071Y-4985662D01*
X71835340Y-4995921D01*
X71641655Y-5025230D01*
X71535410Y-5035000D01*
X71344192Y-4982005D01*
X71285305Y-4932418D01*
X71197135Y-4750746D01*
X71189562Y-4661796D01*
X71235515Y-4460013D01*
X71402740Y-4355012D01*
X71467999Y-4350143D01*
X71560811Y-4360889D01*
X71655577Y-4371636D01*
X71747669Y-4184399D01*
X71752297Y-4064867D01*
X71752297Y-2239884D01*
X71736335Y-2041263D01*
X71655577Y-1933115D01*
X71552995Y-1956563D01*
X71462137Y-1968286D01*
X71275806Y-1909195D01*
X71191958Y-1714736D01*
X71189562Y-1659563D01*
X71231216Y-1462874D01*
X71286282Y-1385034D01*
X71460647Y-1291466D01*
X71548110Y-1283429D01*
X71742528Y-1283429D01*
X71938612Y-1283429D01*
X72032688Y-1283429D01*
X72230911Y-1283429D01*
X72262277Y-1283429D01*
X72457938Y-1283429D01*
X72467441Y-1283429D01*
G37*
D12*
X47659752Y-30408115D02*
X48659752Y-30408115D01*
X47707371Y-30408115D02*
X47659752Y-30312877D01*
X47659752Y-30312877D02*
X47659752Y-30122401D01*
X47659752Y-30122401D02*
X47707371Y-30027163D01*
X47707371Y-30027163D02*
X47754990Y-29979544D01*
X47754990Y-29979544D02*
X47850228Y-29931925D01*
X47850228Y-29931925D02*
X48135942Y-29931925D01*
X48135942Y-29931925D02*
X48231180Y-29979544D01*
X48231180Y-29979544D02*
X48278800Y-30027163D01*
X48278800Y-30027163D02*
X48326419Y-30122401D01*
X48326419Y-30122401D02*
X48326419Y-30312877D01*
X48326419Y-30312877D02*
X48278800Y-30408115D01*
X48326419Y-29503353D02*
X47659752Y-29503353D01*
X47326419Y-29503353D02*
X47374038Y-29550972D01*
X47374038Y-29550972D02*
X47421657Y-29503353D01*
X47421657Y-29503353D02*
X47374038Y-29455734D01*
X47374038Y-29455734D02*
X47326419Y-29503353D01*
X47326419Y-29503353D02*
X47421657Y-29503353D01*
X47659752Y-29027163D02*
X48326419Y-29027163D01*
X47754990Y-29027163D02*
X47707371Y-28979544D01*
X47707371Y-28979544D02*
X47659752Y-28884306D01*
X47659752Y-28884306D02*
X47659752Y-28741449D01*
X47659752Y-28741449D02*
X47707371Y-28646211D01*
X47707371Y-28646211D02*
X47802609Y-28598592D01*
X47802609Y-28598592D02*
X48326419Y-28598592D01*
X48326419Y-26836687D02*
X48326419Y-27408115D01*
X48326419Y-27122401D02*
X47326419Y-27122401D01*
X47326419Y-27122401D02*
X47469276Y-27217639D01*
X47469276Y-27217639D02*
X47564514Y-27312877D01*
X47564514Y-27312877D02*
X47612133Y-27408115D01*
D13*
X51929902Y-54744508D02*
X51929902Y-55554032D01*
X51929902Y-55554032D02*
X51882283Y-55649270D01*
X51882283Y-55649270D02*
X51834664Y-55696889D01*
X51834664Y-55696889D02*
X51739426Y-55744508D01*
X51739426Y-55744508D02*
X51596569Y-55744508D01*
X51596569Y-55744508D02*
X51501331Y-55696889D01*
X51929902Y-55363556D02*
X51834664Y-55411175D01*
X51834664Y-55411175D02*
X51644188Y-55411175D01*
X51644188Y-55411175D02*
X51548950Y-55363556D01*
X51548950Y-55363556D02*
X51501331Y-55315936D01*
X51501331Y-55315936D02*
X51453712Y-55220698D01*
X51453712Y-55220698D02*
X51453712Y-54934984D01*
X51453712Y-54934984D02*
X51501331Y-54839746D01*
X51501331Y-54839746D02*
X51548950Y-54792127D01*
X51548950Y-54792127D02*
X51644188Y-54744508D01*
X51644188Y-54744508D02*
X51834664Y-54744508D01*
X51834664Y-54744508D02*
X51929902Y-54792127D01*
X52406093Y-55411175D02*
X52406093Y-54744508D01*
X52406093Y-54411175D02*
X52358474Y-54458794D01*
X52358474Y-54458794D02*
X52406093Y-54506413D01*
X52406093Y-54506413D02*
X52453712Y-54458794D01*
X52453712Y-54458794D02*
X52406093Y-54411175D01*
X52406093Y-54411175D02*
X52406093Y-54506413D01*
X52739426Y-54744508D02*
X53120378Y-54744508D01*
X52882283Y-54411175D02*
X52882283Y-55268317D01*
X52882283Y-55268317D02*
X52929902Y-55363556D01*
X52929902Y-55363556D02*
X53025140Y-55411175D01*
X53025140Y-55411175D02*
X53120378Y-55411175D01*
X53453712Y-55411175D02*
X53453712Y-54411175D01*
X53882283Y-55411175D02*
X53882283Y-54887365D01*
X53882283Y-54887365D02*
X53834664Y-54792127D01*
X53834664Y-54792127D02*
X53739426Y-54744508D01*
X53739426Y-54744508D02*
X53596569Y-54744508D01*
X53596569Y-54744508D02*
X53501331Y-54792127D01*
X53501331Y-54792127D02*
X53453712Y-54839746D01*
X54787045Y-54744508D02*
X54787045Y-55411175D01*
X54358474Y-54744508D02*
X54358474Y-55268317D01*
X54358474Y-55268317D02*
X54406093Y-55363556D01*
X54406093Y-55363556D02*
X54501331Y-55411175D01*
X54501331Y-55411175D02*
X54644188Y-55411175D01*
X54644188Y-55411175D02*
X54739426Y-55363556D01*
X54739426Y-55363556D02*
X54787045Y-55315936D01*
X55263236Y-55411175D02*
X55263236Y-54411175D01*
X55263236Y-54792127D02*
X55358474Y-54744508D01*
X55358474Y-54744508D02*
X55548950Y-54744508D01*
X55548950Y-54744508D02*
X55644188Y-54792127D01*
X55644188Y-54792127D02*
X55691807Y-54839746D01*
X55691807Y-54839746D02*
X55739426Y-54934984D01*
X55739426Y-54934984D02*
X55739426Y-55220698D01*
X55739426Y-55220698D02*
X55691807Y-55315936D01*
X55691807Y-55315936D02*
X55644188Y-55363556D01*
X55644188Y-55363556D02*
X55548950Y-55411175D01*
X55548950Y-55411175D02*
X55358474Y-55411175D01*
X55358474Y-55411175D02*
X55263236Y-55363556D01*
X56167998Y-55315936D02*
X56215617Y-55363556D01*
X56215617Y-55363556D02*
X56167998Y-55411175D01*
X56167998Y-55411175D02*
X56120379Y-55363556D01*
X56120379Y-55363556D02*
X56167998Y-55315936D01*
X56167998Y-55315936D02*
X56167998Y-55411175D01*
X57072759Y-55363556D02*
X56977521Y-55411175D01*
X56977521Y-55411175D02*
X56787045Y-55411175D01*
X56787045Y-55411175D02*
X56691807Y-55363556D01*
X56691807Y-55363556D02*
X56644188Y-55315936D01*
X56644188Y-55315936D02*
X56596569Y-55220698D01*
X56596569Y-55220698D02*
X56596569Y-54934984D01*
X56596569Y-54934984D02*
X56644188Y-54839746D01*
X56644188Y-54839746D02*
X56691807Y-54792127D01*
X56691807Y-54792127D02*
X56787045Y-54744508D01*
X56787045Y-54744508D02*
X56977521Y-54744508D01*
X56977521Y-54744508D02*
X57072759Y-54792127D01*
X57644188Y-55411175D02*
X57548950Y-55363556D01*
X57548950Y-55363556D02*
X57501331Y-55315936D01*
X57501331Y-55315936D02*
X57453712Y-55220698D01*
X57453712Y-55220698D02*
X57453712Y-54934984D01*
X57453712Y-54934984D02*
X57501331Y-54839746D01*
X57501331Y-54839746D02*
X57548950Y-54792127D01*
X57548950Y-54792127D02*
X57644188Y-54744508D01*
X57644188Y-54744508D02*
X57787045Y-54744508D01*
X57787045Y-54744508D02*
X57882283Y-54792127D01*
X57882283Y-54792127D02*
X57929902Y-54839746D01*
X57929902Y-54839746D02*
X57977521Y-54934984D01*
X57977521Y-54934984D02*
X57977521Y-55220698D01*
X57977521Y-55220698D02*
X57929902Y-55315936D01*
X57929902Y-55315936D02*
X57882283Y-55363556D01*
X57882283Y-55363556D02*
X57787045Y-55411175D01*
X57787045Y-55411175D02*
X57644188Y-55411175D01*
X58406093Y-55411175D02*
X58406093Y-54744508D01*
X58406093Y-54839746D02*
X58453712Y-54792127D01*
X58453712Y-54792127D02*
X58548950Y-54744508D01*
X58548950Y-54744508D02*
X58691807Y-54744508D01*
X58691807Y-54744508D02*
X58787045Y-54792127D01*
X58787045Y-54792127D02*
X58834664Y-54887365D01*
X58834664Y-54887365D02*
X58834664Y-55411175D01*
X58834664Y-54887365D02*
X58882283Y-54792127D01*
X58882283Y-54792127D02*
X58977521Y-54744508D01*
X58977521Y-54744508D02*
X59120378Y-54744508D01*
X59120378Y-54744508D02*
X59215617Y-54792127D01*
X59215617Y-54792127D02*
X59263236Y-54887365D01*
X59263236Y-54887365D02*
X59263236Y-55411175D01*
X60453711Y-54363556D02*
X59596569Y-55649270D01*
X60787045Y-54744508D02*
X60787045Y-55411175D01*
X60787045Y-54839746D02*
X60834664Y-54792127D01*
X60834664Y-54792127D02*
X60929902Y-54744508D01*
X60929902Y-54744508D02*
X61072759Y-54744508D01*
X61072759Y-54744508D02*
X61167997Y-54792127D01*
X61167997Y-54792127D02*
X61215616Y-54887365D01*
X61215616Y-54887365D02*
X61215616Y-55411175D01*
X62072759Y-55363556D02*
X61977521Y-55411175D01*
X61977521Y-55411175D02*
X61787045Y-55411175D01*
X61787045Y-55411175D02*
X61691807Y-55363556D01*
X61691807Y-55363556D02*
X61644188Y-55268317D01*
X61644188Y-55268317D02*
X61644188Y-54887365D01*
X61644188Y-54887365D02*
X61691807Y-54792127D01*
X61691807Y-54792127D02*
X61787045Y-54744508D01*
X61787045Y-54744508D02*
X61977521Y-54744508D01*
X61977521Y-54744508D02*
X62072759Y-54792127D01*
X62072759Y-54792127D02*
X62120378Y-54887365D01*
X62120378Y-54887365D02*
X62120378Y-54982603D01*
X62120378Y-54982603D02*
X61644188Y-55077841D01*
X62453712Y-54744508D02*
X62644188Y-55411175D01*
X62644188Y-55411175D02*
X62834664Y-54934984D01*
X62834664Y-54934984D02*
X63025140Y-55411175D01*
X63025140Y-55411175D02*
X63215616Y-54744508D01*
X64025140Y-55411175D02*
X64025140Y-54411175D01*
X64025140Y-55363556D02*
X63929902Y-55411175D01*
X63929902Y-55411175D02*
X63739426Y-55411175D01*
X63739426Y-55411175D02*
X63644188Y-55363556D01*
X63644188Y-55363556D02*
X63596569Y-55315936D01*
X63596569Y-55315936D02*
X63548950Y-55220698D01*
X63548950Y-55220698D02*
X63548950Y-54934984D01*
X63548950Y-54934984D02*
X63596569Y-54839746D01*
X63596569Y-54839746D02*
X63644188Y-54792127D01*
X63644188Y-54792127D02*
X63739426Y-54744508D01*
X63739426Y-54744508D02*
X63929902Y-54744508D01*
X63929902Y-54744508D02*
X64025140Y-54792127D01*
X64501331Y-55411175D02*
X64501331Y-54744508D01*
X64501331Y-54411175D02*
X64453712Y-54458794D01*
X64453712Y-54458794D02*
X64501331Y-54506413D01*
X64501331Y-54506413D02*
X64548950Y-54458794D01*
X64548950Y-54458794D02*
X64501331Y-54411175D01*
X64501331Y-54411175D02*
X64501331Y-54506413D01*
X65406092Y-54744508D02*
X65406092Y-55554032D01*
X65406092Y-55554032D02*
X65358473Y-55649270D01*
X65358473Y-55649270D02*
X65310854Y-55696889D01*
X65310854Y-55696889D02*
X65215616Y-55744508D01*
X65215616Y-55744508D02*
X65072759Y-55744508D01*
X65072759Y-55744508D02*
X64977521Y-55696889D01*
X65406092Y-55363556D02*
X65310854Y-55411175D01*
X65310854Y-55411175D02*
X65120378Y-55411175D01*
X65120378Y-55411175D02*
X65025140Y-55363556D01*
X65025140Y-55363556D02*
X64977521Y-55315936D01*
X64977521Y-55315936D02*
X64929902Y-55220698D01*
X64929902Y-55220698D02*
X64929902Y-54934984D01*
X64929902Y-54934984D02*
X64977521Y-54839746D01*
X64977521Y-54839746D02*
X65025140Y-54792127D01*
X65025140Y-54792127D02*
X65120378Y-54744508D01*
X65120378Y-54744508D02*
X65310854Y-54744508D01*
X65310854Y-54744508D02*
X65406092Y-54792127D01*
X66310854Y-55411175D02*
X66310854Y-54887365D01*
X66310854Y-54887365D02*
X66263235Y-54792127D01*
X66263235Y-54792127D02*
X66167997Y-54744508D01*
X66167997Y-54744508D02*
X65977521Y-54744508D01*
X65977521Y-54744508D02*
X65882283Y-54792127D01*
X66310854Y-55363556D02*
X66215616Y-55411175D01*
X66215616Y-55411175D02*
X65977521Y-55411175D01*
X65977521Y-55411175D02*
X65882283Y-55363556D01*
X65882283Y-55363556D02*
X65834664Y-55268317D01*
X65834664Y-55268317D02*
X65834664Y-55173079D01*
X65834664Y-55173079D02*
X65882283Y-55077841D01*
X65882283Y-55077841D02*
X65977521Y-55030222D01*
X65977521Y-55030222D02*
X66215616Y-55030222D01*
X66215616Y-55030222D02*
X66310854Y-54982603D01*
X66644188Y-54744508D02*
X67025140Y-54744508D01*
X66787045Y-54411175D02*
X66787045Y-55268317D01*
X66787045Y-55268317D02*
X66834664Y-55363556D01*
X66834664Y-55363556D02*
X66929902Y-55411175D01*
X66929902Y-55411175D02*
X67025140Y-55411175D01*
X67739426Y-55363556D02*
X67644188Y-55411175D01*
X67644188Y-55411175D02*
X67453712Y-55411175D01*
X67453712Y-55411175D02*
X67358474Y-55363556D01*
X67358474Y-55363556D02*
X67310855Y-55268317D01*
X67310855Y-55268317D02*
X67310855Y-54887365D01*
X67310855Y-54887365D02*
X67358474Y-54792127D01*
X67358474Y-54792127D02*
X67453712Y-54744508D01*
X67453712Y-54744508D02*
X67644188Y-54744508D01*
X67644188Y-54744508D02*
X67739426Y-54792127D01*
X67739426Y-54792127D02*
X67787045Y-54887365D01*
X67787045Y-54887365D02*
X67787045Y-54982603D01*
X67787045Y-54982603D02*
X67310855Y-55077841D01*
X68929902Y-54363556D02*
X68072760Y-55649270D01*
X51453712Y-56973500D02*
X51548950Y-57021119D01*
X51548950Y-57021119D02*
X51739426Y-57021119D01*
X51739426Y-57021119D02*
X51834664Y-56973500D01*
X51834664Y-56973500D02*
X51882283Y-56878261D01*
X51882283Y-56878261D02*
X51882283Y-56830642D01*
X51882283Y-56830642D02*
X51834664Y-56735404D01*
X51834664Y-56735404D02*
X51739426Y-56687785D01*
X51739426Y-56687785D02*
X51596569Y-56687785D01*
X51596569Y-56687785D02*
X51501331Y-56640166D01*
X51501331Y-56640166D02*
X51453712Y-56544928D01*
X51453712Y-56544928D02*
X51453712Y-56497309D01*
X51453712Y-56497309D02*
X51501331Y-56402071D01*
X51501331Y-56402071D02*
X51596569Y-56354452D01*
X51596569Y-56354452D02*
X51739426Y-56354452D01*
X51739426Y-56354452D02*
X51834664Y-56402071D01*
X52739426Y-57021119D02*
X52739426Y-56497309D01*
X52739426Y-56497309D02*
X52691807Y-56402071D01*
X52691807Y-56402071D02*
X52596569Y-56354452D01*
X52596569Y-56354452D02*
X52406093Y-56354452D01*
X52406093Y-56354452D02*
X52310855Y-56402071D01*
X52739426Y-56973500D02*
X52644188Y-57021119D01*
X52644188Y-57021119D02*
X52406093Y-57021119D01*
X52406093Y-57021119D02*
X52310855Y-56973500D01*
X52310855Y-56973500D02*
X52263236Y-56878261D01*
X52263236Y-56878261D02*
X52263236Y-56783023D01*
X52263236Y-56783023D02*
X52310855Y-56687785D01*
X52310855Y-56687785D02*
X52406093Y-56640166D01*
X52406093Y-56640166D02*
X52644188Y-56640166D01*
X52644188Y-56640166D02*
X52739426Y-56592547D01*
X53215617Y-57021119D02*
X53215617Y-56354452D01*
X53215617Y-56449690D02*
X53263236Y-56402071D01*
X53263236Y-56402071D02*
X53358474Y-56354452D01*
X53358474Y-56354452D02*
X53501331Y-56354452D01*
X53501331Y-56354452D02*
X53596569Y-56402071D01*
X53596569Y-56402071D02*
X53644188Y-56497309D01*
X53644188Y-56497309D02*
X53644188Y-57021119D01*
X53644188Y-56497309D02*
X53691807Y-56402071D01*
X53691807Y-56402071D02*
X53787045Y-56354452D01*
X53787045Y-56354452D02*
X53929902Y-56354452D01*
X53929902Y-56354452D02*
X54025141Y-56402071D01*
X54025141Y-56402071D02*
X54072760Y-56497309D01*
X54072760Y-56497309D02*
X54072760Y-57021119D01*
X54977521Y-57021119D02*
X54977521Y-56021119D01*
X54977521Y-56973500D02*
X54882283Y-57021119D01*
X54882283Y-57021119D02*
X54691807Y-57021119D01*
X54691807Y-57021119D02*
X54596569Y-56973500D01*
X54596569Y-56973500D02*
X54548950Y-56925880D01*
X54548950Y-56925880D02*
X54501331Y-56830642D01*
X54501331Y-56830642D02*
X54501331Y-56544928D01*
X54501331Y-56544928D02*
X54548950Y-56449690D01*
X54548950Y-56449690D02*
X54596569Y-56402071D01*
X54596569Y-56402071D02*
X54691807Y-56354452D01*
X54691807Y-56354452D02*
X54882283Y-56354452D01*
X54882283Y-56354452D02*
X54977521Y-56402071D01*
X55406093Y-56116357D02*
X55453712Y-56068738D01*
X55453712Y-56068738D02*
X55548950Y-56021119D01*
X55548950Y-56021119D02*
X55787045Y-56021119D01*
X55787045Y-56021119D02*
X55882283Y-56068738D01*
X55882283Y-56068738D02*
X55929902Y-56116357D01*
X55929902Y-56116357D02*
X55977521Y-56211595D01*
X55977521Y-56211595D02*
X55977521Y-56306833D01*
X55977521Y-56306833D02*
X55929902Y-56449690D01*
X55929902Y-56449690D02*
X55358474Y-57021119D01*
X55358474Y-57021119D02*
X55977521Y-57021119D01*
X56929902Y-57021119D02*
X56358474Y-57021119D01*
X56644188Y-57021119D02*
X56644188Y-56021119D01*
X56644188Y-56021119D02*
X56548950Y-56163976D01*
X56548950Y-56163976D02*
X56453712Y-56259214D01*
X56453712Y-56259214D02*
X56358474Y-56306833D01*
X57787045Y-56354452D02*
X57787045Y-57163976D01*
X57787045Y-57163976D02*
X57739426Y-57259214D01*
X57739426Y-57259214D02*
X57691807Y-57306833D01*
X57691807Y-57306833D02*
X57596569Y-57354452D01*
X57596569Y-57354452D02*
X57453712Y-57354452D01*
X57453712Y-57354452D02*
X57358474Y-57306833D01*
X57787045Y-56973500D02*
X57691807Y-57021119D01*
X57691807Y-57021119D02*
X57501331Y-57021119D01*
X57501331Y-57021119D02*
X57406093Y-56973500D01*
X57406093Y-56973500D02*
X57358474Y-56925880D01*
X57358474Y-56925880D02*
X57310855Y-56830642D01*
X57310855Y-56830642D02*
X57310855Y-56544928D01*
X57310855Y-56544928D02*
X57358474Y-56449690D01*
X57358474Y-56449690D02*
X57406093Y-56402071D01*
X57406093Y-56402071D02*
X57501331Y-56354452D01*
X57501331Y-56354452D02*
X57691807Y-56354452D01*
X57691807Y-56354452D02*
X57787045Y-56402071D01*
X58263236Y-56640166D02*
X59025141Y-56640166D01*
X59501331Y-57021119D02*
X59501331Y-56354452D01*
X59501331Y-56449690D02*
X59548950Y-56402071D01*
X59548950Y-56402071D02*
X59644188Y-56354452D01*
X59644188Y-56354452D02*
X59787045Y-56354452D01*
X59787045Y-56354452D02*
X59882283Y-56402071D01*
X59882283Y-56402071D02*
X59929902Y-56497309D01*
X59929902Y-56497309D02*
X59929902Y-57021119D01*
X59929902Y-56497309D02*
X59977521Y-56402071D01*
X59977521Y-56402071D02*
X60072759Y-56354452D01*
X60072759Y-56354452D02*
X60215616Y-56354452D01*
X60215616Y-56354452D02*
X60310855Y-56402071D01*
X60310855Y-56402071D02*
X60358474Y-56497309D01*
X60358474Y-56497309D02*
X60358474Y-57021119D01*
X60834664Y-57021119D02*
X60834664Y-56354452D01*
X60834664Y-56021119D02*
X60787045Y-56068738D01*
X60787045Y-56068738D02*
X60834664Y-56116357D01*
X60834664Y-56116357D02*
X60882283Y-56068738D01*
X60882283Y-56068738D02*
X60834664Y-56021119D01*
X60834664Y-56021119D02*
X60834664Y-56116357D01*
X61739425Y-57021119D02*
X61739425Y-56021119D01*
X61739425Y-56973500D02*
X61644187Y-57021119D01*
X61644187Y-57021119D02*
X61453711Y-57021119D01*
X61453711Y-57021119D02*
X61358473Y-56973500D01*
X61358473Y-56973500D02*
X61310854Y-56925880D01*
X61310854Y-56925880D02*
X61263235Y-56830642D01*
X61263235Y-56830642D02*
X61263235Y-56544928D01*
X61263235Y-56544928D02*
X61310854Y-56449690D01*
X61310854Y-56449690D02*
X61358473Y-56402071D01*
X61358473Y-56402071D02*
X61453711Y-56354452D01*
X61453711Y-56354452D02*
X61644187Y-56354452D01*
X61644187Y-56354452D02*
X61739425Y-56402071D01*
X62215616Y-57021119D02*
X62215616Y-56354452D01*
X62215616Y-56021119D02*
X62167997Y-56068738D01*
X62167997Y-56068738D02*
X62215616Y-56116357D01*
X62215616Y-56116357D02*
X62263235Y-56068738D01*
X62263235Y-56068738D02*
X62215616Y-56021119D01*
X62215616Y-56021119D02*
X62215616Y-56116357D01*
X62691806Y-56640166D02*
X63453711Y-56640166D01*
X63787044Y-56354452D02*
X64167996Y-56354452D01*
X63929901Y-56021119D02*
X63929901Y-56878261D01*
X63929901Y-56878261D02*
X63977520Y-56973500D01*
X63977520Y-56973500D02*
X64072758Y-57021119D01*
X64072758Y-57021119D02*
X64167996Y-57021119D01*
X64644187Y-57021119D02*
X64548949Y-56973500D01*
X64548949Y-56973500D02*
X64501330Y-56925880D01*
X64501330Y-56925880D02*
X64453711Y-56830642D01*
X64453711Y-56830642D02*
X64453711Y-56544928D01*
X64453711Y-56544928D02*
X64501330Y-56449690D01*
X64501330Y-56449690D02*
X64548949Y-56402071D01*
X64548949Y-56402071D02*
X64644187Y-56354452D01*
X64644187Y-56354452D02*
X64787044Y-56354452D01*
X64787044Y-56354452D02*
X64882282Y-56402071D01*
X64882282Y-56402071D02*
X64929901Y-56449690D01*
X64929901Y-56449690D02*
X64977520Y-56544928D01*
X64977520Y-56544928D02*
X64977520Y-56830642D01*
X64977520Y-56830642D02*
X64929901Y-56925880D01*
X64929901Y-56925880D02*
X64882282Y-56973500D01*
X64882282Y-56973500D02*
X64787044Y-57021119D01*
X64787044Y-57021119D02*
X64644187Y-57021119D01*
X65548949Y-57021119D02*
X65453711Y-56973500D01*
X65453711Y-56973500D02*
X65406092Y-56925880D01*
X65406092Y-56925880D02*
X65358473Y-56830642D01*
X65358473Y-56830642D02*
X65358473Y-56544928D01*
X65358473Y-56544928D02*
X65406092Y-56449690D01*
X65406092Y-56449690D02*
X65453711Y-56402071D01*
X65453711Y-56402071D02*
X65548949Y-56354452D01*
X65548949Y-56354452D02*
X65691806Y-56354452D01*
X65691806Y-56354452D02*
X65787044Y-56402071D01*
X65787044Y-56402071D02*
X65834663Y-56449690D01*
X65834663Y-56449690D02*
X65882282Y-56544928D01*
X65882282Y-56544928D02*
X65882282Y-56830642D01*
X65882282Y-56830642D02*
X65834663Y-56925880D01*
X65834663Y-56925880D02*
X65787044Y-56973500D01*
X65787044Y-56973500D02*
X65691806Y-57021119D01*
X65691806Y-57021119D02*
X65548949Y-57021119D01*
X66453711Y-57021119D02*
X66358473Y-56973500D01*
X66358473Y-56973500D02*
X66310854Y-56878261D01*
X66310854Y-56878261D02*
X66310854Y-56021119D01*
X67548949Y-55973500D02*
X66691807Y-57259214D01*
D11*
G36*
X7046073Y-6694724D02*
G01*
X7712550Y-6694724D01*
X7712550Y-6831500D01*
X6899832Y-6831500D01*
X6899832Y-5561437D01*
X7691484Y-5561437D01*
X7691484Y-5698213D01*
X7046073Y-5698213D01*
X7046073Y-6108541D01*
X7649047Y-6108541D01*
X7649047Y-6245317D01*
X7046073Y-6245317D01*
X7046073Y-6694724D01*
G37*
G36*
X8311132Y-5976935D02*
G01*
X8365595Y-5990083D01*
X8421947Y-6014650D01*
X8464513Y-6045343D01*
X8506598Y-6093235D01*
X8531985Y-6138766D01*
X8551219Y-6200055D01*
X8557531Y-6262575D01*
X8557631Y-6272183D01*
X8557631Y-6637937D01*
X8559471Y-6701487D01*
X8561905Y-6736245D01*
X8568464Y-6797353D01*
X8573201Y-6831500D01*
X8441005Y-6831500D01*
X8432710Y-6770012D01*
X8431540Y-6756395D01*
X8433925Y-6698836D01*
X8403142Y-6744388D01*
X8357919Y-6788974D01*
X8319494Y-6813792D01*
X8261305Y-6836489D01*
X8200271Y-6848093D01*
X8144860Y-6851039D01*
X8083069Y-6846112D01*
X8036478Y-6835468D01*
X7978102Y-6811421D01*
X7942749Y-6788146D01*
X7899765Y-6744658D01*
X7876804Y-6709073D01*
X7856808Y-6651252D01*
X7852074Y-6599469D01*
X7853074Y-6589088D01*
X7998315Y-6589088D01*
X8010852Y-6650339D01*
X8013580Y-6655645D01*
X8055712Y-6700830D01*
X8113191Y-6725664D01*
X8115246Y-6726170D01*
X8177875Y-6733773D01*
X8182107Y-6733802D01*
X8245584Y-6727330D01*
X8287742Y-6713347D01*
X8340336Y-6679919D01*
X8362847Y-6657476D01*
X8395680Y-6605735D01*
X8407421Y-6574434D01*
X8420015Y-6512133D01*
X8422076Y-6472463D01*
X8422076Y-6421172D01*
X8372006Y-6421172D01*
X8308966Y-6422960D01*
X8263013Y-6425751D01*
X8199204Y-6433155D01*
X8138449Y-6446817D01*
X8080774Y-6469245D01*
X8038615Y-6497192D01*
X8003982Y-6548831D01*
X7998315Y-6589088D01*
X7853074Y-6589088D01*
X7858460Y-6533161D01*
X7879991Y-6472840D01*
X7906113Y-6435826D01*
X7954302Y-6392296D01*
X8011057Y-6358943D01*
X8040141Y-6346983D01*
X8101507Y-6328321D01*
X8165621Y-6315842D01*
X8209890Y-6310957D01*
X8275020Y-6306678D01*
X8340635Y-6304271D01*
X8373838Y-6303935D01*
X8422076Y-6303935D01*
X8422076Y-6292639D01*
X8415003Y-6223434D01*
X8388871Y-6160791D01*
X8343484Y-6117638D01*
X8278842Y-6093973D01*
X8220881Y-6089001D01*
X8152302Y-6095374D01*
X8087311Y-6114494D01*
X8025906Y-6146360D01*
X7975120Y-6184699D01*
X7968090Y-6190973D01*
X7885352Y-6096634D01*
X7936303Y-6054198D01*
X7995047Y-6020542D01*
X8061583Y-5995665D01*
X8122982Y-5981642D01*
X8189792Y-5973716D01*
X8247137Y-5971765D01*
X8311132Y-5976935D01*
G37*
G36*
X9243648Y-6210817D02*
G01*
X9210751Y-6156855D01*
X9171901Y-6118921D01*
X9116029Y-6093939D01*
X9070235Y-6089001D01*
X9011922Y-6095718D01*
X8959410Y-6116479D01*
X8922774Y-6151283D01*
X8909340Y-6202574D01*
X8927090Y-6262054D01*
X8946893Y-6280121D01*
X9002277Y-6305956D01*
X9063519Y-6323780D01*
X9181366Y-6351868D01*
X9243877Y-6372819D01*
X9298144Y-6405448D01*
X9329743Y-6433689D01*
X9366022Y-6484050D01*
X9385557Y-6543083D01*
X9389278Y-6587257D01*
X9382972Y-6648356D01*
X9360579Y-6707546D01*
X9322937Y-6758519D01*
X9285780Y-6790284D01*
X9229419Y-6820745D01*
X9179839Y-6836690D01*
X9116392Y-6847886D01*
X9059550Y-6851039D01*
X8994318Y-6846566D01*
X8932117Y-6833145D01*
X8878199Y-6813181D01*
X8822751Y-6779549D01*
X8776287Y-6736138D01*
X8737682Y-6686617D01*
X8729517Y-6674268D01*
X8846448Y-6592447D01*
X8880265Y-6643807D01*
X8924420Y-6688918D01*
X8937123Y-6698387D01*
X8993528Y-6724949D01*
X9055142Y-6733768D01*
X9059550Y-6733802D01*
X9120722Y-6727283D01*
X9127022Y-6725864D01*
X9184945Y-6702157D01*
X9186556Y-6701135D01*
X9227467Y-6658698D01*
X9243037Y-6598553D01*
X9227969Y-6539118D01*
X9200295Y-6511847D01*
X9142219Y-6483347D01*
X9094049Y-6468188D01*
X8981392Y-6440406D01*
X8923079Y-6423003D01*
X8866394Y-6396282D01*
X8850722Y-6386062D01*
X8804421Y-6342469D01*
X8789051Y-6321032D01*
X8766749Y-6263120D01*
X8763100Y-6221503D01*
X8770596Y-6158187D01*
X8789661Y-6109762D01*
X8827808Y-6058937D01*
X8861102Y-6031604D01*
X8915070Y-6002528D01*
X8961853Y-5986725D01*
X9022163Y-5975052D01*
X9076952Y-5971765D01*
X9141638Y-5976573D01*
X9202890Y-5990999D01*
X9241816Y-6005959D01*
X9294910Y-6039676D01*
X9339246Y-6089536D01*
X9363937Y-6131744D01*
X9243648Y-6210817D01*
G37*
G36*
X9991947Y-6108541D02*
G01*
X9754421Y-6108541D01*
X9754421Y-6593057D01*
X9759862Y-6654995D01*
X9762664Y-6666025D01*
X9784951Y-6708157D01*
X9818840Y-6728307D01*
X9864330Y-6733802D01*
X9923254Y-6725254D01*
X9980859Y-6702134D01*
X9992863Y-6695945D01*
X9999274Y-6819898D01*
X9936562Y-6840061D01*
X9872591Y-6849549D01*
X9832578Y-6851039D01*
X9769633Y-6843793D01*
X9760221Y-6841575D01*
X9703028Y-6815606D01*
X9690918Y-6806465D01*
X9651391Y-6759416D01*
X9639016Y-6735939D01*
X9622191Y-6673644D01*
X9618866Y-6620229D01*
X9618866Y-6108541D01*
X9444843Y-6108541D01*
X9444843Y-5991304D01*
X9618866Y-5991304D01*
X9618866Y-5756831D01*
X9754421Y-5756831D01*
X9754421Y-5991304D01*
X9991947Y-5991304D01*
X9991947Y-6108541D01*
G37*
G36*
X11703784Y-6636716D02*
G01*
X11665927Y-6685351D01*
X11620961Y-6730870D01*
X11617994Y-6733497D01*
X11567237Y-6772423D01*
X11513414Y-6803648D01*
X11509611Y-6805549D01*
X11450506Y-6831067D01*
X11391468Y-6849800D01*
X11378330Y-6853176D01*
X11315101Y-6865072D01*
X11253668Y-6870153D01*
X11229342Y-6870578D01*
X11160229Y-6867449D01*
X11093635Y-6858061D01*
X11029559Y-6842414D01*
X10968002Y-6820509D01*
X10909708Y-6793088D01*
X10855422Y-6760898D01*
X10805142Y-6723937D01*
X10758869Y-6682206D01*
X10717138Y-6635876D01*
X10680177Y-6585425D01*
X10647987Y-6530852D01*
X10620567Y-6472157D01*
X10598661Y-6409971D01*
X10583015Y-6344922D01*
X10573626Y-6277011D01*
X10570546Y-6215241D01*
X10570497Y-6206238D01*
X10572893Y-6144155D01*
X10581499Y-6075886D01*
X10596363Y-6010479D01*
X10617486Y-5947935D01*
X10620567Y-5940318D01*
X10647987Y-5881643D01*
X10680177Y-5827127D01*
X10717138Y-5776771D01*
X10758869Y-5730575D01*
X10805142Y-5688710D01*
X10855422Y-5651654D01*
X10909708Y-5619406D01*
X10968002Y-5591967D01*
X11029559Y-5570062D01*
X11093635Y-5554415D01*
X11160229Y-5545027D01*
X11229342Y-5541897D01*
X11295655Y-5545496D01*
X11362017Y-5556291D01*
X11421045Y-5571928D01*
X11465342Y-5587387D01*
X11522701Y-5614369D01*
X11576625Y-5649822D01*
X11627115Y-5693748D01*
X11668475Y-5739132D01*
X11674169Y-5746145D01*
X11546858Y-5838958D01*
X11507771Y-5791587D01*
X11490071Y-5775454D01*
X11438504Y-5738829D01*
X11415577Y-5726301D01*
X11357650Y-5701801D01*
X11325207Y-5691801D01*
X11262296Y-5680225D01*
X11229342Y-5678673D01*
X11165157Y-5682078D01*
X11104836Y-5692294D01*
X11042344Y-5711632D01*
X11018683Y-5721721D01*
X10963257Y-5751488D01*
X10913377Y-5786980D01*
X10864914Y-5832632D01*
X10860841Y-5837126D01*
X10820088Y-5889649D01*
X10786406Y-5947728D01*
X10761922Y-6005348D01*
X10743729Y-6066027D01*
X10732275Y-6128614D01*
X10727558Y-6193110D01*
X10727423Y-6206238D01*
X10730792Y-6271145D01*
X10740899Y-6334203D01*
X10757745Y-6395413D01*
X10761922Y-6407433D01*
X10786406Y-6464892D01*
X10820088Y-6522863D01*
X10860841Y-6575350D01*
X10908694Y-6621632D01*
X10958019Y-6657696D01*
X11012891Y-6688035D01*
X11018683Y-6690755D01*
X11079266Y-6713456D01*
X11144620Y-6727749D01*
X11207518Y-6733424D01*
X11229342Y-6733802D01*
X11292260Y-6730384D01*
X11324902Y-6725864D01*
X11386361Y-6710180D01*
X11417714Y-6698082D01*
X11472550Y-6668410D01*
X11503505Y-6645570D01*
X11548746Y-6600211D01*
X11583800Y-6553979D01*
X11703784Y-6636716D01*
G37*
G36*
X12313168Y-5975697D02*
G01*
X12374910Y-5987494D01*
X12427659Y-6005043D01*
X12486034Y-6033465D01*
X12537969Y-6069271D01*
X12569014Y-6097244D01*
X12609973Y-6144485D01*
X12643546Y-6197823D01*
X12661826Y-6236768D01*
X12682105Y-6298964D01*
X12692472Y-6359447D01*
X12695105Y-6411402D01*
X12691172Y-6474636D01*
X12679375Y-6534624D01*
X12661826Y-6586341D01*
X12633176Y-6643599D01*
X12597140Y-6694933D01*
X12569014Y-6725864D01*
X12521372Y-6766451D01*
X12467291Y-6799824D01*
X12427659Y-6818066D01*
X12369458Y-6836839D01*
X12307362Y-6847819D01*
X12247530Y-6851039D01*
X12182724Y-6847143D01*
X12121382Y-6835454D01*
X12068622Y-6818066D01*
X12010390Y-6789501D01*
X11958426Y-6753723D01*
X11927266Y-6725864D01*
X11886494Y-6678480D01*
X11853020Y-6625172D01*
X11834759Y-6586341D01*
X11814480Y-6523959D01*
X11804113Y-6463381D01*
X11801481Y-6411402D01*
X11947721Y-6411402D01*
X11952417Y-6473065D01*
X11967778Y-6534698D01*
X11969093Y-6538408D01*
X11996539Y-6596620D01*
X12028627Y-6640685D01*
X12076970Y-6683414D01*
X12122050Y-6708767D01*
X12181050Y-6727544D01*
X12243155Y-6733778D01*
X12247530Y-6733802D01*
X12309854Y-6728302D01*
X12369236Y-6710308D01*
X12372704Y-6708767D01*
X12426851Y-6677084D01*
X12467043Y-6640685D01*
X12503566Y-6590228D01*
X12527493Y-6538408D01*
X12543521Y-6477042D01*
X12548843Y-6415630D01*
X12548864Y-6411402D01*
X12544168Y-6349806D01*
X12528808Y-6288392D01*
X12527493Y-6284701D01*
X12499788Y-6226337D01*
X12467043Y-6182424D01*
X12420955Y-6141531D01*
X12372704Y-6114036D01*
X12313780Y-6095260D01*
X12251885Y-6089026D01*
X12247530Y-6089001D01*
X12184986Y-6094502D01*
X12125518Y-6112496D01*
X12122050Y-6114036D01*
X12068161Y-6145806D01*
X12028627Y-6182424D01*
X11992818Y-6232729D01*
X11969093Y-6284701D01*
X11953064Y-6345838D01*
X11947742Y-6407174D01*
X11947721Y-6411402D01*
X11801481Y-6411402D01*
X11805413Y-6348203D01*
X11818673Y-6283045D01*
X11834759Y-6236768D01*
X11863367Y-6179366D01*
X11899274Y-6128061D01*
X11927266Y-6097244D01*
X11975051Y-6056515D01*
X12029104Y-6023170D01*
X12068622Y-6005043D01*
X12126815Y-5986096D01*
X12188472Y-5975014D01*
X12247530Y-5971765D01*
X12313168Y-5975697D01*
G37*
G36*
X13016284Y-6348204D02*
G01*
X13391197Y-5991304D01*
X13594224Y-5991304D01*
X13173515Y-6376597D01*
X13636966Y-6831500D01*
X13429970Y-6831500D01*
X13016284Y-6414150D01*
X13016284Y-6831500D01*
X12880729Y-6831500D01*
X12880729Y-5483279D01*
X13016284Y-5483279D01*
X13016284Y-6348204D01*
G37*
G36*
X14169091Y-5975877D02*
G01*
X14232747Y-5989745D01*
X14276882Y-6006569D01*
X14334370Y-6038379D01*
X14383796Y-6077747D01*
X14403889Y-6098466D01*
X14441729Y-6148376D01*
X14471407Y-6204837D01*
X14482352Y-6233105D01*
X14498910Y-6292367D01*
X14507825Y-6354291D01*
X14509524Y-6397053D01*
X14509524Y-6460250D01*
X13824728Y-6460250D01*
X13837441Y-6522742D01*
X13852510Y-6561611D01*
X13884378Y-6615900D01*
X13915708Y-6651981D01*
X13966312Y-6691340D01*
X14005773Y-6711821D01*
X14065987Y-6729595D01*
X14116293Y-6733802D01*
X14180406Y-6727362D01*
X14242111Y-6705851D01*
X14271997Y-6688007D01*
X14321047Y-6646817D01*
X14361531Y-6597667D01*
X14377327Y-6572297D01*
X14483267Y-6661445D01*
X14442185Y-6710046D01*
X14394462Y-6755370D01*
X14339567Y-6794117D01*
X14311382Y-6808907D01*
X14253237Y-6831125D01*
X14192528Y-6845114D01*
X14129255Y-6850874D01*
X14116293Y-6851039D01*
X14053789Y-6847143D01*
X13989060Y-6834005D01*
X13942880Y-6818066D01*
X13886022Y-6789501D01*
X13835432Y-6753723D01*
X13805188Y-6725864D01*
X13765346Y-6678480D01*
X13732373Y-6625172D01*
X13714208Y-6586341D01*
X13693929Y-6523959D01*
X13683562Y-6463381D01*
X13680930Y-6411402D01*
X13684754Y-6348203D01*
X13685781Y-6343014D01*
X13827170Y-6343014D01*
X14363283Y-6343014D01*
X14356664Y-6278763D01*
X14334094Y-6216145D01*
X14295506Y-6161969D01*
X14247999Y-6123490D01*
X14189818Y-6099262D01*
X14128330Y-6089643D01*
X14105912Y-6089001D01*
X14042563Y-6096751D01*
X14000583Y-6110983D01*
X13944450Y-6142468D01*
X13911129Y-6170212D01*
X13871192Y-6217847D01*
X13850068Y-6254781D01*
X13829876Y-6314130D01*
X13827170Y-6343014D01*
X13685781Y-6343014D01*
X13697648Y-6283045D01*
X13713292Y-6236768D01*
X13741127Y-6179366D01*
X13776089Y-6128061D01*
X13803356Y-6097244D01*
X13849381Y-6056515D01*
X13900901Y-6023170D01*
X13938301Y-6005043D01*
X13998221Y-5984764D01*
X14061662Y-5973845D01*
X14105912Y-5971765D01*
X14169091Y-5975877D01*
G37*
G36*
X14707666Y-6257224D02*
G01*
X14706796Y-6195754D01*
X14704918Y-6147009D01*
X14702695Y-6084818D01*
X14701014Y-6021348D01*
X14700338Y-5991304D01*
X14834367Y-5991304D01*
X14828260Y-6151283D01*
X14824597Y-6149757D01*
X14849808Y-6093290D01*
X14855433Y-6085338D01*
X14898604Y-6039348D01*
X14912830Y-6027941D01*
X14967065Y-5996719D01*
X14991293Y-5987335D01*
X15051542Y-5973954D01*
X15092043Y-5971765D01*
X15153843Y-5977012D01*
X15189435Y-5985198D01*
X15162568Y-6121058D01*
X15101299Y-6108846D01*
X15088379Y-6108541D01*
X15025276Y-6115434D01*
X14978470Y-6132965D01*
X14927451Y-6168480D01*
X14902449Y-6194942D01*
X14869485Y-6247259D01*
X14857570Y-6276763D01*
X14844355Y-6337787D01*
X14843220Y-6360721D01*
X14843220Y-6831500D01*
X14707666Y-6831500D01*
X14707666Y-6257224D01*
G37*
G36*
X7496701Y-7900184D02*
G01*
X7455954Y-7852838D01*
X7401514Y-7812967D01*
X7338679Y-7788285D01*
X7276811Y-7779148D01*
X7257953Y-7778673D01*
X7195831Y-7784327D01*
X7163920Y-7791801D01*
X7105293Y-7815926D01*
X7081793Y-7831185D01*
X7038896Y-7874647D01*
X7023786Y-7899268D01*
X7004670Y-7960208D01*
X7002109Y-7997271D01*
X7010758Y-8061643D01*
X7041822Y-8118182D01*
X7047294Y-8123972D01*
X7095174Y-8162759D01*
X7149303Y-8193030D01*
X7162088Y-8198771D01*
X7220766Y-8222023D01*
X7279134Y-8241607D01*
X7315045Y-8252199D01*
X7376111Y-8272149D01*
X7433827Y-8296735D01*
X7470445Y-8315702D01*
X7525157Y-8352582D01*
X7572211Y-8398228D01*
X7591345Y-8422253D01*
X7621298Y-8478954D01*
X7636611Y-8542847D01*
X7640499Y-8603603D01*
X7635261Y-8665814D01*
X7617765Y-8727879D01*
X7603252Y-8759003D01*
X7569357Y-8811336D01*
X7527702Y-8856211D01*
X7505860Y-8874408D01*
X7454426Y-8908535D01*
X7398357Y-8935508D01*
X7370916Y-8945543D01*
X7310238Y-8961753D01*
X7249258Y-8969698D01*
X7221012Y-8970578D01*
X7156327Y-8967028D01*
X7093478Y-8956378D01*
X7032465Y-8938628D01*
X6999361Y-8925699D01*
X6942338Y-8895090D01*
X6889420Y-8854097D01*
X6845828Y-8808940D01*
X6815263Y-8769689D01*
X6945933Y-8672907D01*
X6982927Y-8726374D01*
X7027049Y-8769536D01*
X7060422Y-8792586D01*
X7116464Y-8817702D01*
X7179719Y-8831226D01*
X7225897Y-8833802D01*
X7289141Y-8827020D01*
X7317793Y-8819453D01*
X7374093Y-8794966D01*
X7400225Y-8777627D01*
X7444251Y-8734073D01*
X7460064Y-8710460D01*
X7481277Y-8650272D01*
X7483573Y-8619479D01*
X7475362Y-8557108D01*
X7457622Y-8517813D01*
X7416067Y-8470041D01*
X7388318Y-8449425D01*
X7332100Y-8419555D01*
X7288178Y-8402714D01*
X7226961Y-8382430D01*
X7170942Y-8364245D01*
X7110797Y-8343332D01*
X7051874Y-8319671D01*
X6996843Y-8290896D01*
X6947765Y-8255252D01*
X6903780Y-8207720D01*
X6873271Y-8156334D01*
X6853110Y-8094080D01*
X6845622Y-8029709D01*
X6845183Y-8007956D01*
X6849368Y-7946926D01*
X6863479Y-7886683D01*
X6880598Y-7845840D01*
X6913203Y-7793263D01*
X6956880Y-7745545D01*
X6974632Y-7730741D01*
X7028786Y-7695495D01*
X7088667Y-7669365D01*
X7106828Y-7663574D01*
X7167215Y-7649539D01*
X7228811Y-7642659D01*
X7257648Y-7641897D01*
X7322907Y-7645207D01*
X7384349Y-7655135D01*
X7447528Y-7673701D01*
X7453042Y-7675786D01*
X7513017Y-7705873D01*
X7566350Y-7745372D01*
X7613380Y-7790811D01*
X7623707Y-7802182D01*
X7496701Y-7900184D01*
G37*
G36*
X8299037Y-8075697D02*
G01*
X8360779Y-8087494D01*
X8413527Y-8105043D01*
X8471902Y-8133465D01*
X8523837Y-8169271D01*
X8554883Y-8197244D01*
X8595841Y-8244485D01*
X8629415Y-8297823D01*
X8647695Y-8336768D01*
X8667974Y-8398964D01*
X8678341Y-8459447D01*
X8680973Y-8511402D01*
X8677041Y-8574636D01*
X8665244Y-8634624D01*
X8647695Y-8686341D01*
X8619044Y-8743599D01*
X8583009Y-8794933D01*
X8554883Y-8825864D01*
X8507241Y-8866451D01*
X8453160Y-8899824D01*
X8413527Y-8918066D01*
X8355327Y-8936839D01*
X8293231Y-8947819D01*
X8233398Y-8951039D01*
X8168593Y-8947143D01*
X8107251Y-8935454D01*
X8054490Y-8918066D01*
X7996259Y-8889501D01*
X7944295Y-8853723D01*
X7913135Y-8825864D01*
X7872363Y-8778480D01*
X7838889Y-8725172D01*
X7820628Y-8686341D01*
X7800349Y-8623959D01*
X7789982Y-8563381D01*
X7787350Y-8511402D01*
X7933590Y-8511402D01*
X7938286Y-8573065D01*
X7953647Y-8634698D01*
X7954961Y-8638408D01*
X7982407Y-8696620D01*
X8014496Y-8740685D01*
X8062839Y-8783414D01*
X8107919Y-8808767D01*
X8166918Y-8827544D01*
X8229024Y-8833778D01*
X8233398Y-8833802D01*
X8295723Y-8828302D01*
X8355105Y-8810308D01*
X8358573Y-8808767D01*
X8412720Y-8777084D01*
X8452912Y-8740685D01*
X8489435Y-8690228D01*
X8513362Y-8638408D01*
X8529390Y-8577042D01*
X8534712Y-8515630D01*
X8534733Y-8511402D01*
X8530037Y-8449806D01*
X8514677Y-8388392D01*
X8513362Y-8384701D01*
X8485657Y-8326337D01*
X8452912Y-8282424D01*
X8406824Y-8241531D01*
X8358573Y-8214036D01*
X8299649Y-8195260D01*
X8237754Y-8189026D01*
X8233398Y-8189001D01*
X8170854Y-8194502D01*
X8111387Y-8212496D01*
X8107919Y-8214036D01*
X8054030Y-8245806D01*
X8014496Y-8282424D01*
X7978687Y-8332729D01*
X7954961Y-8384701D01*
X7938933Y-8445838D01*
X7933611Y-8507174D01*
X7933590Y-8511402D01*
X7787350Y-8511402D01*
X7791282Y-8448203D01*
X7804541Y-8383045D01*
X7820628Y-8336768D01*
X7849236Y-8279366D01*
X7885142Y-8228061D01*
X7913135Y-8197244D01*
X7960920Y-8156515D01*
X8014973Y-8123170D01*
X8054490Y-8105043D01*
X8112684Y-8086096D01*
X8174341Y-8075014D01*
X8233398Y-8071765D01*
X8299037Y-8075697D01*
G37*
G36*
X8866598Y-8283340D02*
G01*
X8865299Y-8221066D01*
X8863850Y-8192665D01*
X8859718Y-8128489D01*
X8857133Y-8091304D01*
X9002153Y-8091304D01*
X8996047Y-8223195D01*
X8992383Y-8220448D01*
X9030185Y-8167154D01*
X9080583Y-8125348D01*
X9108093Y-8109928D01*
X9165853Y-8086672D01*
X9228038Y-8073591D01*
X9261355Y-8071765D01*
X9322535Y-8076981D01*
X9334628Y-8079092D01*
X9394012Y-8097518D01*
X9410038Y-8105348D01*
X9460180Y-8140760D01*
X9478426Y-8159081D01*
X9516036Y-8209800D01*
X9523916Y-8226248D01*
X9560508Y-8172528D01*
X9610670Y-8130746D01*
X9629551Y-8118781D01*
X9684672Y-8092013D01*
X9746532Y-8075484D01*
X9794110Y-8071765D01*
X9861256Y-8075899D01*
X9928084Y-8090749D01*
X9984341Y-8116400D01*
X10034995Y-8158166D01*
X10072924Y-8212245D01*
X10096217Y-8269805D01*
X10109703Y-8336294D01*
X10113458Y-8401798D01*
X10113458Y-8931500D01*
X9977903Y-8931500D01*
X9977903Y-8439045D01*
X9974594Y-8374817D01*
X9963157Y-8314328D01*
X9938650Y-8256855D01*
X9936076Y-8252810D01*
X9890298Y-8211496D01*
X9826663Y-8192055D01*
X9780066Y-8189001D01*
X9716471Y-8196729D01*
X9675958Y-8213426D01*
X9627766Y-8252582D01*
X9607875Y-8278760D01*
X9580803Y-8334168D01*
X9569712Y-8371878D01*
X9560084Y-8432403D01*
X9557805Y-8481482D01*
X9557805Y-8931500D01*
X9422250Y-8931500D01*
X9422250Y-8439045D01*
X9418942Y-8374817D01*
X9407505Y-8314328D01*
X9382997Y-8256855D01*
X9380424Y-8252810D01*
X9334645Y-8211496D01*
X9271011Y-8192055D01*
X9224414Y-8189001D01*
X9178618Y-8195718D01*
X9120651Y-8220747D01*
X9103819Y-8232965D01*
X9060358Y-8280198D01*
X9033599Y-8325167D01*
X9013239Y-8383337D01*
X9004118Y-8445151D01*
X9002153Y-8497358D01*
X9002153Y-8931500D01*
X8866598Y-8931500D01*
X8866598Y-8283340D01*
G37*
G36*
X10803425Y-8075877D02*
G01*
X10867080Y-8089745D01*
X10911216Y-8106569D01*
X10968704Y-8138379D01*
X11018129Y-8177747D01*
X11038222Y-8198466D01*
X11076063Y-8248376D01*
X11105741Y-8304837D01*
X11116685Y-8333105D01*
X11133243Y-8392367D01*
X11142159Y-8454291D01*
X11143857Y-8497053D01*
X11143857Y-8560250D01*
X10459061Y-8560250D01*
X10471774Y-8622742D01*
X10486844Y-8661611D01*
X10518711Y-8715900D01*
X10550042Y-8751981D01*
X10600645Y-8791340D01*
X10640106Y-8811821D01*
X10700320Y-8829595D01*
X10750626Y-8833802D01*
X10814740Y-8827362D01*
X10876445Y-8805851D01*
X10906331Y-8788007D01*
X10955381Y-8746817D01*
X10995865Y-8697667D01*
X11011661Y-8672297D01*
X11117601Y-8761445D01*
X11076519Y-8810046D01*
X11028796Y-8855370D01*
X10973901Y-8894117D01*
X10945715Y-8908907D01*
X10887570Y-8931125D01*
X10826861Y-8945114D01*
X10763588Y-8950874D01*
X10750626Y-8951039D01*
X10688123Y-8947143D01*
X10623394Y-8934005D01*
X10577214Y-8918066D01*
X10520356Y-8889501D01*
X10469766Y-8853723D01*
X10439522Y-8825864D01*
X10399680Y-8778480D01*
X10366707Y-8725172D01*
X10348541Y-8686341D01*
X10328263Y-8623959D01*
X10317896Y-8563381D01*
X10315263Y-8511402D01*
X10319087Y-8448203D01*
X10320114Y-8443014D01*
X10461504Y-8443014D01*
X10997617Y-8443014D01*
X10990998Y-8378763D01*
X10968427Y-8316145D01*
X10929839Y-8261969D01*
X10882332Y-8223490D01*
X10824152Y-8199262D01*
X10762663Y-8189643D01*
X10740246Y-8189001D01*
X10676896Y-8196751D01*
X10634916Y-8210983D01*
X10578783Y-8242468D01*
X10545462Y-8270212D01*
X10505525Y-8317847D01*
X10484401Y-8354781D01*
X10464209Y-8414130D01*
X10461504Y-8443014D01*
X10320114Y-8443014D01*
X10331982Y-8383045D01*
X10347625Y-8336768D01*
X10375461Y-8279366D01*
X10410423Y-8228061D01*
X10437690Y-8197244D01*
X10483715Y-8156515D01*
X10535234Y-8123170D01*
X10572634Y-8105043D01*
X10632555Y-8084764D01*
X10695996Y-8073845D01*
X10740246Y-8071765D01*
X10803425Y-8075877D01*
G37*
G36*
X11341999Y-8357224D02*
G01*
X11341130Y-8295754D01*
X11339251Y-8247009D01*
X11337029Y-8184818D01*
X11335347Y-8121348D01*
X11334672Y-8091304D01*
X11468700Y-8091304D01*
X11462594Y-8251283D01*
X11458930Y-8249757D01*
X11484142Y-8193290D01*
X11489766Y-8185338D01*
X11532938Y-8139348D01*
X11547163Y-8127941D01*
X11601398Y-8096719D01*
X11625626Y-8087335D01*
X11685876Y-8073954D01*
X11726376Y-8071765D01*
X11788176Y-8077012D01*
X11823768Y-8085198D01*
X11796901Y-8221058D01*
X11735633Y-8208846D01*
X11722713Y-8208541D01*
X11659610Y-8215434D01*
X11612803Y-8232965D01*
X11561784Y-8268480D01*
X11536783Y-8294942D01*
X11503818Y-8347259D01*
X11491903Y-8376763D01*
X11478689Y-8437787D01*
X11477554Y-8460721D01*
X11477554Y-8931500D01*
X11341999Y-8931500D01*
X11341999Y-8357224D01*
G37*
G36*
X12351638Y-8310817D02*
G01*
X12318742Y-8256855D01*
X12279892Y-8218921D01*
X12224020Y-8193939D01*
X12178226Y-8189001D01*
X12119913Y-8195718D01*
X12067400Y-8216479D01*
X12030764Y-8251283D01*
X12017331Y-8302574D01*
X12035080Y-8362054D01*
X12054883Y-8380121D01*
X12110267Y-8405956D01*
X12171509Y-8423780D01*
X12289356Y-8451868D01*
X12351867Y-8472819D01*
X12406135Y-8505448D01*
X12437734Y-8533689D01*
X12474012Y-8584050D01*
X12493547Y-8643083D01*
X12497268Y-8687257D01*
X12490962Y-8748356D01*
X12468569Y-8807546D01*
X12430928Y-8858519D01*
X12393770Y-8890284D01*
X12337409Y-8920745D01*
X12287830Y-8936690D01*
X12224382Y-8947886D01*
X12167540Y-8951039D01*
X12102308Y-8946566D01*
X12040107Y-8933145D01*
X11986190Y-8913181D01*
X11930741Y-8879549D01*
X11884278Y-8836138D01*
X11845673Y-8786617D01*
X11837507Y-8774268D01*
X11954438Y-8692447D01*
X11988256Y-8743807D01*
X12032410Y-8788918D01*
X12045113Y-8798387D01*
X12101518Y-8824949D01*
X12163132Y-8833768D01*
X12167540Y-8833802D01*
X12228712Y-8827283D01*
X12235012Y-8825864D01*
X12292935Y-8802157D01*
X12294546Y-8801135D01*
X12335457Y-8758698D01*
X12351027Y-8698553D01*
X12335959Y-8639118D01*
X12308285Y-8611847D01*
X12250209Y-8583347D01*
X12202039Y-8568188D01*
X12089382Y-8540406D01*
X12031069Y-8523003D01*
X11974384Y-8496282D01*
X11958712Y-8486062D01*
X11912411Y-8442469D01*
X11897041Y-8421032D01*
X11874740Y-8363120D01*
X11871090Y-8321503D01*
X11878587Y-8258187D01*
X11897652Y-8209762D01*
X11935798Y-8158937D01*
X11969093Y-8131604D01*
X12023060Y-8102528D01*
X12069843Y-8086725D01*
X12130153Y-8075052D01*
X12184942Y-8071765D01*
X12249628Y-8076573D01*
X12310880Y-8090999D01*
X12349806Y-8105959D01*
X12402900Y-8139676D01*
X12447236Y-8189536D01*
X12471928Y-8231744D01*
X12351638Y-8310817D01*
G37*
G36*
X13100529Y-8075877D02*
G01*
X13164184Y-8089745D01*
X13208320Y-8106569D01*
X13265808Y-8138379D01*
X13315233Y-8177747D01*
X13335326Y-8198466D01*
X13373167Y-8248376D01*
X13402845Y-8304837D01*
X13413789Y-8333105D01*
X13430347Y-8392367D01*
X13439263Y-8454291D01*
X13440961Y-8497053D01*
X13440961Y-8560250D01*
X12756165Y-8560250D01*
X12768878Y-8622742D01*
X12783948Y-8661611D01*
X12815815Y-8715900D01*
X12847146Y-8751981D01*
X12897749Y-8791340D01*
X12937210Y-8811821D01*
X12997424Y-8829595D01*
X13047730Y-8833802D01*
X13111844Y-8827362D01*
X13173549Y-8805851D01*
X13203435Y-8788007D01*
X13252485Y-8746817D01*
X13292969Y-8697667D01*
X13308765Y-8672297D01*
X13414705Y-8761445D01*
X13373623Y-8810046D01*
X13325900Y-8855370D01*
X13271005Y-8894117D01*
X13242819Y-8908907D01*
X13184674Y-8931125D01*
X13123965Y-8945114D01*
X13060692Y-8950874D01*
X13047730Y-8951039D01*
X12985227Y-8947143D01*
X12920498Y-8934005D01*
X12874318Y-8918066D01*
X12817460Y-8889501D01*
X12766870Y-8853723D01*
X12736626Y-8825864D01*
X12696784Y-8778480D01*
X12663811Y-8725172D01*
X12645645Y-8686341D01*
X12625367Y-8623959D01*
X12615000Y-8563381D01*
X12612367Y-8511402D01*
X12616191Y-8448203D01*
X12617218Y-8443014D01*
X12758608Y-8443014D01*
X13294721Y-8443014D01*
X13288102Y-8378763D01*
X13265531Y-8316145D01*
X13226943Y-8261969D01*
X13179436Y-8223490D01*
X13121256Y-8199262D01*
X13059767Y-8189643D01*
X13037350Y-8189001D01*
X12974000Y-8196751D01*
X12932020Y-8210983D01*
X12875887Y-8242468D01*
X12842566Y-8270212D01*
X12802629Y-8317847D01*
X12781505Y-8354781D01*
X12761313Y-8414130D01*
X12758608Y-8443014D01*
X12617218Y-8443014D01*
X12629086Y-8383045D01*
X12644729Y-8336768D01*
X12672565Y-8279366D01*
X12707527Y-8228061D01*
X12734794Y-8197244D01*
X12780818Y-8156515D01*
X12832338Y-8123170D01*
X12869738Y-8105043D01*
X12929659Y-8084764D01*
X12993100Y-8073845D01*
X13037350Y-8071765D01*
X13100529Y-8075877D01*
G37*
G36*
X14072024Y-8208541D02*
G01*
X13834497Y-8208541D01*
X13834497Y-8693057D01*
X13839939Y-8754995D01*
X13842741Y-8766025D01*
X13865028Y-8808157D01*
X13898916Y-8828307D01*
X13944407Y-8833802D01*
X14003330Y-8825254D01*
X14060936Y-8802134D01*
X14072939Y-8795945D01*
X14079351Y-8919898D01*
X14016638Y-8940061D01*
X13952668Y-8949549D01*
X13912655Y-8951039D01*
X13849710Y-8943793D01*
X13840298Y-8941575D01*
X13783105Y-8915606D01*
X13770994Y-8906465D01*
X13731468Y-8859416D01*
X13719093Y-8835939D01*
X13702268Y-8773644D01*
X13698943Y-8720229D01*
X13698943Y-8208541D01*
X13524920Y-8208541D01*
X13524920Y-8091304D01*
X13698943Y-8091304D01*
X13698943Y-7856831D01*
X13834497Y-7856831D01*
X13834497Y-8091304D01*
X14072024Y-8091304D01*
X14072024Y-8208541D01*
G37*
G36*
X14329089Y-9165973D02*
G01*
X14191397Y-9165973D01*
X14314740Y-8736105D01*
X14478383Y-8736105D01*
X14329089Y-9165973D01*
G37*
G36*
X16130685Y-8459806D02*
G01*
X16127561Y-8525766D01*
X16119132Y-8589694D01*
X16111757Y-8628333D01*
X16094985Y-8688281D01*
X16070276Y-8745127D01*
X16040926Y-8794113D01*
X16000452Y-8843484D01*
X15950815Y-8886651D01*
X15897739Y-8920509D01*
X15835957Y-8946913D01*
X15771940Y-8962315D01*
X15708347Y-8969356D01*
X15665403Y-8970578D01*
X15597129Y-8967449D01*
X15535496Y-8958061D01*
X15474096Y-8940018D01*
X15432151Y-8920509D01*
X15379558Y-8886651D01*
X15330245Y-8843484D01*
X15289879Y-8794113D01*
X15257919Y-8740088D01*
X15233824Y-8682960D01*
X15218744Y-8628333D01*
X15208141Y-8568060D01*
X15201593Y-8505106D01*
X15200120Y-8459806D01*
X15200120Y-7661437D01*
X15346361Y-7661437D01*
X15346361Y-8445762D01*
X15348765Y-8509017D01*
X15357647Y-8573698D01*
X15363458Y-8598413D01*
X15383531Y-8656803D01*
X15408948Y-8704964D01*
X15448574Y-8753438D01*
X15471535Y-8772742D01*
X15526104Y-8804964D01*
X15541450Y-8811515D01*
X15600788Y-8828312D01*
X15608922Y-8829528D01*
X15665403Y-8833802D01*
X15720968Y-8829528D01*
X15780607Y-8814802D01*
X15789356Y-8811515D01*
X15843843Y-8783154D01*
X15858965Y-8772742D01*
X15903647Y-8729949D01*
X15921858Y-8704964D01*
X15949979Y-8650063D01*
X15967043Y-8598413D01*
X15978939Y-8537939D01*
X15984020Y-8472994D01*
X15984445Y-8445762D01*
X15984445Y-7661437D01*
X16130685Y-7661437D01*
X16130685Y-8459806D01*
G37*
G36*
X16559942Y-8216479D02*
G01*
X16559942Y-8208541D01*
X16571849Y-8208541D01*
X17157116Y-7661437D01*
X17367775Y-7661437D01*
X16728470Y-8241513D01*
X17400748Y-8931500D01*
X17186730Y-8931500D01*
X16574902Y-8286698D01*
X16559942Y-8286698D01*
X16559942Y-8278760D01*
X16567880Y-8931500D01*
X16421640Y-8931500D01*
X16421640Y-7661437D01*
X16567880Y-7661437D01*
X16559942Y-8216479D01*
G37*
D13*
X8368902Y-4697119D02*
X8368902Y-3697119D01*
X8368902Y-4649500D02*
X8273664Y-4697119D01*
X8273664Y-4697119D02*
X8083188Y-4697119D01*
X8083188Y-4697119D02*
X7987950Y-4649500D01*
X7987950Y-4649500D02*
X7940331Y-4601880D01*
X7940331Y-4601880D02*
X7892712Y-4506642D01*
X7892712Y-4506642D02*
X7892712Y-4220928D01*
X7892712Y-4220928D02*
X7940331Y-4125690D01*
X7940331Y-4125690D02*
X7987950Y-4078071D01*
X7987950Y-4078071D02*
X8083188Y-4030452D01*
X8083188Y-4030452D02*
X8273664Y-4030452D01*
X8273664Y-4030452D02*
X8368902Y-4078071D01*
X9226045Y-4649500D02*
X9130807Y-4697119D01*
X9130807Y-4697119D02*
X8940331Y-4697119D01*
X8940331Y-4697119D02*
X8845093Y-4649500D01*
X8845093Y-4649500D02*
X8797474Y-4554261D01*
X8797474Y-4554261D02*
X8797474Y-4173309D01*
X8797474Y-4173309D02*
X8845093Y-4078071D01*
X8845093Y-4078071D02*
X8940331Y-4030452D01*
X8940331Y-4030452D02*
X9130807Y-4030452D01*
X9130807Y-4030452D02*
X9226045Y-4078071D01*
X9226045Y-4078071D02*
X9273664Y-4173309D01*
X9273664Y-4173309D02*
X9273664Y-4268547D01*
X9273664Y-4268547D02*
X8797474Y-4363785D01*
X9654617Y-4649500D02*
X9749855Y-4697119D01*
X9749855Y-4697119D02*
X9940331Y-4697119D01*
X9940331Y-4697119D02*
X10035569Y-4649500D01*
X10035569Y-4649500D02*
X10083188Y-4554261D01*
X10083188Y-4554261D02*
X10083188Y-4506642D01*
X10083188Y-4506642D02*
X10035569Y-4411404D01*
X10035569Y-4411404D02*
X9940331Y-4363785D01*
X9940331Y-4363785D02*
X9797474Y-4363785D01*
X9797474Y-4363785D02*
X9702236Y-4316166D01*
X9702236Y-4316166D02*
X9654617Y-4220928D01*
X9654617Y-4220928D02*
X9654617Y-4173309D01*
X9654617Y-4173309D02*
X9702236Y-4078071D01*
X9702236Y-4078071D02*
X9797474Y-4030452D01*
X9797474Y-4030452D02*
X9940331Y-4030452D01*
X9940331Y-4030452D02*
X10035569Y-4078071D01*
X10511760Y-4697119D02*
X10511760Y-4030452D01*
X10511760Y-3697119D02*
X10464141Y-3744738D01*
X10464141Y-3744738D02*
X10511760Y-3792357D01*
X10511760Y-3792357D02*
X10559379Y-3744738D01*
X10559379Y-3744738D02*
X10511760Y-3697119D01*
X10511760Y-3697119D02*
X10511760Y-3792357D01*
X11416521Y-4030452D02*
X11416521Y-4839976D01*
X11416521Y-4839976D02*
X11368902Y-4935214D01*
X11368902Y-4935214D02*
X11321283Y-4982833D01*
X11321283Y-4982833D02*
X11226045Y-5030452D01*
X11226045Y-5030452D02*
X11083188Y-5030452D01*
X11083188Y-5030452D02*
X10987950Y-4982833D01*
X11416521Y-4649500D02*
X11321283Y-4697119D01*
X11321283Y-4697119D02*
X11130807Y-4697119D01*
X11130807Y-4697119D02*
X11035569Y-4649500D01*
X11035569Y-4649500D02*
X10987950Y-4601880D01*
X10987950Y-4601880D02*
X10940331Y-4506642D01*
X10940331Y-4506642D02*
X10940331Y-4220928D01*
X10940331Y-4220928D02*
X10987950Y-4125690D01*
X10987950Y-4125690D02*
X11035569Y-4078071D01*
X11035569Y-4078071D02*
X11130807Y-4030452D01*
X11130807Y-4030452D02*
X11321283Y-4030452D01*
X11321283Y-4030452D02*
X11416521Y-4078071D01*
X11892712Y-4030452D02*
X11892712Y-4697119D01*
X11892712Y-4125690D02*
X11940331Y-4078071D01*
X11940331Y-4078071D02*
X12035569Y-4030452D01*
X12035569Y-4030452D02*
X12178426Y-4030452D01*
X12178426Y-4030452D02*
X12273664Y-4078071D01*
X12273664Y-4078071D02*
X12321283Y-4173309D01*
X12321283Y-4173309D02*
X12321283Y-4697119D01*
X13178426Y-4649500D02*
X13083188Y-4697119D01*
X13083188Y-4697119D02*
X12892712Y-4697119D01*
X12892712Y-4697119D02*
X12797474Y-4649500D01*
X12797474Y-4649500D02*
X12749855Y-4554261D01*
X12749855Y-4554261D02*
X12749855Y-4173309D01*
X12749855Y-4173309D02*
X12797474Y-4078071D01*
X12797474Y-4078071D02*
X12892712Y-4030452D01*
X12892712Y-4030452D02*
X13083188Y-4030452D01*
X13083188Y-4030452D02*
X13178426Y-4078071D01*
X13178426Y-4078071D02*
X13226045Y-4173309D01*
X13226045Y-4173309D02*
X13226045Y-4268547D01*
X13226045Y-4268547D02*
X12749855Y-4363785D01*
X14083188Y-4697119D02*
X14083188Y-3697119D01*
X14083188Y-4649500D02*
X13987950Y-4697119D01*
X13987950Y-4697119D02*
X13797474Y-4697119D01*
X13797474Y-4697119D02*
X13702236Y-4649500D01*
X13702236Y-4649500D02*
X13654617Y-4601880D01*
X13654617Y-4601880D02*
X13606998Y-4506642D01*
X13606998Y-4506642D02*
X13606998Y-4220928D01*
X13606998Y-4220928D02*
X13654617Y-4125690D01*
X13654617Y-4125690D02*
X13702236Y-4078071D01*
X13702236Y-4078071D02*
X13797474Y-4030452D01*
X13797474Y-4030452D02*
X13987950Y-4030452D01*
X13987950Y-4030452D02*
X14083188Y-4078071D01*
X15321284Y-4697119D02*
X15321284Y-4030452D01*
X15321284Y-3697119D02*
X15273665Y-3744738D01*
X15273665Y-3744738D02*
X15321284Y-3792357D01*
X15321284Y-3792357D02*
X15368903Y-3744738D01*
X15368903Y-3744738D02*
X15321284Y-3697119D01*
X15321284Y-3697119D02*
X15321284Y-3792357D01*
X15797474Y-4030452D02*
X15797474Y-4697119D01*
X15797474Y-4125690D02*
X15845093Y-4078071D01*
X15845093Y-4078071D02*
X15940331Y-4030452D01*
X15940331Y-4030452D02*
X16083188Y-4030452D01*
X16083188Y-4030452D02*
X16178426Y-4078071D01*
X16178426Y-4078071D02*
X16226045Y-4173309D01*
X16226045Y-4173309D02*
X16226045Y-4697119D01*
D11*
G36*
X51213002Y-53593000D02*
G01*
X51213002Y-52429060D01*
X51427325Y-52429060D01*
X51427325Y-52648879D01*
X51471496Y-52589273D01*
X51526615Y-52534104D01*
X51585583Y-52488244D01*
X51607210Y-52473757D01*
X51673831Y-52436743D01*
X51747991Y-52409824D01*
X51822295Y-52397859D01*
X51844614Y-52397187D01*
X51921018Y-52405069D01*
X51991961Y-52428717D01*
X52036222Y-52453240D01*
X52093529Y-52499746D01*
X52139217Y-52560824D01*
X52156756Y-52598321D01*
X52175110Y-52670470D01*
X52184899Y-52751631D01*
X52189385Y-52826176D01*
X52191425Y-52912442D01*
X52191561Y-52943802D01*
X52191561Y-53593000D01*
X51976871Y-53593000D01*
X51976871Y-52914127D01*
X51975909Y-52838701D01*
X51972002Y-52764641D01*
X51961484Y-52698704D01*
X51925145Y-52633720D01*
X51906896Y-52616639D01*
X51838599Y-52585886D01*
X51821533Y-52584765D01*
X51746777Y-52598006D01*
X51674359Y-52633406D01*
X51612339Y-52678921D01*
X51552231Y-52735271D01*
X51504106Y-52791393D01*
X51460972Y-52853194D01*
X51427325Y-52911928D01*
X51427325Y-53593000D01*
X51213002Y-53593000D01*
G37*
G36*
X52792764Y-53593000D02*
G01*
X52792764Y-52608212D01*
X52474760Y-52608212D01*
X52474760Y-52420634D01*
X53007454Y-52420634D01*
X53007454Y-53405421D01*
X53326191Y-53405421D01*
X53326191Y-53593000D01*
X52792764Y-53593000D01*
G37*
G36*
X52760891Y-52021297D02*
G01*
X52779638Y-51947566D01*
X52808884Y-51916517D01*
X52875036Y-51884128D01*
X52899376Y-51881346D01*
X52970529Y-51902812D01*
X52991334Y-51916517D01*
X53033656Y-51977345D01*
X53039327Y-52021297D01*
X53020580Y-52094856D01*
X52991334Y-52126077D01*
X52924425Y-52158128D01*
X52899376Y-52160882D01*
X52826689Y-52137905D01*
X52808884Y-52126077D01*
X52766562Y-52065084D01*
X52760891Y-52021297D01*
G37*
G36*
X54718009Y-53566988D02*
G01*
X54643373Y-53591764D01*
X54570593Y-53611415D01*
X54488026Y-53627862D01*
X54407984Y-53637331D01*
X54341386Y-53639894D01*
X54266200Y-53635985D01*
X54184953Y-53621943D01*
X54108698Y-53597688D01*
X54037434Y-53563221D01*
X54028877Y-53558195D01*
X53964466Y-53513567D01*
X53907519Y-53461750D01*
X53858037Y-53402742D01*
X53816020Y-53336545D01*
X53782681Y-53264210D01*
X53758867Y-53187159D01*
X53744579Y-53105392D01*
X53739890Y-53029975D01*
X53739816Y-53018907D01*
X53744047Y-52937434D01*
X53756739Y-52860397D01*
X53777892Y-52787797D01*
X53807507Y-52719633D01*
X53845584Y-52655906D01*
X53892122Y-52596615D01*
X53913106Y-52574140D01*
X53969109Y-52523163D01*
X54040894Y-52473394D01*
X54117676Y-52436068D01*
X54199455Y-52411184D01*
X54286232Y-52398742D01*
X54331494Y-52397187D01*
X54411098Y-52400658D01*
X54493472Y-52411071D01*
X54566282Y-52425523D01*
X54641128Y-52445074D01*
X54718009Y-52469727D01*
X54718009Y-52682584D01*
X54639711Y-52649341D01*
X54565561Y-52622976D01*
X54484294Y-52600909D01*
X54408673Y-52588204D01*
X54348347Y-52584765D01*
X54273540Y-52591720D01*
X54202442Y-52612586D01*
X54157105Y-52634224D01*
X54096174Y-52679304D01*
X54046371Y-52740355D01*
X54019352Y-52789929D01*
X53991402Y-52863709D01*
X53975053Y-52938961D01*
X53970259Y-53008648D01*
X53976144Y-53082517D01*
X53993798Y-53154645D01*
X54023222Y-53225032D01*
X54064415Y-53293680D01*
X54118156Y-53352825D01*
X54185223Y-53395071D01*
X54254839Y-53418175D01*
X54334658Y-53428340D01*
X54359338Y-53428868D01*
X54436045Y-53425720D01*
X54480971Y-53420808D01*
X54555734Y-53403478D01*
X54627568Y-53381820D01*
X54707041Y-53355659D01*
X54718009Y-53351932D01*
X54718009Y-53566988D01*
G37*
G36*
X54989484Y-53593000D02*
G01*
X54989484Y-52429060D01*
X55203808Y-52429060D01*
X55203808Y-52648879D01*
X55247979Y-52589273D01*
X55303098Y-52534104D01*
X55362066Y-52488244D01*
X55383692Y-52473757D01*
X55450314Y-52436743D01*
X55524474Y-52409824D01*
X55598778Y-52397859D01*
X55621096Y-52397187D01*
X55697501Y-52405069D01*
X55768444Y-52428717D01*
X55812705Y-52453240D01*
X55870012Y-52499746D01*
X55915700Y-52560824D01*
X55933239Y-52598321D01*
X55951593Y-52670470D01*
X55961382Y-52751631D01*
X55965868Y-52826176D01*
X55967908Y-52912442D01*
X55968043Y-52943802D01*
X55968043Y-53593000D01*
X55753354Y-53593000D01*
X55753354Y-52914127D01*
X55752392Y-52838701D01*
X55748485Y-52764641D01*
X55737967Y-52698704D01*
X55701628Y-52633720D01*
X55683378Y-52616639D01*
X55615082Y-52585886D01*
X55598016Y-52584765D01*
X55523260Y-52598006D01*
X55450842Y-52633406D01*
X55388822Y-52678921D01*
X55328714Y-52735271D01*
X55280588Y-52791393D01*
X55237455Y-52853194D01*
X55203808Y-52911928D01*
X55203808Y-53593000D01*
X54989484Y-53593000D01*
G37*
G36*
X56853736Y-52402416D02*
G01*
X56934617Y-52421735D01*
X57007539Y-52455290D01*
X57072502Y-52503079D01*
X57114031Y-52545930D01*
X57157110Y-52607149D01*
X57191277Y-52679522D01*
X57216530Y-52763048D01*
X57230766Y-52841175D01*
X57238812Y-52927047D01*
X57240793Y-53001321D01*
X57240793Y-53053711D01*
X56450912Y-53053711D01*
X56457712Y-53127539D01*
X56478114Y-53198998D01*
X56499272Y-53245320D01*
X56539938Y-53307625D01*
X56593296Y-53360703D01*
X56626034Y-53383073D01*
X56693242Y-53412724D01*
X56767465Y-53427258D01*
X56804087Y-53428868D01*
X56886448Y-53422610D01*
X56961341Y-53407283D01*
X57040201Y-53382759D01*
X57108948Y-53355298D01*
X57180449Y-53321450D01*
X57224673Y-53298076D01*
X57224673Y-53500309D01*
X57151024Y-53533767D01*
X57078914Y-53561554D01*
X57008343Y-53583670D01*
X56925687Y-53602724D01*
X56845248Y-53613611D01*
X56779907Y-53616447D01*
X56702856Y-53611592D01*
X56629972Y-53597030D01*
X56552959Y-53569041D01*
X56496707Y-53538778D01*
X56430552Y-53489843D01*
X56378317Y-53437539D01*
X56332264Y-53376946D01*
X56297039Y-53317127D01*
X56264341Y-53243717D01*
X56240985Y-53167834D01*
X56226971Y-53089478D01*
X56222300Y-53008648D01*
X56226742Y-52930636D01*
X56233894Y-52889580D01*
X56465200Y-52889580D01*
X57010350Y-52889580D01*
X57010350Y-52873826D01*
X57003910Y-52795917D01*
X56981949Y-52722778D01*
X56944404Y-52662801D01*
X56883810Y-52612276D01*
X56809187Y-52587508D01*
X56770015Y-52584765D01*
X56696908Y-52594246D01*
X56625055Y-52626214D01*
X56576575Y-52664999D01*
X56526388Y-52727570D01*
X56491584Y-52797752D01*
X56469070Y-52871744D01*
X56465200Y-52889580D01*
X56233894Y-52889580D01*
X56240069Y-52854134D01*
X56262280Y-52779144D01*
X56293375Y-52705665D01*
X56332622Y-52636789D01*
X56378921Y-52575972D01*
X56432273Y-52523216D01*
X56492677Y-52478519D01*
X56558600Y-52442936D01*
X56628140Y-52417520D01*
X56701299Y-52402270D01*
X56778075Y-52397187D01*
X56853736Y-52402416D01*
G37*
G36*
X57556965Y-53593000D02*
G01*
X57366822Y-52420634D01*
X57567590Y-52420634D01*
X57678598Y-53129915D01*
X57694718Y-53294413D01*
X57711571Y-53129182D01*
X57896585Y-52420634D01*
X58085629Y-52420634D01*
X58294090Y-53128816D01*
X58316438Y-53228467D01*
X58329994Y-53129915D01*
X58442101Y-52420634D01*
X58612827Y-52420634D01*
X58422684Y-53593000D01*
X58225946Y-53593000D01*
X58003563Y-52844884D01*
X57974987Y-52685149D01*
X57979750Y-52685149D01*
X57954104Y-52843418D01*
X57762129Y-53593000D01*
X57556965Y-53593000D01*
G37*
G36*
X59746358Y-53584573D02*
G01*
X59530936Y-53584573D01*
X59530936Y-53357427D01*
X59483380Y-53422493D01*
X59430914Y-53475240D01*
X59369289Y-53522480D01*
X59338961Y-53541709D01*
X59270166Y-53577837D01*
X59197194Y-53604112D01*
X59121139Y-53616155D01*
X59107785Y-53616447D01*
X59026728Y-53606333D01*
X58950482Y-53575991D01*
X58886746Y-53532038D01*
X58841438Y-53488586D01*
X58795615Y-53426423D01*
X58761046Y-53351813D01*
X58740373Y-53277955D01*
X58727970Y-53194952D01*
X58723950Y-53118797D01*
X58723836Y-53102804D01*
X58724789Y-53076792D01*
X58954279Y-53076792D01*
X58958080Y-53154049D01*
X58971443Y-53228592D01*
X59000841Y-53301912D01*
X59015095Y-53323722D01*
X59067285Y-53376619D01*
X59138326Y-53404703D01*
X59152482Y-53405421D01*
X59224690Y-53391030D01*
X59291173Y-53356374D01*
X59342625Y-53318226D01*
X59400327Y-53264427D01*
X59448504Y-53208625D01*
X59493750Y-53145312D01*
X59530936Y-53083753D01*
X59530936Y-52608945D01*
X59457486Y-52593289D01*
X59380549Y-52585355D01*
X59353616Y-52584765D01*
X59271916Y-52593008D01*
X59197178Y-52617738D01*
X59129401Y-52658954D01*
X59068584Y-52716656D01*
X59024045Y-52778844D01*
X58990446Y-52850323D01*
X58967785Y-52931094D01*
X58957069Y-53007721D01*
X58954279Y-53076792D01*
X58724789Y-53076792D01*
X58726553Y-53028624D01*
X58736594Y-52945922D01*
X58754032Y-52867358D01*
X58778869Y-52792931D01*
X58801138Y-52742302D01*
X58837465Y-52676037D01*
X58885121Y-52607990D01*
X58939326Y-52548141D01*
X59000080Y-52496489D01*
X59008134Y-52490609D01*
X59076873Y-52449737D01*
X59153398Y-52420542D01*
X59226743Y-52404576D01*
X59306048Y-52397551D01*
X59329802Y-52397187D01*
X59404011Y-52403804D01*
X59482108Y-52417795D01*
X59495765Y-52420634D01*
X59530936Y-52424664D01*
X59530936Y-51904793D01*
X59746358Y-51904793D01*
X59746358Y-53584573D01*
G37*
G36*
X60345730Y-53593000D02*
G01*
X60345730Y-52608212D01*
X60027726Y-52608212D01*
X60027726Y-52420634D01*
X60560420Y-52420634D01*
X60560420Y-53405421D01*
X60879157Y-53405421D01*
X60879157Y-53593000D01*
X60345730Y-53593000D01*
G37*
G36*
X60313856Y-52021297D02*
G01*
X60332604Y-51947566D01*
X60361850Y-51916517D01*
X60428002Y-51884128D01*
X60452342Y-51881346D01*
X60523495Y-51902812D01*
X60544300Y-51916517D01*
X60586622Y-51977345D01*
X60592293Y-52021297D01*
X60573546Y-52094856D01*
X60544300Y-52126077D01*
X60477391Y-52158128D01*
X60452342Y-52160882D01*
X60379655Y-52137905D01*
X60361850Y-52126077D01*
X60319528Y-52065084D01*
X60313856Y-52021297D01*
G37*
G36*
X61921563Y-52403804D02*
G01*
X61999441Y-52417795D01*
X62013054Y-52420634D01*
X62061048Y-52425763D01*
X62264013Y-52425763D01*
X62264013Y-53242755D01*
X62263808Y-53327287D01*
X62263191Y-53400907D01*
X62261907Y-53474847D01*
X62259274Y-53548990D01*
X62255587Y-53595198D01*
X62243737Y-53668317D01*
X62230674Y-53725990D01*
X62202899Y-53799881D01*
X62161706Y-53865483D01*
X62107095Y-53922796D01*
X62039066Y-53971820D01*
X61970707Y-54006937D01*
X61896423Y-54033429D01*
X61816213Y-54051296D01*
X61742745Y-54059745D01*
X61678197Y-54061946D01*
X61598689Y-54057901D01*
X61518434Y-54045768D01*
X61437431Y-54025547D01*
X61355682Y-53997237D01*
X61286987Y-53967466D01*
X61245521Y-53946907D01*
X61245521Y-53722692D01*
X61308711Y-53762513D01*
X61375551Y-53797253D01*
X61446041Y-53826913D01*
X61460577Y-53832235D01*
X61532833Y-53854453D01*
X61610498Y-53869389D01*
X61686257Y-53874367D01*
X61764111Y-53868571D01*
X61837618Y-53851183D01*
X61847091Y-53847989D01*
X61915235Y-53815749D01*
X61968724Y-53771785D01*
X62011086Y-53711108D01*
X62031372Y-53656381D01*
X62044286Y-53578803D01*
X62048322Y-53505353D01*
X62048591Y-53477961D01*
X62048591Y-53357794D01*
X62001035Y-53422859D01*
X61948569Y-53475606D01*
X61886944Y-53522846D01*
X61856616Y-53542075D01*
X61787821Y-53578026D01*
X61714849Y-53604173D01*
X61638794Y-53616156D01*
X61625441Y-53616447D01*
X61544384Y-53606333D01*
X61468137Y-53575991D01*
X61404401Y-53532038D01*
X61359094Y-53488586D01*
X61313270Y-53426423D01*
X61278701Y-53351813D01*
X61258029Y-53277955D01*
X61245625Y-53194952D01*
X61241606Y-53118797D01*
X61241491Y-53102804D01*
X61242444Y-53076792D01*
X61471934Y-53076792D01*
X61475735Y-53154049D01*
X61489098Y-53228592D01*
X61518497Y-53301912D01*
X61532750Y-53323722D01*
X61584940Y-53376619D01*
X61655981Y-53404703D01*
X61670137Y-53405421D01*
X61742345Y-53391030D01*
X61808829Y-53356374D01*
X61860280Y-53318226D01*
X61917982Y-53264427D01*
X61966159Y-53208625D01*
X62011405Y-53145312D01*
X62048591Y-53083753D01*
X62048591Y-52608945D01*
X61975141Y-52593289D01*
X61898204Y-52585355D01*
X61871271Y-52584765D01*
X61789572Y-52593008D01*
X61714833Y-52617738D01*
X61647056Y-52658954D01*
X61586240Y-52716656D01*
X61541701Y-52778844D01*
X61508101Y-52850323D01*
X61485441Y-52931094D01*
X61474725Y-53007721D01*
X61471934Y-53076792D01*
X61242444Y-53076792D01*
X61244208Y-53028624D01*
X61254249Y-52945922D01*
X61271687Y-52867358D01*
X61296524Y-52792931D01*
X61318794Y-52742302D01*
X61355121Y-52676037D01*
X61402777Y-52607990D01*
X61456981Y-52548141D01*
X61517735Y-52496489D01*
X61525789Y-52490609D01*
X61594529Y-52449737D01*
X61671053Y-52420542D01*
X61744398Y-52404576D01*
X61823704Y-52397551D01*
X61847457Y-52397187D01*
X61921563Y-52403804D01*
G37*
G36*
X63167852Y-52403804D02*
G01*
X63245531Y-52417795D01*
X63259059Y-52420634D01*
X63307785Y-52425763D01*
X63510018Y-52425763D01*
X63510018Y-53238725D01*
X63511680Y-53312798D01*
X63517818Y-53393714D01*
X63528480Y-53468705D01*
X63546203Y-53547152D01*
X63557279Y-53583474D01*
X63333064Y-53583474D01*
X63317877Y-53509127D01*
X63307001Y-53436656D01*
X63298915Y-53359534D01*
X63298260Y-53351565D01*
X63254168Y-53412939D01*
X63201441Y-53468052D01*
X63140077Y-53516906D01*
X63102255Y-53541342D01*
X63033547Y-53577648D01*
X62960875Y-53604052D01*
X62885399Y-53616153D01*
X62872178Y-53616447D01*
X62790825Y-53606333D01*
X62714514Y-53575991D01*
X62650916Y-53532038D01*
X62605831Y-53488586D01*
X62560150Y-53426423D01*
X62525689Y-53351813D01*
X62505081Y-53277955D01*
X62492716Y-53194952D01*
X62488709Y-53118797D01*
X62488595Y-53102804D01*
X62489539Y-53076792D01*
X62719038Y-53076792D01*
X62722839Y-53154049D01*
X62736202Y-53228592D01*
X62765600Y-53301912D01*
X62779854Y-53323722D01*
X62832044Y-53376619D01*
X62903085Y-53404703D01*
X62917241Y-53405421D01*
X62989328Y-53391030D01*
X63055521Y-53356374D01*
X63106651Y-53318226D01*
X63164086Y-53264427D01*
X63212269Y-53208625D01*
X63257750Y-53145312D01*
X63295329Y-53083753D01*
X63295329Y-52608945D01*
X63221879Y-52593289D01*
X63144942Y-52585355D01*
X63118009Y-52584765D01*
X63036332Y-52593008D01*
X62961663Y-52617738D01*
X62894000Y-52658954D01*
X62833344Y-52716656D01*
X62788805Y-52778844D01*
X62755205Y-52850323D01*
X62732545Y-52931094D01*
X62721829Y-53007721D01*
X62719038Y-53076792D01*
X62489539Y-53076792D01*
X62491287Y-53028624D01*
X62501232Y-52945922D01*
X62518505Y-52867358D01*
X62543106Y-52792931D01*
X62565165Y-52742302D01*
X62601367Y-52676037D01*
X62648965Y-52607990D01*
X62703204Y-52548141D01*
X62764084Y-52496489D01*
X62772161Y-52490609D01*
X62841129Y-52449737D01*
X62917607Y-52420542D01*
X62990687Y-52404576D01*
X63069517Y-52397551D01*
X63093096Y-52397187D01*
X63167852Y-52403804D01*
G37*
G36*
X64782768Y-53531817D02*
G01*
X64708476Y-53562468D01*
X64635306Y-53589147D01*
X64577604Y-53604723D01*
X64502385Y-53614798D01*
X64458902Y-53616447D01*
X64384355Y-53611867D01*
X64306817Y-53596251D01*
X64233954Y-53569552D01*
X64169403Y-53531901D01*
X64112611Y-53478483D01*
X64079348Y-53429967D01*
X64049729Y-53354727D01*
X64034641Y-53276037D01*
X64028138Y-53193147D01*
X64027325Y-53147134D01*
X64027325Y-52702002D01*
X63740095Y-52702002D01*
X63740095Y-52514423D01*
X64027325Y-52514423D01*
X64027325Y-52068924D01*
X64240549Y-52068924D01*
X64240549Y-52514423D01*
X64750894Y-52514423D01*
X64750894Y-52702002D01*
X64240549Y-52702002D01*
X64240549Y-53140173D01*
X64243626Y-53215493D01*
X64256825Y-53290087D01*
X64272056Y-53326286D01*
X64322245Y-53383861D01*
X64355587Y-53404322D01*
X64428202Y-53425416D01*
X64479052Y-53428868D01*
X64558029Y-53421334D01*
X64632464Y-53401985D01*
X64700863Y-53375288D01*
X64772312Y-53339474D01*
X64782768Y-53333614D01*
X64782768Y-53531817D01*
G37*
G36*
X65665530Y-52402416D02*
G01*
X65746411Y-52421735D01*
X65819333Y-52455290D01*
X65884295Y-52503079D01*
X65925824Y-52545930D01*
X65968904Y-52607149D01*
X66003070Y-52679522D01*
X66028323Y-52763048D01*
X66042559Y-52841175D01*
X66050606Y-52927047D01*
X66052586Y-53001321D01*
X66052586Y-53053711D01*
X65262705Y-53053711D01*
X65269506Y-53127539D01*
X65289908Y-53198998D01*
X65311065Y-53245320D01*
X65351732Y-53307625D01*
X65405089Y-53360703D01*
X65437827Y-53383073D01*
X65505036Y-53412724D01*
X65579258Y-53427258D01*
X65615880Y-53428868D01*
X65698241Y-53422610D01*
X65773134Y-53407283D01*
X65851994Y-53382759D01*
X65920741Y-53355298D01*
X65992243Y-53321450D01*
X66036466Y-53298076D01*
X66036466Y-53500309D01*
X65962818Y-53533767D01*
X65890708Y-53561554D01*
X65820136Y-53583670D01*
X65737481Y-53602724D01*
X65657041Y-53613611D01*
X65591700Y-53616447D01*
X65514649Y-53611592D01*
X65441766Y-53597030D01*
X65364753Y-53569041D01*
X65308501Y-53538778D01*
X65242346Y-53489843D01*
X65190110Y-53437539D01*
X65144057Y-53376946D01*
X65108832Y-53317127D01*
X65076134Y-53243717D01*
X65052778Y-53167834D01*
X65038765Y-53089478D01*
X65034094Y-53008648D01*
X65038536Y-52930636D01*
X65045688Y-52889580D01*
X65276993Y-52889580D01*
X65822143Y-52889580D01*
X65822143Y-52873826D01*
X65815703Y-52795917D01*
X65793743Y-52722778D01*
X65756198Y-52662801D01*
X65695603Y-52612276D01*
X65620981Y-52587508D01*
X65581808Y-52584765D01*
X65508701Y-52594246D01*
X65436848Y-52626214D01*
X65388368Y-52664999D01*
X65338182Y-52727570D01*
X65303377Y-52797752D01*
X65280863Y-52871744D01*
X65276993Y-52889580D01*
X65045688Y-52889580D01*
X65051862Y-52854134D01*
X65074073Y-52779144D01*
X65105168Y-52705665D01*
X65144415Y-52636789D01*
X65190714Y-52575972D01*
X65244066Y-52523216D01*
X65304471Y-52478519D01*
X65370393Y-52442936D01*
X65439934Y-52417520D01*
X65513092Y-52402270D01*
X65589868Y-52397187D01*
X65665530Y-52402416D01*
G37*
G36*
X66896363Y-51933330D02*
G01*
X66979053Y-51948598D01*
X67055732Y-51974045D01*
X67126400Y-52009670D01*
X67191058Y-52055475D01*
X67249705Y-52111458D01*
X67271480Y-52136702D01*
X67320664Y-52205012D01*
X67361511Y-52279655D01*
X67394023Y-52360631D01*
X67418198Y-52447939D01*
X67431536Y-52522346D01*
X67439538Y-52600805D01*
X67442206Y-52683317D01*
X67438699Y-52763785D01*
X67426578Y-52843269D01*
X67403244Y-52918635D01*
X67397876Y-52930979D01*
X67360782Y-52998110D01*
X67311294Y-53058625D01*
X67280639Y-53085951D01*
X67216082Y-53123430D01*
X67140883Y-53141802D01*
X67102586Y-53143837D01*
X67028398Y-53134678D01*
X66968497Y-53107200D01*
X66920339Y-53048184D01*
X66897789Y-52978240D01*
X66854970Y-53040312D01*
X66820852Y-53078258D01*
X66758191Y-53123087D01*
X66684811Y-53142236D01*
X66652691Y-53143837D01*
X66574449Y-53129772D01*
X66507336Y-53087577D01*
X66468776Y-53043819D01*
X66430909Y-52977158D01*
X66407067Y-52902197D01*
X66397600Y-52827634D01*
X66397206Y-52811178D01*
X66587478Y-52811178D01*
X66594433Y-52885084D01*
X66609460Y-52926217D01*
X66667712Y-52964685D01*
X66739640Y-52938352D01*
X66784582Y-52897274D01*
X66831335Y-52839967D01*
X66872767Y-52778187D01*
X66890095Y-52748163D01*
X66890095Y-52488045D01*
X66864816Y-52488045D01*
X66786317Y-52493094D01*
X66714709Y-52513605D01*
X66697387Y-52523949D01*
X66647297Y-52577607D01*
X66617154Y-52638254D01*
X66596868Y-52709941D01*
X66587942Y-52787800D01*
X66587478Y-52811178D01*
X66397206Y-52811178D01*
X66396969Y-52801286D01*
X66401842Y-52725970D01*
X66416463Y-52652933D01*
X66440832Y-52582175D01*
X66474947Y-52513696D01*
X66498818Y-52475588D01*
X66551143Y-52416774D01*
X66619001Y-52372405D01*
X66689528Y-52345873D01*
X66771466Y-52329953D01*
X66848465Y-52324794D01*
X66864816Y-52324646D01*
X67072545Y-52324646D01*
X67072545Y-52785166D01*
X67074010Y-52860637D01*
X67078406Y-52908997D01*
X67102220Y-52959922D01*
X67140688Y-52976408D01*
X67208888Y-52945496D01*
X67213595Y-52941237D01*
X67255549Y-52880875D01*
X67271480Y-52837923D01*
X67287489Y-52761822D01*
X67291997Y-52689179D01*
X67289051Y-52615796D01*
X67278473Y-52533175D01*
X67260200Y-52451882D01*
X67237901Y-52381841D01*
X67230448Y-52362016D01*
X67196192Y-52288422D01*
X67154610Y-52226278D01*
X67099072Y-52170050D01*
X67049464Y-52136335D01*
X66981177Y-52103749D01*
X66911094Y-52081827D01*
X66831116Y-52069977D01*
X66798504Y-52068924D01*
X66723066Y-52075590D01*
X66645500Y-52098630D01*
X66574517Y-52138129D01*
X66554505Y-52153188D01*
X66498258Y-52207133D01*
X66453127Y-52266421D01*
X66412575Y-52336379D01*
X66380849Y-52406346D01*
X66354154Y-52482133D01*
X66334016Y-52561391D01*
X66320434Y-52644120D01*
X66314011Y-52717794D01*
X66312339Y-52781136D01*
X66314721Y-52857528D01*
X66321870Y-52931729D01*
X66336233Y-53015530D01*
X66357082Y-53096351D01*
X66380116Y-53163254D01*
X66412103Y-53235472D01*
X66453983Y-53306845D01*
X66501541Y-53366310D01*
X66561833Y-53418976D01*
X66627833Y-53457761D01*
X66698064Y-53483853D01*
X66772527Y-53497251D01*
X66815723Y-53499210D01*
X66894560Y-53489891D01*
X66972802Y-53461933D01*
X67040775Y-53422180D01*
X67098675Y-53376748D01*
X67127499Y-53350100D01*
X67127499Y-53545006D01*
X67061210Y-53583474D01*
X66992729Y-53613768D01*
X66966299Y-53621942D01*
X66891001Y-53635950D01*
X66819753Y-53639894D01*
X66741039Y-53636159D01*
X66667838Y-53624953D01*
X66589404Y-53602438D01*
X66518473Y-53569755D01*
X66463647Y-53533648D01*
X66405777Y-53483239D01*
X66353341Y-53424976D01*
X66306341Y-53358858D01*
X66264774Y-53284887D01*
X66243462Y-53239092D01*
X66215697Y-53165414D01*
X66193677Y-53085888D01*
X66177401Y-53000515D01*
X66168225Y-52924905D01*
X66163039Y-52845233D01*
X66161763Y-52778572D01*
X66164488Y-52686437D01*
X66172662Y-52598710D01*
X66186286Y-52515391D01*
X66205360Y-52436479D01*
X66229884Y-52361975D01*
X66259857Y-52291880D01*
X66295280Y-52226192D01*
X66336152Y-52164912D01*
X66393645Y-52096730D01*
X66457131Y-52040104D01*
X66526610Y-51995035D01*
X66602081Y-51961522D01*
X66683545Y-51939565D01*
X66771002Y-51929165D01*
X66807663Y-51928240D01*
X66896363Y-51933330D01*
G37*
G36*
X68215701Y-52403804D02*
G01*
X68293579Y-52417795D01*
X68307192Y-52420634D01*
X68355186Y-52425763D01*
X68558152Y-52425763D01*
X68558152Y-53242755D01*
X68557946Y-53327287D01*
X68557329Y-53400907D01*
X68556045Y-53474847D01*
X68553412Y-53548990D01*
X68549725Y-53595198D01*
X68537876Y-53668317D01*
X68524812Y-53725990D01*
X68497037Y-53799881D01*
X68455844Y-53865483D01*
X68401233Y-53922796D01*
X68333204Y-53971820D01*
X68264845Y-54006937D01*
X68190561Y-54033429D01*
X68110351Y-54051296D01*
X68036884Y-54059745D01*
X67972335Y-54061946D01*
X67892827Y-54057901D01*
X67812572Y-54045768D01*
X67731569Y-54025547D01*
X67649820Y-53997237D01*
X67581125Y-53967466D01*
X67539659Y-53946907D01*
X67539659Y-53722692D01*
X67602850Y-53762513D01*
X67669690Y-53797253D01*
X67740179Y-53826913D01*
X67754715Y-53832235D01*
X67826972Y-53854453D01*
X67904636Y-53869389D01*
X67980395Y-53874367D01*
X68058249Y-53868571D01*
X68131757Y-53851183D01*
X68141229Y-53847989D01*
X68209373Y-53815749D01*
X68262862Y-53771785D01*
X68305224Y-53711108D01*
X68325510Y-53656381D01*
X68338425Y-53578803D01*
X68342460Y-53505353D01*
X68342729Y-53477961D01*
X68342729Y-53357794D01*
X68295174Y-53422859D01*
X68242707Y-53475606D01*
X68181083Y-53522846D01*
X68150755Y-53542075D01*
X68081959Y-53578026D01*
X68008987Y-53604173D01*
X67932932Y-53616156D01*
X67919579Y-53616447D01*
X67838522Y-53606333D01*
X67762275Y-53575991D01*
X67698539Y-53532038D01*
X67653232Y-53488586D01*
X67607408Y-53426423D01*
X67572839Y-53351813D01*
X67552167Y-53277955D01*
X67539763Y-53194952D01*
X67535744Y-53118797D01*
X67535629Y-53102804D01*
X67536582Y-53076792D01*
X67766072Y-53076792D01*
X67769873Y-53154049D01*
X67783236Y-53228592D01*
X67812635Y-53301912D01*
X67826889Y-53323722D01*
X67879079Y-53376619D01*
X67950119Y-53404703D01*
X67964275Y-53405421D01*
X68036484Y-53391030D01*
X68102967Y-53356374D01*
X68154418Y-53318226D01*
X68212121Y-53264427D01*
X68260297Y-53208625D01*
X68305543Y-53145312D01*
X68342729Y-53083753D01*
X68342729Y-52608945D01*
X68269279Y-52593289D01*
X68192343Y-52585355D01*
X68165409Y-52584765D01*
X68083710Y-52593008D01*
X68008972Y-52617738D01*
X67941194Y-52658954D01*
X67880378Y-52716656D01*
X67835839Y-52778844D01*
X67802239Y-52850323D01*
X67779579Y-52931094D01*
X67768863Y-53007721D01*
X67766072Y-53076792D01*
X67536582Y-53076792D01*
X67538347Y-53028624D01*
X67548387Y-52945922D01*
X67565825Y-52867358D01*
X67590662Y-52792931D01*
X67612932Y-52742302D01*
X67649259Y-52676037D01*
X67696915Y-52607990D01*
X67751119Y-52548141D01*
X67811873Y-52496489D01*
X67819928Y-52490609D01*
X67888667Y-52449737D01*
X67965191Y-52420542D01*
X68038536Y-52404576D01*
X68117842Y-52397551D01*
X68141595Y-52397187D01*
X68215701Y-52403804D01*
G37*
G36*
X68750493Y-53593000D02*
G01*
X68750493Y-52429060D01*
X68941002Y-52429060D01*
X68941002Y-52649612D01*
X68978397Y-52579258D01*
X69022342Y-52514432D01*
X69069230Y-52462766D01*
X69131620Y-52417936D01*
X69204985Y-52397443D01*
X69214310Y-52397187D01*
X69290044Y-52412321D01*
X69350323Y-52457722D01*
X69357192Y-52466063D01*
X69392061Y-52531155D01*
X69408471Y-52607448D01*
X69411048Y-52659137D01*
X69399324Y-52721053D01*
X69419846Y-52644305D01*
X69450567Y-52575231D01*
X69470765Y-52544099D01*
X69517675Y-52487647D01*
X69572981Y-52437487D01*
X69642393Y-52403838D01*
X69697178Y-52397187D01*
X69770543Y-52413673D01*
X69828175Y-52459075D01*
X69831634Y-52463132D01*
X69865345Y-52530108D01*
X69880418Y-52603331D01*
X69886469Y-52684961D01*
X69886955Y-52719587D01*
X69886955Y-53593000D01*
X69696445Y-53593000D01*
X69696445Y-52800187D01*
X69695157Y-52724308D01*
X69690584Y-52671593D01*
X69669701Y-52623233D01*
X69637094Y-52608212D01*
X69570496Y-52641977D01*
X69531581Y-52686614D01*
X69490892Y-52752818D01*
X69457021Y-52825661D01*
X69430316Y-52893937D01*
X69411048Y-52948931D01*
X69411048Y-53593000D01*
X69227499Y-53593000D01*
X69227499Y-52801286D01*
X69224923Y-52721559D01*
X69211399Y-52647317D01*
X69201121Y-52631293D01*
X69156058Y-52608212D01*
X69090099Y-52646080D01*
X69051644Y-52696140D01*
X69012454Y-52762485D01*
X68977878Y-52833468D01*
X68947617Y-52906041D01*
X68941002Y-52923286D01*
X68941002Y-53593000D01*
X68750493Y-53593000D01*
G37*
G36*
X70720818Y-52403804D02*
G01*
X70798496Y-52417795D01*
X70812025Y-52420634D01*
X70860751Y-52425763D01*
X71062984Y-52425763D01*
X71062984Y-53238725D01*
X71064646Y-53312798D01*
X71070784Y-53393714D01*
X71081445Y-53468705D01*
X71099168Y-53547152D01*
X71110245Y-53583474D01*
X70886030Y-53583474D01*
X70870843Y-53509127D01*
X70859966Y-53436656D01*
X70851881Y-53359534D01*
X70851226Y-53351565D01*
X70807134Y-53412939D01*
X70754407Y-53468052D01*
X70693043Y-53516906D01*
X70655221Y-53541342D01*
X70586512Y-53577648D01*
X70513841Y-53604052D01*
X70438365Y-53616153D01*
X70425144Y-53616447D01*
X70343791Y-53606333D01*
X70267480Y-53575991D01*
X70203881Y-53532038D01*
X70158797Y-53488586D01*
X70113116Y-53426423D01*
X70078655Y-53351813D01*
X70058047Y-53277955D01*
X70045682Y-53194952D01*
X70041675Y-53118797D01*
X70041561Y-53102804D01*
X70042505Y-53076792D01*
X70272004Y-53076792D01*
X70275805Y-53154049D01*
X70289168Y-53228592D01*
X70318566Y-53301912D01*
X70332820Y-53323722D01*
X70385010Y-53376619D01*
X70456051Y-53404703D01*
X70470207Y-53405421D01*
X70542294Y-53391030D01*
X70608486Y-53356374D01*
X70659617Y-53318226D01*
X70717052Y-53264427D01*
X70765235Y-53208625D01*
X70810716Y-53145312D01*
X70848295Y-53083753D01*
X70848295Y-52608945D01*
X70774844Y-52593289D01*
X70697908Y-52585355D01*
X70670974Y-52584765D01*
X70589298Y-52593008D01*
X70514628Y-52617738D01*
X70446966Y-52658954D01*
X70386309Y-52716656D01*
X70341770Y-52778844D01*
X70308171Y-52850323D01*
X70285511Y-52931094D01*
X70274794Y-53007721D01*
X70272004Y-53076792D01*
X70042505Y-53076792D01*
X70044252Y-53028624D01*
X70054198Y-52945922D01*
X70071471Y-52867358D01*
X70096072Y-52792931D01*
X70118131Y-52742302D01*
X70154332Y-52676037D01*
X70201931Y-52607990D01*
X70256170Y-52548141D01*
X70317050Y-52496489D01*
X70325127Y-52490609D01*
X70394095Y-52449737D01*
X70470573Y-52420542D01*
X70543653Y-52404576D01*
X70622483Y-52397551D01*
X70646062Y-52397187D01*
X70720818Y-52403804D01*
G37*
G36*
X71675179Y-53593000D02*
G01*
X71675179Y-52608212D01*
X71357175Y-52608212D01*
X71357175Y-52420634D01*
X71889868Y-52420634D01*
X71889868Y-53405421D01*
X72208605Y-53405421D01*
X72208605Y-53593000D01*
X71675179Y-53593000D01*
G37*
G36*
X71643305Y-52021297D02*
G01*
X71662053Y-51947566D01*
X71691299Y-51916517D01*
X71757451Y-51884128D01*
X71781791Y-51881346D01*
X71852944Y-51902812D01*
X71873748Y-51916517D01*
X71916071Y-51977345D01*
X71921742Y-52021297D01*
X71902994Y-52094856D01*
X71873748Y-52126077D01*
X71806839Y-52158128D01*
X71781791Y-52160882D01*
X71709103Y-52137905D01*
X71691299Y-52126077D01*
X71648976Y-52065084D01*
X71643305Y-52021297D01*
G37*
G36*
X72921184Y-53593000D02*
G01*
X72921184Y-52092371D01*
X72577900Y-52092371D01*
X72577900Y-51904793D01*
X73134408Y-51904793D01*
X73134408Y-53405421D01*
X73492346Y-53405421D01*
X73492346Y-53593000D01*
X72921184Y-53593000D01*
G37*
G36*
X74354767Y-53639894D02*
G01*
X74282030Y-53625418D01*
X74227639Y-53588603D01*
X74186474Y-53527720D01*
X74174882Y-53464039D01*
X74189978Y-53391922D01*
X74228371Y-53339109D01*
X74290684Y-53299374D01*
X74354767Y-53288184D01*
X74429458Y-53304297D01*
X74479697Y-53339109D01*
X74521434Y-53399731D01*
X74533187Y-53464039D01*
X74516378Y-53539336D01*
X74480064Y-53588603D01*
X74418426Y-53628624D01*
X74354767Y-53639894D01*
G37*
G36*
X76118078Y-53566988D02*
G01*
X76043443Y-53591764D01*
X75970663Y-53611415D01*
X75888096Y-53627862D01*
X75808054Y-53637331D01*
X75741456Y-53639894D01*
X75666270Y-53635985D01*
X75585023Y-53621943D01*
X75508768Y-53597688D01*
X75437504Y-53563221D01*
X75428947Y-53558195D01*
X75364536Y-53513567D01*
X75307589Y-53461750D01*
X75258107Y-53402742D01*
X75216090Y-53336545D01*
X75182750Y-53264210D01*
X75158937Y-53187159D01*
X75144648Y-53105392D01*
X75139960Y-53029975D01*
X75139886Y-53018907D01*
X75144116Y-52937434D01*
X75156809Y-52860397D01*
X75177962Y-52787797D01*
X75207577Y-52719633D01*
X75245654Y-52655906D01*
X75292192Y-52596615D01*
X75313176Y-52574140D01*
X75369179Y-52523163D01*
X75440963Y-52473394D01*
X75517745Y-52436068D01*
X75599525Y-52411184D01*
X75686302Y-52398742D01*
X75731564Y-52397187D01*
X75811168Y-52400658D01*
X75893541Y-52411071D01*
X75966352Y-52425523D01*
X76041198Y-52445074D01*
X76118078Y-52469727D01*
X76118078Y-52682584D01*
X76039781Y-52649341D01*
X75965631Y-52622976D01*
X75884364Y-52600909D01*
X75808742Y-52588204D01*
X75748417Y-52584765D01*
X75673610Y-52591720D01*
X75602512Y-52612586D01*
X75557175Y-52634224D01*
X75496244Y-52679304D01*
X75446441Y-52740355D01*
X75419422Y-52789929D01*
X75391471Y-52863709D01*
X75375123Y-52938961D01*
X75370329Y-53008648D01*
X75376214Y-53082517D01*
X75393868Y-53154645D01*
X75423291Y-53225032D01*
X75464484Y-53293680D01*
X75518226Y-53352825D01*
X75585293Y-53395071D01*
X75654909Y-53418175D01*
X75734728Y-53428340D01*
X75759408Y-53428868D01*
X75836115Y-53425720D01*
X75881041Y-53420808D01*
X75955803Y-53403478D01*
X76027638Y-53381820D01*
X76107111Y-53355659D01*
X76118078Y-53351932D01*
X76118078Y-53566988D01*
G37*
G36*
X76949024Y-52401408D02*
G01*
X77033619Y-52417620D01*
X77111183Y-52445990D01*
X77181714Y-52486519D01*
X77245212Y-52539207D01*
X77274324Y-52570110D01*
X77325496Y-52638027D01*
X77366081Y-52712357D01*
X77396079Y-52793102D01*
X77412989Y-52865289D01*
X77422547Y-52941930D01*
X77424900Y-53006450D01*
X77421224Y-53086269D01*
X77410195Y-53161776D01*
X77391814Y-53232972D01*
X77360052Y-53312716D01*
X77317703Y-53386252D01*
X77274324Y-53442790D01*
X77214342Y-53501806D01*
X77147327Y-53548612D01*
X77073280Y-53583208D01*
X76992201Y-53605593D01*
X76919262Y-53614921D01*
X76873155Y-53616447D01*
X76797058Y-53612207D01*
X76712187Y-53595927D01*
X76634349Y-53567436D01*
X76563543Y-53526736D01*
X76499770Y-53473824D01*
X76470521Y-53442790D01*
X76419224Y-53374427D01*
X76378540Y-53299857D01*
X76348470Y-53219078D01*
X76331518Y-53147019D01*
X76321937Y-53070650D01*
X76319579Y-53006450D01*
X76550022Y-53006450D01*
X76554212Y-53089044D01*
X76566782Y-53163399D01*
X76591408Y-53238286D01*
X76626980Y-53302411D01*
X76637583Y-53316761D01*
X76691618Y-53370953D01*
X76755216Y-53407410D01*
X76828377Y-53426131D01*
X76873155Y-53428868D01*
X76950744Y-53420000D01*
X77019060Y-53393397D01*
X77078102Y-53349057D01*
X77106896Y-53316761D01*
X77149222Y-53246890D01*
X77175217Y-53173348D01*
X77188984Y-53100171D01*
X77194371Y-53018754D01*
X77194457Y-53006450D01*
X77190267Y-52924142D01*
X77177697Y-52850003D01*
X77153070Y-52775276D01*
X77112283Y-52703963D01*
X77106896Y-52696872D01*
X77053006Y-52642680D01*
X76982252Y-52603267D01*
X76908784Y-52586517D01*
X76873155Y-52584765D01*
X76794681Y-52593633D01*
X76725769Y-52620237D01*
X76666422Y-52664576D01*
X76637583Y-52696872D01*
X76595256Y-52766685D01*
X76569261Y-52840078D01*
X76555494Y-52913050D01*
X76550107Y-52994192D01*
X76550022Y-53006450D01*
X76319579Y-53006450D01*
X76323264Y-52926246D01*
X76334319Y-52850495D01*
X76352745Y-52779199D01*
X76384584Y-52699523D01*
X76427036Y-52626262D01*
X76470521Y-52570110D01*
X76530778Y-52511343D01*
X76598067Y-52464735D01*
X76672389Y-52430285D01*
X76753743Y-52407994D01*
X76826911Y-52398706D01*
X76873155Y-52397187D01*
X76949024Y-52401408D01*
G37*
G36*
X77562286Y-53593000D02*
G01*
X77562286Y-52429060D01*
X77752796Y-52429060D01*
X77752796Y-52649612D01*
X77790191Y-52579258D01*
X77834135Y-52514432D01*
X77881023Y-52462766D01*
X77943414Y-52417936D01*
X78016778Y-52397443D01*
X78026103Y-52397187D01*
X78101838Y-52412321D01*
X78162116Y-52457722D01*
X78168986Y-52466063D01*
X78203855Y-52531155D01*
X78220264Y-52607448D01*
X78222841Y-52659137D01*
X78211117Y-52721053D01*
X78231640Y-52644305D01*
X78262360Y-52575231D01*
X78282558Y-52544099D01*
X78329468Y-52487647D01*
X78384774Y-52437487D01*
X78454186Y-52403838D01*
X78508972Y-52397187D01*
X78582336Y-52413673D01*
X78639969Y-52459075D01*
X78643427Y-52463132D01*
X78677139Y-52530108D01*
X78692211Y-52603331D01*
X78698262Y-52684961D01*
X78698748Y-52719587D01*
X78698748Y-53593000D01*
X78508239Y-53593000D01*
X78508239Y-52800187D01*
X78506951Y-52724308D01*
X78502377Y-52671593D01*
X78481494Y-52623233D01*
X78448888Y-52608212D01*
X78382290Y-52641977D01*
X78343375Y-52686614D01*
X78302685Y-52752818D01*
X78268814Y-52825661D01*
X78242109Y-52893937D01*
X78222841Y-52948931D01*
X78222841Y-53593000D01*
X78039293Y-53593000D01*
X78039293Y-52801286D01*
X78036717Y-52721559D01*
X78023193Y-52647317D01*
X78012914Y-52631293D01*
X77967852Y-52608212D01*
X77901892Y-52646080D01*
X77863438Y-52696140D01*
X77824247Y-52762485D01*
X77789672Y-52833468D01*
X77759410Y-52906041D01*
X77752796Y-52923286D01*
X77752796Y-53593000D01*
X77562286Y-53593000D01*
G37*
G36*
X61305209Y-8126000D02*
G01*
X60932250Y-8126000D01*
X60932250Y-5746830D01*
X60532913Y-6812950D01*
X60181203Y-6812950D01*
X59781866Y-5746830D01*
X59781866Y-8126000D01*
X59409640Y-8126000D01*
X59409640Y-5171638D01*
X59888112Y-5171638D01*
X60358524Y-6443655D01*
X60826737Y-5171638D01*
X61305209Y-5171638D01*
X61305209Y-8126000D01*
G37*
G36*
X63028246Y-5886160D02*
G01*
X63178899Y-5919468D01*
X63316414Y-5974980D01*
X63440792Y-6052698D01*
X63552032Y-6152621D01*
X63586193Y-6190863D01*
X63677332Y-6316220D01*
X63749614Y-6455436D01*
X63803040Y-6608510D01*
X63837610Y-6775443D01*
X63852014Y-6925141D01*
X63854371Y-7019579D01*
X63847824Y-7176372D01*
X63828182Y-7323433D01*
X63787327Y-7487060D01*
X63727615Y-7636674D01*
X63649047Y-7772275D01*
X63586193Y-7854890D01*
X63479332Y-7962962D01*
X63359333Y-8048674D01*
X63226197Y-8112026D01*
X63079923Y-8153019D01*
X62920512Y-8171652D01*
X62864455Y-8172894D01*
X62700167Y-8161766D01*
X62549119Y-8128381D01*
X62411311Y-8072739D01*
X62286745Y-7994841D01*
X62175418Y-7894686D01*
X62141252Y-7856355D01*
X62050611Y-7730269D01*
X61978724Y-7589963D01*
X61925589Y-7435437D01*
X61891209Y-7266692D01*
X61876883Y-7115209D01*
X61874665Y-7024709D01*
X62259221Y-7024709D01*
X62266935Y-7172436D01*
X62294641Y-7327785D01*
X62342498Y-7468756D01*
X62420422Y-7610159D01*
X62521014Y-7723503D01*
X62655081Y-7805935D01*
X62812618Y-7842571D01*
X62864455Y-7844632D01*
X63013039Y-7825795D01*
X63156379Y-7760679D01*
X63265807Y-7662308D01*
X63308489Y-7606495D01*
X63387475Y-7464197D01*
X63435984Y-7323696D01*
X63464068Y-7170006D01*
X63471887Y-7024709D01*
X63464138Y-6872694D01*
X63436306Y-6714505D01*
X63388232Y-6572893D01*
X63309954Y-6433397D01*
X63209542Y-6322178D01*
X63075132Y-6241291D01*
X62916679Y-6205342D01*
X62864455Y-6203320D01*
X62713328Y-6221287D01*
X62568929Y-6283398D01*
X62449288Y-6389872D01*
X62418224Y-6430466D01*
X62341362Y-6569009D01*
X62294158Y-6710941D01*
X62266830Y-6870550D01*
X62259221Y-7024709D01*
X61874665Y-7024709D01*
X61874539Y-7019579D01*
X61881068Y-6863703D01*
X61900657Y-6717558D01*
X61941400Y-6555030D01*
X62000949Y-6406515D01*
X62079302Y-6272013D01*
X62141985Y-6190131D01*
X62249095Y-6083055D01*
X62369291Y-5998133D01*
X62502573Y-5935364D01*
X62648941Y-5894750D01*
X62808396Y-5876288D01*
X62864455Y-5875057D01*
X63028246Y-5886160D01*
G37*
G36*
X65548832Y-5886160D02*
G01*
X65699485Y-5919468D01*
X65837000Y-5974980D01*
X65961378Y-6052698D01*
X66072618Y-6152621D01*
X66106779Y-6190863D01*
X66197918Y-6316220D01*
X66270200Y-6455436D01*
X66323627Y-6608510D01*
X66358196Y-6775443D01*
X66372601Y-6925141D01*
X66374958Y-7019579D01*
X66368410Y-7176372D01*
X66348768Y-7323433D01*
X66307913Y-7487060D01*
X66248201Y-7636674D01*
X66169633Y-7772275D01*
X66106779Y-7854890D01*
X65999918Y-7962962D01*
X65879919Y-8048674D01*
X65746783Y-8112026D01*
X65600509Y-8153019D01*
X65441098Y-8171652D01*
X65385041Y-8172894D01*
X65220753Y-8161766D01*
X65069705Y-8128381D01*
X64931897Y-8072739D01*
X64807331Y-7994841D01*
X64696005Y-7894686D01*
X64661838Y-7856355D01*
X64571197Y-7730269D01*
X64499310Y-7589963D01*
X64446176Y-7435437D01*
X64411795Y-7266692D01*
X64397469Y-7115209D01*
X64395251Y-7024709D01*
X64779808Y-7024709D01*
X64787521Y-7172436D01*
X64815228Y-7327785D01*
X64863084Y-7468756D01*
X64941008Y-7610159D01*
X65041601Y-7723503D01*
X65175667Y-7805935D01*
X65333204Y-7842571D01*
X65385041Y-7844632D01*
X65533625Y-7825795D01*
X65676965Y-7760679D01*
X65786393Y-7662308D01*
X65829075Y-7606495D01*
X65908061Y-7464197D01*
X65956570Y-7323696D01*
X65984654Y-7170006D01*
X65992473Y-7024709D01*
X65984725Y-6872694D01*
X65956892Y-6714505D01*
X65908818Y-6572893D01*
X65830540Y-6433397D01*
X65730128Y-6322178D01*
X65595718Y-6241291D01*
X65437265Y-6205342D01*
X65385041Y-6203320D01*
X65233914Y-6221287D01*
X65089515Y-6283398D01*
X64969874Y-6389872D01*
X64938810Y-6430466D01*
X64861948Y-6569009D01*
X64814745Y-6710941D01*
X64787416Y-6870550D01*
X64779808Y-7024709D01*
X64395251Y-7024709D01*
X64395125Y-7019579D01*
X64401655Y-6863703D01*
X64421243Y-6717558D01*
X64461987Y-6555030D01*
X64521535Y-6406515D01*
X64599888Y-6272013D01*
X64662571Y-6190131D01*
X64769681Y-6083055D01*
X64889877Y-5998133D01*
X65023159Y-5935364D01*
X65169528Y-5894750D01*
X65328982Y-5876288D01*
X65385041Y-5875057D01*
X65548832Y-5886160D01*
G37*
G36*
X68604651Y-8126000D02*
G01*
X67679947Y-8126000D01*
X67679947Y-5499900D01*
X67119410Y-5499900D01*
X67119410Y-5171638D01*
X68048510Y-5171638D01*
X68048510Y-7797737D01*
X68604651Y-7797737D01*
X68604651Y-8126000D01*
G37*
G36*
X70613292Y-5888802D02*
G01*
X70762001Y-5930035D01*
X70898718Y-5998757D01*
X71023445Y-6094968D01*
X71089333Y-6162287D01*
X71189260Y-6296891D01*
X71264644Y-6449376D01*
X71309724Y-6594311D01*
X71336772Y-6752382D01*
X71345788Y-6923592D01*
X71345788Y-7047423D01*
X69872271Y-7047423D01*
X69885048Y-7208394D01*
X69923379Y-7356451D01*
X69987264Y-7491594D01*
X70076702Y-7613822D01*
X70185009Y-7714801D01*
X70320538Y-7793917D01*
X70470558Y-7836517D01*
X70578621Y-7844632D01*
X70725762Y-7838358D01*
X70878490Y-7819536D01*
X71036806Y-7788166D01*
X71179914Y-7750424D01*
X71200708Y-7744248D01*
X71265188Y-8071778D01*
X71106598Y-8116016D01*
X70960093Y-8144356D01*
X70806365Y-8163019D01*
X70645415Y-8172005D01*
X70574225Y-8172894D01*
X70426323Y-8165238D01*
X70260978Y-8135837D01*
X70108874Y-8084386D01*
X69970011Y-8010884D01*
X69844388Y-7915331D01*
X69786542Y-7859286D01*
X69684944Y-7734084D01*
X69604367Y-7593684D01*
X69544810Y-7438085D01*
X69506273Y-7267287D01*
X69490216Y-7113346D01*
X69487588Y-7015916D01*
X69494154Y-6858669D01*
X69512839Y-6719161D01*
X69894986Y-6719161D01*
X70948649Y-6719161D01*
X70927526Y-6572741D01*
X70864156Y-6440129D01*
X70798440Y-6359391D01*
X70681489Y-6264285D01*
X70543863Y-6210788D01*
X70465048Y-6203320D01*
X70310019Y-6220983D01*
X70163015Y-6280540D01*
X70067909Y-6352796D01*
X69970090Y-6474384D01*
X69911838Y-6614930D01*
X69894986Y-6719161D01*
X69512839Y-6719161D01*
X69513849Y-6711619D01*
X69554816Y-6548618D01*
X69614691Y-6400301D01*
X69693474Y-6266666D01*
X69756500Y-6185734D01*
X69862906Y-6080153D01*
X70001111Y-5984583D01*
X70154463Y-5918746D01*
X70297963Y-5885980D01*
X70452592Y-5875057D01*
X70613292Y-5888802D01*
G37*
G36*
X73826074Y-8022685D02*
G01*
X73676634Y-8081214D01*
X73529648Y-8125367D01*
X73385117Y-8155145D01*
X73222943Y-8171574D01*
X73162955Y-8172894D01*
X72990706Y-8157456D01*
X72847653Y-8111142D01*
X72714525Y-8014808D01*
X72623438Y-7874012D01*
X72579646Y-7722719D01*
X72565048Y-7540549D01*
X72565048Y-6250214D01*
X72152522Y-6250214D01*
X72152522Y-5921952D01*
X72565048Y-5921952D01*
X72565048Y-5312322D01*
X72924818Y-5312322D01*
X72924818Y-5921952D01*
X73654616Y-5921952D01*
X73654616Y-6250214D01*
X72924818Y-6250214D01*
X72924818Y-7455553D01*
X72940105Y-7603495D01*
X72999772Y-7737888D01*
X73004685Y-7744248D01*
X73127761Y-7830515D01*
X73223039Y-7844632D01*
X73369858Y-7832518D01*
X73520154Y-7796177D01*
X73673929Y-7735609D01*
X73760861Y-7691491D01*
X73826074Y-8022685D01*
G37*
D13*
X57597331Y-6348119D02*
X57597331Y-5348119D01*
X57597331Y-5729071D02*
X57692569Y-5681452D01*
X57692569Y-5681452D02*
X57883045Y-5681452D01*
X57883045Y-5681452D02*
X57978283Y-5729071D01*
X57978283Y-5729071D02*
X58025902Y-5776690D01*
X58025902Y-5776690D02*
X58073521Y-5871928D01*
X58073521Y-5871928D02*
X58073521Y-6157642D01*
X58073521Y-6157642D02*
X58025902Y-6252880D01*
X58025902Y-6252880D02*
X57978283Y-6300500D01*
X57978283Y-6300500D02*
X57883045Y-6348119D01*
X57883045Y-6348119D02*
X57692569Y-6348119D01*
X57692569Y-6348119D02*
X57597331Y-6300500D01*
X58406855Y-5681452D02*
X58644950Y-6348119D01*
X58883045Y-5681452D02*
X58644950Y-6348119D01*
X58644950Y-6348119D02*
X58549712Y-6586214D01*
X58549712Y-6586214D02*
X58502093Y-6633833D01*
X58502093Y-6633833D02*
X58406855Y-6681452D01*
D14*
X50958761Y-27982057D02*
X50863523Y-27934438D01*
X50863523Y-27934438D02*
X50768285Y-27839200D01*
X50768285Y-27839200D02*
X50625428Y-27696342D01*
X50625428Y-27696342D02*
X50530190Y-27648723D01*
X50530190Y-27648723D02*
X50434952Y-27648723D01*
X50482571Y-27886819D02*
X50387333Y-27839200D01*
X50387333Y-27839200D02*
X50292095Y-27743961D01*
X50292095Y-27743961D02*
X50244476Y-27553485D01*
X50244476Y-27553485D02*
X50244476Y-27220152D01*
X50244476Y-27220152D02*
X50292095Y-27029676D01*
X50292095Y-27029676D02*
X50387333Y-26934438D01*
X50387333Y-26934438D02*
X50482571Y-26886819D01*
X50482571Y-26886819D02*
X50673047Y-26886819D01*
X50673047Y-26886819D02*
X50768285Y-26934438D01*
X50768285Y-26934438D02*
X50863523Y-27029676D01*
X50863523Y-27029676D02*
X50911142Y-27220152D01*
X50911142Y-27220152D02*
X50911142Y-27553485D01*
X50911142Y-27553485D02*
X50863523Y-27743961D01*
X50863523Y-27743961D02*
X50768285Y-27839200D01*
X50768285Y-27839200D02*
X50673047Y-27886819D01*
X50673047Y-27886819D02*
X50482571Y-27886819D01*
X51863523Y-27886819D02*
X51292095Y-27886819D01*
X51577809Y-27886819D02*
X51577809Y-26886819D01*
X51577809Y-26886819D02*
X51482571Y-27029676D01*
X51482571Y-27029676D02*
X51387333Y-27124914D01*
X51387333Y-27124914D02*
X51292095Y-27172533D01*
D13*
X46928571Y-939190D02*
X46904762Y-963000D01*
X46904762Y-963000D02*
X46833333Y-986809D01*
X46833333Y-986809D02*
X46785714Y-986809D01*
X46785714Y-986809D02*
X46714286Y-963000D01*
X46714286Y-963000D02*
X46666667Y-915380D01*
X46666667Y-915380D02*
X46642857Y-867761D01*
X46642857Y-867761D02*
X46619048Y-772523D01*
X46619048Y-772523D02*
X46619048Y-701095D01*
X46619048Y-701095D02*
X46642857Y-605857D01*
X46642857Y-605857D02*
X46666667Y-558238D01*
X46666667Y-558238D02*
X46714286Y-510619D01*
X46714286Y-510619D02*
X46785714Y-486809D01*
X46785714Y-486809D02*
X46833333Y-486809D01*
X46833333Y-486809D02*
X46904762Y-510619D01*
X46904762Y-510619D02*
X46928571Y-534428D01*
X47404762Y-986809D02*
X47119048Y-986809D01*
X47261905Y-986809D02*
X47261905Y-486809D01*
X47261905Y-486809D02*
X47214286Y-558238D01*
X47214286Y-558238D02*
X47166667Y-605857D01*
X47166667Y-605857D02*
X47119048Y-629666D01*
X47571428Y-486809D02*
X47880952Y-486809D01*
X47880952Y-486809D02*
X47714285Y-677285D01*
X47714285Y-677285D02*
X47785714Y-677285D01*
X47785714Y-677285D02*
X47833333Y-701095D01*
X47833333Y-701095D02*
X47857142Y-724904D01*
X47857142Y-724904D02*
X47880952Y-772523D01*
X47880952Y-772523D02*
X47880952Y-891571D01*
X47880952Y-891571D02*
X47857142Y-939190D01*
X47857142Y-939190D02*
X47833333Y-963000D01*
X47833333Y-963000D02*
X47785714Y-986809D01*
X47785714Y-986809D02*
X47642857Y-986809D01*
X47642857Y-986809D02*
X47595238Y-963000D01*
X47595238Y-963000D02*
X47571428Y-939190D01*
X25978571Y-19324809D02*
X25811905Y-19086714D01*
X25692857Y-19324809D02*
X25692857Y-18824809D01*
X25692857Y-18824809D02*
X25883333Y-18824809D01*
X25883333Y-18824809D02*
X25930952Y-18848619D01*
X25930952Y-18848619D02*
X25954762Y-18872428D01*
X25954762Y-18872428D02*
X25978571Y-18920047D01*
X25978571Y-18920047D02*
X25978571Y-18991476D01*
X25978571Y-18991476D02*
X25954762Y-19039095D01*
X25954762Y-19039095D02*
X25930952Y-19062904D01*
X25930952Y-19062904D02*
X25883333Y-19086714D01*
X25883333Y-19086714D02*
X25692857Y-19086714D01*
X26454762Y-19324809D02*
X26169048Y-19324809D01*
X26311905Y-19324809D02*
X26311905Y-18824809D01*
X26311905Y-18824809D02*
X26264286Y-18896238D01*
X26264286Y-18896238D02*
X26216667Y-18943857D01*
X26216667Y-18943857D02*
X26169048Y-18967666D01*
X26764285Y-18824809D02*
X26811904Y-18824809D01*
X26811904Y-18824809D02*
X26859523Y-18848619D01*
X26859523Y-18848619D02*
X26883333Y-18872428D01*
X26883333Y-18872428D02*
X26907142Y-18920047D01*
X26907142Y-18920047D02*
X26930952Y-19015285D01*
X26930952Y-19015285D02*
X26930952Y-19134333D01*
X26930952Y-19134333D02*
X26907142Y-19229571D01*
X26907142Y-19229571D02*
X26883333Y-19277190D01*
X26883333Y-19277190D02*
X26859523Y-19301000D01*
X26859523Y-19301000D02*
X26811904Y-19324809D01*
X26811904Y-19324809D02*
X26764285Y-19324809D01*
X26764285Y-19324809D02*
X26716666Y-19301000D01*
X26716666Y-19301000D02*
X26692857Y-19277190D01*
X26692857Y-19277190D02*
X26669047Y-19229571D01*
X26669047Y-19229571D02*
X26645238Y-19134333D01*
X26645238Y-19134333D02*
X26645238Y-19015285D01*
X26645238Y-19015285D02*
X26669047Y-18920047D01*
X26669047Y-18920047D02*
X26692857Y-18872428D01*
X26692857Y-18872428D02*
X26716666Y-18848619D01*
X26716666Y-18848619D02*
X26764285Y-18824809D01*
X53438571Y-18054809D02*
X53271905Y-17816714D01*
X53152857Y-18054809D02*
X53152857Y-17554809D01*
X53152857Y-17554809D02*
X53343333Y-17554809D01*
X53343333Y-17554809D02*
X53390952Y-17578619D01*
X53390952Y-17578619D02*
X53414762Y-17602428D01*
X53414762Y-17602428D02*
X53438571Y-17650047D01*
X53438571Y-17650047D02*
X53438571Y-17721476D01*
X53438571Y-17721476D02*
X53414762Y-17769095D01*
X53414762Y-17769095D02*
X53390952Y-17792904D01*
X53390952Y-17792904D02*
X53343333Y-17816714D01*
X53343333Y-17816714D02*
X53152857Y-17816714D01*
X53914762Y-18054809D02*
X53629048Y-18054809D01*
X53771905Y-18054809D02*
X53771905Y-17554809D01*
X53771905Y-17554809D02*
X53724286Y-17626238D01*
X53724286Y-17626238D02*
X53676667Y-17673857D01*
X53676667Y-17673857D02*
X53629048Y-17697666D01*
X54390952Y-18054809D02*
X54105238Y-18054809D01*
X54248095Y-18054809D02*
X54248095Y-17554809D01*
X54248095Y-17554809D02*
X54200476Y-17626238D01*
X54200476Y-17626238D02*
X54152857Y-17673857D01*
X54152857Y-17673857D02*
X54105238Y-17697666D01*
D14*
X35304580Y-41115666D02*
X35352200Y-41163285D01*
X35352200Y-41163285D02*
X35399819Y-41306142D01*
X35399819Y-41306142D02*
X35399819Y-41401380D01*
X35399819Y-41401380D02*
X35352200Y-41544237D01*
X35352200Y-41544237D02*
X35256961Y-41639475D01*
X35256961Y-41639475D02*
X35161723Y-41687094D01*
X35161723Y-41687094D02*
X34971247Y-41734713D01*
X34971247Y-41734713D02*
X34828390Y-41734713D01*
X34828390Y-41734713D02*
X34637914Y-41687094D01*
X34637914Y-41687094D02*
X34542676Y-41639475D01*
X34542676Y-41639475D02*
X34447438Y-41544237D01*
X34447438Y-41544237D02*
X34399819Y-41401380D01*
X34399819Y-41401380D02*
X34399819Y-41306142D01*
X34399819Y-41306142D02*
X34447438Y-41163285D01*
X34447438Y-41163285D02*
X34495057Y-41115666D01*
X34733152Y-40258523D02*
X35399819Y-40258523D01*
X34352200Y-40496618D02*
X35066485Y-40734713D01*
X35066485Y-40734713D02*
X35066485Y-40115666D01*
D13*
X72716666Y-44924809D02*
X72550000Y-44686714D01*
X72430952Y-44924809D02*
X72430952Y-44424809D01*
X72430952Y-44424809D02*
X72621428Y-44424809D01*
X72621428Y-44424809D02*
X72669047Y-44448619D01*
X72669047Y-44448619D02*
X72692857Y-44472428D01*
X72692857Y-44472428D02*
X72716666Y-44520047D01*
X72716666Y-44520047D02*
X72716666Y-44591476D01*
X72716666Y-44591476D02*
X72692857Y-44639095D01*
X72692857Y-44639095D02*
X72669047Y-44662904D01*
X72669047Y-44662904D02*
X72621428Y-44686714D01*
X72621428Y-44686714D02*
X72430952Y-44686714D01*
X73145238Y-44424809D02*
X73050000Y-44424809D01*
X73050000Y-44424809D02*
X73002381Y-44448619D01*
X73002381Y-44448619D02*
X72978571Y-44472428D01*
X72978571Y-44472428D02*
X72930952Y-44543857D01*
X72930952Y-44543857D02*
X72907143Y-44639095D01*
X72907143Y-44639095D02*
X72907143Y-44829571D01*
X72907143Y-44829571D02*
X72930952Y-44877190D01*
X72930952Y-44877190D02*
X72954762Y-44901000D01*
X72954762Y-44901000D02*
X73002381Y-44924809D01*
X73002381Y-44924809D02*
X73097619Y-44924809D01*
X73097619Y-44924809D02*
X73145238Y-44901000D01*
X73145238Y-44901000D02*
X73169047Y-44877190D01*
X73169047Y-44877190D02*
X73192857Y-44829571D01*
X73192857Y-44829571D02*
X73192857Y-44710523D01*
X73192857Y-44710523D02*
X73169047Y-44662904D01*
X73169047Y-44662904D02*
X73145238Y-44639095D01*
X73145238Y-44639095D02*
X73097619Y-44615285D01*
X73097619Y-44615285D02*
X73002381Y-44615285D01*
X73002381Y-44615285D02*
X72954762Y-44639095D01*
X72954762Y-44639095D02*
X72930952Y-44662904D01*
X72930952Y-44662904D02*
X72907143Y-44710523D01*
D14*
X34359819Y-23161904D02*
X35169342Y-23161904D01*
X35169342Y-23161904D02*
X35264580Y-23114285D01*
X35264580Y-23114285D02*
X35312200Y-23066666D01*
X35312200Y-23066666D02*
X35359819Y-22971428D01*
X35359819Y-22971428D02*
X35359819Y-22780952D01*
X35359819Y-22780952D02*
X35312200Y-22685714D01*
X35312200Y-22685714D02*
X35264580Y-22638095D01*
X35264580Y-22638095D02*
X35169342Y-22590476D01*
X35169342Y-22590476D02*
X34359819Y-22590476D01*
X35359819Y-21590476D02*
X35359819Y-22161904D01*
X35359819Y-21876190D02*
X34359819Y-21876190D01*
X34359819Y-21876190D02*
X34502676Y-21971428D01*
X34502676Y-21971428D02*
X34597914Y-22066666D01*
X34597914Y-22066666D02*
X34645533Y-22161904D01*
D13*
X48816666Y-19417190D02*
X48792857Y-19441000D01*
X48792857Y-19441000D02*
X48721428Y-19464809D01*
X48721428Y-19464809D02*
X48673809Y-19464809D01*
X48673809Y-19464809D02*
X48602381Y-19441000D01*
X48602381Y-19441000D02*
X48554762Y-19393380D01*
X48554762Y-19393380D02*
X48530952Y-19345761D01*
X48530952Y-19345761D02*
X48507143Y-19250523D01*
X48507143Y-19250523D02*
X48507143Y-19179095D01*
X48507143Y-19179095D02*
X48530952Y-19083857D01*
X48530952Y-19083857D02*
X48554762Y-19036238D01*
X48554762Y-19036238D02*
X48602381Y-18988619D01*
X48602381Y-18988619D02*
X48673809Y-18964809D01*
X48673809Y-18964809D02*
X48721428Y-18964809D01*
X48721428Y-18964809D02*
X48792857Y-18988619D01*
X48792857Y-18988619D02*
X48816666Y-19012428D01*
X48983333Y-18964809D02*
X49316666Y-18964809D01*
X49316666Y-18964809D02*
X49102381Y-19464809D01*
D14*
X64616819Y-34424857D02*
X64140628Y-34758190D01*
X64616819Y-34996285D02*
X63616819Y-34996285D01*
X63616819Y-34996285D02*
X63616819Y-34615333D01*
X63616819Y-34615333D02*
X63664438Y-34520095D01*
X63664438Y-34520095D02*
X63712057Y-34472476D01*
X63712057Y-34472476D02*
X63807295Y-34424857D01*
X63807295Y-34424857D02*
X63950152Y-34424857D01*
X63950152Y-34424857D02*
X64045390Y-34472476D01*
X64045390Y-34472476D02*
X64093009Y-34520095D01*
X64093009Y-34520095D02*
X64140628Y-34615333D01*
X64140628Y-34615333D02*
X64140628Y-34996285D01*
X64616819Y-33472476D02*
X64616819Y-34043904D01*
X64616819Y-33758190D02*
X63616819Y-33758190D01*
X63616819Y-33758190D02*
X63759676Y-33853428D01*
X63759676Y-33853428D02*
X63854914Y-33948666D01*
X63854914Y-33948666D02*
X63902533Y-34043904D01*
X63616819Y-32567714D02*
X63616819Y-33043904D01*
X63616819Y-33043904D02*
X64093009Y-33091523D01*
X64093009Y-33091523D02*
X64045390Y-33043904D01*
X64045390Y-33043904D02*
X63997771Y-32948666D01*
X63997771Y-32948666D02*
X63997771Y-32710571D01*
X63997771Y-32710571D02*
X64045390Y-32615333D01*
X64045390Y-32615333D02*
X64093009Y-32567714D01*
X64093009Y-32567714D02*
X64188247Y-32520095D01*
X64188247Y-32520095D02*
X64426342Y-32520095D01*
X64426342Y-32520095D02*
X64521580Y-32567714D01*
X64521580Y-32567714D02*
X64569200Y-32615333D01*
X64569200Y-32615333D02*
X64616819Y-32710571D01*
X64616819Y-32710571D02*
X64616819Y-32948666D01*
X64616819Y-32948666D02*
X64569200Y-33043904D01*
X64569200Y-33043904D02*
X64521580Y-33091523D01*
X39032142Y-43473819D02*
X38698809Y-42997628D01*
X38460714Y-43473819D02*
X38460714Y-42473819D01*
X38460714Y-42473819D02*
X38841666Y-42473819D01*
X38841666Y-42473819D02*
X38936904Y-42521438D01*
X38936904Y-42521438D02*
X38984523Y-42569057D01*
X38984523Y-42569057D02*
X39032142Y-42664295D01*
X39032142Y-42664295D02*
X39032142Y-42807152D01*
X39032142Y-42807152D02*
X38984523Y-42902390D01*
X38984523Y-42902390D02*
X38936904Y-42950009D01*
X38936904Y-42950009D02*
X38841666Y-42997628D01*
X38841666Y-42997628D02*
X38460714Y-42997628D01*
X39984523Y-43473819D02*
X39413095Y-43473819D01*
X39698809Y-43473819D02*
X39698809Y-42473819D01*
X39698809Y-42473819D02*
X39603571Y-42616676D01*
X39603571Y-42616676D02*
X39508333Y-42711914D01*
X39508333Y-42711914D02*
X39413095Y-42759533D01*
X40317857Y-42473819D02*
X40936904Y-42473819D01*
X40936904Y-42473819D02*
X40603571Y-42854771D01*
X40603571Y-42854771D02*
X40746428Y-42854771D01*
X40746428Y-42854771D02*
X40841666Y-42902390D01*
X40841666Y-42902390D02*
X40889285Y-42950009D01*
X40889285Y-42950009D02*
X40936904Y-43045247D01*
X40936904Y-43045247D02*
X40936904Y-43283342D01*
X40936904Y-43283342D02*
X40889285Y-43378580D01*
X40889285Y-43378580D02*
X40841666Y-43426200D01*
X40841666Y-43426200D02*
X40746428Y-43473819D01*
X40746428Y-43473819D02*
X40460714Y-43473819D01*
X40460714Y-43473819D02*
X40365476Y-43426200D01*
X40365476Y-43426200D02*
X40317857Y-43378580D01*
X73048166Y-38959819D02*
X73048166Y-39674104D01*
X73048166Y-39674104D02*
X73000547Y-39816961D01*
X73000547Y-39816961D02*
X72905309Y-39912200D01*
X72905309Y-39912200D02*
X72762452Y-39959819D01*
X72762452Y-39959819D02*
X72667214Y-39959819D01*
X73667214Y-39388390D02*
X73571976Y-39340771D01*
X73571976Y-39340771D02*
X73524357Y-39293152D01*
X73524357Y-39293152D02*
X73476738Y-39197914D01*
X73476738Y-39197914D02*
X73476738Y-39150295D01*
X73476738Y-39150295D02*
X73524357Y-39055057D01*
X73524357Y-39055057D02*
X73571976Y-39007438D01*
X73571976Y-39007438D02*
X73667214Y-38959819D01*
X73667214Y-38959819D02*
X73857690Y-38959819D01*
X73857690Y-38959819D02*
X73952928Y-39007438D01*
X73952928Y-39007438D02*
X74000547Y-39055057D01*
X74000547Y-39055057D02*
X74048166Y-39150295D01*
X74048166Y-39150295D02*
X74048166Y-39197914D01*
X74048166Y-39197914D02*
X74000547Y-39293152D01*
X74000547Y-39293152D02*
X73952928Y-39340771D01*
X73952928Y-39340771D02*
X73857690Y-39388390D01*
X73857690Y-39388390D02*
X73667214Y-39388390D01*
X73667214Y-39388390D02*
X73571976Y-39436009D01*
X73571976Y-39436009D02*
X73524357Y-39483628D01*
X73524357Y-39483628D02*
X73476738Y-39578866D01*
X73476738Y-39578866D02*
X73476738Y-39769342D01*
X73476738Y-39769342D02*
X73524357Y-39864580D01*
X73524357Y-39864580D02*
X73571976Y-39912200D01*
X73571976Y-39912200D02*
X73667214Y-39959819D01*
X73667214Y-39959819D02*
X73857690Y-39959819D01*
X73857690Y-39959819D02*
X73952928Y-39912200D01*
X73952928Y-39912200D02*
X74000547Y-39864580D01*
X74000547Y-39864580D02*
X74048166Y-39769342D01*
X74048166Y-39769342D02*
X74048166Y-39578866D01*
X74048166Y-39578866D02*
X74000547Y-39483628D01*
X74000547Y-39483628D02*
X73952928Y-39436009D01*
X73952928Y-39436009D02*
X73857690Y-39388390D01*
D13*
X33024809Y-11919047D02*
X32524809Y-11919047D01*
X32524809Y-11919047D02*
X32524809Y-11799999D01*
X32524809Y-11799999D02*
X32548619Y-11728571D01*
X32548619Y-11728571D02*
X32596238Y-11680952D01*
X32596238Y-11680952D02*
X32643857Y-11657142D01*
X32643857Y-11657142D02*
X32739095Y-11633333D01*
X32739095Y-11633333D02*
X32810523Y-11633333D01*
X32810523Y-11633333D02*
X32905761Y-11657142D01*
X32905761Y-11657142D02*
X32953380Y-11680952D01*
X32953380Y-11680952D02*
X33001000Y-11728571D01*
X33001000Y-11728571D02*
X33024809Y-11799999D01*
X33024809Y-11799999D02*
X33024809Y-11919047D01*
X32572428Y-11442856D02*
X32548619Y-11419047D01*
X32548619Y-11419047D02*
X32524809Y-11371428D01*
X32524809Y-11371428D02*
X32524809Y-11252380D01*
X32524809Y-11252380D02*
X32548619Y-11204761D01*
X32548619Y-11204761D02*
X32572428Y-11180952D01*
X32572428Y-11180952D02*
X32620047Y-11157142D01*
X32620047Y-11157142D02*
X32667666Y-11157142D01*
X32667666Y-11157142D02*
X32739095Y-11180952D01*
X32739095Y-11180952D02*
X33024809Y-11466666D01*
X33024809Y-11466666D02*
X33024809Y-11157142D01*
D14*
X72436819Y-44633333D02*
X73151104Y-44633333D01*
X73151104Y-44633333D02*
X73293961Y-44680952D01*
X73293961Y-44680952D02*
X73389200Y-44776190D01*
X73389200Y-44776190D02*
X73436819Y-44919047D01*
X73436819Y-44919047D02*
X73436819Y-45014285D01*
X72436819Y-44252380D02*
X72436819Y-43585714D01*
X72436819Y-43585714D02*
X73436819Y-44014285D01*
X41523810Y-40303819D02*
X41523810Y-39303819D01*
X42571428Y-40208580D02*
X42523809Y-40256200D01*
X42523809Y-40256200D02*
X42380952Y-40303819D01*
X42380952Y-40303819D02*
X42285714Y-40303819D01*
X42285714Y-40303819D02*
X42142857Y-40256200D01*
X42142857Y-40256200D02*
X42047619Y-40160961D01*
X42047619Y-40160961D02*
X42000000Y-40065723D01*
X42000000Y-40065723D02*
X41952381Y-39875247D01*
X41952381Y-39875247D02*
X41952381Y-39732390D01*
X41952381Y-39732390D02*
X42000000Y-39541914D01*
X42000000Y-39541914D02*
X42047619Y-39446676D01*
X42047619Y-39446676D02*
X42142857Y-39351438D01*
X42142857Y-39351438D02*
X42285714Y-39303819D01*
X42285714Y-39303819D02*
X42380952Y-39303819D01*
X42380952Y-39303819D02*
X42523809Y-39351438D01*
X42523809Y-39351438D02*
X42571428Y-39399057D01*
X43523809Y-40303819D02*
X42952381Y-40303819D01*
X43238095Y-40303819D02*
X43238095Y-39303819D01*
X43238095Y-39303819D02*
X43142857Y-39446676D01*
X43142857Y-39446676D02*
X43047619Y-39541914D01*
X43047619Y-39541914D02*
X42952381Y-39589533D01*
D13*
X35362666Y-29325690D02*
X35338857Y-29349500D01*
X35338857Y-29349500D02*
X35267428Y-29373309D01*
X35267428Y-29373309D02*
X35219809Y-29373309D01*
X35219809Y-29373309D02*
X35148381Y-29349500D01*
X35148381Y-29349500D02*
X35100762Y-29301880D01*
X35100762Y-29301880D02*
X35076952Y-29254261D01*
X35076952Y-29254261D02*
X35053143Y-29159023D01*
X35053143Y-29159023D02*
X35053143Y-29087595D01*
X35053143Y-29087595D02*
X35076952Y-28992357D01*
X35076952Y-28992357D02*
X35100762Y-28944738D01*
X35100762Y-28944738D02*
X35148381Y-28897119D01*
X35148381Y-28897119D02*
X35219809Y-28873309D01*
X35219809Y-28873309D02*
X35267428Y-28873309D01*
X35267428Y-28873309D02*
X35338857Y-28897119D01*
X35338857Y-28897119D02*
X35362666Y-28920928D01*
X35529333Y-28873309D02*
X35838857Y-28873309D01*
X35838857Y-28873309D02*
X35672190Y-29063785D01*
X35672190Y-29063785D02*
X35743619Y-29063785D01*
X35743619Y-29063785D02*
X35791238Y-29087595D01*
X35791238Y-29087595D02*
X35815047Y-29111404D01*
X35815047Y-29111404D02*
X35838857Y-29159023D01*
X35838857Y-29159023D02*
X35838857Y-29278071D01*
X35838857Y-29278071D02*
X35815047Y-29325690D01*
X35815047Y-29325690D02*
X35791238Y-29349500D01*
X35791238Y-29349500D02*
X35743619Y-29373309D01*
X35743619Y-29373309D02*
X35600762Y-29373309D01*
X35600762Y-29373309D02*
X35553143Y-29349500D01*
X35553143Y-29349500D02*
X35529333Y-29325690D01*
X33406666Y-19294809D02*
X33240000Y-19056714D01*
X33120952Y-19294809D02*
X33120952Y-18794809D01*
X33120952Y-18794809D02*
X33311428Y-18794809D01*
X33311428Y-18794809D02*
X33359047Y-18818619D01*
X33359047Y-18818619D02*
X33382857Y-18842428D01*
X33382857Y-18842428D02*
X33406666Y-18890047D01*
X33406666Y-18890047D02*
X33406666Y-18961476D01*
X33406666Y-18961476D02*
X33382857Y-19009095D01*
X33382857Y-19009095D02*
X33359047Y-19032904D01*
X33359047Y-19032904D02*
X33311428Y-19056714D01*
X33311428Y-19056714D02*
X33120952Y-19056714D01*
X33644762Y-19294809D02*
X33740000Y-19294809D01*
X33740000Y-19294809D02*
X33787619Y-19271000D01*
X33787619Y-19271000D02*
X33811428Y-19247190D01*
X33811428Y-19247190D02*
X33859047Y-19175761D01*
X33859047Y-19175761D02*
X33882857Y-19080523D01*
X33882857Y-19080523D02*
X33882857Y-18890047D01*
X33882857Y-18890047D02*
X33859047Y-18842428D01*
X33859047Y-18842428D02*
X33835238Y-18818619D01*
X33835238Y-18818619D02*
X33787619Y-18794809D01*
X33787619Y-18794809D02*
X33692381Y-18794809D01*
X33692381Y-18794809D02*
X33644762Y-18818619D01*
X33644762Y-18818619D02*
X33620952Y-18842428D01*
X33620952Y-18842428D02*
X33597143Y-18890047D01*
X33597143Y-18890047D02*
X33597143Y-19009095D01*
X33597143Y-19009095D02*
X33620952Y-19056714D01*
X33620952Y-19056714D02*
X33644762Y-19080523D01*
X33644762Y-19080523D02*
X33692381Y-19104333D01*
X33692381Y-19104333D02*
X33787619Y-19104333D01*
X33787619Y-19104333D02*
X33835238Y-19080523D01*
X33835238Y-19080523D02*
X33859047Y-19056714D01*
X33859047Y-19056714D02*
X33882857Y-19009095D01*
X7126666Y-37594809D02*
X6960000Y-37356714D01*
X6840952Y-37594809D02*
X6840952Y-37094809D01*
X6840952Y-37094809D02*
X7031428Y-37094809D01*
X7031428Y-37094809D02*
X7079047Y-37118619D01*
X7079047Y-37118619D02*
X7102857Y-37142428D01*
X7102857Y-37142428D02*
X7126666Y-37190047D01*
X7126666Y-37190047D02*
X7126666Y-37261476D01*
X7126666Y-37261476D02*
X7102857Y-37309095D01*
X7102857Y-37309095D02*
X7079047Y-37332904D01*
X7079047Y-37332904D02*
X7031428Y-37356714D01*
X7031428Y-37356714D02*
X6840952Y-37356714D01*
X7293333Y-37094809D02*
X7602857Y-37094809D01*
X7602857Y-37094809D02*
X7436190Y-37285285D01*
X7436190Y-37285285D02*
X7507619Y-37285285D01*
X7507619Y-37285285D02*
X7555238Y-37309095D01*
X7555238Y-37309095D02*
X7579047Y-37332904D01*
X7579047Y-37332904D02*
X7602857Y-37380523D01*
X7602857Y-37380523D02*
X7602857Y-37499571D01*
X7602857Y-37499571D02*
X7579047Y-37547190D01*
X7579047Y-37547190D02*
X7555238Y-37571000D01*
X7555238Y-37571000D02*
X7507619Y-37594809D01*
X7507619Y-37594809D02*
X7364762Y-37594809D01*
X7364762Y-37594809D02*
X7317143Y-37571000D01*
X7317143Y-37571000D02*
X7293333Y-37547190D01*
X35362666Y-26825690D02*
X35338857Y-26849500D01*
X35338857Y-26849500D02*
X35267428Y-26873309D01*
X35267428Y-26873309D02*
X35219809Y-26873309D01*
X35219809Y-26873309D02*
X35148381Y-26849500D01*
X35148381Y-26849500D02*
X35100762Y-26801880D01*
X35100762Y-26801880D02*
X35076952Y-26754261D01*
X35076952Y-26754261D02*
X35053143Y-26659023D01*
X35053143Y-26659023D02*
X35053143Y-26587595D01*
X35053143Y-26587595D02*
X35076952Y-26492357D01*
X35076952Y-26492357D02*
X35100762Y-26444738D01*
X35100762Y-26444738D02*
X35148381Y-26397119D01*
X35148381Y-26397119D02*
X35219809Y-26373309D01*
X35219809Y-26373309D02*
X35267428Y-26373309D01*
X35267428Y-26373309D02*
X35338857Y-26397119D01*
X35338857Y-26397119D02*
X35362666Y-26420928D01*
X35553143Y-26420928D02*
X35576952Y-26397119D01*
X35576952Y-26397119D02*
X35624571Y-26373309D01*
X35624571Y-26373309D02*
X35743619Y-26373309D01*
X35743619Y-26373309D02*
X35791238Y-26397119D01*
X35791238Y-26397119D02*
X35815047Y-26420928D01*
X35815047Y-26420928D02*
X35838857Y-26468547D01*
X35838857Y-26468547D02*
X35838857Y-26516166D01*
X35838857Y-26516166D02*
X35815047Y-26587595D01*
X35815047Y-26587595D02*
X35529333Y-26873309D01*
X35529333Y-26873309D02*
X35838857Y-26873309D01*
D14*
X36954819Y-35715666D02*
X36478628Y-36048999D01*
X36954819Y-36287094D02*
X35954819Y-36287094D01*
X35954819Y-36287094D02*
X35954819Y-35906142D01*
X35954819Y-35906142D02*
X36002438Y-35810904D01*
X36002438Y-35810904D02*
X36050057Y-35763285D01*
X36050057Y-35763285D02*
X36145295Y-35715666D01*
X36145295Y-35715666D02*
X36288152Y-35715666D01*
X36288152Y-35715666D02*
X36383390Y-35763285D01*
X36383390Y-35763285D02*
X36431009Y-35810904D01*
X36431009Y-35810904D02*
X36478628Y-35906142D01*
X36478628Y-35906142D02*
X36478628Y-36287094D01*
X35954819Y-35382332D02*
X35954819Y-34715666D01*
X35954819Y-34715666D02*
X36954819Y-35144237D01*
D13*
X19855666Y-7844809D02*
X19689000Y-7606714D01*
X19569952Y-7844809D02*
X19569952Y-7344809D01*
X19569952Y-7344809D02*
X19760428Y-7344809D01*
X19760428Y-7344809D02*
X19808047Y-7368619D01*
X19808047Y-7368619D02*
X19831857Y-7392428D01*
X19831857Y-7392428D02*
X19855666Y-7440047D01*
X19855666Y-7440047D02*
X19855666Y-7511476D01*
X19855666Y-7511476D02*
X19831857Y-7559095D01*
X19831857Y-7559095D02*
X19808047Y-7582904D01*
X19808047Y-7582904D02*
X19760428Y-7606714D01*
X19760428Y-7606714D02*
X19569952Y-7606714D01*
X20308047Y-7344809D02*
X20069952Y-7344809D01*
X20069952Y-7344809D02*
X20046143Y-7582904D01*
X20046143Y-7582904D02*
X20069952Y-7559095D01*
X20069952Y-7559095D02*
X20117571Y-7535285D01*
X20117571Y-7535285D02*
X20236619Y-7535285D01*
X20236619Y-7535285D02*
X20284238Y-7559095D01*
X20284238Y-7559095D02*
X20308047Y-7582904D01*
X20308047Y-7582904D02*
X20331857Y-7630523D01*
X20331857Y-7630523D02*
X20331857Y-7749571D01*
X20331857Y-7749571D02*
X20308047Y-7797190D01*
X20308047Y-7797190D02*
X20284238Y-7821000D01*
X20284238Y-7821000D02*
X20236619Y-7844809D01*
X20236619Y-7844809D02*
X20117571Y-7844809D01*
X20117571Y-7844809D02*
X20069952Y-7821000D01*
X20069952Y-7821000D02*
X20046143Y-7797190D01*
D15*
X38284237Y-52644318D02*
X38284237Y-51374318D01*
X39614714Y-52523365D02*
X39554238Y-52583842D01*
X39554238Y-52583842D02*
X39372809Y-52644318D01*
X39372809Y-52644318D02*
X39251857Y-52644318D01*
X39251857Y-52644318D02*
X39070428Y-52583842D01*
X39070428Y-52583842D02*
X38949476Y-52462889D01*
X38949476Y-52462889D02*
X38888999Y-52341937D01*
X38888999Y-52341937D02*
X38828523Y-52100032D01*
X38828523Y-52100032D02*
X38828523Y-51918603D01*
X38828523Y-51918603D02*
X38888999Y-51676699D01*
X38888999Y-51676699D02*
X38949476Y-51555746D01*
X38949476Y-51555746D02*
X39070428Y-51434794D01*
X39070428Y-51434794D02*
X39251857Y-51374318D01*
X39251857Y-51374318D02*
X39372809Y-51374318D01*
X39372809Y-51374318D02*
X39554238Y-51434794D01*
X39554238Y-51434794D02*
X39614714Y-51495270D01*
X40098523Y-51495270D02*
X40158999Y-51434794D01*
X40158999Y-51434794D02*
X40279952Y-51374318D01*
X40279952Y-51374318D02*
X40582333Y-51374318D01*
X40582333Y-51374318D02*
X40703285Y-51434794D01*
X40703285Y-51434794D02*
X40763761Y-51495270D01*
X40763761Y-51495270D02*
X40824238Y-51616222D01*
X40824238Y-51616222D02*
X40824238Y-51737175D01*
X40824238Y-51737175D02*
X40763761Y-51918603D01*
X40763761Y-51918603D02*
X40038047Y-52644318D01*
X40038047Y-52644318D02*
X40824238Y-52644318D01*
D14*
X26561905Y-16954819D02*
X26561905Y-15954819D01*
X26561905Y-15954819D02*
X26800000Y-15954819D01*
X26800000Y-15954819D02*
X26942857Y-16002438D01*
X26942857Y-16002438D02*
X27038095Y-16097676D01*
X27038095Y-16097676D02*
X27085714Y-16192914D01*
X27085714Y-16192914D02*
X27133333Y-16383390D01*
X27133333Y-16383390D02*
X27133333Y-16526247D01*
X27133333Y-16526247D02*
X27085714Y-16716723D01*
X27085714Y-16716723D02*
X27038095Y-16811961D01*
X27038095Y-16811961D02*
X26942857Y-16907200D01*
X26942857Y-16907200D02*
X26800000Y-16954819D01*
X26800000Y-16954819D02*
X26561905Y-16954819D01*
X27990476Y-16288152D02*
X27990476Y-16954819D01*
X27752381Y-15907200D02*
X27514286Y-16621485D01*
X27514286Y-16621485D02*
X28133333Y-16621485D01*
D13*
X53428571Y-15054809D02*
X53261905Y-14816714D01*
X53142857Y-15054809D02*
X53142857Y-14554809D01*
X53142857Y-14554809D02*
X53333333Y-14554809D01*
X53333333Y-14554809D02*
X53380952Y-14578619D01*
X53380952Y-14578619D02*
X53404762Y-14602428D01*
X53404762Y-14602428D02*
X53428571Y-14650047D01*
X53428571Y-14650047D02*
X53428571Y-14721476D01*
X53428571Y-14721476D02*
X53404762Y-14769095D01*
X53404762Y-14769095D02*
X53380952Y-14792904D01*
X53380952Y-14792904D02*
X53333333Y-14816714D01*
X53333333Y-14816714D02*
X53142857Y-14816714D01*
X53904762Y-15054809D02*
X53619048Y-15054809D01*
X53761905Y-15054809D02*
X53761905Y-14554809D01*
X53761905Y-14554809D02*
X53714286Y-14626238D01*
X53714286Y-14626238D02*
X53666667Y-14673857D01*
X53666667Y-14673857D02*
X53619048Y-14697666D01*
X54095238Y-14602428D02*
X54119047Y-14578619D01*
X54119047Y-14578619D02*
X54166666Y-14554809D01*
X54166666Y-14554809D02*
X54285714Y-14554809D01*
X54285714Y-14554809D02*
X54333333Y-14578619D01*
X54333333Y-14578619D02*
X54357142Y-14602428D01*
X54357142Y-14602428D02*
X54380952Y-14650047D01*
X54380952Y-14650047D02*
X54380952Y-14697666D01*
X54380952Y-14697666D02*
X54357142Y-14769095D01*
X54357142Y-14769095D02*
X54071428Y-15054809D01*
X54071428Y-15054809D02*
X54380952Y-15054809D01*
D14*
X60016819Y-34534857D02*
X59540628Y-34868190D01*
X60016819Y-35106285D02*
X59016819Y-35106285D01*
X59016819Y-35106285D02*
X59016819Y-34725333D01*
X59016819Y-34725333D02*
X59064438Y-34630095D01*
X59064438Y-34630095D02*
X59112057Y-34582476D01*
X59112057Y-34582476D02*
X59207295Y-34534857D01*
X59207295Y-34534857D02*
X59350152Y-34534857D01*
X59350152Y-34534857D02*
X59445390Y-34582476D01*
X59445390Y-34582476D02*
X59493009Y-34630095D01*
X59493009Y-34630095D02*
X59540628Y-34725333D01*
X59540628Y-34725333D02*
X59540628Y-35106285D01*
X60016819Y-33582476D02*
X60016819Y-34153904D01*
X60016819Y-33868190D02*
X59016819Y-33868190D01*
X59016819Y-33868190D02*
X59159676Y-33963428D01*
X59159676Y-33963428D02*
X59254914Y-34058666D01*
X59254914Y-34058666D02*
X59302533Y-34153904D01*
X59350152Y-32725333D02*
X60016819Y-32725333D01*
X58969200Y-32963428D02*
X59683485Y-33201523D01*
X59683485Y-33201523D02*
X59683485Y-32582476D01*
D13*
X72716666Y-45877190D02*
X72692857Y-45901000D01*
X72692857Y-45901000D02*
X72621428Y-45924809D01*
X72621428Y-45924809D02*
X72573809Y-45924809D01*
X72573809Y-45924809D02*
X72502381Y-45901000D01*
X72502381Y-45901000D02*
X72454762Y-45853380D01*
X72454762Y-45853380D02*
X72430952Y-45805761D01*
X72430952Y-45805761D02*
X72407143Y-45710523D01*
X72407143Y-45710523D02*
X72407143Y-45639095D01*
X72407143Y-45639095D02*
X72430952Y-45543857D01*
X72430952Y-45543857D02*
X72454762Y-45496238D01*
X72454762Y-45496238D02*
X72502381Y-45448619D01*
X72502381Y-45448619D02*
X72573809Y-45424809D01*
X72573809Y-45424809D02*
X72621428Y-45424809D01*
X72621428Y-45424809D02*
X72692857Y-45448619D01*
X72692857Y-45448619D02*
X72716666Y-45472428D01*
X73145238Y-45424809D02*
X73050000Y-45424809D01*
X73050000Y-45424809D02*
X73002381Y-45448619D01*
X73002381Y-45448619D02*
X72978571Y-45472428D01*
X72978571Y-45472428D02*
X72930952Y-45543857D01*
X72930952Y-45543857D02*
X72907143Y-45639095D01*
X72907143Y-45639095D02*
X72907143Y-45829571D01*
X72907143Y-45829571D02*
X72930952Y-45877190D01*
X72930952Y-45877190D02*
X72954762Y-45901000D01*
X72954762Y-45901000D02*
X73002381Y-45924809D01*
X73002381Y-45924809D02*
X73097619Y-45924809D01*
X73097619Y-45924809D02*
X73145238Y-45901000D01*
X73145238Y-45901000D02*
X73169047Y-45877190D01*
X73169047Y-45877190D02*
X73192857Y-45829571D01*
X73192857Y-45829571D02*
X73192857Y-45710523D01*
X73192857Y-45710523D02*
X73169047Y-45662904D01*
X73169047Y-45662904D02*
X73145238Y-45639095D01*
X73145238Y-45639095D02*
X73097619Y-45615285D01*
X73097619Y-45615285D02*
X73002381Y-45615285D01*
X73002381Y-45615285D02*
X72954762Y-45639095D01*
X72954762Y-45639095D02*
X72930952Y-45662904D01*
X72930952Y-45662904D02*
X72907143Y-45710523D01*
X25666666Y-4927190D02*
X25642857Y-4951000D01*
X25642857Y-4951000D02*
X25571428Y-4974809D01*
X25571428Y-4974809D02*
X25523809Y-4974809D01*
X25523809Y-4974809D02*
X25452381Y-4951000D01*
X25452381Y-4951000D02*
X25404762Y-4903380D01*
X25404762Y-4903380D02*
X25380952Y-4855761D01*
X25380952Y-4855761D02*
X25357143Y-4760523D01*
X25357143Y-4760523D02*
X25357143Y-4689095D01*
X25357143Y-4689095D02*
X25380952Y-4593857D01*
X25380952Y-4593857D02*
X25404762Y-4546238D01*
X25404762Y-4546238D02*
X25452381Y-4498619D01*
X25452381Y-4498619D02*
X25523809Y-4474809D01*
X25523809Y-4474809D02*
X25571428Y-4474809D01*
X25571428Y-4474809D02*
X25642857Y-4498619D01*
X25642857Y-4498619D02*
X25666666Y-4522428D01*
X26142857Y-4974809D02*
X25857143Y-4974809D01*
X26000000Y-4974809D02*
X26000000Y-4474809D01*
X26000000Y-4474809D02*
X25952381Y-4546238D01*
X25952381Y-4546238D02*
X25904762Y-4593857D01*
X25904762Y-4593857D02*
X25857143Y-4617666D01*
X65775190Y-17345238D02*
X65418047Y-17345238D01*
X65418047Y-17345238D02*
X65346619Y-17321429D01*
X65346619Y-17321429D02*
X65299000Y-17273810D01*
X65299000Y-17273810D02*
X65275190Y-17202381D01*
X65275190Y-17202381D02*
X65275190Y-17154762D01*
X65275190Y-17583333D02*
X65775190Y-17583333D01*
X65775190Y-17583333D02*
X65418047Y-17750000D01*
X65418047Y-17750000D02*
X65775190Y-17916666D01*
X65775190Y-17916666D02*
X65275190Y-17916666D01*
X65275190Y-18154762D02*
X65775190Y-18154762D01*
X65275190Y-18392857D02*
X65775190Y-18392857D01*
X65775190Y-18392857D02*
X65775190Y-18511905D01*
X65775190Y-18511905D02*
X65751380Y-18583333D01*
X65751380Y-18583333D02*
X65703761Y-18630952D01*
X65703761Y-18630952D02*
X65656142Y-18654762D01*
X65656142Y-18654762D02*
X65560904Y-18678571D01*
X65560904Y-18678571D02*
X65489476Y-18678571D01*
X65489476Y-18678571D02*
X65394238Y-18654762D01*
X65394238Y-18654762D02*
X65346619Y-18630952D01*
X65346619Y-18630952D02*
X65299000Y-18583333D01*
X65299000Y-18583333D02*
X65275190Y-18511905D01*
X65275190Y-18511905D02*
X65275190Y-18392857D01*
X65275190Y-18892857D02*
X65775190Y-18892857D01*
X65775190Y-19226190D02*
X65775190Y-19321428D01*
X65775190Y-19321428D02*
X65751380Y-19369047D01*
X65751380Y-19369047D02*
X65703761Y-19416666D01*
X65703761Y-19416666D02*
X65608523Y-19440476D01*
X65608523Y-19440476D02*
X65441857Y-19440476D01*
X65441857Y-19440476D02*
X65346619Y-19416666D01*
X65346619Y-19416666D02*
X65299000Y-19369047D01*
X65299000Y-19369047D02*
X65275190Y-19321428D01*
X65275190Y-19321428D02*
X65275190Y-19226190D01*
X65275190Y-19226190D02*
X65299000Y-19178571D01*
X65299000Y-19178571D02*
X65346619Y-19130952D01*
X65346619Y-19130952D02*
X65441857Y-19107143D01*
X65441857Y-19107143D02*
X65608523Y-19107143D01*
X65608523Y-19107143D02*
X65703761Y-19130952D01*
X65703761Y-19130952D02*
X65751380Y-19178571D01*
X65751380Y-19178571D02*
X65775190Y-19226190D01*
X65775190Y-19654762D02*
X65370428Y-19654762D01*
X65370428Y-19654762D02*
X65322809Y-19678572D01*
X65322809Y-19678572D02*
X65299000Y-19702381D01*
X65299000Y-19702381D02*
X65275190Y-19750000D01*
X65275190Y-19750000D02*
X65275190Y-19845238D01*
X65275190Y-19845238D02*
X65299000Y-19892857D01*
X65299000Y-19892857D02*
X65322809Y-19916667D01*
X65322809Y-19916667D02*
X65370428Y-19940476D01*
X65370428Y-19940476D02*
X65775190Y-19940476D01*
X65775190Y-20107144D02*
X65775190Y-20392858D01*
X65275190Y-20250001D02*
X65775190Y-20250001D01*
X65275190Y-20821429D02*
X65275190Y-20535715D01*
X65275190Y-20678572D02*
X65775190Y-20678572D01*
X65775190Y-20678572D02*
X65703761Y-20630953D01*
X65703761Y-20630953D02*
X65656142Y-20583334D01*
X65656142Y-20583334D02*
X65632333Y-20535715D01*
X16524809Y-20321428D02*
X16881952Y-20321428D01*
X16881952Y-20321428D02*
X16953380Y-20345237D01*
X16953380Y-20345237D02*
X17001000Y-20392856D01*
X17001000Y-20392856D02*
X17024809Y-20464285D01*
X17024809Y-20464285D02*
X17024809Y-20511904D01*
X17024809Y-20083333D02*
X16524809Y-20083333D01*
X16524809Y-20083333D02*
X16881952Y-19916666D01*
X16881952Y-19916666D02*
X16524809Y-19750000D01*
X16524809Y-19750000D02*
X17024809Y-19750000D01*
X17024809Y-19511904D02*
X16524809Y-19511904D01*
X17024809Y-19273809D02*
X16524809Y-19273809D01*
X16524809Y-19273809D02*
X16524809Y-19154761D01*
X16524809Y-19154761D02*
X16548619Y-19083333D01*
X16548619Y-19083333D02*
X16596238Y-19035714D01*
X16596238Y-19035714D02*
X16643857Y-19011904D01*
X16643857Y-19011904D02*
X16739095Y-18988095D01*
X16739095Y-18988095D02*
X16810523Y-18988095D01*
X16810523Y-18988095D02*
X16905761Y-19011904D01*
X16905761Y-19011904D02*
X16953380Y-19035714D01*
X16953380Y-19035714D02*
X17001000Y-19083333D01*
X17001000Y-19083333D02*
X17024809Y-19154761D01*
X17024809Y-19154761D02*
X17024809Y-19273809D01*
X17024809Y-18773809D02*
X16524809Y-18773809D01*
X17024809Y-18535714D02*
X16524809Y-18535714D01*
X17024809Y-18297619D02*
X16524809Y-18297619D01*
X16524809Y-18297619D02*
X17024809Y-18011905D01*
X17024809Y-18011905D02*
X16524809Y-18011905D01*
X17024809Y-17511904D02*
X17024809Y-17797618D01*
X17024809Y-17654761D02*
X16524809Y-17654761D01*
X16524809Y-17654761D02*
X16596238Y-17702380D01*
X16596238Y-17702380D02*
X16643857Y-17749999D01*
X16643857Y-17749999D02*
X16667666Y-17797618D01*
D14*
X34954819Y-35615666D02*
X34478628Y-35948999D01*
X34954819Y-36187094D02*
X33954819Y-36187094D01*
X33954819Y-36187094D02*
X33954819Y-35806142D01*
X33954819Y-35806142D02*
X34002438Y-35710904D01*
X34002438Y-35710904D02*
X34050057Y-35663285D01*
X34050057Y-35663285D02*
X34145295Y-35615666D01*
X34145295Y-35615666D02*
X34288152Y-35615666D01*
X34288152Y-35615666D02*
X34383390Y-35663285D01*
X34383390Y-35663285D02*
X34431009Y-35710904D01*
X34431009Y-35710904D02*
X34478628Y-35806142D01*
X34478628Y-35806142D02*
X34478628Y-36187094D01*
X34383390Y-35044237D02*
X34335771Y-35139475D01*
X34335771Y-35139475D02*
X34288152Y-35187094D01*
X34288152Y-35187094D02*
X34192914Y-35234713D01*
X34192914Y-35234713D02*
X34145295Y-35234713D01*
X34145295Y-35234713D02*
X34050057Y-35187094D01*
X34050057Y-35187094D02*
X34002438Y-35139475D01*
X34002438Y-35139475D02*
X33954819Y-35044237D01*
X33954819Y-35044237D02*
X33954819Y-34853761D01*
X33954819Y-34853761D02*
X34002438Y-34758523D01*
X34002438Y-34758523D02*
X34050057Y-34710904D01*
X34050057Y-34710904D02*
X34145295Y-34663285D01*
X34145295Y-34663285D02*
X34192914Y-34663285D01*
X34192914Y-34663285D02*
X34288152Y-34710904D01*
X34288152Y-34710904D02*
X34335771Y-34758523D01*
X34335771Y-34758523D02*
X34383390Y-34853761D01*
X34383390Y-34853761D02*
X34383390Y-35044237D01*
X34383390Y-35044237D02*
X34431009Y-35139475D01*
X34431009Y-35139475D02*
X34478628Y-35187094D01*
X34478628Y-35187094D02*
X34573866Y-35234713D01*
X34573866Y-35234713D02*
X34764342Y-35234713D01*
X34764342Y-35234713D02*
X34859580Y-35187094D01*
X34859580Y-35187094D02*
X34907200Y-35139475D01*
X34907200Y-35139475D02*
X34954819Y-35044237D01*
X34954819Y-35044237D02*
X34954819Y-34853761D01*
X34954819Y-34853761D02*
X34907200Y-34758523D01*
X34907200Y-34758523D02*
X34859580Y-34710904D01*
X34859580Y-34710904D02*
X34764342Y-34663285D01*
X34764342Y-34663285D02*
X34573866Y-34663285D01*
X34573866Y-34663285D02*
X34478628Y-34710904D01*
X34478628Y-34710904D02*
X34431009Y-34758523D01*
X34431009Y-34758523D02*
X34383390Y-34853761D01*
D13*
X37986714Y-31738094D02*
X38224809Y-31738094D01*
X37724809Y-31904760D02*
X37986714Y-31738094D01*
X37986714Y-31738094D02*
X37724809Y-31571427D01*
X38224809Y-31142856D02*
X38224809Y-31428570D01*
X38224809Y-31285713D02*
X37724809Y-31285713D01*
X37724809Y-31285713D02*
X37796238Y-31333332D01*
X37796238Y-31333332D02*
X37843857Y-31380951D01*
X37843857Y-31380951D02*
X37867666Y-31428570D01*
X9126666Y-35254809D02*
X8960000Y-35016714D01*
X8840952Y-35254809D02*
X8840952Y-34754809D01*
X8840952Y-34754809D02*
X9031428Y-34754809D01*
X9031428Y-34754809D02*
X9079047Y-34778619D01*
X9079047Y-34778619D02*
X9102857Y-34802428D01*
X9102857Y-34802428D02*
X9126666Y-34850047D01*
X9126666Y-34850047D02*
X9126666Y-34921476D01*
X9126666Y-34921476D02*
X9102857Y-34969095D01*
X9102857Y-34969095D02*
X9079047Y-34992904D01*
X9079047Y-34992904D02*
X9031428Y-35016714D01*
X9031428Y-35016714D02*
X8840952Y-35016714D01*
X9555238Y-34921476D02*
X9555238Y-35254809D01*
X9436190Y-34731000D02*
X9317143Y-35088142D01*
X9317143Y-35088142D02*
X9626666Y-35088142D01*
X43124809Y-29383333D02*
X43124809Y-29621428D01*
X43124809Y-29621428D02*
X42624809Y-29621428D01*
X43124809Y-28954761D02*
X43124809Y-29240475D01*
X43124809Y-29097618D02*
X42624809Y-29097618D01*
X42624809Y-29097618D02*
X42696238Y-29145237D01*
X42696238Y-29145237D02*
X42743857Y-29192856D01*
X42743857Y-29192856D02*
X42767666Y-29240475D01*
D14*
X42958333Y-43638580D02*
X42910714Y-43686200D01*
X42910714Y-43686200D02*
X42767857Y-43733819D01*
X42767857Y-43733819D02*
X42672619Y-43733819D01*
X42672619Y-43733819D02*
X42529762Y-43686200D01*
X42529762Y-43686200D02*
X42434524Y-43590961D01*
X42434524Y-43590961D02*
X42386905Y-43495723D01*
X42386905Y-43495723D02*
X42339286Y-43305247D01*
X42339286Y-43305247D02*
X42339286Y-43162390D01*
X42339286Y-43162390D02*
X42386905Y-42971914D01*
X42386905Y-42971914D02*
X42434524Y-42876676D01*
X42434524Y-42876676D02*
X42529762Y-42781438D01*
X42529762Y-42781438D02*
X42672619Y-42733819D01*
X42672619Y-42733819D02*
X42767857Y-42733819D01*
X42767857Y-42733819D02*
X42910714Y-42781438D01*
X42910714Y-42781438D02*
X42958333Y-42829057D01*
X43863095Y-42733819D02*
X43386905Y-42733819D01*
X43386905Y-42733819D02*
X43339286Y-43210009D01*
X43339286Y-43210009D02*
X43386905Y-43162390D01*
X43386905Y-43162390D02*
X43482143Y-43114771D01*
X43482143Y-43114771D02*
X43720238Y-43114771D01*
X43720238Y-43114771D02*
X43815476Y-43162390D01*
X43815476Y-43162390D02*
X43863095Y-43210009D01*
X43863095Y-43210009D02*
X43910714Y-43305247D01*
X43910714Y-43305247D02*
X43910714Y-43543342D01*
X43910714Y-43543342D02*
X43863095Y-43638580D01*
X43863095Y-43638580D02*
X43815476Y-43686200D01*
X43815476Y-43686200D02*
X43720238Y-43733819D01*
X43720238Y-43733819D02*
X43482143Y-43733819D01*
X43482143Y-43733819D02*
X43386905Y-43686200D01*
X43386905Y-43686200D02*
X43339286Y-43638580D01*
D13*
X26166666Y-3474809D02*
X26000000Y-3236714D01*
X25880952Y-3474809D02*
X25880952Y-2974809D01*
X25880952Y-2974809D02*
X26071428Y-2974809D01*
X26071428Y-2974809D02*
X26119047Y-2998619D01*
X26119047Y-2998619D02*
X26142857Y-3022428D01*
X26142857Y-3022428D02*
X26166666Y-3070047D01*
X26166666Y-3070047D02*
X26166666Y-3141476D01*
X26166666Y-3141476D02*
X26142857Y-3189095D01*
X26142857Y-3189095D02*
X26119047Y-3212904D01*
X26119047Y-3212904D02*
X26071428Y-3236714D01*
X26071428Y-3236714D02*
X25880952Y-3236714D01*
X26642857Y-3474809D02*
X26357143Y-3474809D01*
X26500000Y-3474809D02*
X26500000Y-2974809D01*
X26500000Y-2974809D02*
X26452381Y-3046238D01*
X26452381Y-3046238D02*
X26404762Y-3093857D01*
X26404762Y-3093857D02*
X26357143Y-3117666D01*
X20090952Y-4866909D02*
X20090952Y-4366909D01*
X20090952Y-4366909D02*
X20210000Y-4366909D01*
X20210000Y-4366909D02*
X20281428Y-4390719D01*
X20281428Y-4390719D02*
X20329047Y-4438338D01*
X20329047Y-4438338D02*
X20352857Y-4485957D01*
X20352857Y-4485957D02*
X20376666Y-4581195D01*
X20376666Y-4581195D02*
X20376666Y-4652623D01*
X20376666Y-4652623D02*
X20352857Y-4747861D01*
X20352857Y-4747861D02*
X20329047Y-4795480D01*
X20329047Y-4795480D02*
X20281428Y-4843100D01*
X20281428Y-4843100D02*
X20210000Y-4866909D01*
X20210000Y-4866909D02*
X20090952Y-4866909D01*
X20543333Y-4366909D02*
X20852857Y-4366909D01*
X20852857Y-4366909D02*
X20686190Y-4557385D01*
X20686190Y-4557385D02*
X20757619Y-4557385D01*
X20757619Y-4557385D02*
X20805238Y-4581195D01*
X20805238Y-4581195D02*
X20829047Y-4605004D01*
X20829047Y-4605004D02*
X20852857Y-4652623D01*
X20852857Y-4652623D02*
X20852857Y-4771671D01*
X20852857Y-4771671D02*
X20829047Y-4819290D01*
X20829047Y-4819290D02*
X20805238Y-4843100D01*
X20805238Y-4843100D02*
X20757619Y-4866909D01*
X20757619Y-4866909D02*
X20614762Y-4866909D01*
X20614762Y-4866909D02*
X20567143Y-4843100D01*
X20567143Y-4843100D02*
X20543333Y-4819290D01*
D14*
X23876095Y-21360819D02*
X23876095Y-22170342D01*
X23876095Y-22170342D02*
X23923714Y-22265580D01*
X23923714Y-22265580D02*
X23971333Y-22313200D01*
X23971333Y-22313200D02*
X24066571Y-22360819D01*
X24066571Y-22360819D02*
X24257047Y-22360819D01*
X24257047Y-22360819D02*
X24352285Y-22313200D01*
X24352285Y-22313200D02*
X24399904Y-22265580D01*
X24399904Y-22265580D02*
X24447523Y-22170342D01*
X24447523Y-22170342D02*
X24447523Y-21360819D01*
X24828476Y-21360819D02*
X25447523Y-21360819D01*
X25447523Y-21360819D02*
X25114190Y-21741771D01*
X25114190Y-21741771D02*
X25257047Y-21741771D01*
X25257047Y-21741771D02*
X25352285Y-21789390D01*
X25352285Y-21789390D02*
X25399904Y-21837009D01*
X25399904Y-21837009D02*
X25447523Y-21932247D01*
X25447523Y-21932247D02*
X25447523Y-22170342D01*
X25447523Y-22170342D02*
X25399904Y-22265580D01*
X25399904Y-22265580D02*
X25352285Y-22313200D01*
X25352285Y-22313200D02*
X25257047Y-22360819D01*
X25257047Y-22360819D02*
X24971333Y-22360819D01*
X24971333Y-22360819D02*
X24876095Y-22313200D01*
X24876095Y-22313200D02*
X24828476Y-22265580D01*
D16*
%TO.C,Q1*%
X48454000Y-28812000D02*
X49044000Y-28812000D01*
X49044000Y-28412000D02*
X49044000Y-28812000D01*
X49044000Y-30712000D02*
X48454000Y-30712000D01*
X49044000Y-30712000D02*
X49044000Y-34312000D01*
X49044000Y-36612000D02*
X49044000Y-36212000D01*
X53064000Y-28412000D02*
X49044000Y-28412000D01*
X53064000Y-28412000D02*
X53064000Y-28812000D01*
X53064000Y-30712000D02*
X53064000Y-34312000D01*
X53064000Y-36612000D02*
X49044000Y-36612000D01*
X53064000Y-36612000D02*
X53064000Y-36212000D01*
%TO.C,C13*%
X45527836Y-640000D02*
X45312164Y-640000D01*
X45527836Y-1360000D02*
X45312164Y-1360000D01*
%TO.C,R10*%
X24336359Y-18620000D02*
X24643641Y-18620000D01*
X24336359Y-19380000D02*
X24643641Y-19380000D01*
%TO.C,R11*%
X53606359Y-18620000D02*
X53913641Y-18620000D01*
X53606359Y-19380000D02*
X53913641Y-19380000D01*
%TO.C,R2*%
X30480100Y-9173641D02*
X30480100Y-8866359D01*
X31240100Y-9173641D02*
X31240100Y-8866359D01*
%TO.C,J1*%
X31241100Y-965000D02*
X31241100Y-705000D01*
X31241100Y-5015000D02*
X31241100Y-3245000D01*
X31241100Y-5015000D02*
X31621100Y-5015000D01*
X38861100Y-705000D02*
X38861100Y-965000D01*
X38861100Y-3245000D02*
X38861100Y-5015000D01*
X38861100Y-5015000D02*
X38481100Y-5015000D01*
%TO.C,C4*%
X35865000Y-41089580D02*
X35865000Y-40808420D01*
X36885000Y-41089580D02*
X36885000Y-40808420D01*
%TO.C,R6*%
X71453641Y-44320000D02*
X71146359Y-44320000D01*
X71453641Y-45080000D02*
X71146359Y-45080000D01*
%TO.C,U1*%
X37145000Y-16540000D02*
X37595000Y-16540000D01*
X37145000Y-16990000D02*
X37145000Y-16540000D01*
X37145000Y-23310000D02*
X37145000Y-23760000D01*
X37145000Y-23760000D02*
X37595000Y-23760000D01*
X44365000Y-16540000D02*
X43915000Y-16540000D01*
X44365000Y-16990000D02*
X44365000Y-16540000D01*
X44365000Y-23310000D02*
X44365000Y-23760000D01*
X44365000Y-23760000D02*
X43915000Y-23760000D01*
X37595000Y-24350000D02*
X37125000Y-24690000D01*
X37125000Y-24010000D01*
X37595000Y-24350000D01*
G36*
X37595000Y-24350000D02*
G01*
X37125000Y-24690000D01*
X37125000Y-24010000D01*
X37595000Y-24350000D01*
G37*
%TO.C,C7*%
X48792164Y-20040000D02*
X49007836Y-20040000D01*
X48792164Y-20760000D02*
X49007836Y-20760000D01*
%TO.C,R15*%
X62612000Y-33628359D02*
X62612000Y-33935641D01*
X63372000Y-33628359D02*
X63372000Y-33935641D01*
%TO.C,C9*%
X38292164Y-13740000D02*
X38507836Y-13740000D01*
X38292164Y-14460000D02*
X38507836Y-14460000D01*
%TO.C,R13*%
X39828641Y-41469000D02*
X39521359Y-41469000D01*
X39828641Y-42229000D02*
X39521359Y-42229000D01*
%TO.C,C11*%
X40140000Y-26802064D02*
X40140000Y-27017736D01*
X40860000Y-26802064D02*
X40860000Y-27017736D01*
%TO.C,C10*%
X49007836Y-21040000D02*
X48792164Y-21040000D01*
X49007836Y-21760000D02*
X48792164Y-21760000D01*
%TO.C,J8*%
X66827000Y-37336000D02*
X66827000Y-30736000D01*
X79827000Y-30736000D02*
X66827000Y-30736000D01*
X79827000Y-31536000D02*
X79827000Y-30736000D01*
X79827000Y-36536000D02*
X79827000Y-37336000D01*
X79827000Y-37336000D02*
X66827000Y-37336000D01*
X81827000Y-31536000D02*
X79827000Y-31536000D01*
X81827000Y-36236000D02*
X81827000Y-31536000D01*
X81827000Y-36236000D02*
X81827000Y-36536000D01*
X81827000Y-36536000D02*
X79827000Y-36536000D01*
%TO.C,D2*%
X31950000Y-7390000D02*
X31950000Y-10050000D01*
X33650000Y-7390000D02*
X31950000Y-7390000D01*
X33650000Y-7390000D02*
X33650000Y-10050000D01*
%TO.C,U2*%
X41962100Y-6265200D02*
X41962100Y-3545200D01*
X42942100Y-6265200D02*
X41962100Y-6265200D01*
X45702100Y-6265200D02*
X46682100Y-6265200D01*
X46682100Y-3685200D02*
X46682100Y-6265200D01*
X46862100Y-3375200D02*
X46532100Y-3135200D01*
X46862100Y-2895200D01*
X46862100Y-3375200D01*
G36*
X46862100Y-3375200D02*
G01*
X46532100Y-3135200D01*
X46862100Y-2895200D01*
X46862100Y-3375200D01*
G37*
%TO.C,J7*%
X75177000Y-41190000D02*
X75177000Y-42240000D01*
X75177000Y-46360000D02*
X74187000Y-46360000D01*
X75177000Y-47410000D02*
X75177000Y-46360000D01*
X77677000Y-41190000D02*
X75177000Y-41190000D01*
X77677000Y-47410000D02*
X75177000Y-47410000D01*
X79647000Y-46240000D02*
X79647000Y-42360000D01*
%TO.C,IC1*%
X42500000Y-33889000D02*
X40550000Y-33889000D01*
X42500000Y-33889000D02*
X44450000Y-33889000D01*
X42500000Y-39009000D02*
X40550000Y-39009000D01*
X42500000Y-39009000D02*
X44450000Y-39009000D01*
X45440000Y-39244000D02*
X44960000Y-39244000D01*
X45200000Y-38914000D01*
X45440000Y-39244000D01*
G36*
X45440000Y-39244000D02*
G01*
X44960000Y-39244000D01*
X45200000Y-38914000D01*
X45440000Y-39244000D01*
G37*
%TO.C,C3*%
X35338164Y-29948500D02*
X35553836Y-29948500D01*
X35338164Y-30668500D02*
X35553836Y-30668500D01*
%TO.C,R9*%
X33643641Y-17520000D02*
X33336359Y-17520000D01*
X33643641Y-18280000D02*
X33336359Y-18280000D01*
%TO.C,R3*%
X7363641Y-35820000D02*
X7056359Y-35820000D01*
X7363641Y-36580000D02*
X7056359Y-36580000D01*
%TO.C,C2*%
X35338164Y-27448500D02*
X35553836Y-27448500D01*
X35338164Y-28168500D02*
X35553836Y-28168500D01*
%TO.C,R7*%
X36095000Y-37195359D02*
X36095000Y-37502641D01*
X36855000Y-37195359D02*
X36855000Y-37502641D01*
%TO.C,C8*%
X33597836Y-20040000D02*
X33382164Y-20040000D01*
X33597836Y-20760000D02*
X33382164Y-20760000D01*
%TO.C,R5*%
X18643641Y-6870000D02*
X18336359Y-6870000D01*
X18643641Y-7630000D02*
X18336359Y-7630000D01*
D12*
%TO.C,IC2*%
X31624000Y-46070000D02*
X31624000Y-50070000D01*
X31624000Y-58070000D02*
X31624000Y-54070000D01*
X35724000Y-58070000D02*
X31624000Y-58070000D01*
X36124000Y-46070000D02*
X31624000Y-46070000D01*
D16*
%TO.C,D4*%
X26100000Y-15650000D02*
X23440000Y-15650000D01*
X26100000Y-17350000D02*
X23440000Y-17350000D01*
X26100000Y-17350000D02*
X26100000Y-15650000D01*
%TO.C,R12*%
X53596359Y-15620000D02*
X53903641Y-15620000D01*
X53596359Y-16380000D02*
X53903641Y-16380000D01*
D17*
%TO.C,J3*%
X913000Y-40575000D02*
X12613000Y-40575000D01*
X913000Y-52525000D02*
X913000Y-40575000D01*
X12613000Y-52525000D02*
X913000Y-52525000D01*
X12613000Y-52525000D02*
X12613000Y-40575000D01*
D16*
%TO.C,R14*%
X58012000Y-33738359D02*
X58012000Y-34045641D01*
X58772000Y-33738359D02*
X58772000Y-34045641D01*
%TO.C,C14*%
X43107836Y-640000D02*
X42892164Y-640000D01*
X43107836Y-1360000D02*
X42892164Y-1360000D01*
%TO.C,C6*%
X71192164Y-45340000D02*
X71407836Y-45340000D01*
X71192164Y-46060000D02*
X71407836Y-46060000D01*
%TO.C,C1*%
X28161252Y-4065000D02*
X27638748Y-4065000D01*
X28161252Y-5535000D02*
X27638748Y-5535000D01*
%TO.C,D1*%
X35417100Y-10580000D02*
X36717100Y-10580000D01*
X36717100Y-7460000D02*
X35447100Y-7460000D01*
X35067100Y-7510000D02*
X34827100Y-7180000D01*
X35307100Y-7180000D01*
X35067100Y-7510000D01*
G36*
X35067100Y-7510000D02*
G01*
X34827100Y-7180000D01*
X35307100Y-7180000D01*
X35067100Y-7510000D01*
G37*
%TO.C,R8*%
X34095000Y-37145359D02*
X34095000Y-37452641D01*
X34855000Y-37145359D02*
X34855000Y-37452641D01*
%TO.C,C12*%
X41140000Y-26802064D02*
X41140000Y-27017736D01*
X41860000Y-26802064D02*
X41860000Y-27017736D01*
%TO.C,Y1*%
X37225000Y-28234900D02*
X37225000Y-29584900D01*
X38975000Y-28234900D02*
X38975000Y-29584900D01*
%TO.C,R4*%
X9056359Y-35820000D02*
X9363641Y-35820000D01*
X9056359Y-36580000D02*
X9363641Y-36580000D01*
%TO.C,L1*%
X42390000Y-27572679D02*
X42390000Y-27247121D01*
X43410000Y-27572679D02*
X43410000Y-27247121D01*
%TO.C,C5*%
X43265580Y-41339000D02*
X42984420Y-41339000D01*
X43265580Y-42359000D02*
X42984420Y-42359000D01*
%TO.C,R1*%
X28153641Y-2820000D02*
X27846359Y-2820000D01*
X28153641Y-3580000D02*
X27846359Y-3580000D01*
%TO.C,D3*%
X17017500Y-4015000D02*
X17017500Y-5485000D01*
X17017500Y-5485000D02*
X19302500Y-5485000D01*
X19302500Y-4015000D02*
X17017500Y-4015000D01*
%TO.C,U3*%
X24638000Y-22691000D02*
X21335500Y-22691000D01*
X24638000Y-22691000D02*
X27940500Y-22691000D01*
X24638000Y-32681000D02*
X21335500Y-32681000D01*
X24638000Y-32681000D02*
X27940500Y-32681000D01*
X18878000Y-23876000D02*
X18408000Y-24216000D01*
X18408000Y-23536000D01*
X18878000Y-23876000D01*
G36*
X18878000Y-23876000D02*
G01*
X18408000Y-24216000D01*
X18408000Y-23536000D01*
X18878000Y-23876000D01*
G37*
%TD*%
%LPC*%
D18*
%TO.C,Q1*%
X49454000Y-29762000D03*
X49454000Y-35262000D03*
X52654000Y-35262000D03*
X52654000Y-29762000D03*
%TD*%
D19*
%TO.C,C13*%
X45900000Y-1000000D03*
X44940000Y-1000000D03*
%TD*%
D20*
%TO.C,H2*%
X76500000Y-3500000D03*
%TD*%
D21*
%TO.C,R10*%
X23980000Y-19000000D03*
X25000000Y-19000000D03*
%TD*%
%TO.C,R11*%
X53250000Y-19000000D03*
X54270000Y-19000000D03*
%TD*%
D20*
%TO.C,H3*%
X76500000Y-56500000D03*
%TD*%
D22*
%TO.C,R2*%
X30860100Y-9530000D03*
X30860100Y-8510000D03*
%TD*%
D23*
%TO.C,J1*%
X36351100Y-4765000D03*
X35701100Y-4765000D03*
X35051100Y-4765000D03*
X34401100Y-4765000D03*
X33751100Y-4765000D03*
D24*
X38426100Y-2105000D03*
D25*
X37538600Y-4680000D03*
D26*
X36201100Y-2105000D03*
D27*
X33501100Y-2105000D03*
D25*
X32563600Y-4680000D03*
D24*
X31676100Y-2105000D03*
%TD*%
D28*
%TO.C,C4*%
X36375000Y-41724000D03*
X36375000Y-40174000D03*
%TD*%
D29*
%TO.C,R6*%
X71810000Y-44700000D03*
X70790000Y-44700000D03*
%TD*%
D30*
%TO.C,U1*%
X38005000Y-24312500D03*
X38505000Y-24312500D03*
X39005000Y-24312500D03*
X39505000Y-24312500D03*
X40005000Y-24312500D03*
X40505000Y-24312500D03*
X41005000Y-24312500D03*
X41505000Y-24312500D03*
X42005000Y-24312500D03*
X42505000Y-24312500D03*
X43005000Y-24312500D03*
X43505000Y-24312500D03*
D31*
X44917500Y-22900000D03*
X44917500Y-22400000D03*
X44917500Y-21900000D03*
X44917500Y-21400000D03*
X44917500Y-20900000D03*
X44917500Y-20400000D03*
X44917500Y-19900000D03*
X44917500Y-19400000D03*
X44917500Y-18900000D03*
X44917500Y-18400000D03*
X44917500Y-17900000D03*
X44917500Y-17400000D03*
D30*
X43505000Y-15987500D03*
X43005000Y-15987500D03*
X42505000Y-15987500D03*
X42005000Y-15987500D03*
X41505000Y-15987500D03*
X41005000Y-15987500D03*
X40505000Y-15987500D03*
X40005000Y-15987500D03*
X39505000Y-15987500D03*
X39005000Y-15987500D03*
X38505000Y-15987500D03*
X38005000Y-15987500D03*
D31*
X36592500Y-17400000D03*
X36592500Y-17900000D03*
X36592500Y-18400000D03*
X36592500Y-18900000D03*
X36592500Y-19400000D03*
X36592500Y-19900000D03*
X36592500Y-20400000D03*
X36592500Y-20900000D03*
X36592500Y-21400000D03*
X36592500Y-21900000D03*
X36592500Y-22400000D03*
X36592500Y-22900000D03*
%TD*%
D32*
%TO.C,C7*%
X48420000Y-20400000D03*
X49380000Y-20400000D03*
%TD*%
D33*
%TO.C,R15*%
X62992000Y-33272000D03*
X62992000Y-34292000D03*
%TD*%
D32*
%TO.C,C9*%
X37920000Y-14100000D03*
X38880000Y-14100000D03*
%TD*%
D29*
%TO.C,R13*%
X40185000Y-41849000D03*
X39165000Y-41849000D03*
%TD*%
D34*
%TO.C,C11*%
X40500000Y-26429900D03*
X40500000Y-27389900D03*
%TD*%
D19*
%TO.C,C10*%
X49380000Y-21400000D03*
X48420000Y-21400000D03*
%TD*%
D35*
%TO.C,J8*%
X68677000Y-31836000D03*
X69677000Y-36236000D03*
X73677000Y-36236000D03*
X76677000Y-36236000D03*
%TD*%
D36*
%TO.C,D2*%
X32800000Y-7950000D03*
X32800000Y-10050000D03*
%TD*%
D37*
%TO.C,U2*%
X45822100Y-2955200D03*
D38*
X44322100Y-3042700D03*
D37*
X42822100Y-2955200D03*
%TD*%
D39*
%TO.C,J7*%
X74962000Y-45800000D03*
X74962000Y-44800000D03*
X74962000Y-43800000D03*
X74962000Y-42800000D03*
D40*
X78837000Y-47100000D03*
X78837000Y-41500000D03*
%TD*%
D41*
%TO.C,IC1*%
X45125000Y-38354000D03*
X45125000Y-37084000D03*
X45125000Y-35814000D03*
X45125000Y-34544000D03*
X39875000Y-34544000D03*
X39875000Y-35814000D03*
X39875000Y-37084000D03*
X39875000Y-38354000D03*
%TD*%
D32*
%TO.C,C3*%
X34966000Y-30308500D03*
X35926000Y-30308500D03*
%TD*%
D29*
%TO.C,R9*%
X34000000Y-17900000D03*
X32980000Y-17900000D03*
%TD*%
%TO.C,R3*%
X7720000Y-36200000D03*
X6700000Y-36200000D03*
%TD*%
D32*
%TO.C,C2*%
X34966000Y-27808500D03*
X35926000Y-27808500D03*
%TD*%
D33*
%TO.C,R7*%
X36475000Y-36839000D03*
X36475000Y-37859000D03*
%TD*%
D19*
%TO.C,C8*%
X33970000Y-20400000D03*
X33010000Y-20400000D03*
%TD*%
D29*
%TO.C,R5*%
X19000000Y-7250000D03*
X17980000Y-7250000D03*
%TD*%
D20*
%TO.C,H1*%
X3500000Y-3500000D03*
%TD*%
D42*
%TO.C,IC2*%
X43224000Y-52070000D03*
X35724000Y-52070000D03*
D43*
X47624000Y-52070000D03*
D44*
X31624000Y-52070000D03*
%TD*%
D45*
%TO.C,D4*%
X25540000Y-16500000D03*
X23440000Y-16500000D03*
%TD*%
D21*
%TO.C,R12*%
X53240000Y-16000000D03*
X54260000Y-16000000D03*
%TD*%
D46*
%TO.C,J3*%
X1375000Y-49750000D03*
X1375000Y-48650000D03*
X1375000Y-47550000D03*
X1375000Y-46450000D03*
X1375000Y-45350000D03*
X1375000Y-44250000D03*
X1375000Y-43150000D03*
X1375000Y-42050000D03*
D47*
X12175000Y-52200000D03*
D48*
X10600000Y-40948000D03*
D49*
X1503000Y-40850000D03*
D50*
X1503000Y-52200000D03*
D51*
X9750000Y-52525000D03*
D52*
X9100000Y-40575000D03*
%TD*%
D33*
%TO.C,R14*%
X58392000Y-33382000D03*
X58392000Y-34402000D03*
%TD*%
D19*
%TO.C,C14*%
X43480000Y-1000000D03*
X42520000Y-1000000D03*
%TD*%
D32*
%TO.C,C6*%
X70820000Y-45700000D03*
X71780000Y-45700000D03*
%TD*%
D53*
%TO.C,C1*%
X28850000Y-4800000D03*
X26950000Y-4800000D03*
%TD*%
D54*
%TO.C,JMIDIOUT1*%
X67520000Y-26500000D03*
X67520000Y-19000000D03*
X67520000Y-11500000D03*
X65020000Y-24000000D03*
X65020000Y-14000000D03*
X77420000Y-14000000D03*
X77420000Y-16500000D03*
X77420000Y-21500000D03*
X77420000Y-24000000D03*
%TD*%
D55*
%TO.C,D1*%
X35067100Y-8270000D03*
D56*
X35067100Y-9970000D03*
X37067100Y-9970000D03*
X37067100Y-8070000D03*
%TD*%
D54*
%TO.C,JMIDIIN1*%
X12400000Y-11500000D03*
X12400000Y-19000000D03*
X12400000Y-26500000D03*
X14900000Y-14000000D03*
X14900000Y-24000000D03*
X2500000Y-24000000D03*
X2500000Y-21500000D03*
X2500000Y-16500000D03*
X2500000Y-14000000D03*
%TD*%
D33*
%TO.C,R8*%
X34475000Y-36789000D03*
X34475000Y-37809000D03*
%TD*%
D34*
%TO.C,C12*%
X41500000Y-26429900D03*
X41500000Y-27389900D03*
%TD*%
D57*
%TO.C,Y1*%
X38100000Y-30159900D03*
X38100000Y-27659900D03*
%TD*%
D21*
%TO.C,R4*%
X8700000Y-36200000D03*
X9720000Y-36200000D03*
%TD*%
D20*
%TO.C,H4*%
X3500000Y-56500000D03*
%TD*%
D58*
%TO.C,L1*%
X42900000Y-28197400D03*
X42900000Y-26622400D03*
%TD*%
D59*
%TO.C,C5*%
X43900000Y-41849000D03*
X42350000Y-41849000D03*
%TD*%
D29*
%TO.C,R1*%
X28510000Y-3200000D03*
X27490000Y-3200000D03*
%TD*%
D60*
%TO.C,D3*%
X17715000Y-4750000D03*
X19290000Y-4750000D03*
%TD*%
D61*
%TO.C,U3*%
X20288000Y-23876000D03*
X20288000Y-26416000D03*
X20288000Y-28956000D03*
X20288000Y-31496000D03*
X28988000Y-31496000D03*
X28988000Y-28956000D03*
X28988000Y-26416000D03*
X28988000Y-23876000D03*
%TD*%
D62*
%TO.C,J6*%
X58460000Y-27740000D03*
X58460000Y-25200000D03*
X58460000Y-22660000D03*
X58460000Y-20120000D03*
X58460000Y-17580000D03*
X58460000Y-15040000D03*
X58460000Y-12500000D03*
X58460000Y-9960000D03*
%TD*%
D63*
%TO.C,SW1*%
X29500000Y-42400000D03*
D64*
X29500000Y-47400000D03*
X29500000Y-44900000D03*
D65*
X22000000Y-50500000D03*
X22000000Y-39300000D03*
D64*
X15000000Y-47400000D03*
X15000000Y-42400000D03*
%TD*%
D63*
%TO.C,SW2*%
X66000000Y-42500000D03*
D64*
X66000000Y-47500000D03*
X66000000Y-45000000D03*
D65*
X58500000Y-50600000D03*
X58500000Y-39400000D03*
D64*
X51500000Y-47500000D03*
X51500000Y-42500000D03*
%TD*%
%LPD*%
M02*
