M48
; DRILL file {KiCad 8.0.4} date 2024-10-12T17:49:04+0100
; FORMAT={-:-/ absolute / inch / decimal}
; #@! TF.CreationDate,2024-10-12T17:49:04+01:00
; #@! TF.GenerationSoftware,Kicad,Pcbnew,8.0.4
; #@! TF.FileFunction,Plated,1,4,PTH
FMAT,2
INCH
; #@! TA.AperFunction,Plated,PTH,ViaDrill
T1C0.0079
; #@! TA.AperFunction,Plated,PTH,ComponentDrill
T2C0.0276
; #@! TA.AperFunction,Plated,PTH,ComponentDrill
T3C0.0315
; #@! TA.AperFunction,Plated,PTH,ComponentDrill
T4C0.0394
; #@! TA.AperFunction,Plated,PTH,ComponentDrill
T5C0.0400
; #@! TA.AperFunction,Plated,PTH,ComponentDrill
T6C0.0591
%
G90
G05
T1
X0.0322Y-1.7795
X0.0323Y-1.9093
X0.0323Y-1.6664
X0.045Y-1.62
X0.0465Y-1.8326
X0.06Y-2.09
X0.065Y-2.045
X0.11Y-1.625
X0.145Y-0.43
X0.1633Y-1.7938
X0.22Y-1.625
X0.325Y-1.315
X0.4537Y-2.0551
X0.48Y-0.125
X0.51Y-1.535
X0.56Y-2.245
X0.62Y-0.64
X0.64Y-1.03
X0.65Y-0.19
X0.67Y-0.6
X0.67Y-1.0
X0.67Y-1.06
X0.675Y-0.365
X0.675Y-1.225
X0.69Y-1.16
X0.7Y-0.14
X0.7Y-1.03
X0.715Y-1.7
X0.72Y-1.535
X0.73Y-1.05
X0.73Y-1.245
X0.735Y-0.365
X0.74Y-0.59
X0.775Y-0.99
X0.775Y-1.695
X0.785Y-1.19
X0.785Y-1.46
X0.79Y-1.09
X0.82Y-0.83
X0.835Y-1.735
X0.865Y-0.795
X0.87Y-0.97
X0.87Y-1.01
X0.875Y-1.465
X0.9Y-0.765
X0.9Y-0.85
X0.945Y-0.8
X0.955Y-0.39
X0.955Y-0.45
X0.96Y-0.585
X0.96Y-0.705
X0.995Y-0.195
X1.005Y-0.97
X1.01Y-1.015
X1.015Y-0.87
X1.04Y-0.765
X1.04Y-0.975
X1.04Y-1.015
X1.06Y-0.665
X1.06Y-0.72
X1.065Y-0.39
X1.065Y-0.45
X1.065Y-0.59
X1.065Y-0.845
X1.07Y-0.915
X1.085Y-0.085
X1.13Y-1.31
X1.145Y-0.77
X1.1472Y-0.7451
X1.17Y-0.38
X1.175Y-0.565
X1.18Y-0.115
X1.18Y-0.85
X1.1881Y-1.0932
X1.195Y-0.425
X1.195Y-0.68
X1.205Y-0.72
X1.225Y-0.88
X1.225Y-0.97
X1.2335Y-0.3535
X1.235Y-0.64
X1.24Y-1.015
X1.245Y-1.315
X1.25Y-0.795
X1.2593Y-0.7457
X1.285Y-0.66
X1.285Y-0.94
X1.29Y-0.73
X1.29Y-1.44
X1.295Y-1.57
X1.295Y-1.615
X1.3Y-0.765
X1.3Y-1.52
X1.309Y-0.4133
X1.31Y-0.255
X1.315Y-0.89
X1.315Y-1.115
X1.325Y-0.535
X1.325Y-1.015
X1.3303Y-0.7296
X1.34Y-1.57
X1.34Y-1.615
X1.345Y-0.295
X1.345Y-1.37
X1.355Y-0.97
X1.36Y-0.07
X1.365Y-0.125
X1.37Y-0.77
X1.38Y-0.227
X1.38Y-0.725
X1.39Y-0.655
X1.3971Y-0.8616
X1.3997Y-0.8935
X1.4Y-0.9135
X1.4Y-1.415
X1.405Y-1.315
X1.405Y-1.52
X1.4071Y-0.3925
X1.42Y-1.275
X1.43Y-0.26
X1.435Y-0.935
X1.435Y-1.14
X1.436Y-1.5445
X1.44Y-1.01
X1.445Y-0.6
X1.46Y-0.355
X1.469Y-0.4273
X1.475Y-1.52
X1.48Y-1.395
X1.482Y-0.7432
X1.482Y-0.8837
X1.485Y-0.255
X1.485Y-1.64
X1.5Y-1.125
X1.51Y-0.13
X1.51Y-0.85
X1.51Y-1.315
X1.515Y-0.485
X1.515Y-0.72
X1.515Y-1.04
X1.515Y-1.44
X1.515Y-1.575
X1.5179Y-0.588
X1.54Y-0.885
X1.5535Y-0.9982
X1.555Y-1.165
X1.5553Y-0.5884
X1.56Y-0.795
X1.56Y-1.045
X1.56Y-1.23
X1.56Y-2.29
X1.565Y-0.525
X1.565Y-0.86
X1.57Y-0.32
X1.57Y-0.72
X1.573Y-0.6708
X1.5765Y-1.4362
X1.59Y-0.555
X1.59Y-0.795
X1.595Y-1.13
X1.595Y-1.305
X1.6Y-1.2
X1.6Y-1.58
X1.605Y-0.205
X1.605Y-0.77
X1.6138Y-0.588
X1.62Y-0.795
X1.62Y-1.01
X1.62Y-1.62
X1.625Y-0.555
X1.625Y-1.495
X1.625Y-1.675
X1.63Y-0.255
X1.635Y-0.72
X1.635Y-0.91
X1.635Y-1.39
X1.6367Y-0.5885
X1.655Y-1.465
X1.6583Y-0.3962
X1.664Y-0.355
X1.68Y-0.23
X1.68Y-0.86
X1.6802Y-0.5744
X1.6814Y-0.1543
X1.69Y-0.725
X1.69Y-1.265
X1.6919Y-0.9985
X1.695Y-0.885
X1.695Y-1.195
X1.695Y-1.315
X1.695Y-1.435
X1.705Y-0.565
X1.71Y-0.075
X1.7121Y-0.9986
X1.715Y-0.865
X1.715Y-0.905
X1.715Y-1.52
X1.7199Y-0.6992
X1.721Y-1.1081
X1.725Y-1.6
X1.7273Y-0.7244
X1.7273Y-0.7499
X1.731Y-0.9455
X1.731Y-0.6529
X1.735Y-1.485
X1.745Y-0.035
X1.745Y-1.145
X1.75Y-1.01
X1.75Y-1.27
X1.775Y-0.07
X1.775Y-0.495
X1.78Y-0.625
X1.785Y-0.94
X1.785Y-1.045
X1.785Y-1.12
X1.8Y-0.36
X1.805Y-0.07
X1.805Y-0.23
X1.805Y-0.45
X1.805Y-1.215
X1.8095Y-0.7047
X1.8095Y-0.8004
X1.8096Y-0.8622
X1.82Y-0.565
X1.835Y-0.07
X1.835Y-1.085
X1.835Y-1.165
X1.84Y-0.78
X1.845Y-0.165
X1.845Y-0.895
X1.85Y-1.35
X1.855Y-1.405
X1.86Y-1.475
X1.865Y-0.49
X1.89Y-1.425
X1.9Y-1.265
X1.93Y-0.71
X1.935Y-0.36
X1.945Y-0.525
X1.95Y-0.415
X1.95Y-0.895
X1.95Y-1.83
X1.98Y-1.245
X1.98Y-1.325
X1.995Y-1.025
X2.0Y-0.62
X2.0Y-1.805
X2.005Y-1.415
X2.01Y-0.805
X2.045Y-1.265
X2.0467Y-0.4753
X2.05Y-0.5128
X2.055Y-0.57
X2.055Y-0.615
X2.06Y-1.33
X2.07Y-0.7
X2.09Y-0.54
X2.095Y-0.365
X2.095Y-0.43
X2.1Y-0.24
X2.11Y-0.92
X2.13Y-1.4
X2.14Y-1.16
X2.145Y-0.695
X2.17Y-0.625
X2.185Y-1.12
X2.195Y-0.36
X2.195Y-0.43
X2.2Y-0.57
X2.205Y-0.26
X2.215Y-1.09
X2.225Y-1.405
X2.225Y-1.47
X2.23Y-0.525
X2.235Y-0.78
X2.235Y-0.865
X2.24Y-1.065
X2.245Y-0.705
X2.25Y-0.57
X2.2525Y-1.4429
X2.29Y-1.41
X2.29Y-1.47
X2.33Y-1.265
X2.375Y-1.32
X2.385Y-1.405
X2.4Y-1.885
X2.425Y-1.45
X2.435Y-1.84
X2.44Y-1.39
X2.515Y-1.445
X2.565Y-1.19
X2.565Y-1.255
X2.68Y-1.715
X2.79Y-2.24
X2.8Y-1.515
X2.8014Y-1.7123
X2.81Y-0.13
X2.88Y-2.045
X2.965Y-1.185
T3
X2.935Y-1.67
X2.935Y-1.77
X2.935Y-1.87
T4
X0.5906Y-1.6693
X0.5906Y-1.8661
X1.1614Y-1.6693
X1.1614Y-1.7677
X1.1614Y-1.8661
X2.0276Y-1.6732
X2.0276Y-1.8701
X2.5984Y-1.6732
X2.5984Y-1.7717
X2.5984Y-1.8701
T5
X2.3016Y-0.3921
X2.3016Y-0.4921
X2.3016Y-0.5921
X2.3016Y-0.6921
X2.3016Y-0.7921
X2.3016Y-0.8921
X2.3016Y-0.9921
X2.3016Y-1.0921
T6
X0.0984Y-0.5512
X0.0984Y-0.6496
X0.0984Y-0.8465
X0.0984Y-0.9449
X0.4882Y-0.4528
X0.4882Y-0.748
X0.4882Y-1.0433
X0.5866Y-0.5512
X0.5866Y-0.9449
X2.5598Y-0.5512
X2.5598Y-0.9449
X2.6583Y-0.4528
X2.6583Y-0.748
X2.6583Y-1.0433
X3.048Y-0.5512
X3.048Y-0.6496
X3.048Y-0.8465
X3.048Y-0.9449
T2
G00X2.7196Y-1.2534
M15
G01X2.6881Y-1.2534
M16
G05
G00X2.7589Y-1.4266
M15
G01X2.7274Y-1.4266
M16
G05
G00X2.9164Y-1.4266
M15
G01X2.8849Y-1.4266
M16
G05
G00X3.0345Y-1.4266
M15
G01X3.003Y-1.4266
M16
G05
T6
G00X0.8917Y-1.5472
M15
G01X0.8406Y-1.5472
M16
G05
G00X0.8917Y-1.9882
M15
G01X0.8406Y-1.9882
M16
G05
G00X2.3287Y-1.5512
M15
G01X2.2776Y-1.5512
M16
G05
G00X2.3287Y-1.9921
M15
G01X2.2776Y-1.9921
M16
G05
M30
