%TF.GenerationSoftware,KiCad,Pcbnew,8.0.4*%
%TF.CreationDate,2024-10-12T17:49:04+01:00*%
%TF.ProjectId,MKRZero_V5.0,4d4b525a-6572-46f5-9f56-352e302e6b69,rev?*%
%TF.SameCoordinates,Original*%
%TF.FileFunction,Copper,L2,Inr*%
%TF.FilePolarity,Positive*%
%FSLAX46Y46*%
G04 Gerber Fmt 4.6, Leading zero omitted, Abs format (unit mm)*
G04 Created by KiCad (PCBNEW 8.0.4) date 2024-10-12 17:49:04*
%MOMM*%
%LPD*%
G01*
G04 APERTURE LIST*
%TA.AperFunction,ComponentPad*%
%ADD10C,1.600000*%
%TD*%
%TA.AperFunction,ComponentPad*%
%ADD11O,1.800000X1.800000*%
%TD*%
%TA.AperFunction,ComponentPad*%
%ADD12C,1.800000*%
%TD*%
%TA.AperFunction,ComponentPad*%
%ADD13C,2.500000*%
%TD*%
%TA.AperFunction,ComponentPad*%
%ADD14C,1.879600*%
%TD*%
%TA.AperFunction,ComponentPad*%
%ADD15R,2.000000X2.000000*%
%TD*%
%TA.AperFunction,ComponentPad*%
%ADD16C,2.000000*%
%TD*%
%TA.AperFunction,ComponentPad*%
%ADD17R,3.200000X2.000000*%
%TD*%
%TA.AperFunction,ViaPad*%
%ADD18C,0.400000*%
%TD*%
%TA.AperFunction,Conductor*%
%ADD19C,0.100000*%
%TD*%
%TA.AperFunction,Conductor*%
%ADD20C,0.250000*%
%TD*%
G04 APERTURE END LIST*
D10*
%TO.N,GND*%
%TO.C,J8*%
X68677000Y-31836000D03*
%TO.N,/PA05_AIN5*%
X69677000Y-36236000D03*
%TO.N,/PA06_AIN6*%
X73677000Y-36236000D03*
%TO.N,unconnected-(J8-Ring2-Pad4)*%
X76677000Y-36236000D03*
%TD*%
D11*
%TO.N,+5V*%
%TO.C,J7*%
X74549000Y-42418000D03*
%TO.N,/PA22_TC4-W0*%
X74549000Y-44958000D03*
D12*
%TO.N,GND*%
X74549000Y-47498000D03*
%TD*%
D13*
%TO.N,unconnected-(JMIDIOUT1-Pad1)*%
%TO.C,JMIDIOUT1*%
X67520000Y-26500000D03*
%TO.N,unconnected-(JMIDIOUT1-Pad2)*%
X67520000Y-19000000D03*
%TO.N,unconnected-(JMIDIOUT1-Pad3)*%
X67520000Y-11500000D03*
%TO.N,Net-(JMIDIOUT1-Pad4)*%
X65020000Y-24000000D03*
%TO.N,Net-(JMIDIOUT1-Pad5)*%
X65020000Y-14000000D03*
%TO.N,N/C*%
X77420000Y-14000000D03*
X77420000Y-16500000D03*
X77420000Y-21500000D03*
X77420000Y-24000000D03*
%TD*%
%TO.N,unconnected-(JMIDIIN1-Pad1)*%
%TO.C,JMIDIIN1*%
X12400000Y-11500000D03*
%TO.N,unconnected-(JMIDIIN1-Pad2)*%
X12400000Y-19000000D03*
%TO.N,unconnected-(JMIDIIN1-Pad3)*%
X12400000Y-26500000D03*
%TO.N,Net-(D4-A)*%
X14900000Y-14000000D03*
%TO.N,Net-(JMIDIIN1-Pad5)*%
X14900000Y-24000000D03*
%TO.N,N/C*%
X2500000Y-24000000D03*
X2500000Y-21500000D03*
X2500000Y-16500000D03*
X2500000Y-14000000D03*
%TD*%
D14*
%TO.N,GND*%
%TO.C,J6*%
X58460000Y-27740000D03*
%TO.N,+5V*%
X58460000Y-25200000D03*
%TO.N,/PA17_S1_SCK*%
X58460000Y-22660000D03*
%TO.N,/PA16_S1_MOSI*%
X58460000Y-20120000D03*
%TO.N,/PA23_TC4-W1*%
X58460000Y-17580000D03*
%TO.N,/PA10_TCC0-W2*%
X58460000Y-15040000D03*
%TO.N,/PA20_TCC0-W6*%
X58460000Y-12500000D03*
%TO.N,+5V*%
X58460000Y-9960000D03*
%TD*%
D15*
%TO.N,/PA21_TCC0-W7*%
%TO.C,SW1*%
X29500000Y-42400000D03*
D16*
%TO.N,/PA04_AIN4*%
X29500000Y-47400000D03*
%TO.N,GND*%
X29500000Y-44900000D03*
D17*
X22000000Y-50500000D03*
X22000000Y-39300000D03*
D16*
%TO.N,/PA11_TCC0-W3*%
X15000000Y-47400000D03*
%TO.N,GND*%
X15000000Y-42400000D03*
%TD*%
D15*
%TO.N,/PB10_TCC0-W4*%
%TO.C,SW2*%
X66000000Y-42500000D03*
D16*
%TO.N,/PA02_AIN0*%
X66000000Y-47500000D03*
%TO.N,GND*%
X66000000Y-45000000D03*
D17*
X58500000Y-50600000D03*
X58500000Y-39400000D03*
D16*
%TO.N,/PB02_AIN10*%
X51500000Y-47500000D03*
%TO.N,GND*%
X51500000Y-42500000D03*
%TD*%
D18*
%TO.N,GND*%
X39624000Y-58166000D03*
X3683000Y-10922000D03*
X71374000Y-3302000D03*
X75311000Y-30099000D03*
X65151000Y-30226000D03*
X65151000Y-31877000D03*
X71120000Y-38481000D03*
X68072000Y-43561000D03*
X73152000Y-51943000D03*
X70866000Y-56896000D03*
X14224000Y-57023000D03*
X34163000Y-34798000D03*
X32766000Y-36576000D03*
X35560000Y-35941000D03*
X41529000Y-35306000D03*
X44450000Y-25654000D03*
X42672000Y-21844000D03*
X43561000Y-22987000D03*
X43561000Y-21971000D03*
X39751000Y-21844000D03*
X41148000Y-20193000D03*
X40386000Y-20193000D03*
X39624000Y-20193000D03*
X41529000Y-18288000D03*
X38481000Y-18288000D03*
X45085000Y-12573000D03*
X45847000Y-11430000D03*
X45720000Y-9144000D03*
X39878000Y-8128000D03*
X33655000Y-13589000D03*
X18288000Y-38989000D03*
X12954000Y-38989000D03*
X8255000Y-33401000D03*
X17018000Y-15240000D03*
X15748000Y-16256000D03*
X18796000Y-14986000D03*
X17145000Y-9271000D03*
X18669000Y-9271000D03*
X12192000Y-3175000D03*
X17780000Y-3556000D03*
X16510000Y-4826000D03*
X27559000Y-2159000D03*
X25273000Y-4953000D03*
X55753000Y-10922000D03*
X53213000Y-10922000D03*
X53213000Y-9271000D03*
X55753000Y-9144000D03*
X56007000Y-6604000D03*
X53340000Y-6096000D03*
X40767000Y-5207000D03*
X38354000Y-3302000D03*
X29972000Y-2921000D03*
X34671000Y-3175000D03*
X34544000Y-1778000D03*
X29845000Y-14351000D03*
X27051000Y-14986000D03*
X24384000Y-14859000D03*
X42926000Y-18415000D03*
X53594000Y-23368000D03*
X50673000Y-26035000D03*
X52324000Y-33782000D03*
X54102000Y-35560000D03*
X50927000Y-35941000D03*
X47244000Y-37465000D03*
X48006000Y-36195000D03*
X58166000Y-37338000D03*
X56515000Y-37338000D03*
X56515000Y-35687000D03*
X58166000Y-35814000D03*
X60579000Y-35687000D03*
X61595000Y-36830000D03*
X63881000Y-36703000D03*
X61976000Y-35306000D03*
X54356000Y-29464000D03*
X55499000Y-28448000D03*
X56261000Y-27686000D03*
X56896000Y-27051000D03*
X49403000Y-13335000D03*
X49149000Y-9144000D03*
X49530000Y-10541000D03*
X44323000Y-889000D03*
X46609000Y-1778000D03*
X45847000Y-1778000D03*
X45085000Y-1778000D03*
X43434000Y-1905000D03*
X46863000Y-4191000D03*
X45847000Y-5842000D03*
%TO.N,+3V3*%
X42672000Y-5842000D03*
%TO.N,GND*%
X41402000Y-6477000D03*
X37719000Y-6477000D03*
X37084000Y-9017000D03*
X36322000Y-6604000D03*
X34163000Y-7493000D03*
X33274000Y-6477000D03*
X41148000Y-41148000D03*
X41275000Y-42545000D03*
X43561000Y-38608000D03*
X42037000Y-37211000D03*
X41275000Y-37973000D03*
X34036000Y-41021000D03*
X34036000Y-39878000D03*
X32893000Y-39878000D03*
X32893000Y-41021000D03*
X38354000Y-33401000D03*
X35687000Y-33401000D03*
X31623000Y-33401000D03*
X28702000Y-33274000D03*
X17780000Y-26162000D03*
X17018000Y-26924000D03*
X16256000Y-26162000D03*
X17018000Y-25400000D03*
X18542000Y-26670000D03*
X17526000Y-29464000D03*
X17145000Y-31115000D03*
X18542000Y-31623000D03*
X19939000Y-30226000D03*
X20066000Y-27686000D03*
X26416000Y-25781000D03*
X25527000Y-24638000D03*
X25654000Y-25781000D03*
X22098000Y-25654000D03*
X22098000Y-24638000D03*
X19685000Y-25146000D03*
X24384000Y-17907000D03*
X26924000Y-16891000D03*
X26924000Y-18288000D03*
X26416000Y-19431000D03*
X29083000Y-19558000D03*
X32766000Y-18542000D03*
X35052000Y-18415000D03*
X36576000Y-25654000D03*
X36449000Y-23749000D03*
X39878000Y-18288000D03*
X31369000Y-16256000D03*
X30353000Y-17272000D03*
X30607000Y-18288000D03*
X29718000Y-9652000D03*
X30353000Y-10795000D03*
X27051000Y-9906000D03*
X27051000Y-11430000D03*
X24257000Y-9906000D03*
X24257000Y-11430000D03*
X31496000Y-25781000D03*
X33655000Y-25781000D03*
X34417000Y-24638000D03*
X33401000Y-22606000D03*
X31115000Y-24638000D03*
X29972000Y-21590000D03*
X25781000Y-22098000D03*
X26416000Y-24765000D03*
X27178000Y-23241000D03*
X27051000Y-21463000D03*
X22860000Y-19431000D03*
X24003000Y-20320000D03*
X20828000Y-21082000D03*
X21971000Y-20193000D03*
X22860000Y-21590000D03*
X5588000Y-41275000D03*
X2794000Y-41275000D03*
X1143000Y-41148000D03*
X1651000Y-51943000D03*
X1524000Y-53086000D03*
X21209000Y-44069000D03*
X19685000Y-43053000D03*
X18161000Y-43180000D03*
X22225000Y-37211000D03*
X19939000Y-37084000D03*
X33020000Y-38608000D03*
X49530000Y-46482000D03*
X50800000Y-45847000D03*
X60960000Y-47879000D03*
X61849000Y-46736000D03*
X43815000Y-40640000D03*
X37719000Y-41656000D03*
X40640000Y-40132000D03*
X38481000Y-40005000D03*
X37465000Y-38608000D03*
X35687000Y-38608000D03*
X40513000Y-33147000D03*
X43053000Y-33401000D03*
X43053000Y-36449000D03*
X44069000Y-37719000D03*
X47117000Y-35687000D03*
X46609000Y-27559000D03*
X46609000Y-29591000D03*
X45847000Y-30861000D03*
X44450000Y-32258000D03*
X43053000Y-30353000D03*
X44323000Y-29083000D03*
X45339000Y-28448000D03*
X45339000Y-26543000D03*
X41529000Y-23114000D03*
X39116000Y-22479000D03*
X47371000Y-12446000D03*
X43307000Y-14351000D03*
X41275000Y-14097000D03*
X38481000Y-12319000D03*
X39751000Y-13335000D03*
X40386000Y-14097000D03*
X33401000Y-28321000D03*
X36449000Y-28956000D03*
X36068000Y-32385000D03*
X37592000Y-35433000D03*
X38481000Y-36576000D03*
X45339000Y-23876000D03*
X42926000Y-32131000D03*
X46990000Y-34290000D03*
X51943000Y-32131000D03*
X48260000Y-32131000D03*
X50292000Y-31623000D03*
X50292000Y-33655000D03*
X59182000Y-32131000D03*
X60325000Y-33528000D03*
X56769000Y-21971000D03*
X56769000Y-19812000D03*
X57023000Y-17907000D03*
X52578000Y-17780000D03*
X54483000Y-17653000D03*
X55118000Y-15875000D03*
X57150000Y-14478000D03*
X56642000Y-13335000D03*
X55880000Y-14478000D03*
X53086000Y-13716000D03*
X52197000Y-14478000D03*
X52197000Y-15621000D03*
X50800000Y-15748000D03*
X46228000Y-14351000D03*
X45212000Y-15875000D03*
X46736000Y-19812000D03*
X49022000Y-18034000D03*
X51054000Y-20447000D03*
X49530000Y-22733000D03*
X46863000Y-22733000D03*
X40513000Y-28702000D03*
X40640000Y-30480000D03*
X39624000Y-31242000D03*
X39497000Y-29591000D03*
X38100000Y-28575000D03*
X38481000Y-26416000D03*
X41148000Y-25654000D03*
X39624000Y-26543000D03*
X38354000Y-21590000D03*
X43053000Y-22479000D03*
X40767000Y-19558000D03*
X31115000Y-22352000D03*
X32639000Y-23876000D03*
X33020000Y-19431000D03*
X31750000Y-20193000D03*
X34798000Y-19558000D03*
X35306000Y-16637000D03*
X36703000Y-15240000D03*
X32639000Y-16764000D03*
%TO.N,/PB03_AIN11*%
X42265700Y-9017000D03*
X35552900Y-22695600D03*
%TO.N,/PA21_TCC0-W7*%
X40990200Y-14935200D03*
%TO.N,/PB02_AIN10*%
X37642700Y-22446300D03*
%TO.N,/PA07_AIN7*%
X40044100Y-36480700D03*
X43966500Y-24016400D03*
%TO.N,/PA11_TCC0-W3*%
X35559900Y-23202000D03*
%TO.N,/PA02_AIN0*%
X39459600Y-25355300D03*
%TO.N,/PA23_TC4-W1*%
X39954200Y-17037600D03*
%TO.N,/PA05_AIN5*%
X42975000Y-25361300D03*
%TO.N,/PA06_AIN6*%
X43487600Y-25363400D03*
%TO.N,/PA10_TCC0-W2*%
X45963300Y-21900000D03*
%TO.N,/PB10_TCC0-W4*%
X45961600Y-20331200D03*
%TO.N,/PB23_S5_RX*%
X30177100Y-27766900D03*
X33788600Y-18531800D03*
%TO.N,/RESETN*%
X31329800Y-8979700D03*
X31986800Y-18940600D03*
%TO.N,/PA22_TC4-W0*%
X43968200Y-16582600D03*
%TO.N,/PA16_S1_MOSI*%
X52070700Y-13025200D03*
%TO.N,/PA17_S1_SCK*%
X51986600Y-12072600D03*
%TO.N,/PA20_TCC0-W6*%
X41572600Y-14947000D03*
%TO.N,/PA15_S2_MISO*%
X821600Y-42327600D03*
X43685300Y-17759700D03*
%TO.N,/PA27_CD*%
X11524200Y-52200000D03*
X37642700Y-18878200D03*
%TO.N,/PA14_S2_NSS*%
X45961100Y-17900000D03*
X820600Y-48497100D03*
X71154500Y-43491500D03*
%TO.N,/PA12_S2_MOSI*%
X1180300Y-46549100D03*
X43874300Y-19048700D03*
%TO.N,/PA13_S2_SCK*%
X817700Y-45200000D03*
X43874200Y-18400000D03*
%TO.N,/PA31_SWDIO*%
X29137900Y-18924800D03*
X35487100Y-21884900D03*
%TO.N,/PA18_USB_ID*%
X33248500Y-10498500D03*
X42678100Y-14588600D03*
%TO.N,/USB_N*%
X37311900Y-10852900D03*
X39505000Y-14946400D03*
%TO.N,/USB_P*%
X35739100Y-9970000D03*
X35051100Y-5766400D03*
X38555600Y-14934700D03*
%TO.N,+3V3*%
X57213900Y-36648400D03*
X42121200Y-10064600D03*
X43712600Y-28145200D03*
X42706900Y-3918700D03*
X36475000Y-39230500D03*
X4148900Y-45562600D03*
%TD*%
D19*
%TO.N,/PA22_TC4-W0*%
X73073100Y-43906300D02*
X73497300Y-43906300D01*
X73497300Y-43906300D02*
X74549000Y-44958000D01*
D20*
%TO.N,+3V3*%
X42706900Y-5807100D02*
X42706900Y-3918700D01*
X42672000Y-5842000D02*
X42706900Y-5807100D01*
X42706900Y-5876900D02*
X42672000Y-5842000D01*
D19*
%TO.N,/PB03_AIN11*%
X35838800Y-22409700D02*
X35552900Y-22695600D01*
X35838800Y-18169600D02*
X35838800Y-22409700D01*
X39100700Y-14907700D02*
X35838800Y-18169600D01*
X39100700Y-12182000D02*
X39100700Y-14907700D01*
X42265700Y-9017000D02*
X39100700Y-12182000D01*
%TO.N,/PA21_TCC0-W7*%
X29500000Y-42400000D02*
X29500000Y-41248300D01*
X36989800Y-33758500D02*
X29500000Y-41248300D01*
X36989800Y-22016300D02*
X36989800Y-33758500D01*
X40990200Y-18015900D02*
X36989800Y-22016300D01*
X40990200Y-14935200D02*
X40990200Y-18015900D01*
%TO.N,/PB02_AIN10*%
X37642700Y-33581900D02*
X37642700Y-22446300D01*
X51500000Y-47439200D02*
X37642700Y-33581900D01*
X51500000Y-47500000D02*
X51500000Y-47439200D01*
%TO.N,/PA11_TCC0-W3*%
X35248700Y-23202000D02*
X35559900Y-23202000D01*
X18849800Y-39600900D02*
X35248700Y-23202000D01*
X18849800Y-43550200D02*
X18849800Y-39600900D01*
X15000000Y-47400000D02*
X18849800Y-43550200D01*
%TO.N,/PA02_AIN0*%
X61604300Y-47500000D02*
X39459600Y-25355300D01*
X66000000Y-47500000D02*
X61604300Y-47500000D01*
%TO.N,/PB10_TCC0-W4*%
X66000000Y-40369600D02*
X45961600Y-20331200D01*
X66000000Y-42500000D02*
X66000000Y-40369600D01*
%TO.N,/PB23_S5_RX*%
X33788600Y-24155400D02*
X30177100Y-27766900D01*
X33788600Y-18531800D02*
X33788600Y-24155400D01*
%TO.N,/RESETN*%
X31986800Y-9636700D02*
X31329800Y-8979700D01*
X31986800Y-18940600D02*
X31986800Y-9636700D01*
%TO.N,/PA22_TC4-W0*%
X45749400Y-16582600D02*
X43968200Y-16582600D01*
X73073100Y-43906300D02*
X45749400Y-16582600D01*
%TO.N,/PA16_S1_MOSI*%
X52070700Y-13730700D02*
X52070700Y-13025200D01*
X58460000Y-20120000D02*
X52070700Y-13730700D01*
%TO.N,/PA17_S1_SCK*%
X51718900Y-12340300D02*
X51986600Y-12072600D01*
X51718900Y-15918900D02*
X51718900Y-12340300D01*
X58460000Y-22660000D02*
X51718900Y-15918900D01*
%TO.N,/PA27_CD*%
X36040500Y-20480400D02*
X37642700Y-18878200D01*
X36040500Y-28147800D02*
X36040500Y-20480400D01*
X11988300Y-52200000D02*
X36040500Y-28147800D01*
X11524200Y-52200000D02*
X11988300Y-52200000D01*
%TO.N,/PA14_S2_NSS*%
X71154500Y-43093400D02*
X45961100Y-17900000D01*
X71154500Y-43491500D02*
X71154500Y-43093400D01*
%TO.N,/USB_P*%
X35051100Y-9282000D02*
X35739100Y-9970000D01*
X35051100Y-5766400D02*
X35051100Y-9282000D01*
X35739100Y-12118200D02*
X38555600Y-14934700D01*
X35739100Y-9970000D02*
X35739100Y-12118200D01*
D20*
%TO.N,+3V3*%
X42706900Y-9478900D02*
X42706900Y-5876900D01*
X42121200Y-10064600D02*
X42706900Y-9478900D01*
X42121200Y-26553800D02*
X43712600Y-28145200D01*
X42121200Y-10064600D02*
X42121200Y-26553800D01*
%TO.N,+5V*%
X59663100Y-23996900D02*
X58460000Y-25200000D01*
X59663100Y-11163100D02*
X59663100Y-23996900D01*
X58460000Y-9960000D02*
X59663100Y-11163100D01*
X74549000Y-42418000D02*
X73422300Y-42418000D01*
X60896200Y-29891900D02*
X73422300Y-42418000D01*
X60896200Y-27636200D02*
X60896200Y-29891900D01*
X58460000Y-25200000D02*
X60896200Y-27636200D01*
%TD*%
M02*
