%TF.GenerationSoftware,KiCad,Pcbnew,8.0.4*%
%TF.CreationDate,2024-11-03T15:16:32+00:00*%
%TF.ProjectId,MKRZero_V5.0,4d4b525a-6572-46f5-9f56-352e302e6b69,rev?*%
%TF.SameCoordinates,Original*%
%TF.FileFunction,Copper,L2,Inr*%
%TF.FilePolarity,Positive*%
%FSLAX46Y46*%
G04 Gerber Fmt 4.6, Leading zero omitted, Abs format (unit mm)*
G04 Created by KiCad (PCBNEW 8.0.4) date 2024-11-03 15:16:32*
%MOMM*%
%LPD*%
G01*
G04 APERTURE LIST*
%TA.AperFunction,ComponentPad*%
%ADD10C,1.600000*%
%TD*%
%TA.AperFunction,ComponentPad*%
%ADD11O,1.800000X1.800000*%
%TD*%
%TA.AperFunction,ComponentPad*%
%ADD12C,1.800000*%
%TD*%
%TA.AperFunction,ComponentPad*%
%ADD13C,2.500000*%
%TD*%
%TA.AperFunction,ComponentPad*%
%ADD14C,1.879600*%
%TD*%
%TA.AperFunction,ComponentPad*%
%ADD15R,2.000000X2.000000*%
%TD*%
%TA.AperFunction,ComponentPad*%
%ADD16C,2.000000*%
%TD*%
%TA.AperFunction,ComponentPad*%
%ADD17R,3.200000X2.000000*%
%TD*%
%TA.AperFunction,ViaPad*%
%ADD18C,0.400000*%
%TD*%
%TA.AperFunction,Conductor*%
%ADD19C,0.250000*%
%TD*%
%TA.AperFunction,Conductor*%
%ADD20C,0.100000*%
%TD*%
G04 APERTURE END LIST*
D10*
%TO.N,GND*%
%TO.C,J8*%
X68677000Y-31836000D03*
%TO.N,/PA05_AIN5*%
X69677000Y-36236000D03*
%TO.N,/PA06_AIN6*%
X73677000Y-36236000D03*
%TO.N,unconnected-(J8-Ring2-Pad4)*%
X76677000Y-36236000D03*
%TD*%
D11*
%TO.N,+5V*%
%TO.C,J7*%
X74549000Y-42418000D03*
%TO.N,/PA22_TC4-W0*%
X74549000Y-44958000D03*
D12*
%TO.N,GND*%
X74549000Y-47498000D03*
%TD*%
D13*
%TO.N,unconnected-(JMIDIOUT1-Pad1)*%
%TO.C,JMIDIOUT1*%
X67520000Y-11500000D03*
%TO.N,GND*%
X67520000Y-19000000D03*
%TO.N,unconnected-(JMIDIOUT1-Pad3)*%
X67520000Y-26500000D03*
%TO.N,Net-(JMIDIOUT1-Pad4)*%
X65020000Y-14000000D03*
%TO.N,Net-(JMIDIOUT1-Pad5)*%
X65020000Y-24000000D03*
%TO.N,N/C*%
X77420000Y-14000000D03*
X77420000Y-16500000D03*
X77420000Y-21500000D03*
X77420000Y-24000000D03*
%TD*%
%TO.N,unconnected-(JMIDIIN1-Pad1)*%
%TO.C,JMIDIIN1*%
X12400000Y-26500000D03*
%TO.N,unconnected-(JMIDIIN1-Pad2)*%
X12400000Y-19000000D03*
%TO.N,unconnected-(JMIDIIN1-Pad3)*%
X12400000Y-11500000D03*
%TO.N,Net-(JMIDIIN1-Pad4)*%
X14900000Y-24000000D03*
%TO.N,Net-(D4-A)*%
X14900000Y-14000000D03*
%TO.N,N/C*%
X2500000Y-24000000D03*
X2500000Y-21500000D03*
X2500000Y-16500000D03*
X2500000Y-14000000D03*
%TD*%
D14*
%TO.N,GND*%
%TO.C,J6*%
X58460000Y-27740000D03*
%TO.N,+5V*%
X58460000Y-25200000D03*
%TO.N,/PA17_S1_SCK*%
X58460000Y-22660000D03*
%TO.N,/PA16_S1_MOSI*%
X58460000Y-20120000D03*
%TO.N,/PA23_TC4-W1*%
X58460000Y-17580000D03*
%TO.N,/PA10_TCC0-W2*%
X58460000Y-15040000D03*
%TO.N,/PA20_TCC0-W6*%
X58460000Y-12500000D03*
%TO.N,+5V*%
X58460000Y-9960000D03*
%TD*%
D15*
%TO.N,/PA21_TCC0-W7*%
%TO.C,SW1*%
X29500000Y-42400000D03*
D16*
%TO.N,/PA04_AIN4*%
X29500000Y-47400000D03*
%TO.N,GND*%
X29500000Y-44900000D03*
D17*
X22000000Y-50500000D03*
X22000000Y-39300000D03*
D16*
%TO.N,/PA11_TCC0-W3*%
X15000000Y-47400000D03*
%TO.N,GND*%
X15000000Y-42400000D03*
%TD*%
D15*
%TO.N,/PB10_TCC0-W4*%
%TO.C,SW2*%
X66000000Y-42500000D03*
D16*
%TO.N,/PA02_AIN0*%
X66000000Y-47500000D03*
%TO.N,GND*%
X66000000Y-45000000D03*
D17*
X58500000Y-50600000D03*
X58500000Y-39400000D03*
D16*
%TO.N,/PB02_AIN10*%
X51500000Y-47500000D03*
%TO.N,GND*%
X51500000Y-42500000D03*
%TD*%
D18*
%TO.N,GND*%
X24257000Y-13081000D03*
X41021000Y-6985000D03*
X21031200Y-20980400D03*
X38862000Y-8890000D03*
X50241200Y-31242000D03*
X48717200Y-27482800D03*
X43434000Y-1905000D03*
X27051000Y-9271000D03*
X25654000Y-3175000D03*
X27025600Y-23317200D03*
X45720000Y-9144000D03*
X19304000Y-48768000D03*
X79121000Y-36195000D03*
X50927000Y-22352000D03*
X15748000Y-15875000D03*
X54457600Y-30276800D03*
X52578000Y-27889200D03*
X52324000Y-14986000D03*
X34036000Y-9144000D03*
X36322000Y-43180000D03*
X18923000Y-9271000D03*
X50546000Y-25908000D03*
X59055000Y-29845000D03*
X8763000Y-57912000D03*
X13081000Y-38100000D03*
X32461200Y-22860000D03*
X41503600Y-18135600D03*
X30988000Y-6604000D03*
X42926000Y-14351000D03*
X24841200Y-20675600D03*
X50800000Y-52070000D03*
X31292800Y-31445200D03*
X24384000Y-31623000D03*
X79629000Y-53721000D03*
X48387000Y-9144000D03*
X78613000Y-8001000D03*
X51181000Y-20193000D03*
X33147000Y-6477000D03*
X35306000Y-38989000D03*
X34036000Y-28956000D03*
X53213000Y-12573000D03*
X45085000Y-33655000D03*
X48514000Y-14732000D03*
X46126400Y-23876000D03*
X52705000Y-9144000D03*
X14859000Y-45339000D03*
X56642000Y-11049000D03*
X22656800Y-22199600D03*
X31496000Y-4445000D03*
X60960000Y-11049000D03*
X1270000Y-50419000D03*
X11303000Y-33782000D03*
X15798800Y-27330400D03*
X37719000Y-38100000D03*
X38481000Y-33401000D03*
X22047200Y-21234400D03*
X34544000Y-50292000D03*
X51562000Y-45466000D03*
X22250400Y-23418800D03*
X47117000Y-18034000D03*
X49276000Y-46863000D03*
X67183000Y-43942000D03*
X35179000Y-7112000D03*
X56388000Y-59055000D03*
X38989000Y-40005000D03*
X30353000Y-11430000D03*
X51054000Y-29616400D03*
X49911000Y-3556000D03*
X37973000Y-889000D03*
X40894000Y-8890000D03*
X43180000Y-32131000D03*
X79375000Y-38989000D03*
X30607000Y-13843000D03*
X13208000Y-33782000D03*
X39116000Y-22225000D03*
X34417000Y-31623000D03*
X46685200Y-28244800D03*
X31191200Y-25603200D03*
X61849000Y-37211000D03*
X53086000Y-6477000D03*
X24638000Y-27686000D03*
X10541000Y-3556000D03*
X55753000Y-26035000D03*
X27940000Y-6477000D03*
X47625000Y-12827000D03*
X13843000Y-41021000D03*
X78867000Y-27432000D03*
X29514800Y-22098000D03*
X32816800Y-25552400D03*
X56769000Y-19812000D03*
X26416000Y-44577000D03*
X49657000Y-17907000D03*
X8001000Y-51435000D03*
X63500000Y-49657000D03*
X18237200Y-31953200D03*
X72898000Y-40005000D03*
X40767000Y-5080000D03*
X75692000Y-46355000D03*
X26924000Y-14986000D03*
X36322000Y-6477000D03*
X45085000Y-14732000D03*
X47625000Y-54356000D03*
X25273000Y-25273000D03*
X34290000Y-13970000D03*
X52476400Y-31699200D03*
X56388000Y-15113000D03*
X37211000Y-50292000D03*
X42722800Y-22199600D03*
X34290000Y-15621000D03*
X32258000Y-15494000D03*
X53086000Y-10668000D03*
X41148000Y-19812000D03*
X21844000Y-15367000D03*
X33782000Y-25501600D03*
X42164000Y-18923000D03*
X52705000Y-43942000D03*
X47625000Y-50038000D03*
X39751000Y-19812000D03*
X56134000Y-9017000D03*
X38227000Y-3302000D03*
X68580000Y-38735000D03*
X24257000Y-11303000D03*
X36576000Y-25450800D03*
X1397000Y-40894000D03*
X46228000Y-26212800D03*
X16383000Y-28702000D03*
X41275000Y-40386000D03*
X32258000Y-13843000D03*
X53213000Y-24384000D03*
X22047200Y-30276800D03*
X26568400Y-21844000D03*
X50038000Y-41275000D03*
X49911000Y-37973000D03*
X45974000Y-40132000D03*
X22301200Y-24790400D03*
X29006800Y-33375600D03*
X47091600Y-24790400D03*
X38862000Y-4953000D03*
X17653000Y-6096000D03*
X19405600Y-19202400D03*
X60960000Y-16383000D03*
X53340000Y-20193000D03*
X27051000Y-11303000D03*
X54864000Y-35306000D03*
X71882000Y-46863000D03*
X30353000Y-4826000D03*
X48361600Y-31750000D03*
X17780000Y-27305000D03*
X46609000Y-10668000D03*
X21844000Y-12827000D03*
X35052000Y-16637000D03*
X22225000Y-58928000D03*
X72136000Y-42672000D03*
X43688000Y-38227000D03*
X41275000Y-59055000D03*
X53467000Y-13970000D03*
X30607000Y-15494000D03*
X29972000Y-2667000D03*
X55753000Y-18161000D03*
X24257000Y-9271000D03*
X24638000Y-4826000D03*
X1143000Y-52197000D03*
X49276000Y-16002000D03*
X36449000Y-33401000D03*
X42037000Y-12827000D03*
X46482000Y-14732000D03*
X17018000Y-9271000D03*
X8001000Y-53721000D03*
X39116000Y-6604000D03*
X9144000Y-33782000D03*
X47371000Y-6350000D03*
X6985000Y-43561000D03*
X17780000Y-3175000D03*
X33782000Y-3556000D03*
X43561000Y-13843000D03*
X64897000Y-46101000D03*
X78613000Y-18669000D03*
X49403000Y-24638000D03*
X47498000Y-3048000D03*
X45212000Y-12446000D03*
X47294800Y-22606000D03*
X35052000Y-25450800D03*
X27432000Y-1778000D03*
X43561000Y-36068000D03*
X60960000Y-25146000D03*
X5715000Y-45466000D03*
X37896800Y-18186400D03*
X21082000Y-19507200D03*
X50927000Y-14859000D03*
X61087000Y-20066000D03*
X3048000Y-39624000D03*
X34671000Y-1651000D03*
X56515000Y-32893000D03*
X44831000Y-52070000D03*
X36322000Y-3556000D03*
X40005000Y-13589000D03*
X56515000Y-5842000D03*
X70485000Y-58801000D03*
X40640000Y-13589000D03*
X16891000Y-14859000D03*
X33782000Y-6096000D03*
X42291000Y-33401000D03*
X6604000Y-52578000D03*
X36449000Y-28956000D03*
X18796000Y-43180000D03*
X43942000Y-43307000D03*
X32385000Y-36322000D03*
X43383200Y-23063200D03*
X17018000Y-43307000D03*
X26797000Y-31496000D03*
X45847000Y-1778000D03*
X25146000Y-42926000D03*
X56515000Y-23876000D03*
X38201600Y-21488400D03*
X41300400Y-22250400D03*
X57531000Y-45720000D03*
X16814800Y-26365200D03*
X16510000Y-33782000D03*
X52578000Y-17907000D03*
X34671000Y-3429000D03*
X39751000Y-28829000D03*
X69723000Y-45212000D03*
X43992800Y-28143200D03*
X68580000Y-2032000D03*
X29464000Y-9271000D03*
X23571200Y-19456400D03*
X65913000Y-33401000D03*
X34036000Y-7493000D03*
X36449000Y-31750000D03*
X61468000Y-31877000D03*
X38481000Y-18669000D03*
X59309000Y-8382000D03*
X48412400Y-23571200D03*
X41148000Y-43180000D03*
X22148800Y-28295600D03*
X73406000Y-48641000D03*
X16383000Y-4699000D03*
X36703000Y-12700000D03*
X36677600Y-16103600D03*
X27178000Y-30124400D03*
X59563000Y-44196000D03*
X27178000Y-25095200D03*
X27736800Y-22504400D03*
X37719000Y-6350000D03*
X70358000Y-51816000D03*
X53467000Y-37846000D03*
X40640000Y-18923000D03*
X41910000Y-30226000D03*
X34417000Y-33401000D03*
X20929600Y-22352000D03*
X45059600Y-28448000D03*
X20320000Y-33629600D03*
%TO.N,+5V*%
X30320400Y-24908900D03*
%TO.N,+3V3*%
X42069000Y-2811000D03*
X33263700Y-37174300D03*
X33331500Y-14826900D03*
X18218100Y-44377100D03*
%TO.N,/USB_P*%
X38400000Y-13640300D03*
X34881000Y-9267000D03*
%TO.N,/USB_N*%
X39263200Y-14876400D03*
X37610700Y-10513600D03*
%TO.N,/PA18_USB_ID*%
X33247000Y-10497000D03*
X42298800Y-14947800D03*
%TO.N,/PA31_SWDIO*%
X29132500Y-18893800D03*
X32896800Y-21900000D03*
%TO.N,/PA13_S2_SCK*%
X819200Y-45255900D03*
X43877900Y-18474700D03*
%TO.N,/PA12_S2_MOSI*%
X43877600Y-19048700D03*
X826600Y-47364800D03*
%TO.N,/PA14_S2_NSS*%
X45961500Y-18308700D03*
X818200Y-48499500D03*
X71527700Y-44073800D03*
%TO.N,/PA27_CD*%
X11367700Y-51418100D03*
X35553000Y-18400000D03*
%TO.N,/PA15_S2_MISO*%
X835500Y-43150000D03*
X43658900Y-17452800D03*
%TO.N,/PA09_S0_I2C_SCL*%
X44028000Y-23646600D03*
X40489100Y-35199900D03*
%TO.N,/PA17_S1_SCK*%
X51986900Y-12074000D03*
%TO.N,/PA08_S0_I2C_SDA*%
X44461700Y-23355800D03*
X41369800Y-32317600D03*
%TO.N,/PA16_S1_MOSI*%
X52063100Y-12981600D03*
%TO.N,/PA22_TC4-W0*%
X40645800Y-17032400D03*
%TO.N,/RESETN*%
X31648000Y-18900000D03*
X31497400Y-8573000D03*
%TO.N,/PB23_S5_RX*%
X30698600Y-23543600D03*
X34290000Y-18034000D03*
%TO.N,/PB10_TCC0-W4*%
X45961600Y-20278200D03*
%TO.N,/PA10_TCC0-W2*%
X45961600Y-21778200D03*
%TO.N,/PA06_AIN6*%
X57922300Y-33851700D03*
%TO.N,/PA05_AIN5*%
X42811900Y-25376800D03*
%TO.N,/PA23_TC4-W1*%
X40005000Y-17028200D03*
%TO.N,/PA04_AIN4*%
X41625800Y-25357700D03*
%TO.N,/PA02_AIN0*%
X39516100Y-26032400D03*
%TO.N,/PA11_TCC0-W3*%
X43871400Y-21690700D03*
%TO.N,/PA07_AIN7*%
X43966600Y-24774100D03*
X41013900Y-35945100D03*
%TO.N,/PB02_AIN10*%
X37634100Y-22811700D03*
%TO.N,/PA21_TCC0-W7*%
X41151600Y-17183600D03*
%TO.N,/PB03_AIN11*%
X42535700Y-9576200D03*
X35938200Y-23362000D03*
%TO.N,/PA19_S1_MISO*%
X41673800Y-13970000D03*
X42779600Y-10921900D03*
%TD*%
D19*
%TO.N,+5V*%
X74549000Y-42418000D02*
X73422300Y-42418000D01*
X60896200Y-27636200D02*
X60896200Y-29891900D01*
X58460000Y-9960000D02*
X59663100Y-11163100D01*
X59663100Y-23996900D02*
X58460000Y-25200000D01*
X60896200Y-29891900D02*
X73422300Y-42418000D01*
X59663100Y-11163100D02*
X59663100Y-23996900D01*
X58460000Y-25200000D02*
X60896200Y-27636200D01*
%TO.N,+3V3*%
X33331500Y-11548500D02*
X33331500Y-14826900D01*
X33331500Y-37106500D02*
X33263700Y-37174300D01*
X33331500Y-14826900D02*
X33331500Y-37106500D01*
X42069000Y-2811000D02*
X33331500Y-11548500D01*
D20*
%TO.N,/USB_N*%
X39263200Y-14876400D02*
X39263200Y-12166100D01*
X39263200Y-12166100D02*
X37610700Y-10513600D01*
%TO.N,/PA31_SWDIO*%
X32138700Y-21900000D02*
X32896800Y-21900000D01*
X29132500Y-18893800D02*
X32138700Y-21900000D01*
%TO.N,/PA14_S2_NSS*%
X45961500Y-18507600D02*
X45961500Y-18308700D01*
X71527700Y-44073800D02*
X45961500Y-18507600D01*
%TO.N,/PA27_CD*%
X32078700Y-37606800D02*
X18267400Y-51418100D01*
X35553000Y-35415800D02*
X33362000Y-37606800D01*
X35553000Y-18400000D02*
X35553000Y-35415800D01*
X33362000Y-37606800D02*
X32078700Y-37606800D01*
X18267400Y-51418100D02*
X11367700Y-51418100D01*
%TO.N,/PA09_S0_I2C_SCL*%
X44028000Y-23646600D02*
X40489100Y-27185500D01*
X40489100Y-27185500D02*
X40489100Y-35199900D01*
%TO.N,/PA17_S1_SCK*%
X58460000Y-22660000D02*
X51711300Y-15911300D01*
X51711300Y-15911300D02*
X51711300Y-12349600D01*
X51711300Y-12349600D02*
X51986900Y-12074000D01*
%TO.N,/PA08_S0_I2C_SDA*%
X44461700Y-29225700D02*
X44461700Y-23355800D01*
X41369800Y-32317600D02*
X44461700Y-29225700D01*
%TO.N,/PA16_S1_MOSI*%
X52063100Y-13723100D02*
X52063100Y-12981600D01*
X58460000Y-20120000D02*
X52063100Y-13723100D01*
%TO.N,/PA22_TC4-W0*%
X42499700Y-17962800D02*
X41364600Y-16827700D01*
X41364600Y-16827700D02*
X40850500Y-16827700D01*
X74549000Y-44958000D02*
X71319400Y-44958000D01*
X40850500Y-16827700D02*
X40645800Y-17032400D01*
X44324200Y-17962800D02*
X42499700Y-17962800D01*
X71319400Y-44958000D02*
X44324200Y-17962800D01*
%TO.N,/RESETN*%
X31497400Y-8573000D02*
X31648000Y-8723600D01*
X31648000Y-8723600D02*
X31648000Y-18900000D01*
%TO.N,/PB10_TCC0-W4*%
X66000000Y-40316600D02*
X45961600Y-20278200D01*
X66000000Y-42500000D02*
X66000000Y-40316600D01*
%TO.N,/PA07_AIN7*%
X41013900Y-35945100D02*
X41013900Y-27726800D01*
X41013900Y-27726800D02*
X43966600Y-24774100D01*
%TO.N,/PB02_AIN10*%
X51500000Y-47500000D02*
X37634100Y-33634100D01*
X37634100Y-33634100D02*
X37634100Y-22811700D01*
%TO.N,/PA21_TCC0-W7*%
X37132200Y-34122000D02*
X37132200Y-21390400D01*
X29500000Y-42400000D02*
X29500000Y-41331800D01*
X37132200Y-21390400D02*
X41151600Y-17371000D01*
X29500000Y-41331800D02*
X29922400Y-41331800D01*
X41151600Y-17371000D02*
X41151600Y-17183600D01*
X29922400Y-41331800D02*
X37132200Y-34122000D01*
%TO.N,/PB03_AIN11*%
X35938200Y-23362000D02*
X35938200Y-22180500D01*
X39618000Y-18500700D02*
X39618000Y-12493900D01*
X35938200Y-22180500D02*
X39618000Y-18500700D01*
X39618000Y-12493900D02*
X42535700Y-9576200D01*
%TO.N,/PA19_S1_MISO*%
X42779600Y-10921900D02*
X41673800Y-12027700D01*
X41673800Y-12027700D02*
X41673800Y-13970000D01*
%TD*%
M02*
