%TF.GenerationSoftware,KiCad,Pcbnew,8.0.4*%
%TF.CreationDate,2024-08-31T09:47:53+01:00*%
%TF.ProjectId,MKRZero_V5.0,4d4b525a-6572-46f5-9f56-352e302e6b69,rev?*%
%TF.SameCoordinates,Original*%
%TF.FileFunction,Copper,L2,Bot*%
%TF.FilePolarity,Positive*%
%FSLAX46Y46*%
G04 Gerber Fmt 4.6, Leading zero omitted, Abs format (unit mm)*
G04 Created by KiCad (PCBNEW 8.0.4) date 2024-08-31 09:47:53*
%MOMM*%
%LPD*%
G01*
G04 APERTURE LIST*
%TA.AperFunction,ComponentPad*%
%ADD10C,1.600000*%
%TD*%
%TA.AperFunction,ComponentPad*%
%ADD11C,2.500000*%
%TD*%
%TA.AperFunction,ComponentPad*%
%ADD12C,1.879600*%
%TD*%
%TA.AperFunction,ComponentPad*%
%ADD13R,2.000000X2.000000*%
%TD*%
%TA.AperFunction,ComponentPad*%
%ADD14C,2.000000*%
%TD*%
%TA.AperFunction,ComponentPad*%
%ADD15R,3.200000X2.000000*%
%TD*%
%TA.AperFunction,SMDPad,CuDef*%
%ADD16R,1.270000X3.683000*%
%TD*%
%TA.AperFunction,ViaPad*%
%ADD17C,0.400000*%
%TD*%
%TA.AperFunction,Conductor*%
%ADD18C,0.250000*%
%TD*%
%TA.AperFunction,Conductor*%
%ADD19C,0.100000*%
%TD*%
G04 APERTURE END LIST*
D10*
%TO.P,J8,1,Sleeve*%
%TO.N,GND*%
X68677000Y-31836000D03*
%TO.P,J8,2,Tip*%
%TO.N,/PA05_AIN5*%
X69677000Y-36236000D03*
%TO.P,J8,3,Ring1*%
%TO.N,/PA06_AIN6*%
X73677000Y-36236000D03*
%TO.P,J8,4,Ring2*%
%TO.N,unconnected-(J8-Ring2-Pad4)*%
X76677000Y-36236000D03*
%TD*%
D11*
%TO.P,JMIDIOUT1,1*%
%TO.N,unconnected-(JMIDIOUT1-Pad1)*%
X67520000Y-26500000D03*
%TO.P,JMIDIOUT1,2*%
%TO.N,unconnected-(JMIDIOUT1-Pad2)*%
X67520000Y-19000000D03*
%TO.P,JMIDIOUT1,3*%
%TO.N,unconnected-(JMIDIOUT1-Pad3)*%
X67520000Y-11500000D03*
%TO.P,JMIDIOUT1,4*%
%TO.N,Net-(JMIDIOUT1-Pad4)*%
X65020000Y-24000000D03*
%TO.P,JMIDIOUT1,5*%
%TO.N,Net-(JMIDIOUT1-Pad5)*%
X65020000Y-14000000D03*
%TO.P,JMIDIOUT1,NC1*%
%TO.N,N/C*%
X77420000Y-14000000D03*
X77420000Y-16500000D03*
%TO.P,JMIDIOUT1,NC2*%
X77420000Y-21500000D03*
X77420000Y-24000000D03*
%TD*%
%TO.P,JMIDIIN1,1*%
%TO.N,unconnected-(JMIDIIN1-Pad1)*%
X12400000Y-11500000D03*
%TO.P,JMIDIIN1,2*%
%TO.N,unconnected-(JMIDIIN1-Pad2)*%
X12400000Y-19000000D03*
%TO.P,JMIDIIN1,3*%
%TO.N,unconnected-(JMIDIIN1-Pad3)*%
X12400000Y-26500000D03*
%TO.P,JMIDIIN1,4*%
%TO.N,Net-(JMIDIIN1-Pad4)*%
X14900000Y-14000000D03*
%TO.P,JMIDIIN1,5*%
%TO.N,Net-(D4-A)*%
X14900000Y-24000000D03*
%TO.P,JMIDIIN1,NC1*%
%TO.N,N/C*%
X2500000Y-24000000D03*
X2500000Y-21500000D03*
%TO.P,JMIDIIN1,NC2*%
X2500000Y-16500000D03*
X2500000Y-14000000D03*
%TD*%
D12*
%TO.P,J6,1,Pin_1*%
%TO.N,GND*%
X58460000Y-27740000D03*
%TO.P,J6,2,Pin_2*%
%TO.N,+5V*%
X58460000Y-25200000D03*
%TO.P,J6,3,Pin_3*%
%TO.N,/PA17_S1_SCK*%
X58460000Y-22660000D03*
%TO.P,J6,4,Pin_4*%
%TO.N,/PA16_S1_MOSI*%
X58460000Y-20120000D03*
%TO.P,J6,5,Pin_5*%
%TO.N,/PA23_TC4-W1*%
X58460000Y-17580000D03*
%TO.P,J6,6,Pin_6*%
%TO.N,/PA10_TCC0-W2*%
X58460000Y-15040000D03*
%TO.P,J6,7,Pin_7*%
%TO.N,/PA20_TCC0-W6*%
X58460000Y-12500000D03*
%TO.P,J6,8,Pin_8*%
%TO.N,+5V*%
X58460000Y-9960000D03*
%TD*%
D13*
%TO.P,SW1,A,A*%
%TO.N,/PA21_TCC0-W7*%
X29500000Y-42400000D03*
D14*
%TO.P,SW1,B,B*%
%TO.N,/PA19_S1_MISO*%
X29500000Y-47400000D03*
%TO.P,SW1,C,C*%
%TO.N,GND*%
X29500000Y-44900000D03*
D15*
%TO.P,SW1,MP,MP*%
X22000000Y-50500000D03*
X22000000Y-39300000D03*
D14*
%TO.P,SW1,S1,S1*%
%TO.N,/PA11_TCC0-W3*%
X15000000Y-47400000D03*
%TO.P,SW1,S2,S2*%
%TO.N,GND*%
X15000000Y-42400000D03*
%TD*%
D13*
%TO.P,SW2,A,A*%
%TO.N,/PB10_TCC0-W4*%
X66000000Y-42500000D03*
D14*
%TO.P,SW2,B,B*%
%TO.N,/PA02_AIN0*%
X66000000Y-47500000D03*
%TO.P,SW2,C,C*%
%TO.N,GND*%
X66000000Y-45000000D03*
D15*
%TO.P,SW2,MP,MP*%
X58500000Y-50600000D03*
X58500000Y-39400000D03*
D14*
%TO.P,SW2,S1,S1*%
%TO.N,/PB02_AIN10*%
X51500000Y-47500000D03*
%TO.P,SW2,S2,S2*%
%TO.N,GND*%
X51500000Y-42500000D03*
%TD*%
D16*
%TO.P,J2,1,1*%
%TO.N,+3V3*%
X2605000Y-29677500D03*
%TO.P,J2,2,2*%
%TO.N,/PA31_SWDIO*%
X2605000Y-34122500D03*
%TO.P,J2,3,3*%
%TO.N,GND*%
X5145000Y-29677500D03*
%TO.P,J2,4,4*%
%TO.N,/PA30_SWCLK*%
X5145000Y-34122500D03*
%TO.P,J2,5,5*%
%TO.N,Net-(J2-Pad5)*%
X7685000Y-29677500D03*
%TO.P,J2,6,6*%
%TO.N,unconnected-(J2-Pad6)*%
X7685000Y-34122500D03*
%TD*%
D17*
%TO.N,GND*%
X28448000Y-52832000D03*
X18161000Y-29337000D03*
X13589000Y-36449000D03*
X60452000Y-12573000D03*
X72771000Y-45720000D03*
X2794000Y-45974000D03*
X42164000Y-17907000D03*
X31877000Y-19558000D03*
X54610000Y-21336000D03*
X66675000Y-39497000D03*
X60833000Y-23368000D03*
X17018000Y-36449000D03*
X43561000Y-13081000D03*
X55245000Y-17399000D03*
X49276000Y-27305000D03*
X70866000Y-46609000D03*
X19177000Y-40513000D03*
X46990000Y-27305000D03*
X43053000Y-32766000D03*
X38481000Y-36576000D03*
X49149000Y-8890000D03*
X34798000Y-25527000D03*
X37846000Y-35179000D03*
X49530000Y-48260000D03*
X47625000Y-35179000D03*
X32131000Y-17399000D03*
X38608000Y-18796000D03*
X66167000Y-34925000D03*
X70866000Y-43688000D03*
X34290000Y-9398000D03*
X762000Y-33401000D03*
X56515000Y-11938000D03*
X46736000Y-19177000D03*
X18542000Y-33147000D03*
X17526000Y-15367000D03*
X63754000Y-46482000D03*
X24892000Y-28448000D03*
X12700000Y-37592000D03*
X36576000Y-15367000D03*
X40640000Y-4953000D03*
X2286000Y-39497000D03*
X34798000Y-31369000D03*
X32893000Y-29337000D03*
X19939000Y-52959000D03*
X30988000Y-6477000D03*
X35179000Y-12827000D03*
X55626000Y-26924000D03*
X762000Y-30353000D03*
X22987000Y-12954000D03*
X46863000Y-21463000D03*
X25527000Y-37592000D03*
X50927000Y-49276000D03*
X41529000Y-34544000D03*
X35306000Y-50800000D03*
X26797000Y-36322000D03*
X41275000Y-28321000D03*
X16510000Y-46355000D03*
X28321000Y-13081000D03*
X28448000Y-54102000D03*
X44958000Y-53975000D03*
X8636000Y-26035000D03*
X26289000Y-6350000D03*
X42926000Y-17907000D03*
X44704000Y-26162000D03*
X73533000Y-42799000D03*
X31623000Y-23114000D03*
X56896000Y-17526000D03*
X43434000Y-19685000D03*
X34798000Y-29210000D03*
X58420000Y-32385000D03*
X24511000Y-19939000D03*
X41148000Y-17907000D03*
X41148000Y-19812000D03*
X51435000Y-22606000D03*
X29718000Y-2540000D03*
X41529000Y-30099000D03*
X12192000Y-36322000D03*
X75692000Y-34925000D03*
X35306000Y-38735000D03*
X76708000Y-44450000D03*
X15748000Y-50673000D03*
X17907000Y-41656000D03*
X60833000Y-24511000D03*
X15748000Y-48641000D03*
X42291000Y-22225000D03*
X51054000Y-35687000D03*
X55245000Y-19685000D03*
X52578000Y-27305000D03*
X37846000Y-21590000D03*
X19685000Y-41910000D03*
X3810000Y-33274000D03*
X75184000Y-37846000D03*
X36703000Y-28829000D03*
X34163000Y-12827000D03*
X30988000Y-31496000D03*
X51054000Y-29210000D03*
X19939000Y-54229000D03*
X33401000Y-30861000D03*
X43180000Y-29210000D03*
X26924000Y-40894000D03*
X68072000Y-14351000D03*
X54229000Y-31877000D03*
X3810000Y-41021000D03*
X3810000Y-30480000D03*
X44831000Y-23749000D03*
X36830000Y-16383000D03*
X42799000Y-19685000D03*
X43180000Y-43180000D03*
X3175000Y-42418000D03*
X71247000Y-46355000D03*
X24892000Y-5461000D03*
X60452000Y-16637000D03*
X56769000Y-12954000D03*
X43561000Y-2032000D03*
X68834000Y-27686000D03*
X30861000Y-26162000D03*
X46990000Y-1905000D03*
X26924000Y-6350000D03*
X889000Y-38481000D03*
X10414000Y-36322000D03*
X59436000Y-30861000D03*
X40767000Y-22606000D03*
X27686000Y-6350000D03*
X15875000Y-37973000D03*
X39116000Y-22860000D03*
X37465000Y-38227000D03*
X78613000Y-44069000D03*
X2921000Y-44704000D03*
X21844000Y-32004000D03*
X10414000Y-34798000D03*
X36068000Y-9906000D03*
X22479000Y-27940000D03*
X29083000Y-37719000D03*
X51181000Y-37211000D03*
X39878000Y-11557000D03*
X21336000Y-11684000D03*
X51181000Y-45720000D03*
X42672000Y-25654000D03*
X60452000Y-15494000D03*
X65151000Y-40386000D03*
X30988000Y-24384000D03*
X16891000Y-24511000D03*
X38862000Y-12954000D03*
X10033000Y-33401000D03*
X63627000Y-36830000D03*
X9906000Y-29337000D03*
X37338000Y-16383000D03*
X3302000Y-36957000D03*
X44831000Y-29337000D03*
X69850000Y-26416000D03*
X45085000Y-1905000D03*
X29210000Y-12065000D03*
X43688000Y-37973000D03*
X49530000Y-34036000D03*
X40640000Y-6477000D03*
X65786000Y-25781000D03*
X34798000Y-22606000D03*
X60452000Y-10541000D03*
X64262000Y-35306000D03*
X62865000Y-47752000D03*
X14732000Y-49530000D03*
X6604000Y-30480000D03*
X15621000Y-16383000D03*
X16002000Y-30480000D03*
X46863000Y-23876000D03*
X35560000Y-24130000D03*
X37846000Y-42037000D03*
X50292000Y-8001000D03*
X30607000Y-28067000D03*
X76581000Y-37846000D03*
X24892000Y-4826000D03*
X48006000Y-36322000D03*
X49403000Y-18161000D03*
X55880000Y-38354000D03*
X75311000Y-41656000D03*
X6477000Y-33401000D03*
X30480000Y-36449000D03*
X61976000Y-35560000D03*
X35179000Y-16383000D03*
X39116000Y-39878000D03*
X56896000Y-21209000D03*
X50038000Y-37211000D03*
X50927000Y-19939000D03*
X34163000Y-49911000D03*
X30988000Y-17399000D03*
X36576000Y-6350000D03*
X45212000Y-15494000D03*
X30099000Y-34417000D03*
X33528000Y-24765000D03*
X13081000Y-40894000D03*
X78232000Y-37846000D03*
X24257000Y-41910000D03*
X60833000Y-26162000D03*
X34417000Y-6731000D03*
X44831000Y-33147000D03*
X21336000Y-41910000D03*
X72263000Y-35687000D03*
X43688000Y-33909000D03*
X37084000Y-9017000D03*
X44958000Y-52959000D03*
X41783000Y-22987000D03*
X35179000Y-12192000D03*
X37846000Y-28956000D03*
X37338000Y-15367000D03*
X24892000Y-4191000D03*
X13081000Y-48133000D03*
X27178000Y-24257000D03*
X17145000Y-17272000D03*
X49911000Y-31877000D03*
X39243000Y-32004000D03*
X38481000Y-17526000D03*
X50546000Y-21209000D03*
X37973000Y-25908000D03*
X68453000Y-20574000D03*
X34163000Y-12192000D03*
X65405000Y-33401000D03*
X30861000Y-18669000D03*
X71755000Y-47625000D03*
X45847000Y-28956000D03*
X51181000Y-30734000D03*
X22860000Y-11176000D03*
X44069000Y-11938000D03*
X49657000Y-44577000D03*
X35306000Y-26670000D03*
X27432000Y-25908000D03*
X37846000Y-31369000D03*
X40132000Y-13716000D03*
X49276000Y-22733000D03*
X34671000Y-1651000D03*
X36576000Y-31369000D03*
X46863000Y-22733000D03*
X2794000Y-48133000D03*
X69850000Y-20574000D03*
X13843000Y-44831000D03*
X2794000Y-49403000D03*
X6096000Y-36957000D03*
X2794000Y-46990000D03*
X46482000Y-36322000D03*
X36830000Y-25527000D03*
X35052000Y-17399000D03*
X76835000Y-33401000D03*
X56388000Y-10795000D03*
X28448000Y-11176000D03*
X41783000Y-39751000D03*
X67310000Y-15113000D03*
X6858000Y-26035000D03*
X16891000Y-49530000D03*
X43561000Y-17907000D03*
X8128000Y-36957000D03*
X48387000Y-33020000D03*
X34163000Y-15748000D03*
X42037000Y-19685000D03*
X35052000Y-19812000D03*
X45339000Y-40132000D03*
X39497000Y-17145000D03*
X46863000Y-29210000D03*
X18161000Y-30480000D03*
%TO.N,+3V3*%
X47824500Y-28444600D03*
X2834200Y-37767000D03*
X47144700Y-20760200D03*
%TO.N,/PA18_USB_ID*%
X35078100Y-11432400D03*
X42109400Y-14568300D03*
%TO.N,/PA30_SWCLK*%
X6104800Y-36324300D03*
%TO.N,/PA31_SWDIO*%
X25084600Y-26842800D03*
%TO.N,Net-(J2-Pad5)*%
X16602000Y-12440900D03*
%TO.N,/PA13_S2_SCK*%
X24779400Y-41053800D03*
X38497900Y-19873700D03*
%TO.N,/PA12_S2_MOSI*%
X39382300Y-19656000D03*
X31894700Y-39435000D03*
%TO.N,/PA14_S2_NSS*%
X50369800Y-33597600D03*
X46250900Y-17781400D03*
%TO.N,/PA27_CD*%
X13271400Y-52016000D03*
X35387500Y-18488300D03*
%TO.N,/PA15_S2_MISO*%
X3032600Y-41651000D03*
X39259600Y-18151900D03*
%TO.N,/PA09_S0_I2C_SCL*%
X40671100Y-33644100D03*
X43608800Y-21988400D03*
%TO.N,/PA08_S0_I2C_SDA*%
X40851200Y-31941000D03*
X43874600Y-22869500D03*
%TO.N,/PA16_S1_MOSI*%
X44272800Y-16159500D03*
%TO.N,/PB08_LED*%
X39776200Y-22412200D03*
X28135300Y-11935100D03*
%TO.N,/PB23_S5_RX*%
X33700000Y-18675100D03*
X32819500Y-24441400D03*
%TO.N,/PB22_S5_TX*%
X36087900Y-16379900D03*
X52395200Y-15753500D03*
%TO.N,/PB10_TCC0-W4*%
X47485900Y-19932000D03*
%TO.N,/PA10_TCC0-W2*%
X52250700Y-20289000D03*
%TO.N,/PA05_AIN5*%
X63953200Y-33575600D03*
%TO.N,/PA02_AIN0*%
X44597300Y-27784400D03*
%TO.N,/PA11_TCC0-W3*%
X29313500Y-33883000D03*
%TO.N,/PA07_AIN7*%
X40436900Y-36449000D03*
X43856300Y-25478100D03*
%TO.N,/PB02_AIN10*%
X42264200Y-21050400D03*
%TO.N,/PA21_TCC0-W7*%
X40630700Y-14940400D03*
%TO.N,/PA19_S1_MISO*%
X41545300Y-14901400D03*
%TD*%
D18*
%TO.N,+5V*%
X58460000Y-9960000D02*
X59663100Y-11163100D01*
X59663100Y-23996900D02*
X58460000Y-25200000D01*
X59663100Y-11163100D02*
X59663100Y-23996900D01*
%TO.N,+3V3*%
X1743300Y-36676100D02*
X2834200Y-37767000D01*
X47144700Y-20760200D02*
X47824500Y-21440000D01*
X2605000Y-29677500D02*
X2605000Y-31745700D01*
X47824500Y-21440000D02*
X47824500Y-28444600D01*
X1743300Y-32176500D02*
X1743300Y-36676100D01*
X2605000Y-31745700D02*
X2174100Y-31745700D01*
X2174100Y-31745700D02*
X1743300Y-32176500D01*
D19*
%TO.N,/PA18_USB_ID*%
X35078100Y-11432400D02*
X38973500Y-11432400D01*
X38973500Y-11432400D02*
X42109400Y-14568300D01*
%TO.N,/PA30_SWCLK*%
X5896200Y-36115700D02*
X6104800Y-36324300D01*
X5145000Y-34122500D02*
X5145000Y-36115700D01*
X5145000Y-36115700D02*
X5896200Y-36115700D01*
%TO.N,/PA31_SWDIO*%
X2605000Y-34122500D02*
X2605000Y-32129300D01*
X19798100Y-32129300D02*
X25084600Y-26842800D01*
X2605000Y-32129300D02*
X19798100Y-32129300D01*
%TO.N,Net-(J2-Pad5)*%
X7685000Y-25697300D02*
X16602000Y-16780300D01*
X7685000Y-29677500D02*
X7685000Y-25697300D01*
X16602000Y-16780300D02*
X16602000Y-12440900D01*
%TO.N,/PA13_S2_SCK*%
X24779400Y-41053800D02*
X34250400Y-31582800D01*
X34250400Y-31582800D02*
X34250400Y-24121200D01*
X34250400Y-24121200D02*
X38497900Y-19873700D01*
%TO.N,/PA12_S2_MOSI*%
X38393800Y-32935900D02*
X31894700Y-39435000D01*
X38393800Y-20644500D02*
X38393800Y-32935900D01*
X39382300Y-19656000D02*
X38393800Y-20644500D01*
%TO.N,/PA14_S2_NSS*%
X50369800Y-33597600D02*
X46250900Y-29478700D01*
X46250900Y-29478700D02*
X46250900Y-17781400D01*
%TO.N,/PA27_CD*%
X34048700Y-19827100D02*
X34048700Y-31238700D01*
X34048700Y-31238700D02*
X13271400Y-52016000D01*
X35387500Y-18488300D02*
X34048700Y-19827100D01*
%TO.N,/PA15_S2_MISO*%
X32827900Y-19038600D02*
X33798100Y-18068400D01*
X3032600Y-41651000D02*
X10780100Y-41651000D01*
X33798100Y-18068400D02*
X39176100Y-18068400D01*
X10780100Y-41651000D02*
X32827900Y-19603200D01*
X39176100Y-18068400D02*
X39259600Y-18151900D01*
X32827900Y-19603200D02*
X32827900Y-19038600D01*
%TO.N,/PA09_S0_I2C_SCL*%
X40499500Y-33472500D02*
X40671100Y-33644100D01*
X40499500Y-25097700D02*
X40499500Y-33472500D01*
X43608800Y-21988400D02*
X40499500Y-25097700D01*
%TO.N,/PA08_S0_I2C_SDA*%
X40851200Y-25892900D02*
X43874600Y-22869500D01*
X40851200Y-31941000D02*
X40851200Y-25892900D01*
%TO.N,/PA16_S1_MOSI*%
X58460000Y-20120000D02*
X57934000Y-20646000D01*
X46089400Y-16159500D02*
X44272800Y-16159500D01*
X57934000Y-20646000D02*
X50575900Y-20646000D01*
X50575900Y-20646000D02*
X46089400Y-16159500D01*
%TO.N,/PB08_LED*%
X32982500Y-16782300D02*
X28135300Y-11935100D01*
X38387400Y-16782300D02*
X32982500Y-16782300D01*
X39776200Y-22412200D02*
X39776200Y-18171100D01*
X39776200Y-18171100D02*
X38387400Y-16782300D01*
%TO.N,/PB23_S5_RX*%
X33700000Y-18675100D02*
X33700000Y-23560900D01*
X33700000Y-23560900D02*
X32819500Y-24441400D01*
%TO.N,/PB22_S5_TX*%
X34702200Y-11300200D02*
X34953800Y-11048600D01*
X34953800Y-11048600D02*
X47690300Y-11048600D01*
X34702200Y-14994200D02*
X34702200Y-11300200D01*
X47690300Y-11048600D02*
X52395200Y-15753500D01*
X36087900Y-16379900D02*
X34702200Y-14994200D01*
%TO.N,/PB10_TCC0-W4*%
X66000000Y-42500000D02*
X66000000Y-38446100D01*
X66000000Y-38446100D02*
X47485900Y-19932000D01*
%TO.N,/PA10_TCC0-W2*%
X53211000Y-20289000D02*
X52250700Y-20289000D01*
X58460000Y-15040000D02*
X53211000Y-20289000D01*
%TO.N,/PA05_AIN5*%
X69677000Y-36236000D02*
X66613600Y-36236000D01*
X66613600Y-36236000D02*
X63953200Y-33575600D01*
%TO.N,/PA02_AIN0*%
X66000000Y-47500000D02*
X63732000Y-47500000D01*
X44597300Y-28365300D02*
X44597300Y-27784400D01*
X63732000Y-47500000D02*
X44597300Y-28365300D01*
%TO.N,/PA11_TCC0-W3*%
X29313500Y-34828200D02*
X29313500Y-33883000D01*
X16741700Y-47400000D02*
X29313500Y-34828200D01*
X15000000Y-47400000D02*
X16741700Y-47400000D01*
%TO.N,/PA07_AIN7*%
X43856300Y-33029600D02*
X43856300Y-25478100D01*
X40436900Y-36449000D02*
X43856300Y-33029600D01*
%TO.N,/PB02_AIN10*%
X44240400Y-22095600D02*
X43195200Y-21050400D01*
X44240400Y-40240400D02*
X44240400Y-22095600D01*
X51500000Y-47500000D02*
X44240400Y-40240400D01*
X43195200Y-21050400D02*
X42264200Y-21050400D01*
%TO.N,/PA21_TCC0-W7*%
X38786400Y-23913500D02*
X38786400Y-33041600D01*
X40630700Y-22069200D02*
X38786400Y-23913500D01*
X30579700Y-41248300D02*
X29500000Y-41248300D01*
X38786400Y-33041600D02*
X30579700Y-41248300D01*
X40630700Y-14940400D02*
X40630700Y-22069200D01*
X29500000Y-42400000D02*
X29500000Y-41248300D01*
%TO.N,/PA19_S1_MISO*%
X39800700Y-37099300D02*
X39800700Y-24227500D01*
X29500000Y-47400000D02*
X39800700Y-37099300D01*
X41545300Y-22482900D02*
X41545300Y-14901400D01*
X39800700Y-24227500D02*
X41545300Y-22482900D01*
%TD*%
%TA.AperFunction,Conductor*%
%TO.N,GND*%
G36*
X38929466Y-11601206D02*
G01*
X41795092Y-14466832D01*
X41813398Y-14511026D01*
X41812449Y-14521878D01*
X41804264Y-14568300D01*
X41807168Y-14584770D01*
X41796813Y-14631472D01*
X41756469Y-14657173D01*
X41709767Y-14646818D01*
X41705443Y-14643500D01*
X41697869Y-14637145D01*
X41697868Y-14637144D01*
X41697866Y-14637143D01*
X41598288Y-14600900D01*
X41598286Y-14600900D01*
X41492314Y-14600900D01*
X41492311Y-14600900D01*
X41392733Y-14637143D01*
X41392730Y-14637144D01*
X41311552Y-14705261D01*
X41258565Y-14797039D01*
X41240164Y-14901397D01*
X41240164Y-14901402D01*
X41248762Y-14950166D01*
X41258566Y-15005763D01*
X41311552Y-15097538D01*
X41372474Y-15148657D01*
X41394562Y-15191087D01*
X41394800Y-15196535D01*
X41394800Y-22394672D01*
X41376494Y-22438866D01*
X39673113Y-24142246D01*
X39673109Y-24142251D01*
X39659689Y-24174649D01*
X39659690Y-24174650D01*
X39650200Y-24197560D01*
X39650200Y-37011071D01*
X39631894Y-37055265D01*
X30202960Y-46484198D01*
X30158766Y-46502504D01*
X30125865Y-46493143D01*
X29992637Y-46410652D01*
X29992635Y-46410651D01*
X29937356Y-46389236D01*
X29802456Y-46336976D01*
X29802453Y-46336975D01*
X29802452Y-46336975D01*
X29688447Y-46315664D01*
X29648369Y-46289549D01*
X29638495Y-46242744D01*
X29664610Y-46202666D01*
X29694484Y-46191966D01*
X29727298Y-46189095D01*
X29727314Y-46189092D01*
X29947687Y-46130043D01*
X29947703Y-46130037D01*
X30154485Y-46033614D01*
X30309859Y-45924819D01*
X29729745Y-45344705D01*
X29807007Y-45300099D01*
X29900099Y-45207007D01*
X29944705Y-45129745D01*
X30524819Y-45709859D01*
X30633614Y-45554485D01*
X30730037Y-45347703D01*
X30730043Y-45347687D01*
X30789092Y-45127314D01*
X30789095Y-45127298D01*
X30808981Y-44900002D01*
X30808981Y-44899997D01*
X30789095Y-44672701D01*
X30789092Y-44672685D01*
X30730041Y-44452305D01*
X30730040Y-44452303D01*
X30633611Y-44245510D01*
X30524820Y-44090139D01*
X30524820Y-44090138D01*
X29944705Y-44670253D01*
X29900099Y-44592993D01*
X29807007Y-44499901D01*
X29729744Y-44455293D01*
X30309860Y-43875178D01*
X30154489Y-43766388D01*
X30154487Y-43766386D01*
X29947703Y-43669962D01*
X29947687Y-43669956D01*
X29773821Y-43623369D01*
X29735870Y-43594249D01*
X29729627Y-43546823D01*
X29758747Y-43508872D01*
X29789995Y-43500499D01*
X30509898Y-43500499D01*
X30539213Y-43494669D01*
X30572457Y-43472457D01*
X30594669Y-43439213D01*
X30600500Y-43409899D01*
X30600499Y-41444344D01*
X30618805Y-41400151D01*
X30639082Y-41386602D01*
X30664952Y-41375888D01*
X38913987Y-33126852D01*
X38920697Y-33110649D01*
X38936900Y-33071536D01*
X38936900Y-24001727D01*
X38955206Y-23957533D01*
X39852707Y-23060032D01*
X40758287Y-22154452D01*
X40770264Y-22125536D01*
X40781200Y-22099136D01*
X40781200Y-15235535D01*
X40799506Y-15191341D01*
X40803518Y-15187663D01*
X40864448Y-15136538D01*
X40917434Y-15044763D01*
X40935836Y-14940400D01*
X40935836Y-14940397D01*
X40923211Y-14868799D01*
X40917434Y-14836037D01*
X40864448Y-14744262D01*
X40817970Y-14705262D01*
X40783269Y-14676144D01*
X40783266Y-14676143D01*
X40683688Y-14639900D01*
X40683686Y-14639900D01*
X40577714Y-14639900D01*
X40577711Y-14639900D01*
X40478133Y-14676143D01*
X40478130Y-14676144D01*
X40396952Y-14744261D01*
X40343965Y-14836039D01*
X40325564Y-14940397D01*
X40325564Y-14940402D01*
X40342860Y-15038495D01*
X40343966Y-15044763D01*
X40396952Y-15136538D01*
X40457874Y-15187657D01*
X40479962Y-15230087D01*
X40480200Y-15235535D01*
X40480200Y-21980972D01*
X40461894Y-22025166D01*
X40163093Y-22323966D01*
X40118899Y-22342272D01*
X40074705Y-22323966D01*
X40064772Y-22311022D01*
X40062934Y-22307839D01*
X40062934Y-22307837D01*
X40009948Y-22216062D01*
X40009947Y-22216061D01*
X39949026Y-22164942D01*
X39926938Y-22122511D01*
X39926700Y-22117064D01*
X39926700Y-18141163D01*
X39915243Y-18113506D01*
X39915242Y-18113504D01*
X39903788Y-18085849D01*
X38472652Y-16654712D01*
X38440248Y-16641290D01*
X38440248Y-16641289D01*
X38417337Y-16631800D01*
X38417336Y-16631800D01*
X36397707Y-16631800D01*
X36353513Y-16613494D01*
X36335207Y-16569300D01*
X36343580Y-16538050D01*
X36345534Y-16534666D01*
X36374634Y-16484263D01*
X36393036Y-16379900D01*
X36393036Y-16379897D01*
X36374634Y-16275539D01*
X36374634Y-16275537D01*
X36321648Y-16183762D01*
X36292734Y-16159500D01*
X36240469Y-16115644D01*
X36240466Y-16115643D01*
X36140888Y-16079400D01*
X36140886Y-16079400D01*
X36034914Y-16079400D01*
X36029447Y-16079400D01*
X36029447Y-16077171D01*
X35990762Y-16068585D01*
X35982430Y-16061591D01*
X34871006Y-14950166D01*
X34852700Y-14905972D01*
X34852700Y-11759406D01*
X34871006Y-11715212D01*
X34915200Y-11696906D01*
X34936572Y-11700674D01*
X35025114Y-11732900D01*
X35025117Y-11732900D01*
X35131083Y-11732900D01*
X35131086Y-11732900D01*
X35230668Y-11696656D01*
X35311848Y-11628538D01*
X35316132Y-11621116D01*
X35320156Y-11614149D01*
X35358107Y-11585029D01*
X35374282Y-11582900D01*
X38885272Y-11582900D01*
X38929466Y-11601206D01*
G37*
%TD.AperFunction*%
%TA.AperFunction,Conductor*%
G36*
X38959698Y-18237206D02*
G01*
X38969172Y-18252080D01*
X38970132Y-18251527D01*
X38972865Y-18256262D01*
X38972866Y-18256263D01*
X38996918Y-18297923D01*
X39025852Y-18348038D01*
X39107030Y-18416155D01*
X39107031Y-18416155D01*
X39107032Y-18416156D01*
X39206614Y-18452400D01*
X39206617Y-18452400D01*
X39312583Y-18452400D01*
X39312586Y-18452400D01*
X39412168Y-18416156D01*
X39493348Y-18348038D01*
X39509073Y-18320800D01*
X39547023Y-18291680D01*
X39594449Y-18297923D01*
X39623570Y-18335873D01*
X39625700Y-18352050D01*
X39625700Y-19335932D01*
X39607394Y-19380126D01*
X39563200Y-19398432D01*
X39540468Y-19392344D01*
X39540006Y-19393614D01*
X39435288Y-19355500D01*
X39435286Y-19355500D01*
X39329314Y-19355500D01*
X39329311Y-19355500D01*
X39229733Y-19391743D01*
X39229730Y-19391744D01*
X39148552Y-19459861D01*
X39095565Y-19551639D01*
X39077164Y-19655995D01*
X39077164Y-19656000D01*
X39085348Y-19702422D01*
X39074993Y-19749123D01*
X39067991Y-19757467D01*
X38909730Y-19915729D01*
X38865536Y-19934035D01*
X38821342Y-19915729D01*
X38806015Y-19878727D01*
X38803986Y-19879085D01*
X38784634Y-19769339D01*
X38784634Y-19769337D01*
X38731648Y-19677562D01*
X38731647Y-19677561D01*
X38650469Y-19609444D01*
X38650466Y-19609443D01*
X38550888Y-19573200D01*
X38550886Y-19573200D01*
X38444914Y-19573200D01*
X38444911Y-19573200D01*
X38345333Y-19609443D01*
X38345330Y-19609444D01*
X38264152Y-19677561D01*
X38211165Y-19769339D01*
X38192764Y-19873697D01*
X38192764Y-19873700D01*
X38200948Y-19920122D01*
X38190593Y-19966823D01*
X38183591Y-19975167D01*
X34305894Y-23852865D01*
X34261700Y-23871171D01*
X34217506Y-23852865D01*
X34199200Y-23808671D01*
X34199200Y-19915326D01*
X34217505Y-19871133D01*
X35282030Y-18806607D01*
X35326223Y-18788302D01*
X35331915Y-18788800D01*
X35334514Y-18788800D01*
X35440483Y-18788800D01*
X35440486Y-18788800D01*
X35540068Y-18752556D01*
X35621248Y-18684438D01*
X35674234Y-18592663D01*
X35692636Y-18488300D01*
X35692636Y-18488297D01*
X35674234Y-18383939D01*
X35674234Y-18383937D01*
X35633075Y-18312648D01*
X35626833Y-18265224D01*
X35655953Y-18227273D01*
X35687203Y-18218900D01*
X38915504Y-18218900D01*
X38959698Y-18237206D01*
G37*
%TD.AperFunction*%
%TA.AperFunction,Conductor*%
G36*
X39617322Y-19944809D02*
G01*
X39625700Y-19976067D01*
X39625700Y-22117064D01*
X39607394Y-22161258D01*
X39603374Y-22164942D01*
X39542452Y-22216061D01*
X39489465Y-22307839D01*
X39471064Y-22412197D01*
X39471064Y-22412202D01*
X39488808Y-22512836D01*
X39489466Y-22516563D01*
X39540665Y-22605243D01*
X39542452Y-22608338D01*
X39623630Y-22676455D01*
X39623634Y-22676457D01*
X39648184Y-22685392D01*
X39668522Y-22692794D01*
X39703791Y-22725110D01*
X39705878Y-22772900D01*
X39691341Y-22795719D01*
X38658813Y-23828245D01*
X38658765Y-23828318D01*
X38658692Y-23828366D01*
X38654459Y-23832600D01*
X38653616Y-23831757D01*
X38618989Y-23854891D01*
X38572073Y-23845556D01*
X38545500Y-23805780D01*
X38544300Y-23793591D01*
X38544300Y-20732726D01*
X38562605Y-20688533D01*
X39276830Y-19974307D01*
X39321023Y-19956002D01*
X39326715Y-19956500D01*
X39329314Y-19956500D01*
X39435283Y-19956500D01*
X39435286Y-19956500D01*
X39534868Y-19920256D01*
X39534867Y-19920256D01*
X39540006Y-19918386D01*
X39540872Y-19920767D01*
X39579367Y-19915694D01*
X39617322Y-19944809D01*
G37*
%TD.AperFunction*%
%TA.AperFunction,Conductor*%
G36*
X59414749Y-15614987D02*
G01*
X59437299Y-15657174D01*
X59437600Y-15663300D01*
X59437600Y-16956699D01*
X59419294Y-17000893D01*
X59375100Y-17019199D01*
X59330906Y-17000893D01*
X59326787Y-16996348D01*
X59199162Y-16840836D01*
X59199161Y-16840835D01*
X59040761Y-16710841D01*
X59040759Y-16710840D01*
X59040756Y-16710837D01*
X59040754Y-16710835D01*
X59040750Y-16710833D01*
X58860035Y-16614238D01*
X58857582Y-16613494D01*
X58823529Y-16603164D01*
X58663933Y-16554751D01*
X58460000Y-16534666D01*
X58256066Y-16554751D01*
X58059964Y-16614238D01*
X57879249Y-16710833D01*
X57879238Y-16710841D01*
X57720838Y-16840835D01*
X57720838Y-16840836D01*
X57590841Y-16999238D01*
X57590833Y-16999249D01*
X57494238Y-17179964D01*
X57434751Y-17376066D01*
X57414666Y-17579999D01*
X57414666Y-17580000D01*
X57434751Y-17783933D01*
X57470954Y-17903278D01*
X57493480Y-17977538D01*
X57494238Y-17980035D01*
X57590833Y-18160750D01*
X57590841Y-18160761D01*
X57720835Y-18319161D01*
X57720838Y-18319164D01*
X57832100Y-18410473D01*
X57879244Y-18449163D01*
X57879247Y-18449164D01*
X57879249Y-18449166D01*
X57952463Y-18488300D01*
X58059968Y-18545763D01*
X58256065Y-18605248D01*
X58460000Y-18625334D01*
X58663935Y-18605248D01*
X58860032Y-18545763D01*
X59040756Y-18449163D01*
X59199163Y-18319163D01*
X59326787Y-18163650D01*
X59368974Y-18141101D01*
X59414749Y-18154987D01*
X59437299Y-18197174D01*
X59437600Y-18203300D01*
X59437600Y-19496699D01*
X59419294Y-19540893D01*
X59375100Y-19559199D01*
X59330906Y-19540893D01*
X59326787Y-19536348D01*
X59199164Y-19380838D01*
X59199161Y-19380835D01*
X59040761Y-19250841D01*
X59040759Y-19250840D01*
X59040756Y-19250837D01*
X59040754Y-19250835D01*
X59040750Y-19250833D01*
X58860035Y-19154238D01*
X58663933Y-19094751D01*
X58460000Y-19074666D01*
X58256066Y-19094751D01*
X58059964Y-19154238D01*
X57879249Y-19250833D01*
X57879238Y-19250841D01*
X57720838Y-19380835D01*
X57720835Y-19380838D01*
X57590841Y-19539238D01*
X57590833Y-19539249D01*
X57494238Y-19719964D01*
X57434751Y-19916066D01*
X57414666Y-20119999D01*
X57414666Y-20120000D01*
X57434751Y-20323931D01*
X57434751Y-20323932D01*
X57434752Y-20323935D01*
X57462139Y-20414219D01*
X57462333Y-20414857D01*
X57457644Y-20462463D01*
X57420667Y-20492809D01*
X57402524Y-20495500D01*
X53368228Y-20495500D01*
X53324034Y-20477194D01*
X53305728Y-20433000D01*
X53324034Y-20388806D01*
X54430914Y-19281926D01*
X57797684Y-15915154D01*
X57841877Y-15896849D01*
X57875674Y-15908982D01*
X57876693Y-15907458D01*
X57879241Y-15909161D01*
X57879244Y-15909163D01*
X57879246Y-15909164D01*
X57879249Y-15909166D01*
X58031776Y-15990694D01*
X58059968Y-16005763D01*
X58256065Y-16065248D01*
X58460000Y-16085334D01*
X58663935Y-16065248D01*
X58860032Y-16005763D01*
X59040756Y-15909163D01*
X59199163Y-15779163D01*
X59326787Y-15623650D01*
X59368974Y-15601101D01*
X59414749Y-15614987D01*
G37*
%TD.AperFunction*%
%TA.AperFunction,Conductor*%
G36*
X79002720Y-50738D02*
G01*
X79159437Y-64448D01*
X79170157Y-66339D01*
X79319465Y-106346D01*
X79329702Y-110072D01*
X79469792Y-175397D01*
X79479226Y-180844D01*
X79605849Y-269506D01*
X79614195Y-276509D01*
X79723490Y-385804D01*
X79730493Y-394150D01*
X79819155Y-520773D01*
X79824602Y-530207D01*
X79889927Y-670297D01*
X79893653Y-680535D01*
X79933659Y-829838D01*
X79935551Y-840567D01*
X79949262Y-997279D01*
X79949500Y-1002726D01*
X79949500Y-58997273D01*
X79949262Y-59002720D01*
X79935551Y-59159432D01*
X79933659Y-59170161D01*
X79893653Y-59319464D01*
X79889927Y-59329702D01*
X79824602Y-59469792D01*
X79819155Y-59479226D01*
X79730493Y-59605849D01*
X79723490Y-59614195D01*
X79614195Y-59723490D01*
X79605849Y-59730493D01*
X79479226Y-59819155D01*
X79469792Y-59824602D01*
X79329702Y-59889927D01*
X79319464Y-59893653D01*
X79170161Y-59933659D01*
X79159432Y-59935551D01*
X79002720Y-59949262D01*
X78997273Y-59949500D01*
X1002727Y-59949500D01*
X997280Y-59949262D01*
X840567Y-59935551D01*
X829838Y-59933659D01*
X680535Y-59893653D01*
X670297Y-59889927D01*
X530207Y-59824602D01*
X520773Y-59819155D01*
X394150Y-59730493D01*
X385804Y-59723490D01*
X276509Y-59614195D01*
X269506Y-59605849D01*
X180844Y-59479226D01*
X175397Y-59469792D01*
X110072Y-59329702D01*
X106346Y-59319464D01*
X66340Y-59170161D01*
X64448Y-59159432D01*
X50738Y-59002720D01*
X50500Y-58997273D01*
X50500Y-56381984D01*
X1699500Y-56381984D01*
X1699500Y-56618015D01*
X1730307Y-56852017D01*
X1730307Y-56852018D01*
X1791388Y-57079976D01*
X1791392Y-57079987D01*
X1791394Y-57079993D01*
X1839470Y-57196059D01*
X1881713Y-57298043D01*
X1881716Y-57298049D01*
X1999727Y-57502450D01*
X2143408Y-57689699D01*
X2310301Y-57856592D01*
X2497550Y-58000273D01*
X2701951Y-58118284D01*
X2920007Y-58208606D01*
X2920017Y-58208608D01*
X2920023Y-58208611D01*
X3147982Y-58269692D01*
X3147986Y-58269693D01*
X3381989Y-58300500D01*
X3381995Y-58300500D01*
X3618005Y-58300500D01*
X3618011Y-58300500D01*
X3852014Y-58269693D01*
X3852018Y-58269692D01*
X4079976Y-58208611D01*
X4079979Y-58208609D01*
X4079993Y-58208606D01*
X4298049Y-58118284D01*
X4502450Y-58000273D01*
X4689699Y-57856592D01*
X4856592Y-57689699D01*
X5000273Y-57502450D01*
X5118284Y-57298049D01*
X5208606Y-57079993D01*
X5269693Y-56852014D01*
X5300500Y-56618011D01*
X5300500Y-56381989D01*
X5300499Y-56381984D01*
X74699500Y-56381984D01*
X74699500Y-56618015D01*
X74730307Y-56852017D01*
X74730307Y-56852018D01*
X74791388Y-57079976D01*
X74791392Y-57079987D01*
X74791394Y-57079993D01*
X74839470Y-57196059D01*
X74881713Y-57298043D01*
X74881716Y-57298049D01*
X74999727Y-57502450D01*
X75143408Y-57689699D01*
X75310301Y-57856592D01*
X75497550Y-58000273D01*
X75701951Y-58118284D01*
X75920007Y-58208606D01*
X75920017Y-58208608D01*
X75920023Y-58208611D01*
X76147982Y-58269692D01*
X76147986Y-58269693D01*
X76381989Y-58300500D01*
X76381995Y-58300500D01*
X76618005Y-58300500D01*
X76618011Y-58300500D01*
X76852014Y-58269693D01*
X76852018Y-58269692D01*
X77079976Y-58208611D01*
X77079979Y-58208609D01*
X77079993Y-58208606D01*
X77298049Y-58118284D01*
X77502450Y-58000273D01*
X77689699Y-57856592D01*
X77856592Y-57689699D01*
X78000273Y-57502450D01*
X78118284Y-57298049D01*
X78208606Y-57079993D01*
X78269693Y-56852014D01*
X78300500Y-56618011D01*
X78300500Y-56381989D01*
X78269693Y-56147986D01*
X78269692Y-56147981D01*
X78208611Y-55920023D01*
X78208608Y-55920017D01*
X78208606Y-55920007D01*
X78118284Y-55701951D01*
X78000273Y-55497550D01*
X77856592Y-55310301D01*
X77689699Y-55143408D01*
X77689695Y-55143405D01*
X77689693Y-55143403D01*
X77502447Y-54999725D01*
X77298055Y-54881719D01*
X77298043Y-54881713D01*
X77196059Y-54839470D01*
X77079993Y-54791394D01*
X77079987Y-54791392D01*
X77079976Y-54791388D01*
X76852017Y-54730307D01*
X76618015Y-54699500D01*
X76618011Y-54699500D01*
X76381989Y-54699500D01*
X76381984Y-54699500D01*
X76147982Y-54730307D01*
X76147981Y-54730307D01*
X75920023Y-54791388D01*
X75920008Y-54791393D01*
X75920007Y-54791394D01*
X75920005Y-54791395D01*
X75701956Y-54881713D01*
X75701944Y-54881719D01*
X75497552Y-54999725D01*
X75310306Y-55143403D01*
X75310296Y-55143412D01*
X75143412Y-55310296D01*
X75143403Y-55310306D01*
X74999725Y-55497552D01*
X74881719Y-55701944D01*
X74881713Y-55701956D01*
X74791395Y-55920005D01*
X74791388Y-55920023D01*
X74730307Y-56147981D01*
X74730307Y-56147982D01*
X74699500Y-56381984D01*
X5300499Y-56381984D01*
X5269693Y-56147986D01*
X5269692Y-56147981D01*
X5208611Y-55920023D01*
X5208608Y-55920017D01*
X5208606Y-55920007D01*
X5118284Y-55701951D01*
X5000273Y-55497550D01*
X4856592Y-55310301D01*
X4689699Y-55143408D01*
X4689695Y-55143405D01*
X4689693Y-55143403D01*
X4502447Y-54999725D01*
X4298055Y-54881719D01*
X4298043Y-54881713D01*
X4196059Y-54839470D01*
X4079993Y-54791394D01*
X4079987Y-54791392D01*
X4079976Y-54791388D01*
X3852017Y-54730307D01*
X3618015Y-54699500D01*
X3618011Y-54699500D01*
X3381989Y-54699500D01*
X3381984Y-54699500D01*
X3147982Y-54730307D01*
X3147981Y-54730307D01*
X2920023Y-54791388D01*
X2920008Y-54791393D01*
X2920007Y-54791394D01*
X2920005Y-54791395D01*
X2701956Y-54881713D01*
X2701944Y-54881719D01*
X2497552Y-54999725D01*
X2310306Y-55143403D01*
X2310296Y-55143412D01*
X2143412Y-55310296D01*
X2143403Y-55310306D01*
X1999725Y-55497552D01*
X1881719Y-55701944D01*
X1881713Y-55701956D01*
X1791395Y-55920005D01*
X1791388Y-55920023D01*
X1730307Y-56147981D01*
X1730307Y-56147982D01*
X1699500Y-56381984D01*
X50500Y-56381984D01*
X50500Y-47399996D01*
X13894785Y-47399996D01*
X13894785Y-47400003D01*
X13913601Y-47603075D01*
X13913603Y-47603086D01*
X13969418Y-47799250D01*
X14060327Y-47981821D01*
X14060328Y-47981822D01*
X14060330Y-47981826D01*
X14183227Y-48144569D01*
X14183232Y-48144574D01*
X14183236Y-48144579D01*
X14285467Y-48237775D01*
X14333954Y-48281977D01*
X14333955Y-48281978D01*
X14333959Y-48281981D01*
X14507363Y-48389348D01*
X14697544Y-48463024D01*
X14898024Y-48500500D01*
X14898027Y-48500500D01*
X15101973Y-48500500D01*
X15101976Y-48500500D01*
X15302456Y-48463024D01*
X15492637Y-48389348D01*
X15666041Y-48281981D01*
X15816764Y-48144579D01*
X15864158Y-48081820D01*
X15939669Y-47981826D01*
X15939668Y-47981826D01*
X15939673Y-47981821D01*
X16030582Y-47799250D01*
X16086397Y-47603083D01*
X16086398Y-47603075D01*
X16086690Y-47601516D01*
X16086961Y-47601098D01*
X16087188Y-47600304D01*
X16087434Y-47600374D01*
X16112805Y-47561438D01*
X16148126Y-47550500D01*
X16771636Y-47550500D01*
X16794548Y-47541009D01*
X16826952Y-47527588D01*
X29441087Y-34913452D01*
X29455638Y-34878322D01*
X29464000Y-34858136D01*
X29464000Y-34178135D01*
X29482306Y-34133941D01*
X29486318Y-34130263D01*
X29547248Y-34079138D01*
X29600234Y-33987363D01*
X29615570Y-33900389D01*
X29618636Y-33883002D01*
X29618636Y-33882997D01*
X29607594Y-33820382D01*
X29600234Y-33778637D01*
X29547248Y-33686862D01*
X29535574Y-33677066D01*
X29466069Y-33618744D01*
X29466066Y-33618743D01*
X29366488Y-33582500D01*
X29366486Y-33582500D01*
X29260514Y-33582500D01*
X29260511Y-33582500D01*
X29160933Y-33618743D01*
X29160930Y-33618744D01*
X29079752Y-33686861D01*
X29026765Y-33778639D01*
X29008364Y-33882997D01*
X29008364Y-33883002D01*
X29019225Y-33944600D01*
X29026766Y-33987363D01*
X29079752Y-34079138D01*
X29140674Y-34130257D01*
X29162762Y-34172687D01*
X29163000Y-34178135D01*
X29163000Y-34739971D01*
X29144694Y-34784165D01*
X24010693Y-39918165D01*
X23966499Y-39936471D01*
X23922305Y-39918165D01*
X23903999Y-39873971D01*
X23904000Y-39452000D01*
X23384459Y-39452000D01*
X23400000Y-39373869D01*
X23400000Y-39226131D01*
X23384459Y-39148000D01*
X23903999Y-39148000D01*
X23903999Y-38254611D01*
X23901050Y-38229192D01*
X23901050Y-38229191D01*
X23855142Y-38125221D01*
X23774778Y-38044857D01*
X23670805Y-37998948D01*
X23645389Y-37996000D01*
X22152000Y-37996000D01*
X22152000Y-38550000D01*
X21848000Y-38550000D01*
X21848000Y-37996000D01*
X20354611Y-37996000D01*
X20329192Y-37998949D01*
X20329191Y-37998949D01*
X20225221Y-38044857D01*
X20144857Y-38125221D01*
X20098948Y-38229194D01*
X20096000Y-38254611D01*
X20096000Y-39148000D01*
X20615541Y-39148000D01*
X20600000Y-39226131D01*
X20600000Y-39373869D01*
X20615541Y-39452000D01*
X20096001Y-39452000D01*
X20096001Y-40345388D01*
X20098949Y-40370807D01*
X20098949Y-40370808D01*
X20144857Y-40474778D01*
X20225221Y-40555142D01*
X20329194Y-40601051D01*
X20354611Y-40603999D01*
X21848000Y-40603999D01*
X21848000Y-40050000D01*
X22152000Y-40050000D01*
X22152000Y-40603999D01*
X23173972Y-40603999D01*
X23218166Y-40622305D01*
X23236472Y-40666499D01*
X23218166Y-40710693D01*
X16697666Y-47231194D01*
X16653472Y-47249500D01*
X16148126Y-47249500D01*
X16103932Y-47231194D01*
X16087310Y-47199661D01*
X16087188Y-47199696D01*
X16087022Y-47199115D01*
X16086690Y-47198484D01*
X16086396Y-47196914D01*
X16086396Y-47196913D01*
X16030582Y-47000750D01*
X15939673Y-46818179D01*
X15939670Y-46818175D01*
X15939669Y-46818173D01*
X15816772Y-46655430D01*
X15816767Y-46655425D01*
X15816764Y-46655421D01*
X15722209Y-46569223D01*
X15666045Y-46518022D01*
X15666042Y-46518020D01*
X15666041Y-46518019D01*
X15492637Y-46410652D01*
X15492635Y-46410651D01*
X15437356Y-46389236D01*
X15302456Y-46336976D01*
X15302453Y-46336975D01*
X15302452Y-46336975D01*
X15101980Y-46299500D01*
X15101976Y-46299500D01*
X14898024Y-46299500D01*
X14898019Y-46299500D01*
X14697547Y-46336975D01*
X14507364Y-46410651D01*
X14333954Y-46518022D01*
X14183234Y-46655423D01*
X14183227Y-46655430D01*
X14060330Y-46818173D01*
X14060327Y-46818179D01*
X13969418Y-47000749D01*
X13913603Y-47196913D01*
X13913601Y-47196924D01*
X13894785Y-47399996D01*
X50500Y-47399996D01*
X50500Y-42399997D01*
X13691019Y-42399997D01*
X13691019Y-42400002D01*
X13710904Y-42627298D01*
X13710907Y-42627314D01*
X13769956Y-42847687D01*
X13769962Y-42847703D01*
X13866386Y-43054487D01*
X13866388Y-43054489D01*
X13975178Y-43209859D01*
X13975178Y-43209860D01*
X14555293Y-42629744D01*
X14599901Y-42707007D01*
X14692993Y-42800099D01*
X14770253Y-42844705D01*
X14190138Y-43424820D01*
X14345510Y-43533611D01*
X14345512Y-43533613D01*
X14552296Y-43630037D01*
X14552312Y-43630043D01*
X14772685Y-43689092D01*
X14772701Y-43689095D01*
X14999998Y-43708981D01*
X15000002Y-43708981D01*
X15227298Y-43689095D01*
X15227314Y-43689092D01*
X15447687Y-43630043D01*
X15447703Y-43630037D01*
X15654485Y-43533614D01*
X15809859Y-43424819D01*
X15229745Y-42844705D01*
X15307007Y-42800099D01*
X15400099Y-42707007D01*
X15444705Y-42629745D01*
X16024819Y-43209859D01*
X16133614Y-43054485D01*
X16230037Y-42847703D01*
X16230043Y-42847687D01*
X16289092Y-42627314D01*
X16289095Y-42627298D01*
X16308981Y-42400002D01*
X16308981Y-42399997D01*
X16289095Y-42172701D01*
X16289092Y-42172685D01*
X16230041Y-41952305D01*
X16230040Y-41952303D01*
X16133611Y-41745510D01*
X16024820Y-41590139D01*
X16024820Y-41590138D01*
X15444705Y-42170253D01*
X15400099Y-42092993D01*
X15307007Y-41999901D01*
X15229744Y-41955293D01*
X15809860Y-41375178D01*
X15654489Y-41266388D01*
X15654487Y-41266386D01*
X15447703Y-41169962D01*
X15447687Y-41169956D01*
X15227314Y-41110907D01*
X15227298Y-41110904D01*
X15000002Y-41091019D01*
X14999998Y-41091019D01*
X14772701Y-41110904D01*
X14772685Y-41110907D01*
X14552305Y-41169958D01*
X14552303Y-41169959D01*
X14345510Y-41266388D01*
X14190138Y-41375178D01*
X14770254Y-41955294D01*
X14692993Y-41999901D01*
X14599901Y-42092993D01*
X14555294Y-42170254D01*
X13975178Y-41590138D01*
X13866388Y-41745510D01*
X13769959Y-41952303D01*
X13769958Y-41952305D01*
X13710907Y-42172685D01*
X13710904Y-42172701D01*
X13691019Y-42399997D01*
X50500Y-42399997D01*
X50500Y-32131643D01*
X1517799Y-32131643D01*
X1517799Y-32228627D01*
X1517800Y-32228636D01*
X1517800Y-36626200D01*
X1517799Y-36626214D01*
X1517799Y-36631245D01*
X1517799Y-36720955D01*
X1537375Y-36768213D01*
X1537376Y-36768216D01*
X1552129Y-36803834D01*
X1552131Y-36803837D01*
X1624354Y-36876060D01*
X1624356Y-36876061D01*
X2518076Y-37769781D01*
X2535432Y-37803121D01*
X2547465Y-37871361D01*
X2600452Y-37963138D01*
X2681630Y-38031255D01*
X2681631Y-38031255D01*
X2681632Y-38031256D01*
X2781214Y-38067500D01*
X2781217Y-38067500D01*
X2887183Y-38067500D01*
X2887186Y-38067500D01*
X2986768Y-38031256D01*
X3067948Y-37963138D01*
X3120934Y-37871363D01*
X3139336Y-37767000D01*
X3139336Y-37766997D01*
X3120934Y-37662639D01*
X3120934Y-37662637D01*
X3067948Y-37570862D01*
X3067947Y-37570861D01*
X2986769Y-37502744D01*
X2986766Y-37502743D01*
X2887188Y-37466500D01*
X2887186Y-37466500D01*
X2878493Y-37466500D01*
X2834299Y-37448194D01*
X1987106Y-36601001D01*
X1968800Y-36556807D01*
X1968800Y-36126999D01*
X1987106Y-36082805D01*
X2031300Y-36064499D01*
X3249895Y-36064499D01*
X3249898Y-36064499D01*
X3279213Y-36058669D01*
X3312457Y-36036457D01*
X3334669Y-36003213D01*
X3340500Y-35973899D01*
X3340499Y-32342299D01*
X3358805Y-32298106D01*
X3402999Y-32279800D01*
X4347000Y-32279800D01*
X4391194Y-32298106D01*
X4409500Y-32342300D01*
X4409500Y-35973894D01*
X4409501Y-35973898D01*
X4409659Y-35974690D01*
X4415331Y-36003214D01*
X4437543Y-36036457D01*
X4470783Y-36058667D01*
X4470784Y-36058667D01*
X4470787Y-36058669D01*
X4500101Y-36064500D01*
X4932000Y-36064499D01*
X4976194Y-36082805D01*
X4994500Y-36126999D01*
X4994500Y-36145636D01*
X4999519Y-36157752D01*
X5017413Y-36200951D01*
X5017416Y-36200955D01*
X5059744Y-36243283D01*
X5059748Y-36243286D01*
X5059749Y-36243287D01*
X5115064Y-36266200D01*
X5737164Y-36266200D01*
X5781358Y-36284506D01*
X5795822Y-36319424D01*
X5798714Y-36318915D01*
X5813859Y-36404806D01*
X5818066Y-36428663D01*
X5829808Y-36449000D01*
X5871052Y-36520438D01*
X5952230Y-36588555D01*
X5952231Y-36588555D01*
X5952232Y-36588556D01*
X6051814Y-36624800D01*
X6051817Y-36624800D01*
X6157783Y-36624800D01*
X6157786Y-36624800D01*
X6257368Y-36588556D01*
X6338548Y-36520438D01*
X6391534Y-36428663D01*
X6409936Y-36324300D01*
X6409936Y-36324297D01*
X6398894Y-36261682D01*
X6391534Y-36219937D01*
X6338548Y-36128162D01*
X6337162Y-36126999D01*
X6257369Y-36060044D01*
X6257366Y-36060043D01*
X6157788Y-36023800D01*
X6157786Y-36023800D01*
X6051814Y-36023800D01*
X6046346Y-36023800D01*
X6046346Y-36021569D01*
X6007669Y-36012989D01*
X5999331Y-36005991D01*
X5981453Y-35988113D01*
X5981452Y-35988112D01*
X5949048Y-35974690D01*
X5949048Y-35974689D01*
X5920450Y-35962845D01*
X5921629Y-35959998D01*
X5891030Y-35939550D01*
X5880499Y-35904833D01*
X5880499Y-32342299D01*
X5898805Y-32298106D01*
X5942999Y-32279800D01*
X6887000Y-32279800D01*
X6931194Y-32298106D01*
X6949500Y-32342300D01*
X6949500Y-35973894D01*
X6949501Y-35973898D01*
X6949659Y-35974690D01*
X6955331Y-36003214D01*
X6977543Y-36036457D01*
X7010783Y-36058667D01*
X7010784Y-36058667D01*
X7010787Y-36058669D01*
X7040101Y-36064500D01*
X8329898Y-36064499D01*
X8359213Y-36058669D01*
X8392457Y-36036457D01*
X8414669Y-36003213D01*
X8420500Y-35973899D01*
X8420499Y-32342299D01*
X8438805Y-32298106D01*
X8482999Y-32279800D01*
X19787573Y-32279800D01*
X19831767Y-32298106D01*
X19850073Y-32342300D01*
X19831767Y-32386493D01*
X15207189Y-37011071D01*
X10736066Y-41482194D01*
X10691872Y-41500500D01*
X3328782Y-41500500D01*
X3284588Y-41482194D01*
X3274656Y-41469251D01*
X3266348Y-41454862D01*
X3185169Y-41386744D01*
X3185166Y-41386743D01*
X3085588Y-41350500D01*
X3085586Y-41350500D01*
X2979614Y-41350500D01*
X2979611Y-41350500D01*
X2880033Y-41386743D01*
X2880030Y-41386744D01*
X2798852Y-41454861D01*
X2745865Y-41546639D01*
X2727464Y-41650997D01*
X2727464Y-41651002D01*
X2744128Y-41745510D01*
X2745866Y-41755363D01*
X2790545Y-41832749D01*
X2798852Y-41847138D01*
X2880030Y-41915255D01*
X2880031Y-41915255D01*
X2880032Y-41915256D01*
X2979614Y-41951500D01*
X2979617Y-41951500D01*
X3085583Y-41951500D01*
X3085586Y-41951500D01*
X3185168Y-41915256D01*
X3266348Y-41847138D01*
X3270632Y-41839716D01*
X3274656Y-41832749D01*
X3312607Y-41803629D01*
X3328782Y-41801500D01*
X10810036Y-41801500D01*
X10832948Y-41792009D01*
X10865352Y-41778588D01*
X32955488Y-19688451D01*
X32968929Y-19656000D01*
X32978400Y-19633136D01*
X32978400Y-19126827D01*
X32996705Y-19082634D01*
X33314169Y-18765170D01*
X33358361Y-18746865D01*
X33402555Y-18765171D01*
X33412488Y-18778115D01*
X33413265Y-18779460D01*
X33413266Y-18779463D01*
X33466252Y-18871238D01*
X33527174Y-18922357D01*
X33549262Y-18964787D01*
X33549500Y-18970235D01*
X33549500Y-23472671D01*
X33531194Y-23516865D01*
X32924967Y-24123091D01*
X32880773Y-24141397D01*
X32875090Y-24140900D01*
X32872486Y-24140900D01*
X32766514Y-24140900D01*
X32766511Y-24140900D01*
X32666933Y-24177143D01*
X32666930Y-24177144D01*
X32585752Y-24245261D01*
X32532765Y-24337039D01*
X32514364Y-24441397D01*
X32514364Y-24441402D01*
X32518289Y-24463663D01*
X32532766Y-24545763D01*
X32567741Y-24606342D01*
X32585752Y-24637538D01*
X32666930Y-24705655D01*
X32666931Y-24705655D01*
X32666932Y-24705656D01*
X32766514Y-24741900D01*
X32766517Y-24741900D01*
X32872483Y-24741900D01*
X32872486Y-24741900D01*
X32972068Y-24705656D01*
X33053248Y-24637538D01*
X33106234Y-24545763D01*
X33117275Y-24483145D01*
X33124636Y-24441402D01*
X33124636Y-24441398D01*
X33122298Y-24428143D01*
X33116450Y-24394977D01*
X33126802Y-24348279D01*
X33133800Y-24339938D01*
X33791506Y-23682233D01*
X33835700Y-23663927D01*
X33879894Y-23682233D01*
X33898200Y-23726427D01*
X33898200Y-31150471D01*
X33879894Y-31194665D01*
X13376867Y-51697691D01*
X13332673Y-51715997D01*
X13326990Y-51715500D01*
X13324386Y-51715500D01*
X13218414Y-51715500D01*
X13218411Y-51715500D01*
X13118833Y-51751743D01*
X13118830Y-51751744D01*
X13037652Y-51819861D01*
X12984665Y-51911639D01*
X12966264Y-52015997D01*
X12966264Y-52015998D01*
X12966264Y-52016000D01*
X12984666Y-52120363D01*
X13037652Y-52212138D01*
X13118830Y-52280255D01*
X13118831Y-52280255D01*
X13118832Y-52280256D01*
X13218414Y-52316500D01*
X13218417Y-52316500D01*
X13324383Y-52316500D01*
X13324386Y-52316500D01*
X13423968Y-52280256D01*
X13505148Y-52212138D01*
X13558134Y-52120363D01*
X13576536Y-52016000D01*
X13576535Y-52015997D01*
X13574198Y-52002743D01*
X13572155Y-51991157D01*
X34923500Y-51991157D01*
X34923500Y-52148842D01*
X34954262Y-52303495D01*
X35014606Y-52449180D01*
X35102210Y-52580288D01*
X35213711Y-52691789D01*
X35344819Y-52779393D01*
X35344820Y-52779393D01*
X35344821Y-52779394D01*
X35490503Y-52839737D01*
X35645158Y-52870500D01*
X35802842Y-52870500D01*
X35957497Y-52839737D01*
X36103179Y-52779394D01*
X36234289Y-52691789D01*
X36345789Y-52580289D01*
X36433394Y-52449179D01*
X36493737Y-52303497D01*
X36524500Y-52148842D01*
X36524500Y-51991158D01*
X36524500Y-51991157D01*
X42423500Y-51991157D01*
X42423500Y-52148842D01*
X42454262Y-52303495D01*
X42514606Y-52449180D01*
X42602210Y-52580288D01*
X42713711Y-52691789D01*
X42844819Y-52779393D01*
X42844820Y-52779393D01*
X42844821Y-52779394D01*
X42990503Y-52839737D01*
X43145158Y-52870500D01*
X43302842Y-52870500D01*
X43457497Y-52839737D01*
X43603179Y-52779394D01*
X43734289Y-52691789D01*
X43845789Y-52580289D01*
X43933394Y-52449179D01*
X43993737Y-52303497D01*
X44024500Y-52148842D01*
X44024500Y-51991158D01*
X43993737Y-51836503D01*
X43933394Y-51690821D01*
X43922674Y-51674778D01*
X43845789Y-51559711D01*
X43734288Y-51448210D01*
X43603180Y-51360606D01*
X43457495Y-51300262D01*
X43302842Y-51269500D01*
X43145158Y-51269500D01*
X42990504Y-51300262D01*
X42844819Y-51360606D01*
X42713711Y-51448210D01*
X42602210Y-51559711D01*
X42514606Y-51690819D01*
X42454262Y-51836504D01*
X42423500Y-51991157D01*
X36524500Y-51991157D01*
X36493737Y-51836503D01*
X36433394Y-51690821D01*
X36422674Y-51674778D01*
X36345789Y-51559711D01*
X36234288Y-51448210D01*
X36103180Y-51360606D01*
X35957495Y-51300262D01*
X35802842Y-51269500D01*
X35645158Y-51269500D01*
X35490504Y-51300262D01*
X35344819Y-51360606D01*
X35213711Y-51448210D01*
X35102210Y-51559711D01*
X35014606Y-51690819D01*
X34954262Y-51836504D01*
X34923500Y-51991157D01*
X13572155Y-51991157D01*
X13568350Y-51969577D01*
X13578702Y-51922879D01*
X13585700Y-51914538D01*
X16045627Y-49454611D01*
X20096000Y-49454611D01*
X20096000Y-50348000D01*
X20615541Y-50348000D01*
X20600000Y-50426131D01*
X20600000Y-50573869D01*
X20615541Y-50652000D01*
X20096001Y-50652000D01*
X20096001Y-51545388D01*
X20098949Y-51570807D01*
X20098949Y-51570808D01*
X20144857Y-51674778D01*
X20225221Y-51755142D01*
X20329194Y-51801051D01*
X20354611Y-51803999D01*
X21848000Y-51803999D01*
X21848000Y-51250000D01*
X22152000Y-51250000D01*
X22152000Y-51803999D01*
X23645388Y-51803999D01*
X23670807Y-51801050D01*
X23670808Y-51801050D01*
X23774778Y-51755142D01*
X23855142Y-51674778D01*
X23901051Y-51570805D01*
X23904000Y-51545388D01*
X23904000Y-50652000D01*
X23384459Y-50652000D01*
X23400000Y-50573869D01*
X23400000Y-50426131D01*
X23384459Y-50348000D01*
X23903999Y-50348000D01*
X23903999Y-49554611D01*
X56596000Y-49554611D01*
X56596000Y-50448000D01*
X57115541Y-50448000D01*
X57100000Y-50526131D01*
X57100000Y-50673869D01*
X57115541Y-50752000D01*
X56596001Y-50752000D01*
X56596001Y-51645388D01*
X56598949Y-51670807D01*
X56598949Y-51670808D01*
X56644857Y-51774778D01*
X56725221Y-51855142D01*
X56829194Y-51901051D01*
X56854611Y-51903999D01*
X58348000Y-51903999D01*
X58348000Y-51350000D01*
X58652000Y-51350000D01*
X58652000Y-51903999D01*
X60145388Y-51903999D01*
X60170807Y-51901050D01*
X60170808Y-51901050D01*
X60274778Y-51855142D01*
X60355142Y-51774778D01*
X60401051Y-51670805D01*
X60404000Y-51645388D01*
X60404000Y-50752000D01*
X59884459Y-50752000D01*
X59900000Y-50673869D01*
X59900000Y-50526131D01*
X59884459Y-50448000D01*
X60403999Y-50448000D01*
X60403999Y-49554611D01*
X60401050Y-49529192D01*
X60401050Y-49529191D01*
X60355142Y-49425221D01*
X60274778Y-49344857D01*
X60170805Y-49298948D01*
X60145389Y-49296000D01*
X58652000Y-49296000D01*
X58652000Y-49850000D01*
X58348000Y-49850000D01*
X58348000Y-49296000D01*
X56854611Y-49296000D01*
X56829192Y-49298949D01*
X56829191Y-49298949D01*
X56725221Y-49344857D01*
X56644857Y-49425221D01*
X56598948Y-49529194D01*
X56596000Y-49554611D01*
X23903999Y-49554611D01*
X23903999Y-49454611D01*
X23901050Y-49429192D01*
X23901050Y-49429191D01*
X23855142Y-49325221D01*
X23774778Y-49244857D01*
X23670805Y-49198948D01*
X23645389Y-49196000D01*
X22152000Y-49196000D01*
X22152000Y-49750000D01*
X21848000Y-49750000D01*
X21848000Y-49196000D01*
X20354611Y-49196000D01*
X20329192Y-49198949D01*
X20329191Y-49198949D01*
X20225221Y-49244857D01*
X20144857Y-49325221D01*
X20098948Y-49429194D01*
X20096000Y-49454611D01*
X16045627Y-49454611D01*
X24385197Y-41115040D01*
X24429390Y-41096735D01*
X24473584Y-41115041D01*
X24490940Y-41148379D01*
X24492665Y-41158161D01*
X24492665Y-41158162D01*
X24492666Y-41158163D01*
X24499478Y-41169962D01*
X24545652Y-41249938D01*
X24626830Y-41318055D01*
X24626831Y-41318055D01*
X24626832Y-41318056D01*
X24726414Y-41354300D01*
X24726417Y-41354300D01*
X24832383Y-41354300D01*
X24832386Y-41354300D01*
X24931968Y-41318056D01*
X25013148Y-41249938D01*
X25066134Y-41158163D01*
X25077973Y-41091019D01*
X25084536Y-41053802D01*
X25084536Y-41053798D01*
X25078579Y-41020018D01*
X25076350Y-41007377D01*
X25086702Y-40960679D01*
X25093700Y-40952338D01*
X34377988Y-31668051D01*
X34389443Y-31640393D01*
X34392810Y-31632267D01*
X34400900Y-31612736D01*
X34400900Y-24209426D01*
X34419205Y-24165233D01*
X38392430Y-20192007D01*
X38436623Y-20173702D01*
X38442315Y-20174200D01*
X38500371Y-20174200D01*
X38544565Y-20192506D01*
X38562871Y-20236700D01*
X38544565Y-20280894D01*
X38266211Y-20559248D01*
X38261078Y-20571643D01*
X38261078Y-20571644D01*
X38243300Y-20614564D01*
X38243300Y-32847671D01*
X38224994Y-32891865D01*
X32000167Y-39116691D01*
X31955973Y-39134997D01*
X31950290Y-39134500D01*
X31947686Y-39134500D01*
X31841714Y-39134500D01*
X31841711Y-39134500D01*
X31742133Y-39170743D01*
X31742130Y-39170744D01*
X31660952Y-39238861D01*
X31607965Y-39330639D01*
X31589564Y-39434997D01*
X31589564Y-39435002D01*
X31596417Y-39473869D01*
X31607966Y-39539363D01*
X31653810Y-39618767D01*
X31660952Y-39631138D01*
X31742130Y-39699255D01*
X31742131Y-39699255D01*
X31742132Y-39699256D01*
X31765157Y-39707636D01*
X31777344Y-39712072D01*
X31812612Y-39744389D01*
X31814699Y-39792179D01*
X31800162Y-39814997D01*
X30535666Y-41079494D01*
X30491472Y-41097800D01*
X29470064Y-41097800D01*
X29414748Y-41120713D01*
X29414744Y-41120716D01*
X29372416Y-41163044D01*
X29372413Y-41163048D01*
X29349500Y-41218364D01*
X29349500Y-41237000D01*
X29331194Y-41281194D01*
X29287000Y-41299500D01*
X28490105Y-41299500D01*
X28490104Y-41299500D01*
X28490102Y-41299501D01*
X28475444Y-41302416D01*
X28460785Y-41305331D01*
X28427542Y-41327543D01*
X28405332Y-41360783D01*
X28405331Y-41360787D01*
X28399500Y-41390101D01*
X28399500Y-43409894D01*
X28399501Y-43409898D01*
X28402469Y-43424820D01*
X28405331Y-43439214D01*
X28427543Y-43472457D01*
X28460783Y-43494667D01*
X28460784Y-43494667D01*
X28460787Y-43494669D01*
X28490101Y-43500500D01*
X29210002Y-43500499D01*
X29254195Y-43518805D01*
X29272501Y-43562999D01*
X29254195Y-43607193D01*
X29226178Y-43623369D01*
X29052303Y-43669959D01*
X28845510Y-43766388D01*
X28690138Y-43875178D01*
X29270254Y-44455294D01*
X29192993Y-44499901D01*
X29099901Y-44592993D01*
X29055294Y-44670254D01*
X28475178Y-44090138D01*
X28366388Y-44245510D01*
X28269959Y-44452303D01*
X28269958Y-44452305D01*
X28210907Y-44672685D01*
X28210904Y-44672701D01*
X28191019Y-44899997D01*
X28191019Y-44900002D01*
X28210904Y-45127298D01*
X28210907Y-45127314D01*
X28269956Y-45347687D01*
X28269962Y-45347703D01*
X28366386Y-45554487D01*
X28366388Y-45554489D01*
X28475178Y-45709859D01*
X28475178Y-45709860D01*
X29055293Y-45129744D01*
X29099901Y-45207007D01*
X29192993Y-45300099D01*
X29270253Y-45344705D01*
X28690138Y-45924820D01*
X28845510Y-46033611D01*
X28845512Y-46033613D01*
X29052296Y-46130037D01*
X29052312Y-46130043D01*
X29272685Y-46189092D01*
X29272701Y-46189095D01*
X29305515Y-46191966D01*
X29347946Y-46214054D01*
X29362330Y-46259675D01*
X29340242Y-46302106D01*
X29311552Y-46315664D01*
X29197547Y-46336975D01*
X29007364Y-46410651D01*
X28833954Y-46518022D01*
X28683234Y-46655423D01*
X28683227Y-46655430D01*
X28560330Y-46818173D01*
X28560327Y-46818179D01*
X28469418Y-47000749D01*
X28413603Y-47196913D01*
X28413601Y-47196924D01*
X28394785Y-47399996D01*
X28394785Y-47400003D01*
X28413601Y-47603075D01*
X28413603Y-47603086D01*
X28469418Y-47799250D01*
X28560327Y-47981821D01*
X28560328Y-47981822D01*
X28560330Y-47981826D01*
X28683227Y-48144569D01*
X28683232Y-48144574D01*
X28683236Y-48144579D01*
X28785467Y-48237775D01*
X28833954Y-48281977D01*
X28833955Y-48281978D01*
X28833959Y-48281981D01*
X29007363Y-48389348D01*
X29197544Y-48463024D01*
X29398024Y-48500500D01*
X29398027Y-48500500D01*
X29601973Y-48500500D01*
X29601976Y-48500500D01*
X29802456Y-48463024D01*
X29992637Y-48389348D01*
X30166041Y-48281981D01*
X30316764Y-48144579D01*
X30364158Y-48081820D01*
X30439669Y-47981826D01*
X30439668Y-47981826D01*
X30439673Y-47981821D01*
X30530582Y-47799250D01*
X30586397Y-47603083D01*
X30590256Y-47561438D01*
X30605215Y-47400003D01*
X30605215Y-47399996D01*
X30586398Y-47196924D01*
X30586396Y-47196913D01*
X30559035Y-47100750D01*
X30530582Y-47000750D01*
X30439673Y-46818179D01*
X30410056Y-46778959D01*
X30398031Y-46732659D01*
X30415737Y-46697101D01*
X39928288Y-37184551D01*
X39939743Y-37156893D01*
X39951200Y-37129236D01*
X39951200Y-36448997D01*
X40131764Y-36448997D01*
X40131764Y-36448998D01*
X40131764Y-36449000D01*
X40150166Y-36553363D01*
X40191410Y-36624800D01*
X40203152Y-36645138D01*
X40284330Y-36713255D01*
X40284331Y-36713255D01*
X40284332Y-36713256D01*
X40383914Y-36749500D01*
X40383917Y-36749500D01*
X40489883Y-36749500D01*
X40489886Y-36749500D01*
X40589468Y-36713256D01*
X40670648Y-36645138D01*
X40723634Y-36553363D01*
X40742036Y-36449000D01*
X40742035Y-36448997D01*
X40739698Y-36435743D01*
X40733850Y-36402577D01*
X40744202Y-36355879D01*
X40751200Y-36347538D01*
X43983207Y-33115532D01*
X44027400Y-33097227D01*
X44071594Y-33115533D01*
X44089900Y-33159727D01*
X44089900Y-40270336D01*
X44099390Y-40293248D01*
X44112812Y-40325652D01*
X47359617Y-43572457D01*
X50584261Y-46797100D01*
X50602567Y-46841294D01*
X50589944Y-46878958D01*
X50560328Y-46918176D01*
X50469418Y-47100749D01*
X50413603Y-47296913D01*
X50413601Y-47296924D01*
X50394785Y-47499996D01*
X50394785Y-47500003D01*
X50413601Y-47703075D01*
X50413603Y-47703086D01*
X50440965Y-47799250D01*
X50469418Y-47899250D01*
X50560327Y-48081821D01*
X50560328Y-48081822D01*
X50560330Y-48081826D01*
X50683227Y-48244569D01*
X50683232Y-48244574D01*
X50683236Y-48244579D01*
X50785467Y-48337775D01*
X50833954Y-48381977D01*
X50833955Y-48381978D01*
X50833959Y-48381981D01*
X51007363Y-48489348D01*
X51197544Y-48563024D01*
X51398024Y-48600500D01*
X51398027Y-48600500D01*
X51601973Y-48600500D01*
X51601976Y-48600500D01*
X51802456Y-48563024D01*
X51992637Y-48489348D01*
X52166041Y-48381981D01*
X52316764Y-48244579D01*
X52439673Y-48081821D01*
X52530582Y-47899250D01*
X52586397Y-47703083D01*
X52586601Y-47700884D01*
X52605215Y-47500003D01*
X52605215Y-47499996D01*
X52586398Y-47296924D01*
X52586396Y-47296913D01*
X52577365Y-47265173D01*
X52530582Y-47100750D01*
X52439673Y-46918179D01*
X52439670Y-46918175D01*
X52439669Y-46918173D01*
X52316772Y-46755430D01*
X52316767Y-46755425D01*
X52316764Y-46755421D01*
X52207069Y-46655421D01*
X52166045Y-46618022D01*
X52166042Y-46618020D01*
X52166041Y-46618019D01*
X51992637Y-46510652D01*
X51992635Y-46510651D01*
X51924351Y-46484198D01*
X51802456Y-46436976D01*
X51802453Y-46436975D01*
X51802452Y-46436975D01*
X51601980Y-46399500D01*
X51601976Y-46399500D01*
X51398024Y-46399500D01*
X51398019Y-46399500D01*
X51197547Y-46436975D01*
X51007361Y-46510652D01*
X50874132Y-46593143D01*
X50826921Y-46600844D01*
X50797037Y-46584198D01*
X46712837Y-42499997D01*
X50191019Y-42499997D01*
X50191019Y-42500002D01*
X50210904Y-42727298D01*
X50210907Y-42727314D01*
X50269956Y-42947687D01*
X50269962Y-42947703D01*
X50366386Y-43154487D01*
X50366388Y-43154489D01*
X50475178Y-43309859D01*
X50475178Y-43309860D01*
X51055293Y-42729744D01*
X51099901Y-42807007D01*
X51192993Y-42900099D01*
X51270253Y-42944705D01*
X50690138Y-43524820D01*
X50845510Y-43633611D01*
X50845512Y-43633613D01*
X51052296Y-43730037D01*
X51052312Y-43730043D01*
X51272685Y-43789092D01*
X51272701Y-43789095D01*
X51499998Y-43808981D01*
X51500002Y-43808981D01*
X51727298Y-43789095D01*
X51727314Y-43789092D01*
X51947687Y-43730043D01*
X51947703Y-43730037D01*
X52154485Y-43633614D01*
X52309859Y-43524819D01*
X51729745Y-42944705D01*
X51807007Y-42900099D01*
X51900099Y-42807007D01*
X51944705Y-42729745D01*
X52524819Y-43309859D01*
X52633614Y-43154485D01*
X52730037Y-42947703D01*
X52730043Y-42947687D01*
X52789092Y-42727314D01*
X52789095Y-42727298D01*
X52808981Y-42500002D01*
X52808981Y-42499997D01*
X52789095Y-42272701D01*
X52789092Y-42272685D01*
X52730041Y-42052305D01*
X52730040Y-42052303D01*
X52633611Y-41845510D01*
X52524820Y-41690139D01*
X52524820Y-41690138D01*
X51944705Y-42270253D01*
X51900099Y-42192993D01*
X51807007Y-42099901D01*
X51729744Y-42055293D01*
X52309860Y-41475178D01*
X52154489Y-41366388D01*
X52154487Y-41366386D01*
X51947703Y-41269962D01*
X51947687Y-41269956D01*
X51727314Y-41210907D01*
X51727298Y-41210904D01*
X51500002Y-41191019D01*
X51499998Y-41191019D01*
X51272701Y-41210904D01*
X51272685Y-41210907D01*
X51052305Y-41269958D01*
X51052303Y-41269959D01*
X50845510Y-41366388D01*
X50690138Y-41475178D01*
X51270254Y-42055294D01*
X51192993Y-42099901D01*
X51099901Y-42192993D01*
X51055294Y-42270254D01*
X50475178Y-41690138D01*
X50366388Y-41845510D01*
X50269959Y-42052303D01*
X50269958Y-42052305D01*
X50210907Y-42272685D01*
X50210904Y-42272701D01*
X50191019Y-42499997D01*
X46712837Y-42499997D01*
X44409206Y-40196366D01*
X44390900Y-40152172D01*
X44390900Y-28522628D01*
X44409206Y-28478434D01*
X44453400Y-28460128D01*
X44497594Y-28478434D01*
X63646746Y-47627586D01*
X63646748Y-47627587D01*
X63662943Y-47634294D01*
X63662948Y-47634299D01*
X63662949Y-47634297D01*
X63702064Y-47650500D01*
X64851874Y-47650500D01*
X64896068Y-47668806D01*
X64912689Y-47700338D01*
X64912812Y-47700304D01*
X64912977Y-47700884D01*
X64913310Y-47701516D01*
X64913603Y-47703085D01*
X64940965Y-47799250D01*
X64969418Y-47899250D01*
X65060327Y-48081821D01*
X65060328Y-48081822D01*
X65060330Y-48081826D01*
X65183227Y-48244569D01*
X65183232Y-48244574D01*
X65183236Y-48244579D01*
X65285467Y-48337775D01*
X65333954Y-48381977D01*
X65333955Y-48381978D01*
X65333959Y-48381981D01*
X65507363Y-48489348D01*
X65697544Y-48563024D01*
X65898024Y-48600500D01*
X65898027Y-48600500D01*
X66101973Y-48600500D01*
X66101976Y-48600500D01*
X66302456Y-48563024D01*
X66492637Y-48489348D01*
X66666041Y-48381981D01*
X66816764Y-48244579D01*
X66939673Y-48081821D01*
X67030582Y-47899250D01*
X67086397Y-47703083D01*
X67086601Y-47700884D01*
X67105215Y-47500003D01*
X67105215Y-47499996D01*
X67086398Y-47296924D01*
X67086396Y-47296913D01*
X67077365Y-47265173D01*
X67030582Y-47100750D01*
X66939673Y-46918179D01*
X66939670Y-46918175D01*
X66939669Y-46918173D01*
X66816772Y-46755430D01*
X66816767Y-46755425D01*
X66816764Y-46755421D01*
X66707069Y-46655421D01*
X66666045Y-46618022D01*
X66666042Y-46618020D01*
X66666041Y-46618019D01*
X66492637Y-46510652D01*
X66492635Y-46510651D01*
X66424351Y-46484198D01*
X66302456Y-46436976D01*
X66302453Y-46436975D01*
X66302452Y-46436975D01*
X66188447Y-46415664D01*
X66148369Y-46389549D01*
X66138495Y-46342744D01*
X66164610Y-46302666D01*
X66194484Y-46291966D01*
X66227298Y-46289095D01*
X66227314Y-46289092D01*
X66447687Y-46230043D01*
X66447703Y-46230037D01*
X66654485Y-46133614D01*
X66809859Y-46024819D01*
X66229745Y-45444705D01*
X66307007Y-45400099D01*
X66400099Y-45307007D01*
X66444705Y-45229745D01*
X67024819Y-45809859D01*
X67133614Y-45654485D01*
X67230037Y-45447703D01*
X67230043Y-45447687D01*
X67289092Y-45227314D01*
X67289095Y-45227298D01*
X67308981Y-45000002D01*
X67308981Y-44999997D01*
X67289095Y-44772701D01*
X67289092Y-44772685D01*
X67230041Y-44552305D01*
X67230040Y-44552303D01*
X67133611Y-44345510D01*
X67024820Y-44190139D01*
X67024820Y-44190138D01*
X66444705Y-44770253D01*
X66400099Y-44692993D01*
X66307007Y-44599901D01*
X66229744Y-44555293D01*
X66809860Y-43975178D01*
X66654489Y-43866388D01*
X66654487Y-43866386D01*
X66447703Y-43769962D01*
X66447687Y-43769956D01*
X66273821Y-43723369D01*
X66235870Y-43694249D01*
X66229627Y-43646823D01*
X66258747Y-43608872D01*
X66289995Y-43600499D01*
X67009898Y-43600499D01*
X67039213Y-43594669D01*
X67072457Y-43572457D01*
X67094669Y-43539213D01*
X67100500Y-43509899D01*
X67100499Y-41490102D01*
X67094669Y-41460787D01*
X67094666Y-41460783D01*
X67072456Y-41427542D01*
X67039216Y-41405332D01*
X67039213Y-41405331D01*
X67009899Y-41399500D01*
X67009898Y-41399500D01*
X66213000Y-41399500D01*
X66168806Y-41381194D01*
X66150500Y-41337000D01*
X66150500Y-38416164D01*
X66132345Y-38372336D01*
X66132345Y-38372334D01*
X66127587Y-38360848D01*
X61342336Y-33575597D01*
X63648064Y-33575597D01*
X63648064Y-33575602D01*
X63661898Y-33654061D01*
X63666466Y-33679963D01*
X63719452Y-33771738D01*
X63800630Y-33839855D01*
X63800631Y-33839855D01*
X63800632Y-33839856D01*
X63900214Y-33876100D01*
X63900217Y-33876100D01*
X64011654Y-33876100D01*
X64011654Y-33878336D01*
X64050309Y-33886896D01*
X64058668Y-33893908D01*
X66528349Y-36363588D01*
X66556004Y-36375042D01*
X66556005Y-36375043D01*
X66556006Y-36375043D01*
X66583664Y-36386500D01*
X68699449Y-36386500D01*
X68743643Y-36404806D01*
X68759819Y-36432823D01*
X68764015Y-36448482D01*
X68764015Y-36448484D01*
X68764312Y-36448998D01*
X68836491Y-36574015D01*
X68836492Y-36574016D01*
X68838540Y-36577563D01*
X68838285Y-36577709D01*
X68845871Y-36592128D01*
X68845872Y-36592132D01*
X68849821Y-36604284D01*
X68944467Y-36768216D01*
X69041571Y-36876061D01*
X69071128Y-36908887D01*
X69071129Y-36908888D01*
X69224265Y-37020148D01*
X69224274Y-37020153D01*
X69397185Y-37097139D01*
X69397188Y-37097140D01*
X69397197Y-37097144D01*
X69582354Y-37136500D01*
X69771646Y-37136500D01*
X69956803Y-37097144D01*
X70129730Y-37020151D01*
X70282871Y-36908888D01*
X70409533Y-36768216D01*
X70504179Y-36604284D01*
X70508128Y-36592127D01*
X70515715Y-36577711D01*
X70515460Y-36577564D01*
X70548442Y-36520438D01*
X70589984Y-36448485D01*
X70627500Y-36308475D01*
X70627500Y-36163525D01*
X70627499Y-36163520D01*
X72726500Y-36163520D01*
X72726500Y-36308479D01*
X72764015Y-36448482D01*
X72764015Y-36448484D01*
X72764312Y-36448998D01*
X72836491Y-36574015D01*
X72836492Y-36574016D01*
X72838540Y-36577563D01*
X72838285Y-36577709D01*
X72845871Y-36592128D01*
X72845872Y-36592132D01*
X72849821Y-36604284D01*
X72944467Y-36768216D01*
X73041571Y-36876061D01*
X73071128Y-36908887D01*
X73071129Y-36908888D01*
X73224265Y-37020148D01*
X73224274Y-37020153D01*
X73397185Y-37097139D01*
X73397188Y-37097140D01*
X73397197Y-37097144D01*
X73582354Y-37136500D01*
X73771646Y-37136500D01*
X73956803Y-37097144D01*
X74129730Y-37020151D01*
X74282871Y-36908888D01*
X74409533Y-36768216D01*
X74504179Y-36604284D01*
X74508128Y-36592127D01*
X74515715Y-36577711D01*
X74515460Y-36577564D01*
X74548442Y-36520438D01*
X74589984Y-36448485D01*
X74627500Y-36308475D01*
X74627500Y-36163525D01*
X74627499Y-36163520D01*
X75726500Y-36163520D01*
X75726500Y-36308479D01*
X75764015Y-36448482D01*
X75764015Y-36448484D01*
X75764312Y-36448998D01*
X75836491Y-36574015D01*
X75836492Y-36574016D01*
X75838540Y-36577563D01*
X75838285Y-36577709D01*
X75845871Y-36592128D01*
X75845872Y-36592132D01*
X75849821Y-36604284D01*
X75944467Y-36768216D01*
X76041571Y-36876061D01*
X76071128Y-36908887D01*
X76071129Y-36908888D01*
X76224265Y-37020148D01*
X76224274Y-37020153D01*
X76397185Y-37097139D01*
X76397188Y-37097140D01*
X76397197Y-37097144D01*
X76582354Y-37136500D01*
X76771646Y-37136500D01*
X76956803Y-37097144D01*
X77129730Y-37020151D01*
X77282871Y-36908888D01*
X77409533Y-36768216D01*
X77504179Y-36604284D01*
X77508128Y-36592127D01*
X77515715Y-36577711D01*
X77515460Y-36577564D01*
X77548442Y-36520438D01*
X77589984Y-36448485D01*
X77627500Y-36308475D01*
X77627500Y-36163525D01*
X77622706Y-36145635D01*
X77600966Y-36064500D01*
X77589984Y-36023515D01*
X77517509Y-35897985D01*
X77517507Y-35897983D01*
X77515460Y-35894437D01*
X77515713Y-35894290D01*
X77508128Y-35879871D01*
X77504179Y-35867716D01*
X77409533Y-35703784D01*
X77282871Y-35563112D01*
X77282870Y-35563111D01*
X77129734Y-35451851D01*
X77129725Y-35451846D01*
X76956814Y-35374860D01*
X76956797Y-35374854D01*
X76771646Y-35335500D01*
X76582354Y-35335500D01*
X76397202Y-35374854D01*
X76397185Y-35374860D01*
X76224274Y-35451846D01*
X76224265Y-35451851D01*
X76071129Y-35563111D01*
X76071128Y-35563112D01*
X75944466Y-35703785D01*
X75849820Y-35867717D01*
X75849818Y-35867722D01*
X75845869Y-35879875D01*
X75838285Y-35894293D01*
X75838538Y-35894439D01*
X75764018Y-36023509D01*
X75764015Y-36023517D01*
X75726500Y-36163520D01*
X74627499Y-36163520D01*
X74622706Y-36145635D01*
X74600966Y-36064500D01*
X74589984Y-36023515D01*
X74517509Y-35897985D01*
X74517507Y-35897983D01*
X74515460Y-35894437D01*
X74515713Y-35894290D01*
X74508128Y-35879871D01*
X74504179Y-35867716D01*
X74409533Y-35703784D01*
X74282871Y-35563112D01*
X74282870Y-35563111D01*
X74129734Y-35451851D01*
X74129725Y-35451846D01*
X73956814Y-35374860D01*
X73956797Y-35374854D01*
X73771646Y-35335500D01*
X73582354Y-35335500D01*
X73397202Y-35374854D01*
X73397185Y-35374860D01*
X73224274Y-35451846D01*
X73224265Y-35451851D01*
X73071129Y-35563111D01*
X73071128Y-35563112D01*
X72944466Y-35703785D01*
X72849820Y-35867717D01*
X72849818Y-35867722D01*
X72845869Y-35879875D01*
X72838285Y-35894293D01*
X72838538Y-35894439D01*
X72764018Y-36023509D01*
X72764015Y-36023517D01*
X72726500Y-36163520D01*
X70627499Y-36163520D01*
X70622706Y-36145635D01*
X70600966Y-36064500D01*
X70589984Y-36023515D01*
X70517509Y-35897985D01*
X70517507Y-35897983D01*
X70515460Y-35894437D01*
X70515713Y-35894290D01*
X70508128Y-35879871D01*
X70504179Y-35867716D01*
X70409533Y-35703784D01*
X70282871Y-35563112D01*
X70282870Y-35563111D01*
X70129734Y-35451851D01*
X70129725Y-35451846D01*
X69956814Y-35374860D01*
X69956797Y-35374854D01*
X69771646Y-35335500D01*
X69582354Y-35335500D01*
X69397202Y-35374854D01*
X69397185Y-35374860D01*
X69224274Y-35451846D01*
X69224265Y-35451851D01*
X69071129Y-35563111D01*
X69071128Y-35563112D01*
X68944466Y-35703785D01*
X68849820Y-35867717D01*
X68849818Y-35867722D01*
X68845869Y-35879875D01*
X68838285Y-35894293D01*
X68838538Y-35894439D01*
X68764018Y-36023509D01*
X68764015Y-36023517D01*
X68759819Y-36039177D01*
X68730698Y-36077127D01*
X68699449Y-36085500D01*
X66701827Y-36085500D01*
X66657633Y-36067194D01*
X64532823Y-33942383D01*
X70176500Y-33942383D01*
X70176500Y-34129616D01*
X70213026Y-34313249D01*
X70284678Y-34486231D01*
X70284679Y-34486233D01*
X70388697Y-34641907D01*
X70521092Y-34774302D01*
X70646558Y-34858136D01*
X70676769Y-34878322D01*
X70849749Y-34949973D01*
X71033384Y-34986500D01*
X71220616Y-34986500D01*
X71404251Y-34949973D01*
X71577231Y-34878322D01*
X71732908Y-34774302D01*
X71865302Y-34641908D01*
X71969322Y-34486231D01*
X72040973Y-34313251D01*
X72077500Y-34129616D01*
X72077500Y-33942384D01*
X72077500Y-33942383D01*
X77176500Y-33942383D01*
X77176500Y-34129616D01*
X77213026Y-34313249D01*
X77284678Y-34486231D01*
X77284679Y-34486233D01*
X77388697Y-34641907D01*
X77521092Y-34774302D01*
X77646558Y-34858136D01*
X77676769Y-34878322D01*
X77849749Y-34949973D01*
X78033384Y-34986500D01*
X78220616Y-34986500D01*
X78404251Y-34949973D01*
X78577231Y-34878322D01*
X78732908Y-34774302D01*
X78865302Y-34641908D01*
X78969322Y-34486231D01*
X79040973Y-34313251D01*
X79077500Y-34129616D01*
X79077500Y-33942384D01*
X79040973Y-33758749D01*
X78969322Y-33585769D01*
X78865302Y-33430092D01*
X78732908Y-33297698D01*
X78732907Y-33297697D01*
X78577233Y-33193679D01*
X78577231Y-33193678D01*
X78404249Y-33122026D01*
X78220616Y-33085500D01*
X78033384Y-33085500D01*
X77849750Y-33122026D01*
X77676768Y-33193678D01*
X77676766Y-33193679D01*
X77521092Y-33297697D01*
X77388697Y-33430092D01*
X77284679Y-33585766D01*
X77284678Y-33585768D01*
X77213026Y-33758750D01*
X77176500Y-33942383D01*
X72077500Y-33942383D01*
X72040973Y-33758749D01*
X71969322Y-33585769D01*
X71865302Y-33430092D01*
X71732908Y-33297698D01*
X71732907Y-33297697D01*
X71577233Y-33193679D01*
X71577231Y-33193678D01*
X71404249Y-33122026D01*
X71220616Y-33085500D01*
X71033384Y-33085500D01*
X70849750Y-33122026D01*
X70676768Y-33193678D01*
X70676766Y-33193679D01*
X70521092Y-33297697D01*
X70388697Y-33430092D01*
X70284679Y-33585766D01*
X70284678Y-33585768D01*
X70213026Y-33758750D01*
X70176500Y-33942383D01*
X64532823Y-33942383D01*
X64267506Y-33677066D01*
X64249200Y-33632872D01*
X64250148Y-33622031D01*
X64258336Y-33575600D01*
X64258336Y-33575599D01*
X64258336Y-33575597D01*
X64245435Y-33502436D01*
X64239934Y-33471237D01*
X64186948Y-33379462D01*
X64186947Y-33379461D01*
X64105769Y-33311344D01*
X64105766Y-33311343D01*
X64006188Y-33275100D01*
X64006186Y-33275100D01*
X63900214Y-33275100D01*
X63900211Y-33275100D01*
X63800633Y-33311343D01*
X63800630Y-33311344D01*
X63719452Y-33379461D01*
X63666465Y-33471239D01*
X63648064Y-33575597D01*
X61342336Y-33575597D01*
X59602734Y-31835995D01*
X67568270Y-31835995D01*
X67568270Y-31836004D01*
X67587146Y-32039721D01*
X67587148Y-32039732D01*
X67643140Y-32236519D01*
X67734341Y-32419674D01*
X67796307Y-32501730D01*
X68138090Y-32159946D01*
X68141905Y-32162148D01*
X68230922Y-32186000D01*
X68541960Y-32186000D01*
X68007968Y-32719991D01*
X68008836Y-32720782D01*
X68182796Y-32828493D01*
X68373587Y-32902406D01*
X68574694Y-32939999D01*
X68574702Y-32940000D01*
X68779298Y-32940000D01*
X68779305Y-32939999D01*
X68980412Y-32902406D01*
X69171203Y-32828493D01*
X69345160Y-32720784D01*
X69345161Y-32720783D01*
X69346030Y-32719990D01*
X68812040Y-32186000D01*
X69123078Y-32186000D01*
X69212095Y-32162148D01*
X69215907Y-32159946D01*
X69557691Y-32501730D01*
X69619660Y-32419670D01*
X69710859Y-32236519D01*
X69766851Y-32039732D01*
X69766853Y-32039721D01*
X69785730Y-31836004D01*
X69785730Y-31835995D01*
X69766853Y-31632278D01*
X69766851Y-31632267D01*
X69710859Y-31435480D01*
X69619658Y-31252325D01*
X69557691Y-31170268D01*
X69215906Y-31512052D01*
X69212095Y-31509852D01*
X69123078Y-31486000D01*
X68812037Y-31486000D01*
X69346029Y-30952008D01*
X69345159Y-30951214D01*
X69171203Y-30843506D01*
X68980412Y-30769593D01*
X68779305Y-30732000D01*
X68574694Y-30732000D01*
X68373587Y-30769593D01*
X68182796Y-30843506D01*
X68008840Y-30951215D01*
X68007969Y-30952008D01*
X68541961Y-31486000D01*
X68230922Y-31486000D01*
X68141905Y-31509852D01*
X68138092Y-31512053D01*
X67796306Y-31170267D01*
X67734339Y-31252329D01*
X67643140Y-31435480D01*
X67587148Y-31632267D01*
X67587146Y-31632278D01*
X67568270Y-31835995D01*
X59602734Y-31835995D01*
X55506737Y-27739997D01*
X57211449Y-27739997D01*
X57211449Y-27740002D01*
X57230416Y-27956805D01*
X57230419Y-27956821D01*
X57286742Y-28167019D01*
X57286748Y-28167035D01*
X57378720Y-28364272D01*
X57378722Y-28364274D01*
X57478403Y-28506634D01*
X57478403Y-28506635D01*
X58009436Y-27975601D01*
X58053498Y-28051920D01*
X58148080Y-28146502D01*
X58224396Y-28190562D01*
X57693364Y-28721594D01*
X57835729Y-28821280D01*
X58032964Y-28913251D01*
X58032980Y-28913257D01*
X58243178Y-28969580D01*
X58243194Y-28969583D01*
X58459998Y-28988551D01*
X58460002Y-28988551D01*
X58676805Y-28969583D01*
X58676821Y-28969580D01*
X58887019Y-28913257D01*
X58887035Y-28913251D01*
X59084270Y-28821280D01*
X59226634Y-28721594D01*
X58695603Y-28190563D01*
X58771920Y-28146502D01*
X58866502Y-28051920D01*
X58910563Y-27975603D01*
X59441594Y-28506634D01*
X59541280Y-28364270D01*
X59633251Y-28167035D01*
X59633257Y-28167019D01*
X59689580Y-27956821D01*
X59689583Y-27956805D01*
X59708551Y-27740002D01*
X59708551Y-27739997D01*
X59689583Y-27523194D01*
X59689580Y-27523178D01*
X59633255Y-27312973D01*
X59633254Y-27312971D01*
X59541277Y-27115725D01*
X59441595Y-26973364D01*
X59441595Y-26973363D01*
X58910562Y-27504396D01*
X58866502Y-27428080D01*
X58771920Y-27333498D01*
X58695601Y-27289436D01*
X59226635Y-26758403D01*
X59084274Y-26658722D01*
X59084272Y-26658720D01*
X58887035Y-26566748D01*
X58887019Y-26566742D01*
X58676821Y-26510419D01*
X58676805Y-26510416D01*
X58557710Y-26499997D01*
X66164341Y-26499997D01*
X66164341Y-26500002D01*
X66184936Y-26735404D01*
X66184939Y-26735420D01*
X66246095Y-26963659D01*
X66246096Y-26963661D01*
X66345964Y-27177829D01*
X66481505Y-27371402D01*
X66648597Y-27538494D01*
X66656345Y-27543919D01*
X66842170Y-27674035D01*
X66842169Y-27674035D01*
X66949253Y-27723969D01*
X67056337Y-27773903D01*
X67056339Y-27773903D01*
X67056340Y-27773904D01*
X67284579Y-27835060D01*
X67284585Y-27835061D01*
X67284592Y-27835063D01*
X67425836Y-27847420D01*
X67519998Y-27855659D01*
X67520000Y-27855659D01*
X67520002Y-27855659D01*
X67598469Y-27848793D01*
X67755408Y-27835063D01*
X67755417Y-27835060D01*
X67755420Y-27835060D01*
X67983659Y-27773904D01*
X67983658Y-27773904D01*
X67983663Y-27773903D01*
X68197830Y-27674035D01*
X68391401Y-27538495D01*
X68558495Y-27371401D01*
X68694035Y-27177830D01*
X68793903Y-26963663D01*
X68854251Y-26738439D01*
X68855060Y-26735420D01*
X68855060Y-26735417D01*
X68855063Y-26735408D01*
X68871958Y-26542300D01*
X68875659Y-26500002D01*
X68875659Y-26499997D01*
X68855063Y-26264595D01*
X68855063Y-26264592D01*
X68828582Y-26165763D01*
X68793904Y-26036340D01*
X68793903Y-26036338D01*
X68748589Y-25939163D01*
X68694035Y-25822171D01*
X68629756Y-25730371D01*
X68558494Y-25628597D01*
X68391402Y-25461505D01*
X68210819Y-25335060D01*
X68197830Y-25325965D01*
X68197828Y-25325964D01*
X68197830Y-25325964D01*
X67983661Y-25226096D01*
X67983659Y-25226095D01*
X67755420Y-25164939D01*
X67755404Y-25164936D01*
X67520002Y-25144341D01*
X67519998Y-25144341D01*
X67284595Y-25164936D01*
X67284579Y-25164939D01*
X67056340Y-25226095D01*
X67056338Y-25226096D01*
X66842171Y-25325964D01*
X66648597Y-25461505D01*
X66481505Y-25628597D01*
X66345964Y-25822171D01*
X66246096Y-26036338D01*
X66246095Y-26036340D01*
X66184939Y-26264579D01*
X66184936Y-26264595D01*
X66164341Y-26499997D01*
X58557710Y-26499997D01*
X58460002Y-26491449D01*
X58459998Y-26491449D01*
X58243194Y-26510416D01*
X58243178Y-26510419D01*
X58032973Y-26566744D01*
X58032971Y-26566745D01*
X57835725Y-26658722D01*
X57693363Y-26758403D01*
X58224396Y-27289436D01*
X58148080Y-27333498D01*
X58053498Y-27428080D01*
X58009436Y-27504396D01*
X57478403Y-26973363D01*
X57378722Y-27115725D01*
X57286745Y-27312971D01*
X57286744Y-27312973D01*
X57230419Y-27523178D01*
X57230416Y-27523194D01*
X57211449Y-27739997D01*
X55506737Y-27739997D01*
X47800206Y-20033466D01*
X47781900Y-19989272D01*
X47782848Y-19978431D01*
X47791036Y-19932000D01*
X47791036Y-19931999D01*
X47791036Y-19931997D01*
X47772634Y-19827639D01*
X47772634Y-19827637D01*
X47719648Y-19735862D01*
X47719647Y-19735861D01*
X47638469Y-19667744D01*
X47638466Y-19667743D01*
X47538888Y-19631500D01*
X47538886Y-19631500D01*
X47432914Y-19631500D01*
X47432911Y-19631500D01*
X47333333Y-19667743D01*
X47333330Y-19667744D01*
X47252152Y-19735861D01*
X47199165Y-19827639D01*
X47180764Y-19931997D01*
X47180764Y-19932002D01*
X47194598Y-20010461D01*
X47199166Y-20036363D01*
X47218493Y-20069838D01*
X47252152Y-20128138D01*
X47333330Y-20196255D01*
X47333331Y-20196255D01*
X47333332Y-20196256D01*
X47432914Y-20232500D01*
X47432917Y-20232500D01*
X47544354Y-20232500D01*
X47544354Y-20234736D01*
X47583009Y-20243296D01*
X47591368Y-20250308D01*
X65831194Y-38490133D01*
X65849500Y-38534327D01*
X65849500Y-41337000D01*
X65831194Y-41381194D01*
X65787000Y-41399500D01*
X64990105Y-41399500D01*
X64990104Y-41399500D01*
X64990102Y-41399501D01*
X64975444Y-41402416D01*
X64960785Y-41405331D01*
X64927542Y-41427543D01*
X64905332Y-41460783D01*
X64905331Y-41460787D01*
X64899500Y-41490101D01*
X64899500Y-43509894D01*
X64899501Y-43509898D01*
X64902469Y-43524820D01*
X64905331Y-43539214D01*
X64927543Y-43572457D01*
X64960783Y-43594667D01*
X64960784Y-43594667D01*
X64960787Y-43594669D01*
X64990101Y-43600500D01*
X65710002Y-43600499D01*
X65754195Y-43618805D01*
X65772501Y-43662999D01*
X65754195Y-43707193D01*
X65726178Y-43723369D01*
X65552303Y-43769959D01*
X65345510Y-43866388D01*
X65190138Y-43975178D01*
X65770254Y-44555294D01*
X65692993Y-44599901D01*
X65599901Y-44692993D01*
X65555294Y-44770254D01*
X64975178Y-44190138D01*
X64866388Y-44345510D01*
X64769959Y-44552303D01*
X64769958Y-44552305D01*
X64710907Y-44772685D01*
X64710904Y-44772701D01*
X64691019Y-44999997D01*
X64691019Y-45000002D01*
X64710904Y-45227298D01*
X64710907Y-45227314D01*
X64769956Y-45447687D01*
X64769962Y-45447703D01*
X64866386Y-45654487D01*
X64866388Y-45654489D01*
X64975178Y-45809859D01*
X64975178Y-45809860D01*
X65555293Y-45229744D01*
X65599901Y-45307007D01*
X65692993Y-45400099D01*
X65770253Y-45444705D01*
X65190138Y-46024820D01*
X65345510Y-46133611D01*
X65345512Y-46133613D01*
X65552296Y-46230037D01*
X65552312Y-46230043D01*
X65772685Y-46289092D01*
X65772701Y-46289095D01*
X65805515Y-46291966D01*
X65847946Y-46314054D01*
X65862330Y-46359675D01*
X65840242Y-46402106D01*
X65811552Y-46415664D01*
X65697547Y-46436975D01*
X65507364Y-46510651D01*
X65333954Y-46618022D01*
X65183234Y-46755423D01*
X65183227Y-46755430D01*
X65060330Y-46918173D01*
X65060327Y-46918179D01*
X64969418Y-47100749D01*
X64913603Y-47296914D01*
X64913310Y-47298484D01*
X64913038Y-47298901D01*
X64912812Y-47299696D01*
X64912565Y-47299625D01*
X64887195Y-47338562D01*
X64851874Y-47349500D01*
X63820227Y-47349500D01*
X63776033Y-47331194D01*
X57255533Y-40810693D01*
X57237227Y-40766499D01*
X57255533Y-40722305D01*
X57299727Y-40703999D01*
X58348000Y-40703999D01*
X58348000Y-40150000D01*
X58652000Y-40150000D01*
X58652000Y-40703999D01*
X60145388Y-40703999D01*
X60170807Y-40701050D01*
X60170808Y-40701050D01*
X60274778Y-40655142D01*
X60355142Y-40574778D01*
X60401051Y-40470805D01*
X60404000Y-40445388D01*
X60404000Y-39552000D01*
X59884459Y-39552000D01*
X59900000Y-39473869D01*
X59900000Y-39326131D01*
X59884459Y-39248000D01*
X60403999Y-39248000D01*
X60403999Y-38354611D01*
X60401050Y-38329192D01*
X60401050Y-38329191D01*
X60355142Y-38225221D01*
X60274778Y-38144857D01*
X60170805Y-38098948D01*
X60145389Y-38096000D01*
X58652000Y-38096000D01*
X58652000Y-38650000D01*
X58348000Y-38650000D01*
X58348000Y-38096000D01*
X56854611Y-38096000D01*
X56829192Y-38098949D01*
X56829191Y-38098949D01*
X56725221Y-38144857D01*
X56644857Y-38225221D01*
X56598948Y-38329194D01*
X56596000Y-38354611D01*
X56596000Y-39248000D01*
X57115541Y-39248000D01*
X57100000Y-39326131D01*
X57100000Y-39473869D01*
X57115541Y-39552000D01*
X56596001Y-39552000D01*
X56596000Y-40000273D01*
X56577694Y-40044467D01*
X56533500Y-40062773D01*
X56489306Y-40044467D01*
X50433617Y-33988777D01*
X50415311Y-33944583D01*
X50433617Y-33900389D01*
X50456433Y-33885853D01*
X50522368Y-33861856D01*
X50603548Y-33793738D01*
X50656534Y-33701963D01*
X50674936Y-33597600D01*
X50674936Y-33597597D01*
X50656534Y-33493239D01*
X50656534Y-33493237D01*
X50603548Y-33401462D01*
X50577785Y-33379844D01*
X50522369Y-33333344D01*
X50522366Y-33333343D01*
X50422788Y-33297100D01*
X50422786Y-33297100D01*
X50316814Y-33297100D01*
X50311347Y-33297100D01*
X50311347Y-33294871D01*
X50272662Y-33286285D01*
X50264330Y-33279291D01*
X46419706Y-29434666D01*
X46401400Y-29390472D01*
X46401400Y-20760197D01*
X46839564Y-20760197D01*
X46839564Y-20760202D01*
X46857013Y-20859163D01*
X46857966Y-20864563D01*
X46905005Y-20946037D01*
X46910952Y-20956338D01*
X46992130Y-21024455D01*
X46992131Y-21024455D01*
X46992132Y-21024456D01*
X47091714Y-21060700D01*
X47100407Y-21060700D01*
X47144601Y-21079006D01*
X47580694Y-21515099D01*
X47599000Y-21559293D01*
X47599000Y-28217428D01*
X47590627Y-28248678D01*
X47537765Y-28340239D01*
X47519364Y-28444597D01*
X47519364Y-28444602D01*
X47525329Y-28478434D01*
X47537766Y-28548963D01*
X47590752Y-28640738D01*
X47671930Y-28708855D01*
X47671931Y-28708855D01*
X47671932Y-28708856D01*
X47771514Y-28745100D01*
X47771517Y-28745100D01*
X47877483Y-28745100D01*
X47877486Y-28745100D01*
X47977068Y-28708856D01*
X48058248Y-28640738D01*
X48111234Y-28548963D01*
X48129636Y-28444600D01*
X48129636Y-28444597D01*
X48111234Y-28340239D01*
X48111234Y-28340237D01*
X48058373Y-28248678D01*
X48050000Y-28217428D01*
X48050000Y-21395147D01*
X48050000Y-21395145D01*
X48015670Y-21312264D01*
X47952236Y-21248830D01*
X47952235Y-21248829D01*
X47460822Y-20757417D01*
X47443467Y-20724077D01*
X47431434Y-20655839D01*
X47431434Y-20655837D01*
X47378448Y-20564062D01*
X47372711Y-20559248D01*
X47297269Y-20495944D01*
X47297266Y-20495943D01*
X47197688Y-20459700D01*
X47197686Y-20459700D01*
X47091714Y-20459700D01*
X47091711Y-20459700D01*
X46992133Y-20495943D01*
X46992130Y-20495944D01*
X46910952Y-20564061D01*
X46857965Y-20655839D01*
X46839564Y-20760197D01*
X46401400Y-20760197D01*
X46401400Y-18076535D01*
X46419706Y-18032341D01*
X46423718Y-18028663D01*
X46484648Y-17977538D01*
X46537634Y-17885763D01*
X46555589Y-17783935D01*
X46556036Y-17781402D01*
X46556036Y-17781397D01*
X46537634Y-17677039D01*
X46537634Y-17677037D01*
X46484648Y-17585262D01*
X46478376Y-17579999D01*
X46403469Y-17517144D01*
X46403466Y-17517143D01*
X46303888Y-17480900D01*
X46303886Y-17480900D01*
X46197914Y-17480900D01*
X46197911Y-17480900D01*
X46098333Y-17517143D01*
X46098330Y-17517144D01*
X46017152Y-17585261D01*
X45983043Y-17644341D01*
X45971153Y-17664936D01*
X45964165Y-17677039D01*
X45945764Y-17781397D01*
X45945764Y-17781402D01*
X45962279Y-17875066D01*
X45964166Y-17885763D01*
X46017152Y-17977538D01*
X46078074Y-18028657D01*
X46100162Y-18071087D01*
X46100400Y-18076535D01*
X46100400Y-29504672D01*
X46082094Y-29548866D01*
X46037900Y-29567172D01*
X45993706Y-29548866D01*
X44766106Y-28321266D01*
X44747800Y-28277072D01*
X44747800Y-28079535D01*
X44766106Y-28035341D01*
X44770118Y-28031663D01*
X44831048Y-27980538D01*
X44884034Y-27888763D01*
X44902436Y-27784400D01*
X44902436Y-27784397D01*
X44884034Y-27680039D01*
X44884034Y-27680037D01*
X44831048Y-27588262D01*
X44803700Y-27565314D01*
X44749869Y-27520144D01*
X44749866Y-27520143D01*
X44650288Y-27483900D01*
X44650286Y-27483900D01*
X44544314Y-27483900D01*
X44544311Y-27483900D01*
X44474776Y-27509209D01*
X44426986Y-27507122D01*
X44394669Y-27471854D01*
X44390900Y-27450478D01*
X44390900Y-22065664D01*
X44385604Y-22052879D01*
X44381409Y-22042751D01*
X44367988Y-22010348D01*
X43280452Y-20922812D01*
X43248048Y-20909390D01*
X43248048Y-20909389D01*
X43225137Y-20899900D01*
X43225136Y-20899900D01*
X42560382Y-20899900D01*
X42516188Y-20881594D01*
X42506256Y-20868651D01*
X42497948Y-20854262D01*
X42416769Y-20786144D01*
X42416766Y-20786143D01*
X42317188Y-20749900D01*
X42317186Y-20749900D01*
X42211214Y-20749900D01*
X42211211Y-20749900D01*
X42111633Y-20786143D01*
X42111630Y-20786144D01*
X42030452Y-20854261D01*
X41977465Y-20946039D01*
X41959064Y-21050397D01*
X41959064Y-21050400D01*
X41977466Y-21154763D01*
X42014672Y-21219206D01*
X42030452Y-21246538D01*
X42111630Y-21314655D01*
X42111631Y-21314655D01*
X42111632Y-21314656D01*
X42211214Y-21350900D01*
X42211217Y-21350900D01*
X42317183Y-21350900D01*
X42317186Y-21350900D01*
X42416768Y-21314656D01*
X42497948Y-21246538D01*
X42502232Y-21239116D01*
X42506256Y-21232149D01*
X42544207Y-21203029D01*
X42560382Y-21200900D01*
X43106972Y-21200900D01*
X43151166Y-21219206D01*
X43533398Y-21601438D01*
X43551704Y-21645632D01*
X43533398Y-21689826D01*
X43510580Y-21704363D01*
X43456233Y-21724143D01*
X43456230Y-21724144D01*
X43375052Y-21792261D01*
X43322065Y-21884039D01*
X43303664Y-21988397D01*
X43303664Y-21988400D01*
X43311848Y-22034822D01*
X43301493Y-22081523D01*
X43294491Y-22089867D01*
X40371912Y-25012447D01*
X40371912Y-25012448D01*
X40361124Y-25038495D01*
X40361124Y-25038496D01*
X40349000Y-25067764D01*
X40349000Y-33502436D01*
X40353104Y-33512343D01*
X40353105Y-33512349D01*
X40353106Y-33512349D01*
X40371447Y-33556631D01*
X40375255Y-33591398D01*
X40365964Y-33644100D01*
X40365964Y-33644102D01*
X40376166Y-33701963D01*
X40384366Y-33748463D01*
X40437131Y-33839855D01*
X40437352Y-33840238D01*
X40518530Y-33908355D01*
X40518531Y-33908355D01*
X40518532Y-33908356D01*
X40618114Y-33944600D01*
X40618117Y-33944600D01*
X40724083Y-33944600D01*
X40724086Y-33944600D01*
X40823668Y-33908356D01*
X40904848Y-33840238D01*
X40957834Y-33748463D01*
X40976236Y-33644100D01*
X40976236Y-33644097D01*
X40962401Y-33565638D01*
X40957834Y-33539737D01*
X40904848Y-33447962D01*
X40904847Y-33447961D01*
X40823669Y-33379844D01*
X40823666Y-33379843D01*
X40724088Y-33343600D01*
X40724086Y-33343600D01*
X40712500Y-33343600D01*
X40668306Y-33325294D01*
X40650000Y-33281100D01*
X40650000Y-32276814D01*
X40668306Y-32232620D01*
X40712500Y-32214314D01*
X40733873Y-32218082D01*
X40798214Y-32241500D01*
X40798217Y-32241500D01*
X40904183Y-32241500D01*
X40904186Y-32241500D01*
X41003768Y-32205256D01*
X41084948Y-32137138D01*
X41137934Y-32045363D01*
X41151011Y-31971200D01*
X41156336Y-31941002D01*
X41156336Y-31940997D01*
X41137934Y-31836639D01*
X41137934Y-31836637D01*
X41084948Y-31744862D01*
X41032562Y-31700905D01*
X41024026Y-31693742D01*
X41001938Y-31651311D01*
X41001700Y-31645864D01*
X41001700Y-25981126D01*
X41020005Y-25936933D01*
X43769130Y-23187807D01*
X43813323Y-23169502D01*
X43819015Y-23170000D01*
X43821614Y-23170000D01*
X43927583Y-23170000D01*
X43927586Y-23170000D01*
X44006025Y-23141451D01*
X44053814Y-23143538D01*
X44086131Y-23178806D01*
X44089900Y-23200182D01*
X44089900Y-25154077D01*
X44071594Y-25198271D01*
X44027400Y-25216577D01*
X44006025Y-25212808D01*
X43909290Y-25177601D01*
X43909287Y-25177600D01*
X43909286Y-25177600D01*
X43803314Y-25177600D01*
X43803311Y-25177600D01*
X43703733Y-25213843D01*
X43703730Y-25213844D01*
X43622552Y-25281961D01*
X43569565Y-25373739D01*
X43551164Y-25478097D01*
X43551164Y-25478100D01*
X43569566Y-25582463D01*
X43622552Y-25674238D01*
X43683474Y-25725357D01*
X43705562Y-25767787D01*
X43705800Y-25773235D01*
X43705800Y-32941371D01*
X43687494Y-32985565D01*
X40542367Y-36130691D01*
X40498173Y-36148997D01*
X40492490Y-36148500D01*
X40489886Y-36148500D01*
X40383914Y-36148500D01*
X40383911Y-36148500D01*
X40284333Y-36184743D01*
X40284330Y-36184744D01*
X40203152Y-36252861D01*
X40150165Y-36344639D01*
X40131764Y-36448997D01*
X39951200Y-36448997D01*
X39951200Y-24315728D01*
X39969506Y-24271534D01*
X40768369Y-23472671D01*
X41672888Y-22568152D01*
X41686309Y-22535748D01*
X41695800Y-22512836D01*
X41695800Y-16159497D01*
X43967664Y-16159497D01*
X43967664Y-16159502D01*
X43971941Y-16183761D01*
X43986066Y-16263863D01*
X44019993Y-16322626D01*
X44039052Y-16355638D01*
X44120230Y-16423755D01*
X44120231Y-16423755D01*
X44120232Y-16423756D01*
X44219814Y-16460000D01*
X44219817Y-16460000D01*
X44325783Y-16460000D01*
X44325786Y-16460000D01*
X44425368Y-16423756D01*
X44506548Y-16355638D01*
X44510832Y-16348216D01*
X44514856Y-16341249D01*
X44552807Y-16312129D01*
X44568982Y-16310000D01*
X46001172Y-16310000D01*
X46045366Y-16328306D01*
X50490646Y-20773586D01*
X50490648Y-20773587D01*
X50506843Y-20780294D01*
X50506848Y-20780299D01*
X50506849Y-20780297D01*
X50545964Y-20796500D01*
X57639851Y-20796500D01*
X57684045Y-20814806D01*
X57688164Y-20819351D01*
X57720835Y-20859161D01*
X57720838Y-20859164D01*
X57826694Y-20946037D01*
X57879244Y-20989163D01*
X57879247Y-20989164D01*
X57879249Y-20989166D01*
X58059964Y-21085761D01*
X58059968Y-21085763D01*
X58256065Y-21145248D01*
X58460000Y-21165334D01*
X58663935Y-21145248D01*
X58860032Y-21085763D01*
X59040756Y-20989163D01*
X59199163Y-20859163D01*
X59326787Y-20703650D01*
X59368974Y-20681101D01*
X59414749Y-20694987D01*
X59437299Y-20737174D01*
X59437600Y-20743300D01*
X59437600Y-22036699D01*
X59419294Y-22080893D01*
X59375100Y-22099199D01*
X59330906Y-22080893D01*
X59326787Y-22076348D01*
X59199164Y-21920838D01*
X59199161Y-21920835D01*
X59040761Y-21790841D01*
X59040759Y-21790840D01*
X59040756Y-21790837D01*
X59040754Y-21790835D01*
X59040750Y-21790833D01*
X58860035Y-21694238D01*
X58839141Y-21687900D01*
X58823529Y-21683164D01*
X58663933Y-21634751D01*
X58460000Y-21614666D01*
X58256066Y-21634751D01*
X58059964Y-21694238D01*
X57879249Y-21790833D01*
X57879238Y-21790841D01*
X57720838Y-21920835D01*
X57720835Y-21920838D01*
X57590841Y-22079238D01*
X57590833Y-22079249D01*
X57494238Y-22259964D01*
X57434751Y-22456066D01*
X57414666Y-22659999D01*
X57414666Y-22660000D01*
X57434751Y-22863933D01*
X57494238Y-23060035D01*
X57590833Y-23240750D01*
X57590841Y-23240761D01*
X57625751Y-23283300D01*
X57720837Y-23399163D01*
X57879244Y-23529163D01*
X57879247Y-23529164D01*
X57879249Y-23529166D01*
X58059964Y-23625761D01*
X58059968Y-23625763D01*
X58256065Y-23685248D01*
X58460000Y-23705334D01*
X58663935Y-23685248D01*
X58860032Y-23625763D01*
X59040756Y-23529163D01*
X59199163Y-23399163D01*
X59326787Y-23243650D01*
X59368974Y-23221101D01*
X59414749Y-23234987D01*
X59437299Y-23277174D01*
X59437600Y-23283300D01*
X59437600Y-23877605D01*
X59419294Y-23921799D01*
X59053657Y-24287436D01*
X59009463Y-24305742D01*
X58980001Y-24298362D01*
X58860035Y-24234238D01*
X58663933Y-24174751D01*
X58460000Y-24154666D01*
X58256066Y-24174751D01*
X58059964Y-24234238D01*
X57879249Y-24330833D01*
X57879238Y-24330841D01*
X57720838Y-24460835D01*
X57720835Y-24460838D01*
X57590841Y-24619238D01*
X57590833Y-24619249D01*
X57494238Y-24799964D01*
X57434751Y-24996066D01*
X57414666Y-25199999D01*
X57414666Y-25200000D01*
X57434751Y-25403933D01*
X57494238Y-25600035D01*
X57590833Y-25780750D01*
X57590841Y-25780761D01*
X57720835Y-25939161D01*
X57720838Y-25939164D01*
X57832100Y-26030473D01*
X57879244Y-26069163D01*
X57879247Y-26069164D01*
X57879249Y-26069166D01*
X58059964Y-26165761D01*
X58059968Y-26165763D01*
X58256065Y-26225248D01*
X58460000Y-26245334D01*
X58663935Y-26225248D01*
X58860032Y-26165763D01*
X59040756Y-26069163D01*
X59199163Y-25939163D01*
X59329163Y-25780756D01*
X59425763Y-25600032D01*
X59485248Y-25403935D01*
X59505334Y-25200000D01*
X59501880Y-25164936D01*
X59485248Y-24996066D01*
X59485248Y-24996065D01*
X59425763Y-24799968D01*
X59361636Y-24679998D01*
X59356948Y-24632394D01*
X59372563Y-24606342D01*
X59583925Y-24394980D01*
X59854270Y-24124636D01*
X59888600Y-24041755D01*
X59888600Y-23999997D01*
X63664341Y-23999997D01*
X63664341Y-24000002D01*
X63684936Y-24235404D01*
X63684938Y-24235413D01*
X63746095Y-24463659D01*
X63746096Y-24463661D01*
X63845964Y-24677829D01*
X63981505Y-24871402D01*
X64148597Y-25038494D01*
X64148600Y-25038496D01*
X64342170Y-25174035D01*
X64342169Y-25174035D01*
X64425319Y-25212808D01*
X64556337Y-25273903D01*
X64556339Y-25273903D01*
X64556340Y-25273904D01*
X64784579Y-25335060D01*
X64784585Y-25335061D01*
X64784592Y-25335063D01*
X64925836Y-25347420D01*
X65019998Y-25355659D01*
X65020000Y-25355659D01*
X65020002Y-25355659D01*
X65098469Y-25348793D01*
X65255408Y-25335063D01*
X65255417Y-25335060D01*
X65255420Y-25335060D01*
X65453590Y-25281961D01*
X65483663Y-25273903D01*
X65697830Y-25174035D01*
X65891401Y-25038495D01*
X66058495Y-24871401D01*
X66194035Y-24677830D01*
X66293903Y-24463663D01*
X66327056Y-24339932D01*
X66355062Y-24235413D01*
X66355063Y-24235404D01*
X66360161Y-24177144D01*
X66375659Y-24000000D01*
X66371463Y-23952046D01*
X66360632Y-23828245D01*
X66355063Y-23764592D01*
X66332995Y-23682233D01*
X66293904Y-23536340D01*
X66293903Y-23536338D01*
X66290557Y-23529163D01*
X66194035Y-23322171D01*
X66139055Y-23243651D01*
X66058494Y-23128597D01*
X65891402Y-22961505D01*
X65752054Y-22863933D01*
X65697830Y-22825965D01*
X65697828Y-22825964D01*
X65697830Y-22825964D01*
X65483661Y-22726096D01*
X65483659Y-22726095D01*
X65255420Y-22664939D01*
X65255404Y-22664936D01*
X65020002Y-22644341D01*
X65019998Y-22644341D01*
X64784595Y-22664936D01*
X64784579Y-22664939D01*
X64556340Y-22726095D01*
X64556338Y-22726096D01*
X64342171Y-22825964D01*
X64148597Y-22961505D01*
X63981505Y-23128597D01*
X63845964Y-23322171D01*
X63746096Y-23536338D01*
X63746095Y-23536340D01*
X63684939Y-23764579D01*
X63684936Y-23764595D01*
X63664341Y-23999997D01*
X59888600Y-23999997D01*
X59888600Y-23952046D01*
X59888600Y-21499997D01*
X76064341Y-21499997D01*
X76064341Y-21500002D01*
X76084936Y-21735404D01*
X76084939Y-21735420D01*
X76146095Y-21963659D01*
X76146096Y-21963661D01*
X76245964Y-22177829D01*
X76381505Y-22371402D01*
X76548597Y-22538494D01*
X76612174Y-22583011D01*
X76742170Y-22674035D01*
X76783603Y-22693356D01*
X76815920Y-22728624D01*
X76813833Y-22776414D01*
X76783603Y-22806644D01*
X76742171Y-22825964D01*
X76548597Y-22961505D01*
X76381505Y-23128597D01*
X76245964Y-23322171D01*
X76146096Y-23536338D01*
X76146095Y-23536340D01*
X76084939Y-23764579D01*
X76084936Y-23764595D01*
X76064341Y-23999997D01*
X76064341Y-24000002D01*
X76084936Y-24235404D01*
X76084938Y-24235413D01*
X76146095Y-24463659D01*
X76146096Y-24463661D01*
X76245964Y-24677829D01*
X76381505Y-24871402D01*
X76548597Y-25038494D01*
X76548600Y-25038496D01*
X76742170Y-25174035D01*
X76742169Y-25174035D01*
X76825319Y-25212808D01*
X76956337Y-25273903D01*
X76956339Y-25273903D01*
X76956340Y-25273904D01*
X77184579Y-25335060D01*
X77184585Y-25335061D01*
X77184592Y-25335063D01*
X77325836Y-25347420D01*
X77419998Y-25355659D01*
X77420000Y-25355659D01*
X77420002Y-25355659D01*
X77498469Y-25348793D01*
X77655408Y-25335063D01*
X77655417Y-25335060D01*
X77655420Y-25335060D01*
X77853590Y-25281961D01*
X77883663Y-25273903D01*
X78097830Y-25174035D01*
X78291401Y-25038495D01*
X78458495Y-24871401D01*
X78594035Y-24677830D01*
X78693903Y-24463663D01*
X78727056Y-24339932D01*
X78755062Y-24235413D01*
X78755063Y-24235404D01*
X78760161Y-24177144D01*
X78775659Y-24000000D01*
X78771463Y-23952046D01*
X78760632Y-23828245D01*
X78755063Y-23764592D01*
X78732995Y-23682233D01*
X78693904Y-23536340D01*
X78693903Y-23536338D01*
X78690557Y-23529163D01*
X78594035Y-23322171D01*
X78539055Y-23243651D01*
X78458494Y-23128597D01*
X78291402Y-22961505D01*
X78152054Y-22863933D01*
X78097830Y-22825965D01*
X78097828Y-22825964D01*
X78097825Y-22825962D01*
X78056397Y-22806644D01*
X78024079Y-22771376D01*
X78026166Y-22723587D01*
X78056397Y-22693356D01*
X78092640Y-22676455D01*
X78097830Y-22674035D01*
X78291401Y-22538495D01*
X78458495Y-22371401D01*
X78594035Y-22177830D01*
X78693903Y-21963663D01*
X78739829Y-21792262D01*
X78755060Y-21735420D01*
X78755060Y-21735417D01*
X78755063Y-21735408D01*
X78775659Y-21500000D01*
X78755063Y-21264592D01*
X78750839Y-21248829D01*
X78693904Y-21036340D01*
X78693903Y-21036338D01*
X78688362Y-21024456D01*
X78594035Y-20822171D01*
X78504980Y-20694987D01*
X78458494Y-20628597D01*
X78291402Y-20461505D01*
X78110819Y-20335060D01*
X78097830Y-20325965D01*
X78097828Y-20325964D01*
X78097830Y-20325964D01*
X77883661Y-20226096D01*
X77883659Y-20226095D01*
X77655420Y-20164939D01*
X77655404Y-20164936D01*
X77420002Y-20144341D01*
X77419998Y-20144341D01*
X77184595Y-20164936D01*
X77184579Y-20164939D01*
X76956340Y-20226095D01*
X76956338Y-20226096D01*
X76742171Y-20325964D01*
X76548597Y-20461505D01*
X76381505Y-20628597D01*
X76245964Y-20822171D01*
X76146096Y-21036338D01*
X76146095Y-21036340D01*
X76084939Y-21264579D01*
X76084936Y-21264595D01*
X76064341Y-21499997D01*
X59888600Y-21499997D01*
X59888600Y-18999997D01*
X66164341Y-18999997D01*
X66164341Y-19000002D01*
X66184936Y-19235404D01*
X66184939Y-19235420D01*
X66246095Y-19463659D01*
X66246096Y-19463661D01*
X66345964Y-19677829D01*
X66481505Y-19871402D01*
X66648597Y-20038494D01*
X66693361Y-20069838D01*
X66842170Y-20174035D01*
X66842169Y-20174035D01*
X66947705Y-20223247D01*
X67056337Y-20273903D01*
X67056339Y-20273903D01*
X67056340Y-20273904D01*
X67284579Y-20335060D01*
X67284585Y-20335061D01*
X67284592Y-20335063D01*
X67425836Y-20347420D01*
X67519998Y-20355659D01*
X67520000Y-20355659D01*
X67520002Y-20355659D01*
X67598469Y-20348793D01*
X67755408Y-20335063D01*
X67755417Y-20335060D01*
X67755420Y-20335060D01*
X67983659Y-20273904D01*
X67983658Y-20273904D01*
X67983663Y-20273903D01*
X68197830Y-20174035D01*
X68391401Y-20038495D01*
X68558495Y-19871401D01*
X68694035Y-19677830D01*
X68793903Y-19463663D01*
X68828128Y-19335932D01*
X68855060Y-19235420D01*
X68855060Y-19235417D01*
X68855063Y-19235408D01*
X68875659Y-19000000D01*
X68873524Y-18975601D01*
X68856246Y-18778115D01*
X68855063Y-18764592D01*
X68850313Y-18746865D01*
X68793904Y-18536340D01*
X68793903Y-18536338D01*
X68793149Y-18534722D01*
X68694035Y-18322171D01*
X68665487Y-18281400D01*
X68558494Y-18128597D01*
X68391402Y-17961505D01*
X68210819Y-17835060D01*
X68197830Y-17825965D01*
X68197828Y-17825964D01*
X68197830Y-17825964D01*
X67983661Y-17726096D01*
X67983659Y-17726095D01*
X67755420Y-17664939D01*
X67755404Y-17664936D01*
X67520002Y-17644341D01*
X67519998Y-17644341D01*
X67284595Y-17664936D01*
X67284579Y-17664939D01*
X67056340Y-17726095D01*
X67056338Y-17726096D01*
X66842171Y-17825964D01*
X66648597Y-17961505D01*
X66481505Y-18128597D01*
X66345964Y-18322171D01*
X66246096Y-18536338D01*
X66246095Y-18536340D01*
X66184939Y-18764579D01*
X66184936Y-18764595D01*
X66164341Y-18999997D01*
X59888600Y-18999997D01*
X59888600Y-13999997D01*
X63664341Y-13999997D01*
X63664341Y-14000002D01*
X63684936Y-14235404D01*
X63684939Y-14235420D01*
X63746095Y-14463659D01*
X63746096Y-14463661D01*
X63845964Y-14677829D01*
X63981505Y-14871402D01*
X64148597Y-15038494D01*
X64207092Y-15079452D01*
X64342170Y-15174035D01*
X64342169Y-15174035D01*
X64409449Y-15205408D01*
X64556337Y-15273903D01*
X64556339Y-15273903D01*
X64556340Y-15273904D01*
X64784579Y-15335060D01*
X64784585Y-15335061D01*
X64784592Y-15335063D01*
X64925836Y-15347420D01*
X65019998Y-15355659D01*
X65020000Y-15355659D01*
X65020002Y-15355659D01*
X65098469Y-15348793D01*
X65255408Y-15335063D01*
X65255417Y-15335060D01*
X65255420Y-15335060D01*
X65426599Y-15289193D01*
X65483663Y-15273903D01*
X65697830Y-15174035D01*
X65891401Y-15038495D01*
X66058495Y-14871401D01*
X66194035Y-14677830D01*
X66293903Y-14463663D01*
X66355063Y-14235408D01*
X66374368Y-14014752D01*
X66375659Y-14000002D01*
X66375659Y-13999997D01*
X76064341Y-13999997D01*
X76064341Y-14000002D01*
X76084936Y-14235404D01*
X76084939Y-14235420D01*
X76146095Y-14463659D01*
X76146096Y-14463661D01*
X76245964Y-14677829D01*
X76381505Y-14871402D01*
X76548597Y-15038494D01*
X76607092Y-15079452D01*
X76742170Y-15174035D01*
X76783603Y-15193356D01*
X76815920Y-15228624D01*
X76813833Y-15276414D01*
X76783603Y-15306644D01*
X76742171Y-15325964D01*
X76548597Y-15461505D01*
X76381505Y-15628597D01*
X76245964Y-15822171D01*
X76146096Y-16036338D01*
X76146095Y-16036340D01*
X76084939Y-16264579D01*
X76084936Y-16264595D01*
X76064341Y-16499997D01*
X76064341Y-16500002D01*
X76084936Y-16735404D01*
X76084939Y-16735420D01*
X76146095Y-16963659D01*
X76146096Y-16963661D01*
X76245964Y-17177829D01*
X76381505Y-17371402D01*
X76548597Y-17538494D01*
X76607873Y-17579999D01*
X76742170Y-17674035D01*
X76742169Y-17674035D01*
X76849253Y-17723969D01*
X76956337Y-17773903D01*
X76956339Y-17773903D01*
X76956340Y-17773904D01*
X77184579Y-17835060D01*
X77184585Y-17835061D01*
X77184592Y-17835063D01*
X77325836Y-17847420D01*
X77419998Y-17855659D01*
X77420000Y-17855659D01*
X77420002Y-17855659D01*
X77498469Y-17848793D01*
X77655408Y-17835063D01*
X77655417Y-17835060D01*
X77655420Y-17835060D01*
X77883659Y-17773904D01*
X77883658Y-17773904D01*
X77883663Y-17773903D01*
X78097830Y-17674035D01*
X78291401Y-17538495D01*
X78458495Y-17371401D01*
X78594035Y-17177830D01*
X78693903Y-16963663D01*
X78720192Y-16865549D01*
X78755060Y-16735420D01*
X78755060Y-16735417D01*
X78755063Y-16735408D01*
X78775659Y-16500000D01*
X78772159Y-16460000D01*
X78756021Y-16275539D01*
X78755063Y-16264592D01*
X78726903Y-16159497D01*
X78693904Y-16036340D01*
X78693903Y-16036338D01*
X78691839Y-16031912D01*
X78594035Y-15822171D01*
X78545949Y-15753497D01*
X78458494Y-15628597D01*
X78291402Y-15461505D01*
X78110819Y-15335060D01*
X78097830Y-15325965D01*
X78097828Y-15325964D01*
X78097825Y-15325962D01*
X78056397Y-15306644D01*
X78024079Y-15271376D01*
X78026166Y-15223587D01*
X78056397Y-15193356D01*
X78079531Y-15182567D01*
X78097830Y-15174035D01*
X78291401Y-15038495D01*
X78458495Y-14871401D01*
X78594035Y-14677830D01*
X78693903Y-14463663D01*
X78755063Y-14235408D01*
X78774368Y-14014752D01*
X78775659Y-14000002D01*
X78775659Y-13999997D01*
X78755063Y-13764595D01*
X78755063Y-13764592D01*
X78693903Y-13536337D01*
X78594035Y-13322171D01*
X78535913Y-13239164D01*
X78458494Y-13128597D01*
X78291402Y-12961505D01*
X78110819Y-12835060D01*
X78097830Y-12825965D01*
X78097828Y-12825964D01*
X78097830Y-12825964D01*
X77883661Y-12726096D01*
X77883659Y-12726095D01*
X77655420Y-12664939D01*
X77655404Y-12664936D01*
X77420002Y-12644341D01*
X77419998Y-12644341D01*
X77184595Y-12664936D01*
X77184579Y-12664939D01*
X76956340Y-12726095D01*
X76956338Y-12726096D01*
X76742171Y-12825964D01*
X76548597Y-12961505D01*
X76381505Y-13128597D01*
X76245964Y-13322171D01*
X76146096Y-13536338D01*
X76146095Y-13536340D01*
X76084939Y-13764579D01*
X76084936Y-13764595D01*
X76064341Y-13999997D01*
X66375659Y-13999997D01*
X66355063Y-13764595D01*
X66355063Y-13764592D01*
X66293903Y-13536337D01*
X66194035Y-13322171D01*
X66135913Y-13239164D01*
X66058494Y-13128597D01*
X65891402Y-12961505D01*
X65710819Y-12835060D01*
X65697830Y-12825965D01*
X65697828Y-12825964D01*
X65697830Y-12825964D01*
X65483661Y-12726096D01*
X65483659Y-12726095D01*
X65255420Y-12664939D01*
X65255404Y-12664936D01*
X65020002Y-12644341D01*
X65019998Y-12644341D01*
X64784595Y-12664936D01*
X64784579Y-12664939D01*
X64556340Y-12726095D01*
X64556338Y-12726096D01*
X64342171Y-12825964D01*
X64148597Y-12961505D01*
X63981505Y-13128597D01*
X63845964Y-13322171D01*
X63746096Y-13536338D01*
X63746095Y-13536340D01*
X63684939Y-13764579D01*
X63684936Y-13764595D01*
X63664341Y-13999997D01*
X59888600Y-13999997D01*
X59888600Y-11499997D01*
X66164341Y-11499997D01*
X66164341Y-11500002D01*
X66184936Y-11735404D01*
X66184939Y-11735420D01*
X66246095Y-11963659D01*
X66246096Y-11963661D01*
X66345964Y-12177829D01*
X66481505Y-12371402D01*
X66648597Y-12538494D01*
X66719020Y-12587804D01*
X66842170Y-12674035D01*
X66842169Y-12674035D01*
X66949253Y-12723969D01*
X67056337Y-12773903D01*
X67056339Y-12773903D01*
X67056340Y-12773904D01*
X67284579Y-12835060D01*
X67284585Y-12835061D01*
X67284592Y-12835063D01*
X67425836Y-12847420D01*
X67519998Y-12855659D01*
X67520000Y-12855659D01*
X67520002Y-12855659D01*
X67598469Y-12848793D01*
X67755408Y-12835063D01*
X67755417Y-12835060D01*
X67755420Y-12835060D01*
X67983659Y-12773904D01*
X67983658Y-12773904D01*
X67983663Y-12773903D01*
X68197830Y-12674035D01*
X68391401Y-12538495D01*
X68558495Y-12371401D01*
X68694035Y-12177830D01*
X68793903Y-11963663D01*
X68817205Y-11876699D01*
X68855060Y-11735420D01*
X68855060Y-11735417D01*
X68855063Y-11735408D01*
X68868793Y-11578469D01*
X68875659Y-11500002D01*
X68875659Y-11499997D01*
X68855063Y-11264595D01*
X68855063Y-11264592D01*
X68854261Y-11261600D01*
X68793904Y-11036340D01*
X68793903Y-11036338D01*
X68793449Y-11035365D01*
X68694035Y-10822171D01*
X68558495Y-10628599D01*
X68558494Y-10628597D01*
X68391402Y-10461505D01*
X68246484Y-10360033D01*
X68197830Y-10325965D01*
X68197828Y-10325964D01*
X68197830Y-10325964D01*
X67983661Y-10226096D01*
X67983659Y-10226095D01*
X67755420Y-10164939D01*
X67755404Y-10164936D01*
X67520002Y-10144341D01*
X67519998Y-10144341D01*
X67284595Y-10164936D01*
X67284579Y-10164939D01*
X67056340Y-10226095D01*
X67056338Y-10226096D01*
X66842171Y-10325964D01*
X66648597Y-10461505D01*
X66481505Y-10628597D01*
X66345964Y-10822171D01*
X66246096Y-11036338D01*
X66246095Y-11036340D01*
X66184939Y-11264579D01*
X66184936Y-11264595D01*
X66164341Y-11499997D01*
X59888600Y-11499997D01*
X59888600Y-11118245D01*
X59854270Y-11035364D01*
X59790836Y-10971930D01*
X59790835Y-10971929D01*
X59372563Y-10553657D01*
X59354257Y-10509463D01*
X59361637Y-10480000D01*
X59371523Y-10461505D01*
X59425763Y-10360032D01*
X59485248Y-10163935D01*
X59505334Y-9960000D01*
X59485248Y-9756065D01*
X59425763Y-9559968D01*
X59329163Y-9379244D01*
X59199163Y-9220837D01*
X59040756Y-9090837D01*
X59040754Y-9090835D01*
X59040750Y-9090833D01*
X58860035Y-8994238D01*
X58663933Y-8934751D01*
X58460000Y-8914666D01*
X58256066Y-8934751D01*
X58059964Y-8994238D01*
X57879249Y-9090833D01*
X57879238Y-9090841D01*
X57720838Y-9220835D01*
X57720835Y-9220838D01*
X57590841Y-9379238D01*
X57590833Y-9379249D01*
X57494238Y-9559964D01*
X57434751Y-9756066D01*
X57414666Y-9959999D01*
X57414666Y-9960000D01*
X57434751Y-10163933D01*
X57494238Y-10360035D01*
X57590833Y-10540750D01*
X57590841Y-10540761D01*
X57662925Y-10628597D01*
X57720837Y-10699163D01*
X57879244Y-10829163D01*
X57879247Y-10829164D01*
X57879249Y-10829166D01*
X58051081Y-10921013D01*
X58059968Y-10925763D01*
X58256065Y-10985248D01*
X58460000Y-11005334D01*
X58663935Y-10985248D01*
X58860032Y-10925763D01*
X58980000Y-10861636D01*
X59027605Y-10856948D01*
X59053657Y-10872563D01*
X59419294Y-11238199D01*
X59437600Y-11282393D01*
X59437600Y-11876699D01*
X59419294Y-11920893D01*
X59375100Y-11939199D01*
X59330906Y-11920893D01*
X59326787Y-11916348D01*
X59199164Y-11760838D01*
X59199161Y-11760835D01*
X59040761Y-11630841D01*
X59040759Y-11630840D01*
X59040756Y-11630837D01*
X59040754Y-11630835D01*
X59040750Y-11630833D01*
X58860035Y-11534238D01*
X58663933Y-11474751D01*
X58460000Y-11454666D01*
X58256066Y-11474751D01*
X58059964Y-11534238D01*
X57879249Y-11630833D01*
X57879238Y-11630841D01*
X57720838Y-11760835D01*
X57720835Y-11760838D01*
X57590841Y-11919238D01*
X57590833Y-11919249D01*
X57494238Y-12099964D01*
X57434751Y-12296066D01*
X57414666Y-12499999D01*
X57414666Y-12500000D01*
X57434751Y-12703933D01*
X57494238Y-12900035D01*
X57590833Y-13080750D01*
X57590841Y-13080761D01*
X57625751Y-13123300D01*
X57720837Y-13239163D01*
X57879244Y-13369163D01*
X57879247Y-13369164D01*
X57879249Y-13369166D01*
X58059964Y-13465761D01*
X58059968Y-13465763D01*
X58256065Y-13525248D01*
X58460000Y-13545334D01*
X58663935Y-13525248D01*
X58860032Y-13465763D01*
X59040756Y-13369163D01*
X59199163Y-13239163D01*
X59326787Y-13083650D01*
X59368974Y-13061101D01*
X59414749Y-13074987D01*
X59437299Y-13117174D01*
X59437600Y-13123300D01*
X59437600Y-14416699D01*
X59419294Y-14460893D01*
X59375100Y-14479199D01*
X59330906Y-14460893D01*
X59326787Y-14456348D01*
X59199164Y-14300838D01*
X59199161Y-14300835D01*
X59040761Y-14170841D01*
X59040759Y-14170840D01*
X59040756Y-14170837D01*
X59040754Y-14170835D01*
X59040750Y-14170833D01*
X58860035Y-14074238D01*
X58663933Y-14014751D01*
X58460000Y-13994666D01*
X58256066Y-14014751D01*
X58059964Y-14074238D01*
X57879249Y-14170833D01*
X57879238Y-14170841D01*
X57720838Y-14300835D01*
X57720835Y-14300838D01*
X57590841Y-14459238D01*
X57590833Y-14459249D01*
X57494238Y-14639964D01*
X57434751Y-14836066D01*
X57414666Y-15039999D01*
X57414666Y-15040000D01*
X57434751Y-15243933D01*
X57494238Y-15440035D01*
X57590834Y-15620752D01*
X57592538Y-15623301D01*
X57590871Y-15624414D01*
X57602812Y-15664604D01*
X57584843Y-15702315D01*
X53166966Y-20120194D01*
X53122772Y-20138500D01*
X52546882Y-20138500D01*
X52502688Y-20120194D01*
X52492756Y-20107251D01*
X52484448Y-20092862D01*
X52403269Y-20024744D01*
X52403266Y-20024743D01*
X52303688Y-19988500D01*
X52303686Y-19988500D01*
X52197714Y-19988500D01*
X52197711Y-19988500D01*
X52098133Y-20024743D01*
X52098130Y-20024744D01*
X52016952Y-20092861D01*
X51963965Y-20184639D01*
X51945564Y-20288997D01*
X51945564Y-20289002D01*
X51963965Y-20393361D01*
X51968808Y-20401749D01*
X51975053Y-20449175D01*
X51945933Y-20487126D01*
X51914682Y-20495500D01*
X50664127Y-20495500D01*
X50619933Y-20477194D01*
X48399002Y-18256263D01*
X46174652Y-16031912D01*
X46174651Y-16031911D01*
X46140476Y-16017757D01*
X46140475Y-16017756D01*
X46119337Y-16009000D01*
X46119336Y-16009000D01*
X44568982Y-16009000D01*
X44524788Y-15990694D01*
X44514856Y-15977751D01*
X44506548Y-15963362D01*
X44425369Y-15895244D01*
X44425366Y-15895243D01*
X44325788Y-15859000D01*
X44325786Y-15859000D01*
X44219814Y-15859000D01*
X44219811Y-15859000D01*
X44120233Y-15895243D01*
X44120230Y-15895244D01*
X44039052Y-15963361D01*
X44023272Y-15990694D01*
X43986723Y-16054000D01*
X43986065Y-16055139D01*
X43967664Y-16159497D01*
X41695800Y-16159497D01*
X41695800Y-15196535D01*
X41714106Y-15152341D01*
X41718118Y-15148663D01*
X41779048Y-15097538D01*
X41832034Y-15005763D01*
X41850436Y-14901400D01*
X41850435Y-14901397D01*
X41847532Y-14884931D01*
X41857884Y-14838229D01*
X41898228Y-14812527D01*
X41944930Y-14822879D01*
X41949256Y-14826199D01*
X41956830Y-14832555D01*
X41956831Y-14832555D01*
X41956832Y-14832556D01*
X42056414Y-14868800D01*
X42056417Y-14868800D01*
X42162383Y-14868800D01*
X42162386Y-14868800D01*
X42261968Y-14832556D01*
X42343148Y-14764438D01*
X42396134Y-14672663D01*
X42414536Y-14568300D01*
X42414536Y-14568297D01*
X42396134Y-14463939D01*
X42396134Y-14463937D01*
X42343148Y-14372162D01*
X42343147Y-14372161D01*
X42261969Y-14304044D01*
X42261966Y-14304043D01*
X42162388Y-14267800D01*
X42162386Y-14267800D01*
X42056414Y-14267800D01*
X42050947Y-14267800D01*
X42050947Y-14265571D01*
X42012262Y-14256985D01*
X42003930Y-14249991D01*
X39059734Y-11305794D01*
X39041428Y-11261600D01*
X39059734Y-11217406D01*
X39103928Y-11199100D01*
X47602072Y-11199100D01*
X47646266Y-11217406D01*
X52080892Y-15652032D01*
X52099198Y-15696226D01*
X52098249Y-15707078D01*
X52090064Y-15753502D01*
X52102172Y-15822171D01*
X52108466Y-15857863D01*
X52161452Y-15949638D01*
X52242630Y-16017755D01*
X52242631Y-16017755D01*
X52242632Y-16017756D01*
X52342214Y-16054000D01*
X52342217Y-16054000D01*
X52448183Y-16054000D01*
X52448186Y-16054000D01*
X52547768Y-16017756D01*
X52628948Y-15949638D01*
X52681934Y-15857863D01*
X52700336Y-15753500D01*
X52700336Y-15753497D01*
X52681934Y-15649139D01*
X52681934Y-15649137D01*
X52628948Y-15557362D01*
X52628947Y-15557361D01*
X52547769Y-15489244D01*
X52547766Y-15489243D01*
X52448188Y-15453000D01*
X52448186Y-15453000D01*
X52342214Y-15453000D01*
X52336747Y-15453000D01*
X52336747Y-15450771D01*
X52298062Y-15442185D01*
X52289730Y-15435191D01*
X47775553Y-10921013D01*
X47775552Y-10921012D01*
X47759352Y-10914302D01*
X47743148Y-10907590D01*
X47743148Y-10907589D01*
X47720237Y-10898100D01*
X47720236Y-10898100D01*
X34923864Y-10898100D01*
X34923861Y-10898100D01*
X34884751Y-10914301D01*
X34884750Y-10914302D01*
X34868549Y-10921012D01*
X34868546Y-10921014D01*
X34574612Y-11214946D01*
X34574610Y-11214949D01*
X34561189Y-11247349D01*
X34561190Y-11247350D01*
X34551700Y-11270260D01*
X34551700Y-15024137D01*
X34560243Y-15044761D01*
X34560243Y-15044763D01*
X34560244Y-15044763D01*
X34574612Y-15079452D01*
X35773592Y-16278432D01*
X35791898Y-16322626D01*
X35790949Y-16333478D01*
X35782764Y-16379902D01*
X35796887Y-16460000D01*
X35801166Y-16484263D01*
X35810252Y-16500000D01*
X35832220Y-16538050D01*
X35838463Y-16585476D01*
X35809343Y-16623427D01*
X35778093Y-16631800D01*
X33070728Y-16631800D01*
X33026534Y-16613494D01*
X28449606Y-12036566D01*
X28431300Y-11992372D01*
X28432248Y-11981531D01*
X28440436Y-11935100D01*
X28440436Y-11935099D01*
X28440436Y-11935097D01*
X28422034Y-11830739D01*
X28422034Y-11830737D01*
X28369048Y-11738962D01*
X28361824Y-11732900D01*
X28287869Y-11670844D01*
X28287866Y-11670843D01*
X28188288Y-11634600D01*
X28188286Y-11634600D01*
X28082314Y-11634600D01*
X28082311Y-11634600D01*
X27982733Y-11670843D01*
X27982730Y-11670844D01*
X27901552Y-11738961D01*
X27848565Y-11830739D01*
X27830164Y-11935097D01*
X27830164Y-11935102D01*
X27843998Y-12013561D01*
X27848566Y-12039463D01*
X27901552Y-12131238D01*
X27982730Y-12199355D01*
X27982731Y-12199355D01*
X27982732Y-12199356D01*
X28082314Y-12235600D01*
X28082317Y-12235600D01*
X28193754Y-12235600D01*
X28193754Y-12237836D01*
X28232409Y-12246396D01*
X28240768Y-12253408D01*
X32897248Y-16909888D01*
X32929651Y-16923309D01*
X32952564Y-16932800D01*
X38299172Y-16932800D01*
X38343366Y-16951106D01*
X38768326Y-17376066D01*
X39164403Y-17772142D01*
X39182709Y-17816336D01*
X39164403Y-17860530D01*
X39141586Y-17875066D01*
X39107037Y-17887641D01*
X39107030Y-17887644D01*
X39088400Y-17903278D01*
X39048226Y-17917900D01*
X33768160Y-17917900D01*
X33745250Y-17927390D01*
X33712851Y-17940809D01*
X33712846Y-17940813D01*
X32700311Y-18953348D01*
X32691098Y-18975596D01*
X32691096Y-18975601D01*
X32677400Y-19008664D01*
X32677400Y-19514972D01*
X32659094Y-19559166D01*
X25468638Y-26749621D01*
X25424444Y-26767927D01*
X25380250Y-26749621D01*
X25370320Y-26736681D01*
X25318348Y-26646662D01*
X25318347Y-26646661D01*
X25237169Y-26578544D01*
X25237166Y-26578543D01*
X25137588Y-26542300D01*
X25137586Y-26542300D01*
X25031614Y-26542300D01*
X25031611Y-26542300D01*
X24932033Y-26578543D01*
X24932030Y-26578544D01*
X24850852Y-26646661D01*
X24797865Y-26738439D01*
X24779464Y-26842797D01*
X24779464Y-26842800D01*
X24787648Y-26889222D01*
X24777293Y-26935923D01*
X24770291Y-26944267D01*
X19754066Y-31960494D01*
X19709872Y-31978800D01*
X2841694Y-31978800D01*
X2797500Y-31960494D01*
X2779194Y-31916300D01*
X2794379Y-31879640D01*
X2792751Y-31878552D01*
X2796165Y-31873440D01*
X2796170Y-31873436D01*
X2830500Y-31790555D01*
X2830500Y-31681999D01*
X2848806Y-31637805D01*
X2893000Y-31619499D01*
X3249895Y-31619499D01*
X3249898Y-31619499D01*
X3279213Y-31613669D01*
X3312457Y-31591457D01*
X3330543Y-31564388D01*
X4206001Y-31564388D01*
X4208949Y-31589807D01*
X4208949Y-31589808D01*
X4254857Y-31693778D01*
X4335221Y-31774142D01*
X4439194Y-31820051D01*
X4464611Y-31822999D01*
X4993000Y-31822999D01*
X5297000Y-31822999D01*
X5825388Y-31822999D01*
X5850807Y-31820050D01*
X5850808Y-31820050D01*
X5954778Y-31774142D01*
X6035142Y-31693778D01*
X6081051Y-31589805D01*
X6084000Y-31564388D01*
X6084000Y-29829500D01*
X5297000Y-29829500D01*
X5297000Y-31822999D01*
X4993000Y-31822999D01*
X4993000Y-29829500D01*
X4206001Y-29829500D01*
X4206001Y-31564388D01*
X3330543Y-31564388D01*
X3334669Y-31558213D01*
X3340500Y-31528899D01*
X3340499Y-27826102D01*
X3334669Y-27796787D01*
X3334666Y-27796783D01*
X3330542Y-27790611D01*
X4206000Y-27790611D01*
X4206000Y-29525500D01*
X4993000Y-29525500D01*
X5297000Y-29525500D01*
X6083999Y-29525500D01*
X6083999Y-27826101D01*
X6949500Y-27826101D01*
X6949500Y-31528894D01*
X6949501Y-31528898D01*
X6953873Y-31550884D01*
X6955331Y-31558214D01*
X6977543Y-31591457D01*
X7010783Y-31613667D01*
X7010784Y-31613667D01*
X7010787Y-31613669D01*
X7040101Y-31619500D01*
X8329898Y-31619499D01*
X8359213Y-31613669D01*
X8392457Y-31591457D01*
X8414669Y-31558213D01*
X8420500Y-31528899D01*
X8420499Y-27826102D01*
X8414669Y-27796787D01*
X8414666Y-27796783D01*
X8393560Y-27765194D01*
X8392457Y-27763543D01*
X8392456Y-27763542D01*
X8359216Y-27741332D01*
X8359213Y-27741331D01*
X8329899Y-27735500D01*
X8329898Y-27735500D01*
X7898000Y-27735500D01*
X7853806Y-27717194D01*
X7835500Y-27673000D01*
X7835500Y-26499997D01*
X11044341Y-26499997D01*
X11044341Y-26500002D01*
X11064936Y-26735404D01*
X11064939Y-26735420D01*
X11126095Y-26963659D01*
X11126096Y-26963661D01*
X11225964Y-27177829D01*
X11361505Y-27371402D01*
X11528597Y-27538494D01*
X11536345Y-27543919D01*
X11722170Y-27674035D01*
X11722169Y-27674035D01*
X11829253Y-27723969D01*
X11936337Y-27773903D01*
X11936339Y-27773903D01*
X11936340Y-27773904D01*
X12164579Y-27835060D01*
X12164585Y-27835061D01*
X12164592Y-27835063D01*
X12305836Y-27847420D01*
X12399998Y-27855659D01*
X12400000Y-27855659D01*
X12400002Y-27855659D01*
X12478469Y-27848793D01*
X12635408Y-27835063D01*
X12635417Y-27835060D01*
X12635420Y-27835060D01*
X12863659Y-27773904D01*
X12863658Y-27773904D01*
X12863663Y-27773903D01*
X13077830Y-27674035D01*
X13271401Y-27538495D01*
X13438495Y-27371401D01*
X13574035Y-27177830D01*
X13673903Y-26963663D01*
X13734251Y-26738439D01*
X13735060Y-26735420D01*
X13735060Y-26735417D01*
X13735063Y-26735408D01*
X13751958Y-26542300D01*
X13755659Y-26500002D01*
X13755659Y-26499997D01*
X13735063Y-26264595D01*
X13735063Y-26264592D01*
X13708582Y-26165763D01*
X13673904Y-26036340D01*
X13673903Y-26036338D01*
X13628589Y-25939163D01*
X13574035Y-25822171D01*
X13509756Y-25730371D01*
X13438494Y-25628597D01*
X13271402Y-25461505D01*
X13090819Y-25335060D01*
X13077830Y-25325965D01*
X13077828Y-25325964D01*
X13077830Y-25325964D01*
X12863661Y-25226096D01*
X12863659Y-25226095D01*
X12635420Y-25164939D01*
X12635404Y-25164936D01*
X12400002Y-25144341D01*
X12399998Y-25144341D01*
X12164595Y-25164936D01*
X12164579Y-25164939D01*
X11936340Y-25226095D01*
X11936338Y-25226096D01*
X11722171Y-25325964D01*
X11528597Y-25461505D01*
X11361505Y-25628597D01*
X11225964Y-25822171D01*
X11126096Y-26036338D01*
X11126095Y-26036340D01*
X11064939Y-26264579D01*
X11064936Y-26264595D01*
X11044341Y-26499997D01*
X7835500Y-26499997D01*
X7835500Y-25785527D01*
X7853806Y-25741333D01*
X9595142Y-23999997D01*
X13544341Y-23999997D01*
X13544341Y-24000002D01*
X13564936Y-24235404D01*
X13564938Y-24235413D01*
X13626095Y-24463659D01*
X13626096Y-24463661D01*
X13725964Y-24677829D01*
X13861505Y-24871402D01*
X14028597Y-25038494D01*
X14028600Y-25038496D01*
X14222170Y-25174035D01*
X14222169Y-25174035D01*
X14305319Y-25212808D01*
X14436337Y-25273903D01*
X14436339Y-25273903D01*
X14436340Y-25273904D01*
X14664579Y-25335060D01*
X14664585Y-25335061D01*
X14664592Y-25335063D01*
X14805836Y-25347420D01*
X14899998Y-25355659D01*
X14900000Y-25355659D01*
X14900002Y-25355659D01*
X14978469Y-25348793D01*
X15135408Y-25335063D01*
X15135417Y-25335060D01*
X15135420Y-25335060D01*
X15333590Y-25281961D01*
X15363663Y-25273903D01*
X15577830Y-25174035D01*
X15771401Y-25038495D01*
X15938495Y-24871401D01*
X16074035Y-24677830D01*
X16173903Y-24463663D01*
X16207056Y-24339932D01*
X16235062Y-24235413D01*
X16235063Y-24235404D01*
X16240161Y-24177144D01*
X16255659Y-24000000D01*
X16251463Y-23952046D01*
X16240632Y-23828245D01*
X16235063Y-23764592D01*
X16212995Y-23682233D01*
X16173904Y-23536340D01*
X16173903Y-23536338D01*
X16170557Y-23529163D01*
X16074035Y-23322171D01*
X16019055Y-23243651D01*
X15938494Y-23128597D01*
X15771402Y-22961505D01*
X15632054Y-22863933D01*
X15577830Y-22825965D01*
X15577828Y-22825964D01*
X15577830Y-22825964D01*
X15363661Y-22726096D01*
X15363659Y-22726095D01*
X15135420Y-22664939D01*
X15135404Y-22664936D01*
X14900002Y-22644341D01*
X14899998Y-22644341D01*
X14664595Y-22664936D01*
X14664579Y-22664939D01*
X14436340Y-22726095D01*
X14436338Y-22726096D01*
X14222171Y-22825964D01*
X14028597Y-22961505D01*
X13861505Y-23128597D01*
X13725964Y-23322171D01*
X13626096Y-23536338D01*
X13626095Y-23536340D01*
X13564939Y-23764579D01*
X13564936Y-23764595D01*
X13544341Y-23999997D01*
X9595142Y-23999997D01*
X12282877Y-21312262D01*
X16729587Y-16865552D01*
X16739824Y-16840837D01*
X16752500Y-16810236D01*
X16752500Y-12736035D01*
X16770806Y-12691841D01*
X16774818Y-12688163D01*
X16835748Y-12637038D01*
X16888734Y-12545263D01*
X16907136Y-12440900D01*
X16907136Y-12440897D01*
X16888734Y-12336539D01*
X16888734Y-12336537D01*
X16835748Y-12244762D01*
X16813802Y-12226347D01*
X16754569Y-12176644D01*
X16754566Y-12176643D01*
X16654988Y-12140400D01*
X16654986Y-12140400D01*
X16549014Y-12140400D01*
X16549011Y-12140400D01*
X16449433Y-12176643D01*
X16449430Y-12176644D01*
X16368252Y-12244761D01*
X16315265Y-12336539D01*
X16296864Y-12440897D01*
X16296864Y-12440902D01*
X16314072Y-12538495D01*
X16315266Y-12545263D01*
X16368252Y-12637038D01*
X16429174Y-12688157D01*
X16451262Y-12730587D01*
X16451500Y-12736035D01*
X16451500Y-16692072D01*
X16433194Y-16736266D01*
X13827163Y-19342296D01*
X13782969Y-19360602D01*
X13738775Y-19342296D01*
X13720469Y-19298102D01*
X13722599Y-19281926D01*
X13735060Y-19235420D01*
X13735060Y-19235417D01*
X13735063Y-19235408D01*
X13755659Y-19000000D01*
X13753524Y-18975601D01*
X13736246Y-18778115D01*
X13735063Y-18764592D01*
X13730313Y-18746865D01*
X13673904Y-18536340D01*
X13673903Y-18536338D01*
X13673149Y-18534722D01*
X13574035Y-18322171D01*
X13545487Y-18281400D01*
X13438494Y-18128597D01*
X13271402Y-17961505D01*
X13090819Y-17835060D01*
X13077830Y-17825965D01*
X13077828Y-17825964D01*
X13077830Y-17825964D01*
X12863661Y-17726096D01*
X12863659Y-17726095D01*
X12635420Y-17664939D01*
X12635404Y-17664936D01*
X12400002Y-17644341D01*
X12399998Y-17644341D01*
X12164595Y-17664936D01*
X12164579Y-17664939D01*
X11936340Y-17726095D01*
X11936338Y-17726096D01*
X11722171Y-17825964D01*
X11528597Y-17961505D01*
X11361505Y-18128597D01*
X11225964Y-18322171D01*
X11126096Y-18536338D01*
X11126095Y-18536340D01*
X11064939Y-18764579D01*
X11064936Y-18764595D01*
X11044341Y-18999997D01*
X11044341Y-19000002D01*
X11064936Y-19235404D01*
X11064939Y-19235420D01*
X11126095Y-19463659D01*
X11126096Y-19463661D01*
X11225964Y-19677829D01*
X11361505Y-19871402D01*
X11528597Y-20038494D01*
X11573361Y-20069838D01*
X11722170Y-20174035D01*
X11722169Y-20174035D01*
X11827705Y-20223247D01*
X11936337Y-20273903D01*
X11936339Y-20273903D01*
X11936340Y-20273904D01*
X12164579Y-20335060D01*
X12164585Y-20335061D01*
X12164592Y-20335063D01*
X12305836Y-20347420D01*
X12399998Y-20355659D01*
X12400000Y-20355659D01*
X12400002Y-20355659D01*
X12478469Y-20348793D01*
X12635408Y-20335063D01*
X12635417Y-20335060D01*
X12635420Y-20335060D01*
X12681926Y-20322599D01*
X12729352Y-20328842D01*
X12758472Y-20366793D01*
X12752229Y-20414219D01*
X12742296Y-20427163D01*
X7557413Y-25612046D01*
X7557409Y-25612051D01*
X7543989Y-25644449D01*
X7543990Y-25644450D01*
X7534500Y-25667360D01*
X7534500Y-27673000D01*
X7516194Y-27717194D01*
X7472000Y-27735500D01*
X7040105Y-27735500D01*
X7040104Y-27735500D01*
X7040102Y-27735501D01*
X7025444Y-27738416D01*
X7010785Y-27741331D01*
X6977542Y-27763543D01*
X6955332Y-27796783D01*
X6955331Y-27796787D01*
X6949500Y-27826101D01*
X6083999Y-27826101D01*
X6083999Y-27790611D01*
X6081050Y-27765192D01*
X6081050Y-27765191D01*
X6035142Y-27661221D01*
X5954778Y-27580857D01*
X5850805Y-27534948D01*
X5825389Y-27532000D01*
X5297000Y-27532000D01*
X5297000Y-29525500D01*
X4993000Y-29525500D01*
X4993000Y-27532000D01*
X4464611Y-27532000D01*
X4439192Y-27534949D01*
X4439191Y-27534949D01*
X4335221Y-27580857D01*
X4254857Y-27661221D01*
X4208948Y-27765194D01*
X4206000Y-27790611D01*
X3330542Y-27790611D01*
X3313560Y-27765194D01*
X3312457Y-27763543D01*
X3312456Y-27763542D01*
X3279216Y-27741332D01*
X3279213Y-27741331D01*
X3249899Y-27735500D01*
X3249898Y-27735500D01*
X1960105Y-27735500D01*
X1960104Y-27735500D01*
X1960102Y-27735501D01*
X1945444Y-27738416D01*
X1930785Y-27741331D01*
X1897542Y-27763543D01*
X1875332Y-27796783D01*
X1875331Y-27796787D01*
X1869500Y-27826101D01*
X1869500Y-31528894D01*
X1869501Y-31528898D01*
X1873873Y-31550884D01*
X1875331Y-31558214D01*
X1890105Y-31580325D01*
X1897543Y-31591457D01*
X1901294Y-31593963D01*
X1927872Y-31633733D01*
X1918544Y-31680650D01*
X1910768Y-31690125D01*
X1615565Y-31985329D01*
X1552129Y-32048764D01*
X1547372Y-32060250D01*
X1547372Y-32060251D01*
X1517799Y-32131643D01*
X50500Y-32131643D01*
X50500Y-21499997D01*
X1144341Y-21499997D01*
X1144341Y-21500002D01*
X1164936Y-21735404D01*
X1164939Y-21735420D01*
X1226095Y-21963659D01*
X1226096Y-21963661D01*
X1325964Y-22177829D01*
X1461505Y-22371402D01*
X1628597Y-22538494D01*
X1692174Y-22583011D01*
X1822170Y-22674035D01*
X1863603Y-22693356D01*
X1895920Y-22728624D01*
X1893833Y-22776414D01*
X1863603Y-22806644D01*
X1822171Y-22825964D01*
X1628597Y-22961505D01*
X1461505Y-23128597D01*
X1325964Y-23322171D01*
X1226096Y-23536338D01*
X1226095Y-23536340D01*
X1164939Y-23764579D01*
X1164936Y-23764595D01*
X1144341Y-23999997D01*
X1144341Y-24000002D01*
X1164936Y-24235404D01*
X1164938Y-24235413D01*
X1226095Y-24463659D01*
X1226096Y-24463661D01*
X1325964Y-24677829D01*
X1461505Y-24871402D01*
X1628597Y-25038494D01*
X1628600Y-25038496D01*
X1822170Y-25174035D01*
X1822169Y-25174035D01*
X1905319Y-25212808D01*
X2036337Y-25273903D01*
X2036339Y-25273903D01*
X2036340Y-25273904D01*
X2264579Y-25335060D01*
X2264585Y-25335061D01*
X2264592Y-25335063D01*
X2405836Y-25347420D01*
X2499998Y-25355659D01*
X2500000Y-25355659D01*
X2500002Y-25355659D01*
X2578469Y-25348793D01*
X2735408Y-25335063D01*
X2735417Y-25335060D01*
X2735420Y-25335060D01*
X2933590Y-25281961D01*
X2963663Y-25273903D01*
X3177830Y-25174035D01*
X3371401Y-25038495D01*
X3538495Y-24871401D01*
X3674035Y-24677830D01*
X3773903Y-24463663D01*
X3807056Y-24339932D01*
X3835062Y-24235413D01*
X3835063Y-24235404D01*
X3840161Y-24177144D01*
X3855659Y-24000000D01*
X3851463Y-23952046D01*
X3840632Y-23828245D01*
X3835063Y-23764592D01*
X3812995Y-23682233D01*
X3773904Y-23536340D01*
X3773903Y-23536338D01*
X3770557Y-23529163D01*
X3674035Y-23322171D01*
X3619055Y-23243651D01*
X3538494Y-23128597D01*
X3371402Y-22961505D01*
X3232054Y-22863933D01*
X3177830Y-22825965D01*
X3177828Y-22825964D01*
X3177825Y-22825962D01*
X3136397Y-22806644D01*
X3104079Y-22771376D01*
X3106166Y-22723587D01*
X3136397Y-22693356D01*
X3172640Y-22676455D01*
X3177830Y-22674035D01*
X3371401Y-22538495D01*
X3538495Y-22371401D01*
X3674035Y-22177830D01*
X3773903Y-21963663D01*
X3819829Y-21792262D01*
X3835060Y-21735420D01*
X3835060Y-21735417D01*
X3835063Y-21735408D01*
X3855659Y-21500000D01*
X3835063Y-21264592D01*
X3830839Y-21248829D01*
X3773904Y-21036340D01*
X3773903Y-21036338D01*
X3768362Y-21024456D01*
X3674035Y-20822171D01*
X3584980Y-20694987D01*
X3538494Y-20628597D01*
X3371402Y-20461505D01*
X3190819Y-20335060D01*
X3177830Y-20325965D01*
X3177828Y-20325964D01*
X3177830Y-20325964D01*
X2963661Y-20226096D01*
X2963659Y-20226095D01*
X2735420Y-20164939D01*
X2735404Y-20164936D01*
X2500002Y-20144341D01*
X2499998Y-20144341D01*
X2264595Y-20164936D01*
X2264579Y-20164939D01*
X2036340Y-20226095D01*
X2036338Y-20226096D01*
X1822171Y-20325964D01*
X1628597Y-20461505D01*
X1461505Y-20628597D01*
X1325964Y-20822171D01*
X1226096Y-21036338D01*
X1226095Y-21036340D01*
X1164939Y-21264579D01*
X1164936Y-21264595D01*
X1144341Y-21499997D01*
X50500Y-21499997D01*
X50500Y-13999997D01*
X1144341Y-13999997D01*
X1144341Y-14000002D01*
X1164936Y-14235404D01*
X1164939Y-14235420D01*
X1226095Y-14463659D01*
X1226096Y-14463661D01*
X1325964Y-14677829D01*
X1461505Y-14871402D01*
X1628597Y-15038494D01*
X1687092Y-15079452D01*
X1822170Y-15174035D01*
X1863603Y-15193356D01*
X1895920Y-15228624D01*
X1893833Y-15276414D01*
X1863603Y-15306644D01*
X1822171Y-15325964D01*
X1628597Y-15461505D01*
X1461505Y-15628597D01*
X1325964Y-15822171D01*
X1226096Y-16036338D01*
X1226095Y-16036340D01*
X1164939Y-16264579D01*
X1164936Y-16264595D01*
X1144341Y-16499997D01*
X1144341Y-16500002D01*
X1164936Y-16735404D01*
X1164939Y-16735420D01*
X1226095Y-16963659D01*
X1226096Y-16963661D01*
X1325964Y-17177829D01*
X1461505Y-17371402D01*
X1628597Y-17538494D01*
X1687873Y-17579999D01*
X1822170Y-17674035D01*
X1822169Y-17674035D01*
X1929253Y-17723969D01*
X2036337Y-17773903D01*
X2036339Y-17773903D01*
X2036340Y-17773904D01*
X2264579Y-17835060D01*
X2264585Y-17835061D01*
X2264592Y-17835063D01*
X2405836Y-17847420D01*
X2499998Y-17855659D01*
X2500000Y-17855659D01*
X2500002Y-17855659D01*
X2578469Y-17848793D01*
X2735408Y-17835063D01*
X2735417Y-17835060D01*
X2735420Y-17835060D01*
X2963659Y-17773904D01*
X2963658Y-17773904D01*
X2963663Y-17773903D01*
X3177830Y-17674035D01*
X3371401Y-17538495D01*
X3538495Y-17371401D01*
X3674035Y-17177830D01*
X3773903Y-16963663D01*
X3800192Y-16865549D01*
X3835060Y-16735420D01*
X3835060Y-16735417D01*
X3835063Y-16735408D01*
X3855659Y-16500000D01*
X3852159Y-16460000D01*
X3836021Y-16275539D01*
X3835063Y-16264592D01*
X3806903Y-16159497D01*
X3773904Y-16036340D01*
X3773903Y-16036338D01*
X3771839Y-16031912D01*
X3674035Y-15822171D01*
X3625949Y-15753497D01*
X3538494Y-15628597D01*
X3371402Y-15461505D01*
X3190819Y-15335060D01*
X3177830Y-15325965D01*
X3177828Y-15325964D01*
X3177825Y-15325962D01*
X3136397Y-15306644D01*
X3104079Y-15271376D01*
X3106166Y-15223587D01*
X3136397Y-15193356D01*
X3159531Y-15182567D01*
X3177830Y-15174035D01*
X3371401Y-15038495D01*
X3538495Y-14871401D01*
X3674035Y-14677830D01*
X3773903Y-14463663D01*
X3835063Y-14235408D01*
X3854368Y-14014752D01*
X3855659Y-14000002D01*
X3855659Y-13999997D01*
X13544341Y-13999997D01*
X13544341Y-14000002D01*
X13564936Y-14235404D01*
X13564939Y-14235420D01*
X13626095Y-14463659D01*
X13626096Y-14463661D01*
X13725964Y-14677829D01*
X13861505Y-14871402D01*
X14028597Y-15038494D01*
X14087092Y-15079452D01*
X14222170Y-15174035D01*
X14222169Y-15174035D01*
X14289449Y-15205408D01*
X14436337Y-15273903D01*
X14436339Y-15273903D01*
X14436340Y-15273904D01*
X14664579Y-15335060D01*
X14664585Y-15335061D01*
X14664592Y-15335063D01*
X14805836Y-15347420D01*
X14899998Y-15355659D01*
X14900000Y-15355659D01*
X14900002Y-15355659D01*
X14978469Y-15348793D01*
X15135408Y-15335063D01*
X15135417Y-15335060D01*
X15135420Y-15335060D01*
X15306599Y-15289193D01*
X15363663Y-15273903D01*
X15577830Y-15174035D01*
X15771401Y-15038495D01*
X15938495Y-14871401D01*
X16074035Y-14677830D01*
X16173903Y-14463663D01*
X16235063Y-14235408D01*
X16254368Y-14014752D01*
X16255659Y-14000002D01*
X16255659Y-13999997D01*
X16235063Y-13764595D01*
X16235063Y-13764592D01*
X16173903Y-13536337D01*
X16074035Y-13322171D01*
X16015913Y-13239164D01*
X15938494Y-13128597D01*
X15771402Y-12961505D01*
X15590819Y-12835060D01*
X15577830Y-12825965D01*
X15577828Y-12825964D01*
X15577830Y-12825964D01*
X15363661Y-12726096D01*
X15363659Y-12726095D01*
X15135420Y-12664939D01*
X15135404Y-12664936D01*
X14900002Y-12644341D01*
X14899998Y-12644341D01*
X14664595Y-12664936D01*
X14664579Y-12664939D01*
X14436340Y-12726095D01*
X14436338Y-12726096D01*
X14222171Y-12825964D01*
X14028597Y-12961505D01*
X13861505Y-13128597D01*
X13725964Y-13322171D01*
X13626096Y-13536338D01*
X13626095Y-13536340D01*
X13564939Y-13764579D01*
X13564936Y-13764595D01*
X13544341Y-13999997D01*
X3855659Y-13999997D01*
X3835063Y-13764595D01*
X3835063Y-13764592D01*
X3773903Y-13536337D01*
X3674035Y-13322171D01*
X3615913Y-13239164D01*
X3538494Y-13128597D01*
X3371402Y-12961505D01*
X3190819Y-12835060D01*
X3177830Y-12825965D01*
X3177828Y-12825964D01*
X3177830Y-12825964D01*
X2963661Y-12726096D01*
X2963659Y-12726095D01*
X2735420Y-12664939D01*
X2735404Y-12664936D01*
X2500002Y-12644341D01*
X2499998Y-12644341D01*
X2264595Y-12664936D01*
X2264579Y-12664939D01*
X2036340Y-12726095D01*
X2036338Y-12726096D01*
X1822171Y-12825964D01*
X1628597Y-12961505D01*
X1461505Y-13128597D01*
X1325964Y-13322171D01*
X1226096Y-13536338D01*
X1226095Y-13536340D01*
X1164939Y-13764579D01*
X1164936Y-13764595D01*
X1144341Y-13999997D01*
X50500Y-13999997D01*
X50500Y-11499997D01*
X11044341Y-11499997D01*
X11044341Y-11500002D01*
X11064936Y-11735404D01*
X11064939Y-11735420D01*
X11126095Y-11963659D01*
X11126096Y-11963661D01*
X11225964Y-12177829D01*
X11361505Y-12371402D01*
X11528597Y-12538494D01*
X11599020Y-12587804D01*
X11722170Y-12674035D01*
X11722169Y-12674035D01*
X11829253Y-12723969D01*
X11936337Y-12773903D01*
X11936339Y-12773903D01*
X11936340Y-12773904D01*
X12164579Y-12835060D01*
X12164585Y-12835061D01*
X12164592Y-12835063D01*
X12305836Y-12847420D01*
X12399998Y-12855659D01*
X12400000Y-12855659D01*
X12400002Y-12855659D01*
X12478469Y-12848793D01*
X12635408Y-12835063D01*
X12635417Y-12835060D01*
X12635420Y-12835060D01*
X12863659Y-12773904D01*
X12863658Y-12773904D01*
X12863663Y-12773903D01*
X13077830Y-12674035D01*
X13271401Y-12538495D01*
X13438495Y-12371401D01*
X13574035Y-12177830D01*
X13673903Y-11963663D01*
X13697205Y-11876699D01*
X13735060Y-11735420D01*
X13735060Y-11735417D01*
X13735063Y-11735408D01*
X13748793Y-11578469D01*
X13755659Y-11500002D01*
X13755659Y-11499997D01*
X13735063Y-11264595D01*
X13735063Y-11264592D01*
X13734261Y-11261600D01*
X13673904Y-11036340D01*
X13673903Y-11036338D01*
X13673449Y-11035365D01*
X13574035Y-10822171D01*
X13438495Y-10628599D01*
X13438494Y-10628597D01*
X13271402Y-10461505D01*
X13126484Y-10360033D01*
X13077830Y-10325965D01*
X13077828Y-10325964D01*
X13077830Y-10325964D01*
X12863661Y-10226096D01*
X12863659Y-10226095D01*
X12635420Y-10164939D01*
X12635404Y-10164936D01*
X12400002Y-10144341D01*
X12399998Y-10144341D01*
X12164595Y-10164936D01*
X12164579Y-10164939D01*
X11936340Y-10226095D01*
X11936338Y-10226096D01*
X11722171Y-10325964D01*
X11528597Y-10461505D01*
X11361505Y-10628597D01*
X11225964Y-10822171D01*
X11126096Y-11036338D01*
X11126095Y-11036340D01*
X11064939Y-11264579D01*
X11064936Y-11264595D01*
X11044341Y-11499997D01*
X50500Y-11499997D01*
X50500Y-3381984D01*
X1699500Y-3381984D01*
X1699500Y-3618015D01*
X1730307Y-3852017D01*
X1730307Y-3852018D01*
X1791388Y-4079976D01*
X1791392Y-4079987D01*
X1791394Y-4079993D01*
X1839470Y-4196059D01*
X1881713Y-4298043D01*
X1881716Y-4298049D01*
X1999727Y-4502450D01*
X2143408Y-4689699D01*
X2310301Y-4856592D01*
X2497550Y-5000273D01*
X2701951Y-5118284D01*
X2920007Y-5208606D01*
X2920017Y-5208608D01*
X2920023Y-5208611D01*
X3147982Y-5269692D01*
X3147986Y-5269693D01*
X3381989Y-5300500D01*
X3381995Y-5300500D01*
X3618005Y-5300500D01*
X3618011Y-5300500D01*
X3852014Y-5269693D01*
X3852018Y-5269692D01*
X4079976Y-5208611D01*
X4079979Y-5208609D01*
X4079993Y-5208606D01*
X4298049Y-5118284D01*
X4502450Y-5000273D01*
X4689699Y-4856592D01*
X4856592Y-4689699D01*
X5000273Y-4502450D01*
X5118284Y-4298049D01*
X5208606Y-4079993D01*
X5269693Y-3852014D01*
X5300500Y-3618011D01*
X5300500Y-3381989D01*
X5300499Y-3381984D01*
X74699500Y-3381984D01*
X74699500Y-3618015D01*
X74730307Y-3852017D01*
X74730307Y-3852018D01*
X74791388Y-4079976D01*
X74791392Y-4079987D01*
X74791394Y-4079993D01*
X74839470Y-4196059D01*
X74881713Y-4298043D01*
X74881716Y-4298049D01*
X74999727Y-4502450D01*
X75143408Y-4689699D01*
X75310301Y-4856592D01*
X75497550Y-5000273D01*
X75701951Y-5118284D01*
X75920007Y-5208606D01*
X75920017Y-5208608D01*
X75920023Y-5208611D01*
X76147982Y-5269692D01*
X76147986Y-5269693D01*
X76381989Y-5300500D01*
X76381995Y-5300500D01*
X76618005Y-5300500D01*
X76618011Y-5300500D01*
X76852014Y-5269693D01*
X76852018Y-5269692D01*
X77079976Y-5208611D01*
X77079979Y-5208609D01*
X77079993Y-5208606D01*
X77298049Y-5118284D01*
X77502450Y-5000273D01*
X77689699Y-4856592D01*
X77856592Y-4689699D01*
X78000273Y-4502450D01*
X78118284Y-4298049D01*
X78208606Y-4079993D01*
X78269693Y-3852014D01*
X78300500Y-3618011D01*
X78300500Y-3381989D01*
X78269693Y-3147986D01*
X78269692Y-3147981D01*
X78208611Y-2920023D01*
X78208608Y-2920017D01*
X78208606Y-2920007D01*
X78118284Y-2701951D01*
X78000273Y-2497550D01*
X77856592Y-2310301D01*
X77689699Y-2143408D01*
X77689695Y-2143405D01*
X77689693Y-2143403D01*
X77502447Y-1999725D01*
X77298055Y-1881719D01*
X77298043Y-1881713D01*
X77196059Y-1839470D01*
X77079993Y-1791394D01*
X77079987Y-1791392D01*
X77079976Y-1791388D01*
X76852017Y-1730307D01*
X76618015Y-1699500D01*
X76618011Y-1699500D01*
X76381989Y-1699500D01*
X76381984Y-1699500D01*
X76147982Y-1730307D01*
X76147981Y-1730307D01*
X75920023Y-1791388D01*
X75920008Y-1791393D01*
X75920007Y-1791394D01*
X75920005Y-1791395D01*
X75701956Y-1881713D01*
X75701944Y-1881719D01*
X75497552Y-1999725D01*
X75310306Y-2143403D01*
X75310296Y-2143412D01*
X75143412Y-2310296D01*
X75143403Y-2310306D01*
X74999725Y-2497552D01*
X74881719Y-2701944D01*
X74881713Y-2701956D01*
X74791395Y-2920005D01*
X74791388Y-2920023D01*
X74730307Y-3147981D01*
X74730307Y-3147982D01*
X74699500Y-3381984D01*
X5300499Y-3381984D01*
X5269693Y-3147986D01*
X5269692Y-3147981D01*
X5208611Y-2920023D01*
X5208608Y-2920017D01*
X5208606Y-2920007D01*
X5118284Y-2701951D01*
X5000273Y-2497550D01*
X4856592Y-2310301D01*
X4689699Y-2143408D01*
X4689695Y-2143405D01*
X4689693Y-2143403D01*
X4502447Y-1999725D01*
X4298055Y-1881719D01*
X4298043Y-1881713D01*
X4196059Y-1839470D01*
X4079993Y-1791394D01*
X4079987Y-1791392D01*
X4079976Y-1791388D01*
X3852017Y-1730307D01*
X3618015Y-1699500D01*
X3618011Y-1699500D01*
X3381989Y-1699500D01*
X3381984Y-1699500D01*
X3147982Y-1730307D01*
X3147981Y-1730307D01*
X2920023Y-1791388D01*
X2920008Y-1791393D01*
X2920007Y-1791394D01*
X2920005Y-1791395D01*
X2701956Y-1881713D01*
X2701944Y-1881719D01*
X2497552Y-1999725D01*
X2310306Y-2143403D01*
X2310296Y-2143412D01*
X2143412Y-2310296D01*
X2143403Y-2310306D01*
X1999725Y-2497552D01*
X1881719Y-2701944D01*
X1881713Y-2701956D01*
X1791395Y-2920005D01*
X1791388Y-2920023D01*
X1730307Y-3147981D01*
X1730307Y-3147982D01*
X1699500Y-3381984D01*
X50500Y-3381984D01*
X50500Y-1002726D01*
X50738Y-997279D01*
X52330Y-979082D01*
X64449Y-840560D01*
X66338Y-829844D01*
X106347Y-680530D01*
X110070Y-670302D01*
X175399Y-530202D01*
X180844Y-520773D01*
X269506Y-394150D01*
X276503Y-385810D01*
X385810Y-276503D01*
X394150Y-269506D01*
X415800Y-254347D01*
X520773Y-180844D01*
X530202Y-175399D01*
X670302Y-110070D01*
X680530Y-106347D01*
X829844Y-66338D01*
X840560Y-64449D01*
X997280Y-50738D01*
X1002727Y-50500D01*
X1016408Y-50500D01*
X78983592Y-50500D01*
X78997273Y-50500D01*
X79002720Y-50738D01*
G37*
%TD.AperFunction*%
%TD*%
M02*
