M48
; DRILL file {KiCad 8.0.4} date 2024-11-03T15:16:32+0000
; FORMAT={-:-/ absolute / inch / decimal}
; #@! TF.CreationDate,2024-11-03T15:16:32+00:00
; #@! TF.GenerationSoftware,Kicad,Pcbnew,8.0.4
; #@! TF.FileFunction,Plated,1,4,PTH
FMAT,2
INCH
; #@! TA.AperFunction,Plated,PTH,ViaDrill
T1C0.0079
; #@! TA.AperFunction,Plated,PTH,ComponentDrill
T2C0.0276
; #@! TA.AperFunction,Plated,PTH,ComponentDrill
T3C0.0315
; #@! TA.AperFunction,Plated,PTH,ComponentDrill
T4C0.0394
; #@! TA.AperFunction,Plated,PTH,ComponentDrill
T5C0.0400
; #@! TA.AperFunction,Plated,PTH,ComponentDrill
T6C0.0591
%
G90
G05
T1
X0.0322Y-1.9094
X0.0323Y-1.7817
X0.0325Y-1.8648
X0.0329Y-1.6988
X0.045Y-2.055
X0.05Y-1.985
X0.055Y-1.61
X0.12Y-1.56
X0.225Y-1.79
X0.26Y-2.07
X0.275Y-1.715
X0.315Y-2.025
X0.315Y-2.115
X0.345Y-2.28
X0.36Y-1.33
X0.415Y-0.14
X0.445Y-1.33
X0.4475Y-2.0243
X0.515Y-1.5
X0.52Y-1.33
X0.545Y-1.615
X0.585Y-1.785
X0.62Y-0.625
X0.622Y-1.076
X0.645Y-0.185
X0.645Y-1.13
X0.65Y-1.33
X0.662Y-1.038
X0.665Y-0.585
X0.67Y-0.365
X0.67Y-1.705
X0.695Y-0.24
X0.7Y-0.125
X0.7Y-1.075
X0.7172Y-1.7471
X0.718Y-1.258
X0.74Y-1.7
X0.745Y-0.365
X0.76Y-1.92
X0.764Y-0.756
X0.8Y-1.324
X0.824Y-0.88
X0.828Y-0.826
X0.83Y-0.768
X0.86Y-0.505
X0.86Y-0.605
X0.868Y-0.836
X0.868Y-1.192
X0.872Y-1.114
X0.875Y-2.32
X0.876Y-0.922
X0.878Y-0.976
X0.892Y-0.874
X0.928Y-0.766
X0.955Y-0.365
X0.955Y-0.445
X0.955Y-0.515
X0.96Y-1.245
X0.97Y-0.19
X0.97Y-1.09
X0.978Y-0.814
X0.99Y-1.69
X0.995Y-0.995
X1.01Y-0.125
X1.04Y-1.755
X1.046Y-0.86
X1.055Y-1.24
X1.06Y-0.59
X1.064Y-0.918
X1.065Y-0.365
X1.065Y-0.445
X1.07Y-0.988
X1.07Y-1.186
X1.08Y-0.07
X1.092Y-0.886
X1.1Y-0.255
X1.142Y-1.314
X1.1469Y-0.7439
X1.16Y-0.365
X1.162Y-0.87
X1.18Y-0.105
X1.1937Y-0.9807
X1.195Y-0.19
X1.195Y-0.45
X1.205Y-0.545
X1.205Y-0.61
X1.2086Y-0.9269
X1.22Y-0.26
X1.228Y-1.008
X1.232Y-1.238
X1.24Y-0.175
X1.2401Y-0.3375
X1.246Y-0.7441
X1.27Y-0.545
X1.27Y-0.61
X1.275Y-1.43
X1.278Y-0.9
X1.292Y-1.006
X1.2951Y-0.8622
X1.305Y-0.255
X1.3089Y-0.4133
X1.3096Y-1.4636
X1.3123Y-0.5837
X1.33Y-0.14
X1.33Y-0.24
X1.33Y-1.004
X1.34Y-0.295
X1.34Y-0.36
X1.34Y-1.14
X1.35Y-0.55
X1.35Y-0.615
X1.35Y-0.71
X1.355Y-1.245
X1.355Y-1.315
X1.36Y-1.98
X1.365Y-0.065
X1.365Y-0.135
X1.3733Y-0.3648
X1.38Y-0.655
X1.38Y-1.002
X1.385Y-0.28
X1.39Y-1.535
X1.3997Y-0.7244
X1.4149Y-0.9198
X1.43Y-0.14
X1.43Y-0.255
X1.43Y-1.7
X1.435Y-1.14
X1.435Y-1.25
X1.435Y-1.315
X1.44Y-1.002
X1.444Y-0.634
X1.445Y-0.5
X1.465Y-1.98
X1.4807Y-0.4139
X1.4817Y-0.8981
X1.485Y-0.25
X1.485Y-1.5
X1.492Y-0.716
X1.495Y-0.035
X1.504Y-0.846
X1.505Y-0.13
X1.5118Y-0.537
X1.515Y-0.735
X1.515Y-1.315
X1.53Y-0.195
X1.53Y-0.35
X1.535Y-1.575
X1.54Y-0.26
X1.54Y-0.875
X1.5458Y-0.5857
X1.5558Y-1.0249
X1.565Y-0.78
X1.565Y-1.135
X1.575Y-0.535
X1.575Y-0.6704
X1.5941Y-1.3858
X1.6Y-0.535
X1.6Y-0.745
X1.6002Y-0.6706
X1.605Y-0.2
X1.61Y-0.35
X1.6147Y-1.4152
X1.615Y-0.275
X1.62Y-0.78
X1.62Y-1.7
X1.6201Y-0.6765
X1.625Y-1.59
X1.625Y-2.325
X1.626Y-0.876
X1.6287Y-1.2723
X1.634Y-0.714
X1.6388Y-0.9983
X1.6407Y-0.55
X1.65Y-1.19
X1.655Y-0.505
X1.6563Y-0.1107
X1.66Y-0.745
X1.665Y-1.315
X1.6653Y-0.5885
X1.6746Y-0.377
X1.682Y-0.874
X1.6842Y-0.43
X1.6855Y-0.9991
X1.69Y-0.565
X1.7Y-1.265
X1.708Y-0.908
X1.71Y-0.075
X1.715Y-0.545
X1.715Y-1.42
X1.7189Y-0.6871
X1.72Y-1.505
X1.7272Y-0.854
X1.7275Y-0.7499
X1.7275Y-0.7274
X1.73Y-1.705
X1.731Y-0.9754
X1.732Y-1.108
X1.7334Y-0.931
X1.7505Y-0.9195
X1.765Y-2.05
X1.774Y-1.12
X1.775Y-0.58
X1.775Y-1.325
X1.78Y-0.49
X1.8Y-0.36
X1.805Y-0.07
X1.8095Y-0.7208
X1.8095Y-0.7984
X1.8095Y-0.8574
X1.81Y-1.58
X1.816Y-0.94
X1.82Y-1.032
X1.83Y-0.58
X1.835Y-0.42
X1.838Y-1.112
X1.854Y-0.976
X1.855Y-0.71
X1.862Y-0.89
X1.865Y-0.25
X1.87Y-0.12
X1.875Y-0.505
X1.875Y-1.97
X1.875Y-2.14
X1.904Y-1.25
X1.905Y-0.36
X1.906Y-0.928
X1.91Y-0.58
X1.918Y-1.082
X1.94Y-0.63
X1.94Y-1.845
X1.945Y-0.97
X1.955Y-0.705
X1.965Y-0.14
X1.965Y-1.495
X1.97Y-1.625
X1.978Y-1.23
X1.99Y-1.02
X2.0Y-2.05
X2.005Y-0.585
X2.005Y-0.88
X2.01Y-1.166
X2.015Y-0.795
X2.03Y-1.79
X2.0467Y-0.4754
X2.0497Y-0.5111
X2.06Y-0.59
X2.066Y-1.248
X2.07Y-0.705
X2.07Y-1.098
X2.075Y-0.36
X2.075Y-1.73
X2.09Y-0.255
X2.09Y-0.42
X2.095Y-0.495
X2.095Y-0.96
X2.1Y-0.795
X2.105Y-0.55
X2.105Y-1.49
X2.144Y-1.192
X2.16Y-1.39
X2.195Y-0.715
X2.195Y-1.025
X2.21Y-0.355
X2.22Y-0.595
X2.22Y-2.325
X2.225Y-0.23
X2.225Y-0.94
X2.225Y-1.295
X2.23Y-0.435
X2.235Y-0.78
X2.265Y-1.8
X2.2804Y-1.3327
X2.325Y-1.175
X2.335Y-0.33
X2.345Y-1.74
X2.4Y-0.435
X2.4Y-0.645
X2.4Y-0.99
X2.405Y-0.79
X2.42Y-1.255
X2.435Y-1.465
X2.5Y-1.955
X2.555Y-1.815
X2.595Y-1.315
X2.645Y-1.73
X2.7Y-0.08
X2.7Y-1.525
X2.745Y-1.78
X2.77Y-2.04
X2.775Y-2.315
X2.8161Y-1.7352
X2.83Y-1.845
X2.84Y-1.68
X2.87Y-1.575
X2.89Y-1.915
X2.98Y-1.825
X3.095Y-0.315
X3.095Y-0.735
X3.105Y-1.08
X3.115Y-1.425
X3.125Y-1.535
X3.135Y-2.115
T3
X2.935Y-1.67
X2.935Y-1.77
X2.935Y-1.87
T4
X0.5906Y-1.6693
X0.5906Y-1.8661
X1.1614Y-1.6693
X1.1614Y-1.7677
X1.1614Y-1.8661
X2.0276Y-1.6732
X2.0276Y-1.8701
X2.5984Y-1.6732
X2.5984Y-1.7717
X2.5984Y-1.8701
T5
X2.3016Y-0.3921
X2.3016Y-0.4921
X2.3016Y-0.5921
X2.3016Y-0.6921
X2.3016Y-0.7921
X2.3016Y-0.8921
X2.3016Y-0.9921
X2.3016Y-1.0921
T6
X0.0984Y-0.5512
X0.0984Y-0.6496
X0.0984Y-0.8465
X0.0984Y-0.9449
X0.4882Y-0.4528
X0.4882Y-0.748
X0.4882Y-1.0433
X0.5866Y-0.5512
X0.5866Y-0.9449
X2.5598Y-0.5512
X2.5598Y-0.9449
X2.6583Y-0.4528
X2.6583Y-0.748
X2.6583Y-1.0433
X3.048Y-0.5512
X3.048Y-0.6496
X3.048Y-0.8465
X3.048Y-0.9449
T2
G00X2.7196Y-1.2534
M15
G01X2.6881Y-1.2534
M16
G05
G00X2.7589Y-1.4266
M15
G01X2.7274Y-1.4266
M16
G05
G00X2.9164Y-1.4266
M15
G01X2.8849Y-1.4266
M16
G05
G00X3.0345Y-1.4266
M15
G01X3.003Y-1.4266
M16
G05
T6
G00X0.8917Y-1.5472
M15
G01X0.8406Y-1.5472
M16
G05
G00X0.8917Y-1.9882
M15
G01X0.8406Y-1.9882
M16
G05
G00X2.3287Y-1.5512
M15
G01X2.2776Y-1.5512
M16
G05
G00X2.3287Y-1.9921
M15
G01X2.2776Y-1.9921
M16
G05
M30
