%TF.GenerationSoftware,KiCad,Pcbnew,8.0.4*%
%TF.CreationDate,2024-11-03T15:16:32+00:00*%
%TF.ProjectId,MKRZero_V5.0,4d4b525a-6572-46f5-9f56-352e302e6b69,rev?*%
%TF.SameCoordinates,Original*%
%TF.FileFunction,Soldermask,Top*%
%TF.FilePolarity,Negative*%
%FSLAX46Y46*%
G04 Gerber Fmt 4.6, Leading zero omitted, Abs format (unit mm)*
G04 Created by KiCad (PCBNEW 8.0.4) date 2024-11-03 15:16:32*
%MOMM*%
%LPD*%
G01*
G04 APERTURE LIST*
G04 Aperture macros list*
%AMRoundRect*
0 Rectangle with rounded corners*
0 $1 Rounding radius*
0 $2 $3 $4 $5 $6 $7 $8 $9 X,Y pos of 4 corners*
0 Add a 4 corners polygon primitive as box body*
4,1,4,$2,$3,$4,$5,$6,$7,$8,$9,$2,$3,0*
0 Add four circle primitives for the rounded corners*
1,1,$1+$1,$2,$3*
1,1,$1+$1,$4,$5*
1,1,$1+$1,$6,$7*
1,1,$1+$1,$8,$9*
0 Add four rect primitives between the rounded corners*
20,1,$1+$1,$2,$3,$4,$5,0*
20,1,$1+$1,$4,$5,$6,$7,0*
20,1,$1+$1,$6,$7,$8,$9,0*
20,1,$1+$1,$8,$9,$2,$3,0*%
%AMFreePoly0*
4,1,9,3.862500,-0.866500,0.737500,-0.866500,0.737500,-0.450000,-0.737500,-0.450000,-0.737500,0.450000,0.737500,0.450000,0.737500,0.866500,3.862500,0.866500,3.862500,-0.866500,3.862500,-0.866500,$1*%
G04 Aperture macros list end*
%ADD10RoundRect,0.250000X0.475000X-0.250000X0.475000X0.250000X-0.475000X0.250000X-0.475000X-0.250000X0*%
%ADD11R,1.900000X1.300000*%
%ADD12RoundRect,0.140000X0.140000X0.170000X-0.140000X0.170000X-0.140000X-0.170000X0.140000X-0.170000X0*%
%ADD13C,3.200000*%
%ADD14RoundRect,0.135000X-0.185000X0.135000X-0.185000X-0.135000X0.185000X-0.135000X0.185000X0.135000X0*%
%ADD15RoundRect,0.250000X-0.262500X-0.450000X0.262500X-0.450000X0.262500X0.450000X-0.262500X0.450000X0*%
%ADD16RoundRect,0.135000X0.185000X-0.135000X0.185000X0.135000X-0.185000X0.135000X-0.185000X-0.135000X0*%
%ADD17R,0.450000X1.380000*%
%ADD18R,1.650000X1.300000*%
%ADD19R,1.200000X1.550000*%
%ADD20R,1.800000X1.900000*%
%ADD21R,1.000000X1.900000*%
%ADD22RoundRect,0.225000X0.250000X-0.225000X0.250000X0.225000X-0.250000X0.225000X-0.250000X-0.225000X0*%
%ADD23RoundRect,0.135000X0.135000X0.185000X-0.135000X0.185000X-0.135000X-0.185000X0.135000X-0.185000X0*%
%ADD24RoundRect,0.075000X0.075000X-0.662500X0.075000X0.662500X-0.075000X0.662500X-0.075000X-0.662500X0*%
%ADD25RoundRect,0.075000X0.662500X-0.075000X0.662500X0.075000X-0.662500X0.075000X-0.662500X-0.075000X0*%
%ADD26RoundRect,0.140000X-0.140000X-0.170000X0.140000X-0.170000X0.140000X0.170000X-0.140000X0.170000X0*%
%ADD27RoundRect,0.140000X-0.170000X0.140000X-0.170000X-0.140000X0.170000X-0.140000X0.170000X0.140000X0*%
%ADD28R,1.700000X0.650000*%
%ADD29C,1.600000*%
%ADD30RoundRect,0.112500X-0.112500X0.187500X-0.112500X-0.187500X0.112500X-0.187500X0.112500X0.187500X0*%
%ADD31RoundRect,0.225000X-0.225000X0.425000X-0.225000X-0.425000X0.225000X-0.425000X0.225000X0.425000X0*%
%ADD32FreePoly0,270.000000*%
%ADD33O,1.800000X1.800000*%
%ADD34C,1.800000*%
%ADD35RoundRect,0.150000X0.675000X0.150000X-0.675000X0.150000X-0.675000X-0.150000X0.675000X-0.150000X0*%
%ADD36RoundRect,0.250000X0.262500X0.450000X-0.262500X0.450000X-0.262500X-0.450000X0.262500X-0.450000X0*%
%ADD37C,1.200000*%
%ADD38R,4.000000X2.300000*%
%ADD39R,4.400000X2.300000*%
%ADD40RoundRect,0.050800X0.875000X-0.350000X0.875000X0.350000X-0.875000X0.350000X-0.875000X-0.350000X0*%
%ADD41RoundRect,0.050800X0.775000X-0.500000X0.775000X0.500000X-0.775000X0.500000X-0.775000X-0.500000X0*%
%ADD42RoundRect,0.050800X0.500000X0.775000X-0.500000X0.775000X-0.500000X-0.775000X0.500000X-0.775000X0*%
%ADD43RoundRect,0.050800X0.750000X-0.650000X0.750000X0.650000X-0.750000X0.650000X-0.750000X-0.650000X0*%
%ADD44RoundRect,0.050800X0.750000X-0.750000X0.750000X0.750000X-0.750000X0.750000X-0.750000X-0.750000X0*%
%ADD45RoundRect,0.050800X0.700000X-0.400000X0.700000X0.400000X-0.700000X0.400000X-0.700000X-0.400000X0*%
%ADD46RoundRect,0.050800X0.750000X-0.400000X0.750000X0.400000X-0.750000X0.400000X-0.750000X-0.400000X0*%
%ADD47RoundRect,0.250000X0.250000X0.475000X-0.250000X0.475000X-0.250000X-0.475000X0.250000X-0.475000X0*%
%ADD48C,2.500000*%
%ADD49RoundRect,0.175000X-0.175000X-0.325000X0.175000X-0.325000X0.175000X0.325000X-0.175000X0.325000X0*%
%ADD50RoundRect,0.175000X-0.175000X-0.225000X0.175000X-0.225000X0.175000X0.225000X-0.175000X0.225000X0*%
%ADD51R,1.800000X1.000000*%
%ADD52RoundRect,0.135000X-0.135000X-0.185000X0.135000X-0.185000X0.135000X0.185000X-0.135000X0.185000X0*%
%ADD53RoundRect,0.218750X0.256250X-0.218750X0.256250X0.218750X-0.256250X0.218750X-0.256250X-0.218750X0*%
%ADD54RoundRect,0.225000X0.225000X0.250000X-0.225000X0.250000X-0.225000X-0.250000X0.225000X-0.250000X0*%
%ADD55RoundRect,0.218750X-0.218750X-0.256250X0.218750X-0.256250X0.218750X0.256250X-0.218750X0.256250X0*%
%ADD56RoundRect,0.250000X-0.900000X-0.675000X0.900000X-0.675000X0.900000X0.675000X-0.900000X0.675000X0*%
%ADD57RoundRect,0.050800X0.635000X1.841500X-0.635000X1.841500X-0.635000X-1.841500X0.635000X-1.841500X0*%
%ADD58C,1.879600*%
%ADD59R,2.000000X2.000000*%
%ADD60C,2.000000*%
%ADD61R,3.200000X2.000000*%
G04 APERTURE END LIST*
D10*
%TO.C,C15*%
X40259000Y-12253000D03*
X40259000Y-10353000D03*
%TD*%
D11*
%TO.C,Q1*%
X49454000Y-29762000D03*
X49454000Y-35262000D03*
X52654000Y-35262000D03*
X52654000Y-29762000D03*
%TD*%
D12*
%TO.C,C13*%
X45900000Y-1000000D03*
X44940000Y-1000000D03*
%TD*%
D13*
%TO.C,H2*%
X76500000Y-3500000D03*
%TD*%
D14*
%TO.C,R10*%
X18288000Y-28954000D03*
X18288000Y-29974000D03*
%TD*%
D15*
%TO.C,R11*%
X52847500Y-19000000D03*
X54672500Y-19000000D03*
%TD*%
D13*
%TO.C,H3*%
X76500000Y-56500000D03*
%TD*%
D16*
%TO.C,R2*%
X30860100Y-9530000D03*
X30860100Y-8510000D03*
%TD*%
D17*
%TO.C,J1*%
X36351100Y-4765000D03*
X35701100Y-4765000D03*
X35051100Y-4765000D03*
X34401100Y-4765000D03*
X33751100Y-4765000D03*
D18*
X38426100Y-2105000D03*
D19*
X37538600Y-4680000D03*
D20*
X36201100Y-2105000D03*
D21*
X33501100Y-2105000D03*
D19*
X32563600Y-4680000D03*
D18*
X31676100Y-2105000D03*
%TD*%
D22*
%TO.C,C4*%
X36375000Y-41724000D03*
X36375000Y-40174000D03*
%TD*%
D23*
%TO.C,R6*%
X71810000Y-44700000D03*
X70790000Y-44700000D03*
%TD*%
D24*
%TO.C,U1*%
X38005000Y-24312500D03*
X38505000Y-24312500D03*
X39005000Y-24312500D03*
X39505000Y-24312500D03*
X40005000Y-24312500D03*
X40505000Y-24312500D03*
X41005000Y-24312500D03*
X41505000Y-24312500D03*
X42005000Y-24312500D03*
X42505000Y-24312500D03*
X43005000Y-24312500D03*
X43505000Y-24312500D03*
D25*
X44917500Y-22900000D03*
X44917500Y-22400000D03*
X44917500Y-21900000D03*
X44917500Y-21400000D03*
X44917500Y-20900000D03*
X44917500Y-20400000D03*
X44917500Y-19900000D03*
X44917500Y-19400000D03*
X44917500Y-18900000D03*
X44917500Y-18400000D03*
X44917500Y-17900000D03*
X44917500Y-17400000D03*
D24*
X43505000Y-15987500D03*
X43005000Y-15987500D03*
X42505000Y-15987500D03*
X42005000Y-15987500D03*
X41505000Y-15987500D03*
X41005000Y-15987500D03*
X40505000Y-15987500D03*
X40005000Y-15987500D03*
X39505000Y-15987500D03*
X39005000Y-15987500D03*
X38505000Y-15987500D03*
X38005000Y-15987500D03*
D25*
X36592500Y-17400000D03*
X36592500Y-17900000D03*
X36592500Y-18400000D03*
X36592500Y-18900000D03*
X36592500Y-19400000D03*
X36592500Y-19900000D03*
X36592500Y-20400000D03*
X36592500Y-20900000D03*
X36592500Y-21400000D03*
X36592500Y-21900000D03*
X36592500Y-22400000D03*
X36592500Y-22900000D03*
%TD*%
D26*
%TO.C,C7*%
X48420000Y-20400000D03*
X49380000Y-20400000D03*
%TD*%
D14*
%TO.C,R15*%
X62992000Y-33272000D03*
X62992000Y-34292000D03*
%TD*%
D26*
%TO.C,C9*%
X37920000Y-14100000D03*
X38880000Y-14100000D03*
%TD*%
D23*
%TO.C,R13*%
X40185000Y-41849000D03*
X39165000Y-41849000D03*
%TD*%
D27*
%TO.C,C11*%
X40500000Y-26429900D03*
X40500000Y-27389900D03*
%TD*%
D12*
%TO.C,C10*%
X49380000Y-21400000D03*
X48420000Y-21400000D03*
%TD*%
D28*
%TO.C,U4*%
X43594000Y-9017000D03*
X43594000Y-10287000D03*
X43594000Y-11557000D03*
X43594000Y-12827000D03*
X50894000Y-12827000D03*
X50894000Y-11557000D03*
X50894000Y-10287000D03*
X50894000Y-9017000D03*
%TD*%
D29*
%TO.C,J8*%
X68677000Y-31836000D03*
X69677000Y-36236000D03*
X73677000Y-36236000D03*
X76677000Y-36236000D03*
%TD*%
D30*
%TO.C,D2*%
X32800000Y-7950000D03*
X32800000Y-10050000D03*
%TD*%
D31*
%TO.C,U2*%
X45822100Y-2955200D03*
D32*
X44322100Y-3042700D03*
D31*
X42822100Y-2955200D03*
%TD*%
D33*
%TO.C,J7*%
X74549000Y-42418000D03*
X74549000Y-44958000D03*
D34*
X74549000Y-47498000D03*
%TD*%
D35*
%TO.C,IC1*%
X45125000Y-38354000D03*
X45125000Y-37084000D03*
X45125000Y-35814000D03*
X45125000Y-34544000D03*
X39875000Y-34544000D03*
X39875000Y-35814000D03*
X39875000Y-37084000D03*
X39875000Y-38354000D03*
%TD*%
D26*
%TO.C,C3*%
X34966000Y-30308500D03*
X35926000Y-30308500D03*
%TD*%
D36*
%TO.C,R9*%
X34402500Y-17900000D03*
X32577500Y-17900000D03*
%TD*%
D23*
%TO.C,R3*%
X27434000Y-20066000D03*
X26414000Y-20066000D03*
%TD*%
D26*
%TO.C,C2*%
X34966000Y-27808500D03*
X35926000Y-27808500D03*
%TD*%
D14*
%TO.C,R7*%
X36475000Y-36839000D03*
X36475000Y-37859000D03*
%TD*%
D12*
%TO.C,C8*%
X33970000Y-20400000D03*
X33010000Y-20400000D03*
%TD*%
D23*
%TO.C,R5*%
X19000000Y-7250000D03*
X17980000Y-7250000D03*
%TD*%
D13*
%TO.C,H1*%
X3500000Y-3500000D03*
%TD*%
D37*
%TO.C,IC2*%
X43224000Y-52070000D03*
X35724000Y-52070000D03*
D38*
X47624000Y-52070000D03*
D39*
X31624000Y-52070000D03*
%TD*%
D30*
%TO.C,D4*%
X16637000Y-30446000D03*
X16637000Y-32546000D03*
%TD*%
D36*
%TO.C,R12*%
X54662500Y-16000000D03*
X52837500Y-16000000D03*
%TD*%
D40*
%TO.C,J3*%
X-359000Y-49750000D03*
X-359000Y-48650000D03*
X-359000Y-47550000D03*
X-359000Y-46450000D03*
X-359000Y-45350000D03*
X-359000Y-44250000D03*
X-359000Y-43150000D03*
X-359000Y-42050000D03*
D41*
X10441000Y-52200000D03*
D42*
X8866000Y-40948000D03*
D43*
X-231000Y-40850000D03*
D44*
X-231000Y-52200000D03*
D45*
X8016000Y-52525000D03*
D46*
X7366000Y-40575000D03*
%TD*%
D14*
%TO.C,R14*%
X58392000Y-33382000D03*
X58392000Y-34402000D03*
%TD*%
D12*
%TO.C,C14*%
X43480000Y-1000000D03*
X42520000Y-1000000D03*
%TD*%
D26*
%TO.C,C16*%
X27742000Y-21590000D03*
X28702000Y-21590000D03*
%TD*%
%TO.C,C6*%
X70820000Y-45700000D03*
X71780000Y-45700000D03*
%TD*%
D47*
%TO.C,C1*%
X28850000Y-4800000D03*
X26950000Y-4800000D03*
%TD*%
D48*
%TO.C,JMIDIOUT1*%
X67520000Y-11500000D03*
X67520000Y-19000000D03*
X67520000Y-26500000D03*
X65020000Y-14000000D03*
X65020000Y-24000000D03*
X77420000Y-14000000D03*
X77420000Y-16500000D03*
X77420000Y-21500000D03*
X77420000Y-24000000D03*
%TD*%
D49*
%TO.C,D1*%
X35067100Y-8270000D03*
D50*
X35067100Y-9970000D03*
X37067100Y-9970000D03*
X37067100Y-8070000D03*
%TD*%
D48*
%TO.C,JMIDIIN1*%
X12400000Y-26500000D03*
X12400000Y-19000000D03*
X12400000Y-11500000D03*
X14900000Y-24000000D03*
X14900000Y-14000000D03*
X2500000Y-24000000D03*
X2500000Y-21500000D03*
X2500000Y-16500000D03*
X2500000Y-14000000D03*
%TD*%
D14*
%TO.C,R8*%
X34475000Y-36789000D03*
X34475000Y-37809000D03*
%TD*%
D27*
%TO.C,C12*%
X41500000Y-26429900D03*
X41500000Y-27389900D03*
%TD*%
D51*
%TO.C,Y1*%
X38100000Y-30159900D03*
X38100000Y-27659900D03*
%TD*%
D52*
%TO.C,R4*%
X29462000Y-20066000D03*
X30482000Y-20066000D03*
%TD*%
D13*
%TO.C,H4*%
X3500000Y-56500000D03*
%TD*%
D53*
%TO.C,L1*%
X42900000Y-28197400D03*
X42900000Y-26622400D03*
%TD*%
D54*
%TO.C,C5*%
X43900000Y-41849000D03*
X42350000Y-41849000D03*
%TD*%
D23*
%TO.C,R1*%
X28510000Y-3200000D03*
X27490000Y-3200000D03*
%TD*%
D55*
%TO.C,D3*%
X17715000Y-4750000D03*
X19290000Y-4750000D03*
%TD*%
D56*
%TO.C,U3*%
X20288000Y-23876000D03*
X20288000Y-26416000D03*
X20288000Y-28956000D03*
X20288000Y-31496000D03*
X28988000Y-31496000D03*
X28988000Y-28956000D03*
X28988000Y-26416000D03*
X28988000Y-23876000D03*
%TD*%
D57*
%TO.C,J2*%
X28194000Y-12636500D03*
X28194000Y-17081500D03*
X25654000Y-12636500D03*
X25654000Y-17081500D03*
X23114000Y-12636500D03*
X23114000Y-17081500D03*
%TD*%
D58*
%TO.C,J6*%
X58460000Y-27740000D03*
X58460000Y-25200000D03*
X58460000Y-22660000D03*
X58460000Y-20120000D03*
X58460000Y-17580000D03*
X58460000Y-15040000D03*
X58460000Y-12500000D03*
X58460000Y-9960000D03*
%TD*%
D59*
%TO.C,SW1*%
X29500000Y-42400000D03*
D60*
X29500000Y-47400000D03*
X29500000Y-44900000D03*
D61*
X22000000Y-50500000D03*
X22000000Y-39300000D03*
D60*
X15000000Y-47400000D03*
X15000000Y-42400000D03*
%TD*%
D59*
%TO.C,SW2*%
X66000000Y-42500000D03*
D60*
X66000000Y-47500000D03*
X66000000Y-45000000D03*
D61*
X58500000Y-50600000D03*
X58500000Y-39400000D03*
D60*
X51500000Y-47500000D03*
X51500000Y-42500000D03*
%TD*%
M02*
