M48
; DRILL file {KiCad 8.0.4} date 2024-08-31T09:47:53+0100
; FORMAT={-:-/ absolute / inch / decimal}
; #@! TF.CreationDate,2024-08-31T09:47:53+01:00
; #@! TF.GenerationSoftware,Kicad,Pcbnew,8.0.4
; #@! TF.FileFunction,Plated,1,2,PTH
FMAT,2
INCH
; #@! TA.AperFunction,Plated,PTH,ViaDrill
T1C0.0079
; #@! TA.AperFunction,Plated,PTH,ComponentDrill
T2C0.0276
; #@! TA.AperFunction,Plated,PTH,ComponentDrill
T3C0.0394
; #@! TA.AperFunction,Plated,PTH,ComponentDrill
T4C0.0400
; #@! TA.AperFunction,Plated,PTH,ComponentDrill
T5C0.0591
%
G90
G05
T1
X0.03Y-1.195
X0.03Y-1.315
X0.035Y-1.515
X0.09Y-1.555
X0.11Y-1.81
X0.11Y-1.85
X0.11Y-1.895
X0.11Y-1.945
X0.1116Y-1.4869
X0.115Y-1.76
X0.1194Y-1.6398
X0.125Y-1.67
X0.13Y-1.455
X0.15Y-1.2
X0.15Y-1.31
X0.15Y-1.615
X0.24Y-1.455
X0.2403Y-1.4301
X0.255Y-1.315
X0.26Y-1.2
X0.27Y-1.025
X0.32Y-1.455
X0.34Y-1.025
X0.39Y-1.155
X0.395Y-1.315
X0.41Y-1.37
X0.41Y-1.43
X0.48Y-1.43
X0.5Y-1.48
X0.515Y-1.61
X0.515Y-1.895
X0.5225Y-2.0479
X0.535Y-1.435
X0.545Y-1.765
X0.58Y-1.95
X0.615Y-0.645
X0.62Y-1.915
X0.62Y-1.995
X0.625Y-1.495
X0.63Y-1.2
X0.65Y-1.825
X0.6536Y-0.4898
X0.665Y-0.965
X0.665Y-1.95
X0.67Y-1.435
X0.675Y-0.68
X0.69Y-0.605
X0.705Y-1.64
X0.715Y-1.155
X0.715Y-1.2
X0.73Y-1.305
X0.755Y-1.595
X0.775Y-1.65
X0.785Y-2.085
X0.785Y-2.135
X0.84Y-0.46
X0.84Y-1.65
X0.86Y-1.26
X0.885Y-1.1
X0.9Y-0.44
X0.905Y-0.51
X0.955Y-1.65
X0.965Y-0.785
X0.9756Y-1.6163
X0.98Y-0.165
X0.98Y-0.19
X0.98Y-0.215
X0.98Y-1.12
X0.9876Y-1.0568
X1.005Y-1.48
X1.035Y-0.25
X1.055Y-1.43
X1.06Y-0.25
X1.06Y-1.61
X1.07Y-0.955
X1.08Y-1.02
X1.09Y-0.25
X1.1077Y-0.4699
X1.115Y-0.515
X1.12Y-0.44
X1.12Y-2.08
X1.12Y-2.13
X1.145Y-1.485
X1.15Y-0.475
X1.1541Y-1.334
X1.17Y-0.1
X1.185Y-1.355
X1.2Y-1.435
X1.205Y-1.105
X1.215Y-0.735
X1.215Y-1.03
X1.22Y-0.255
X1.22Y-0.685
X1.22Y-0.96
X1.22Y-1.24
X1.245Y-0.91
X1.255Y-0.77
X1.2557Y-1.5526
X1.265Y-0.685
X1.2921Y-0.9623
X1.295Y-1.155
X1.315Y-1.215
X1.32Y-0.975
X1.3268Y-0.7352
X1.345Y-0.48
X1.345Y-0.505
X1.345Y-0.62
X1.345Y-1.965
X1.35Y-0.37
X1.355Y-0.265
X1.365Y-0.065
X1.37Y-0.89
X1.37Y-1.005
X1.37Y-1.15
X1.37Y-1.235
X1.38Y-0.685
X1.38Y-0.78
X1.381Y-0.4501
X1.385Y-0.48
X1.385Y-0.505
X1.385Y-0.645
X1.39Y-1.05
X1.39Y-1.525
X1.39Y-2.0
X1.3932Y-0.7279
X1.4Y-0.95
X1.42Y-0.39
X1.4208Y-0.6449
X1.44Y-0.25
X1.44Y-0.605
X1.44Y-1.235
X1.445Y-1.135
X1.45Y-0.645
X1.45Y-1.005
X1.46Y-0.355
X1.47Y-0.605
X1.47Y-0.645
X1.475Y-1.505
X1.49Y-0.85
X1.49Y-1.14
X1.49Y-1.235
X1.49Y-1.385
X1.49Y-1.655
X1.495Y-1.02
X1.515Y-0.69
X1.515Y-1.44
X1.5157Y-0.7824
X1.52Y-0.74
X1.53Y-0.51
X1.54Y-0.9
X1.54Y-1.57
X1.545Y-1.26
X1.5457Y-0.7146
X1.5505Y-0.7739
X1.555Y-0.675
X1.566Y-0.8824
X1.57Y-0.455
X1.58Y-0.54
X1.592Y-1.435
X1.5996Y-0.5882
X1.6Y-0.195
X1.6Y-0.255
X1.6012Y-1.3246
X1.605Y-0.89
X1.6083Y-1.2575
X1.62Y-0.705
X1.62Y-0.78
X1.625Y-1.115
X1.635Y-1.185
X1.635Y-1.36
X1.6356Y-0.5867
X1.645Y-0.905
X1.645Y-1.565
X1.655Y-0.775
X1.6579Y-0.5736
X1.66Y-0.705
X1.6639Y-0.8288
X1.665Y-0.875
X1.68Y-1.01
X1.685Y-0.775
X1.69Y-0.705
X1.695Y-1.29
X1.7Y-1.15
X1.7Y-1.7
X1.71Y-0.775
X1.715Y-0.08
X1.715Y-0.515
X1.715Y-0.705
X1.7169Y-0.8657
X1.72Y-1.335
X1.72Y-1.495
X1.7266Y-1.0031
X1.7273Y-0.9004
X1.735Y-0.47
X1.743Y-0.6362
X1.7558Y-1.0939
X1.76Y-1.03
X1.765Y-0.935
X1.765Y-1.155
X1.765Y-1.305
X1.77Y-2.085
X1.77Y-2.125
X1.775Y-0.075
X1.78Y-0.61
X1.785Y-1.58
X1.805Y-1.14
X1.8209Y-0.7001
X1.83Y-1.43
X1.84Y-0.755
X1.845Y-0.845
X1.845Y-0.895
X1.845Y-0.94
X1.845Y-1.15
X1.85Y-0.075
X1.85Y-1.075
X1.8561Y-0.8173
X1.8695Y-0.7847
X1.875Y-1.385
X1.8829Y-1.1199
X1.89Y-1.43
X1.905Y-1.3
X1.935Y-0.35
X1.94Y-0.895
X1.94Y-1.075
X1.945Y-0.715
X1.95Y-1.34
X1.95Y-1.9
X1.955Y-1.755
X1.965Y-1.255
X1.97Y-1.465
X1.98Y-0.315
X1.9831Y-1.3227
X1.99Y-0.835
X2.005Y-0.785
X2.005Y-1.94
X2.01Y-1.15
X2.01Y-1.405
X2.015Y-1.21
X2.015Y-1.465
X2.015Y-1.8
X2.025Y-0.89
X2.0571Y-0.7988
X2.0628Y-0.6202
X2.07Y-1.075
X2.135Y-1.255
X2.15Y-0.84
X2.175Y-0.685
X2.175Y-0.775
X2.19Y-1.06
X2.2Y-1.51
X2.22Y-0.425
X2.225Y-0.47
X2.235Y-0.51
X2.24Y-0.69
X2.24Y-0.835
X2.3Y-1.275
X2.34Y-1.215
X2.38Y-0.415
X2.38Y-0.495
X2.38Y-0.61
X2.38Y-0.655
X2.395Y-0.92
X2.395Y-0.965
X2.395Y-1.03
X2.44Y-1.4
X2.475Y-1.88
X2.505Y-1.45
X2.51Y-1.83
X2.5178Y-1.3219
X2.53Y-1.39
X2.565Y-1.59
X2.575Y-1.315
X2.59Y-1.015
X2.605Y-1.375
X2.625Y-1.555
X2.65Y-0.595
X2.68Y-0.565
X2.695Y-0.81
X2.71Y-1.09
X2.75Y-0.81
X2.75Y-1.04
X2.79Y-1.72
X2.79Y-1.835
X2.805Y-1.825
X2.825Y-1.875
X2.845Y-1.405
X2.865Y-1.8
X2.895Y-1.685
X2.96Y-1.49
X2.965Y-1.64
X2.98Y-1.375
X3.015Y-1.49
X3.02Y-1.75
X3.025Y-1.315
X3.08Y-1.49
X3.095Y-1.735
T3
X0.5906Y-1.6693
X0.5906Y-1.8661
X1.1614Y-1.6693
X1.1614Y-1.7677
X1.1614Y-1.8661
X2.0276Y-1.6732
X2.0276Y-1.8701
X2.5984Y-1.6732
X2.5984Y-1.7717
X2.5984Y-1.8701
T4
X2.3016Y-0.3921
X2.3016Y-0.4921
X2.3016Y-0.5921
X2.3016Y-0.6921
X2.3016Y-0.7921
X2.3016Y-0.8921
X2.3016Y-0.9921
X2.3016Y-1.0921
T5
X0.0984Y-0.5512
X0.0984Y-0.6496
X0.0984Y-0.8465
X0.0984Y-0.9449
X0.4882Y-0.4528
X0.4882Y-0.748
X0.4882Y-1.0433
X0.5866Y-0.5512
X0.5866Y-0.9449
X2.5598Y-0.5512
X2.5598Y-0.9449
X2.6583Y-0.4528
X2.6583Y-0.748
X2.6583Y-1.0433
X3.048Y-0.5512
X3.048Y-0.6496
X3.048Y-0.8465
X3.048Y-0.9449
T2
G00X2.7196Y-1.2534
M15
G01X2.6881Y-1.2534
M16
G05
G00X2.7589Y-1.4266
M15
G01X2.7274Y-1.4266
M16
G05
G00X2.9164Y-1.4266
M15
G01X2.8849Y-1.4266
M16
G05
G00X3.0345Y-1.4266
M15
G01X3.003Y-1.4266
M16
G05
T5
G00X0.8917Y-1.5472
M15
G01X0.8406Y-1.5472
M16
G05
G00X0.8917Y-1.9882
M15
G01X0.8406Y-1.9882
M16
G05
G00X2.3287Y-1.5512
M15
G01X2.2776Y-1.5512
M16
G05
G00X2.3287Y-1.9921
M15
G01X2.2776Y-1.9921
M16
G05
M30
