%TF.GenerationSoftware,KiCad,Pcbnew,8.0.4*%
%TF.CreationDate,2024-11-03T15:16:32+00:00*%
%TF.ProjectId,MKRZero_V5.0,4d4b525a-6572-46f5-9f56-352e302e6b69,rev?*%
%TF.SameCoordinates,Original*%
%TF.FileFunction,Legend,Bot*%
%TF.FilePolarity,Positive*%
%FSLAX46Y46*%
G04 Gerber Fmt 4.6, Leading zero omitted, Abs format (unit mm)*
G04 Created by KiCad (PCBNEW 8.0.4) date 2024-11-03 15:16:32*
%MOMM*%
%LPD*%
G01*
G04 APERTURE LIST*
%ADD10C,0.000000*%
%ADD11C,0.150000*%
%ADD12C,0.127000*%
%ADD13C,0.120000*%
%ADD14C,3.200000*%
%ADD15C,1.600000*%
%ADD16O,1.800000X1.800000*%
%ADD17C,1.800000*%
%ADD18C,1.200000*%
%ADD19C,2.500000*%
%ADD20C,1.879600*%
%ADD21R,2.000000X2.000000*%
%ADD22C,2.000000*%
%ADD23R,3.200000X2.000000*%
G04 APERTURE END LIST*
D10*
G36*
X36132162Y-52772468D02*
G01*
X35809701Y-52772468D01*
X35809701Y-46744930D01*
X36132162Y-46744930D01*
X36132162Y-52772468D01*
G37*
G36*
X47939192Y-53648901D02*
G01*
X41192317Y-57543236D01*
X34445443Y-53648901D01*
X34445443Y-46042130D01*
X34759636Y-46042130D01*
X34759636Y-53467000D01*
X41192317Y-57179435D01*
X47625000Y-53467000D01*
X47625000Y-46042130D01*
X41192317Y-42329696D01*
X34759636Y-46042130D01*
X34445443Y-46042130D01*
X34445443Y-45860229D01*
X41192317Y-41965894D01*
X47939192Y-45860229D01*
X47939192Y-46042130D01*
X47939192Y-53648901D01*
G37*
G36*
X46492252Y-46604370D02*
G01*
X46335156Y-46885490D01*
X41109635Y-43867586D01*
X41275000Y-43594735D01*
X46492252Y-46604370D01*
G37*
G36*
X46492252Y-52904760D02*
G01*
X41275000Y-55922664D01*
X41109635Y-55641544D01*
X46326888Y-52631908D01*
X46492252Y-52904760D01*
G37*
D11*
X28033332Y-38107200D02*
X27890475Y-38154819D01*
X27890475Y-38154819D02*
X27652380Y-38154819D01*
X27652380Y-38154819D02*
X27557142Y-38107200D01*
X27557142Y-38107200D02*
X27509523Y-38059580D01*
X27509523Y-38059580D02*
X27461904Y-37964342D01*
X27461904Y-37964342D02*
X27461904Y-37869104D01*
X27461904Y-37869104D02*
X27509523Y-37773866D01*
X27509523Y-37773866D02*
X27557142Y-37726247D01*
X27557142Y-37726247D02*
X27652380Y-37678628D01*
X27652380Y-37678628D02*
X27842856Y-37631009D01*
X27842856Y-37631009D02*
X27938094Y-37583390D01*
X27938094Y-37583390D02*
X27985713Y-37535771D01*
X27985713Y-37535771D02*
X28033332Y-37440533D01*
X28033332Y-37440533D02*
X28033332Y-37345295D01*
X28033332Y-37345295D02*
X27985713Y-37250057D01*
X27985713Y-37250057D02*
X27938094Y-37202438D01*
X27938094Y-37202438D02*
X27842856Y-37154819D01*
X27842856Y-37154819D02*
X27604761Y-37154819D01*
X27604761Y-37154819D02*
X27461904Y-37202438D01*
X27128570Y-37154819D02*
X26890475Y-38154819D01*
X26890475Y-38154819D02*
X26699999Y-37440533D01*
X26699999Y-37440533D02*
X26509523Y-38154819D01*
X26509523Y-38154819D02*
X26271428Y-37154819D01*
X25366666Y-38154819D02*
X25938094Y-38154819D01*
X25652380Y-38154819D02*
X25652380Y-37154819D01*
X25652380Y-37154819D02*
X25747618Y-37297676D01*
X25747618Y-37297676D02*
X25842856Y-37392914D01*
X25842856Y-37392914D02*
X25938094Y-37440533D01*
X64533332Y-38207200D02*
X64390475Y-38254819D01*
X64390475Y-38254819D02*
X64152380Y-38254819D01*
X64152380Y-38254819D02*
X64057142Y-38207200D01*
X64057142Y-38207200D02*
X64009523Y-38159580D01*
X64009523Y-38159580D02*
X63961904Y-38064342D01*
X63961904Y-38064342D02*
X63961904Y-37969104D01*
X63961904Y-37969104D02*
X64009523Y-37873866D01*
X64009523Y-37873866D02*
X64057142Y-37826247D01*
X64057142Y-37826247D02*
X64152380Y-37778628D01*
X64152380Y-37778628D02*
X64342856Y-37731009D01*
X64342856Y-37731009D02*
X64438094Y-37683390D01*
X64438094Y-37683390D02*
X64485713Y-37635771D01*
X64485713Y-37635771D02*
X64533332Y-37540533D01*
X64533332Y-37540533D02*
X64533332Y-37445295D01*
X64533332Y-37445295D02*
X64485713Y-37350057D01*
X64485713Y-37350057D02*
X64438094Y-37302438D01*
X64438094Y-37302438D02*
X64342856Y-37254819D01*
X64342856Y-37254819D02*
X64104761Y-37254819D01*
X64104761Y-37254819D02*
X63961904Y-37302438D01*
X63628570Y-37254819D02*
X63390475Y-38254819D01*
X63390475Y-38254819D02*
X63199999Y-37540533D01*
X63199999Y-37540533D02*
X63009523Y-38254819D01*
X63009523Y-38254819D02*
X62771428Y-37254819D01*
X62438094Y-37350057D02*
X62390475Y-37302438D01*
X62390475Y-37302438D02*
X62295237Y-37254819D01*
X62295237Y-37254819D02*
X62057142Y-37254819D01*
X62057142Y-37254819D02*
X61961904Y-37302438D01*
X61961904Y-37302438D02*
X61914285Y-37350057D01*
X61914285Y-37350057D02*
X61866666Y-37445295D01*
X61866666Y-37445295D02*
X61866666Y-37540533D01*
X61866666Y-37540533D02*
X61914285Y-37683390D01*
X61914285Y-37683390D02*
X62485713Y-38254819D01*
X62485713Y-38254819D02*
X61866666Y-38254819D01*
D12*
%TO.C,J6*%
X13500000Y-4340000D02*
X14000000Y-3840000D01*
X13500000Y-33340000D02*
X13500000Y-4340000D01*
X13500000Y-33340000D02*
X14000000Y-33840000D01*
X14000000Y-3840000D02*
X55000000Y-3840000D01*
X14000000Y-33840000D02*
X55000000Y-33840000D01*
D13*
X26000000Y-4840000D02*
X26000000Y-32840000D01*
X26000000Y-4840000D02*
X54000000Y-4840000D01*
X26000000Y-32840000D02*
X54000000Y-32840000D01*
X54000000Y-4840000D02*
X54000000Y-32840000D01*
D12*
X55000000Y-3840000D02*
X55000000Y-33840000D01*
X55000000Y-3840000D02*
X59000000Y-3840000D01*
X59000000Y-3840000D02*
X60000000Y-4840000D01*
X59000000Y-33840000D02*
X55000000Y-33840000D01*
X60000000Y-4840000D02*
X60000000Y-32840000D01*
X60000000Y-32840000D02*
X59000000Y-33840000D01*
D13*
%TO.C,SW1*%
X15900000Y-39000000D02*
X20000000Y-39000000D01*
X15900000Y-41400000D02*
X15900000Y-39000000D01*
X15900000Y-46200000D02*
X15900000Y-43600000D01*
X15900000Y-50800000D02*
X15900000Y-48400000D01*
X20000000Y-50800000D02*
X15900000Y-50800000D01*
X21500000Y-44900000D02*
X22500000Y-44900000D01*
X22000000Y-45400000D02*
X22000000Y-44400000D01*
X28100000Y-39000000D02*
X24000000Y-39000000D01*
X28100000Y-50800000D02*
X24000000Y-50800000D01*
X28100000Y-50800000D02*
X28100000Y-39000000D01*
X29200000Y-40800000D02*
X29800000Y-40800000D01*
X29500000Y-41100000D02*
X29200000Y-40800000D01*
X29800000Y-40800000D02*
X29500000Y-41100000D01*
X25000000Y-44900000D02*
G75*
G02*
X19000000Y-44900000I-3000000J0D01*
G01*
X19000000Y-44900000D02*
G75*
G02*
X25000000Y-44900000I3000000J0D01*
G01*
%TO.C,SW2*%
X52400000Y-39100000D02*
X56500000Y-39100000D01*
X52400000Y-41500000D02*
X52400000Y-39100000D01*
X52400000Y-46300000D02*
X52400000Y-43700000D01*
X52400000Y-50900000D02*
X52400000Y-48500000D01*
X56500000Y-50900000D02*
X52400000Y-50900000D01*
X58000000Y-45000000D02*
X59000000Y-45000000D01*
X58500000Y-45500000D02*
X58500000Y-44500000D01*
X64600000Y-39100000D02*
X60500000Y-39100000D01*
X64600000Y-50900000D02*
X60500000Y-50900000D01*
X64600000Y-50900000D02*
X64600000Y-39100000D01*
X65700000Y-40900000D02*
X66300000Y-40900000D01*
X66000000Y-41200000D02*
X65700000Y-40900000D01*
X66300000Y-40900000D02*
X66000000Y-41200000D01*
X61500000Y-45000000D02*
G75*
G02*
X55500000Y-45000000I-3000000J0D01*
G01*
X55500000Y-45000000D02*
G75*
G02*
X61500000Y-45000000I3000000J0D01*
G01*
%TD*%
%LPC*%
D14*
%TO.C,H2*%
X76500000Y-3500000D03*
%TD*%
%TO.C,H3*%
X76500000Y-56500000D03*
%TD*%
D15*
%TO.C,J8*%
X68677000Y-31836000D03*
X69677000Y-36236000D03*
X73677000Y-36236000D03*
X76677000Y-36236000D03*
%TD*%
D16*
%TO.C,J7*%
X74549000Y-42418000D03*
X74549000Y-44958000D03*
D17*
X74549000Y-47498000D03*
%TD*%
D14*
%TO.C,H1*%
X3500000Y-3500000D03*
%TD*%
D18*
%TO.C,IC2*%
X43224000Y-52070000D03*
X35724000Y-52070000D03*
%TD*%
D19*
%TO.C,JMIDIOUT1*%
X67520000Y-11500000D03*
X67520000Y-19000000D03*
X67520000Y-26500000D03*
X65020000Y-14000000D03*
X65020000Y-24000000D03*
X77420000Y-14000000D03*
X77420000Y-16500000D03*
X77420000Y-21500000D03*
X77420000Y-24000000D03*
%TD*%
%TO.C,JMIDIIN1*%
X12400000Y-26500000D03*
X12400000Y-19000000D03*
X12400000Y-11500000D03*
X14900000Y-24000000D03*
X14900000Y-14000000D03*
X2500000Y-24000000D03*
X2500000Y-21500000D03*
X2500000Y-16500000D03*
X2500000Y-14000000D03*
%TD*%
D14*
%TO.C,H4*%
X3500000Y-56500000D03*
%TD*%
D20*
%TO.C,J6*%
X58460000Y-27740000D03*
X58460000Y-25200000D03*
X58460000Y-22660000D03*
X58460000Y-20120000D03*
X58460000Y-17580000D03*
X58460000Y-15040000D03*
X58460000Y-12500000D03*
X58460000Y-9960000D03*
%TD*%
D21*
%TO.C,SW1*%
X29500000Y-42400000D03*
D22*
X29500000Y-47400000D03*
X29500000Y-44900000D03*
D23*
X22000000Y-50500000D03*
X22000000Y-39300000D03*
D22*
X15000000Y-47400000D03*
X15000000Y-42400000D03*
%TD*%
D21*
%TO.C,SW2*%
X66000000Y-42500000D03*
D22*
X66000000Y-47500000D03*
X66000000Y-45000000D03*
D23*
X58500000Y-50600000D03*
X58500000Y-39400000D03*
D22*
X51500000Y-47500000D03*
X51500000Y-42500000D03*
%TD*%
%LPD*%
M02*
